<?xml version="1.0" encoding="UTF-8" standalone="no"?>
<!DOCTYPE svg PUBLIC "-//W3C//DTD SVG 1.1//EN"
 "http://www.w3.org/Graphics/SVG/1.1/DTD/svg11.dtd">
<!-- Generated by graphviz version 12.2.1 (20241206.2353)
 -->
<!-- Title: PurdueModel Pages: 1 -->
<svg width="12913pt" height="688pt"
 viewBox="0.00 0.00 12912.50 688.00" xmlns="http://www.w3.org/2000/svg" xmlns:xlink="http://www.w3.org/1999/xlink">
<g id="graph0" class="graph" transform="scale(1 1) rotate(0) translate(36 652)">
<title>PurdueModel</title>
<polygon fill="white" stroke="none" points="-36,36 -36,-652 12876.5,-652 12876.5,36 -36,36"/>
<g id="clust1" class="cluster">
<title>cluster_operations</title>
<polygon fill="#0066cc" stroke="#0066cc" stroke-width="3" points="8,-519.5 8,-608 5340,-608 5340,-519.5 8,-519.5"/>
<text text-anchor="middle" x="2674" y="-592.6" font-family="Times,serif" font-size="12.00">Operations Systems</text>
<text text-anchor="middle" x="2674" y="-578.35" font-family="Times,serif" font-size="12.00">MES | Scheduling | OEE | Quality Management</text>
</g>
<g id="clust2" class="cluster">
<title>cluster_supervisory</title>
<polygon fill="#ff8800" stroke="#ff8800" stroke-width="3" points="5468,-519.5 5468,-608 6892,-608 6892,-519.5 5468,-519.5"/>
<text text-anchor="middle" x="6180" y="-592.6" font-family="Times,serif" font-size="12.00">Supervisory Control</text>
<text text-anchor="middle" x="6180" y="-578.35" font-family="Times,serif" font-size="12.00">SCADA | HMI | Alarming | Reporting | Trending</text>
</g>
<g id="clust3" class="cluster">
<title>cluster_process</title>
<polygon fill="#00aa44" stroke="#00aa44" stroke-width="3" points="7019,-519.5 7019,-608 10506,-608 10506,-519.5 7019,-519.5"/>
<text text-anchor="middle" x="8762.5" y="-592.6" font-family="Times,serif" font-size="12.00">Process Control</text>
<text text-anchor="middle" x="8762.5" y="-578.35" font-family="Times,serif" font-size="12.00">PLCs | RTUs</text>
</g>
<!-- operations_srv_0 -->
<g id="node1" class="node">
<title>operations_srv_0</title>
<path fill="#e8f5e8" stroke="black" d="M89.88,-563.5C89.88,-563.5 28.13,-563.5 28.13,-563.5 22.13,-563.5 16.12,-557.5 16.12,-551.5 16.12,-551.5 16.12,-539.5 16.12,-539.5 16.12,-533.5 22.12,-527.5 28.12,-527.5 28.12,-527.5 89.88,-527.5 89.88,-527.5 95.88,-527.5 101.88,-533.5 101.88,-539.5 101.88,-539.5 101.88,-551.5 101.88,-551.5 101.88,-557.5 95.88,-563.5 89.88,-563.5"/>
<text text-anchor="middle" x="59" y="-541.8" font-family="Arial" font-size="11.00">Ignition Server</text>
</g>
<!-- operations_cli_0 -->
<g id="node2" class="node">
<title>operations_cli_0</title>
<path fill="#fff8e1" stroke="black" d="M300.5,-563.5C300.5,-563.5 257.5,-563.5 257.5,-563.5 251.5,-563.5 245.5,-557.5 245.5,-551.5 245.5,-551.5 245.5,-539.5 245.5,-539.5 245.5,-533.5 251.5,-527.5 257.5,-527.5 257.5,-527.5 300.5,-527.5 300.5,-527.5 306.5,-527.5 312.5,-533.5 312.5,-539.5 312.5,-539.5 312.5,-551.5 312.5,-551.5 312.5,-557.5 306.5,-563.5 300.5,-563.5"/>
<text text-anchor="middle" x="279" y="-541.8" font-family="Arial" font-size="11.00">HMI Client</text>
</g>
<!-- operations_cli_1 -->
<g id="node3" class="node">
<title>operations_cli_1</title>
<path fill="#fff8e1" stroke="black" d="M511.5,-563.5C511.5,-563.5 468.5,-563.5 468.5,-563.5 462.5,-563.5 456.5,-557.5 456.5,-551.5 456.5,-551.5 456.5,-539.5 456.5,-539.5 456.5,-533.5 462.5,-527.5 468.5,-527.5 468.5,-527.5 511.5,-527.5 511.5,-527.5 517.5,-527.5 523.5,-533.5 523.5,-539.5 523.5,-539.5 523.5,-551.5 523.5,-551.5 523.5,-557.5 517.5,-563.5 511.5,-563.5"/>
<text text-anchor="middle" x="490" y="-541.8" font-family="Arial" font-size="11.00">HMI Client</text>
</g>
<!-- operations_cli_2 -->
<g id="node4" class="node">
<title>operations_cli_2</title>
<path fill="#fff8e1" stroke="black" d="M722.5,-563.5C722.5,-563.5 679.5,-563.5 679.5,-563.5 673.5,-563.5 667.5,-557.5 667.5,-551.5 667.5,-551.5 667.5,-539.5 667.5,-539.5 667.5,-533.5 673.5,-527.5 679.5,-527.5 679.5,-527.5 722.5,-527.5 722.5,-527.5 728.5,-527.5 734.5,-533.5 734.5,-539.5 734.5,-539.5 734.5,-551.5 734.5,-551.5 734.5,-557.5 728.5,-563.5 722.5,-563.5"/>
<text text-anchor="middle" x="701" y="-541.8" font-family="Arial" font-size="11.00">HMI Client</text>
</g>
<!-- operations_cli_3 -->
<g id="node5" class="node">
<title>operations_cli_3</title>
<path fill="#fff8e1" stroke="black" d="M933.5,-563.5C933.5,-563.5 890.5,-563.5 890.5,-563.5 884.5,-563.5 878.5,-557.5 878.5,-551.5 878.5,-551.5 878.5,-539.5 878.5,-539.5 878.5,-533.5 884.5,-527.5 890.5,-527.5 890.5,-527.5 933.5,-527.5 933.5,-527.5 939.5,-527.5 945.5,-533.5 945.5,-539.5 945.5,-539.5 945.5,-551.5 945.5,-551.5 945.5,-557.5 939.5,-563.5 933.5,-563.5"/>
<text text-anchor="middle" x="912" y="-541.8" font-family="Arial" font-size="11.00">HMI Client</text>
</g>
<!-- operations_cli_4 -->
<g id="node6" class="node">
<title>operations_cli_4</title>
<path fill="#fff8e1" stroke="black" d="M1144.5,-563.5C1144.5,-563.5 1101.5,-563.5 1101.5,-563.5 1095.5,-563.5 1089.5,-557.5 1089.5,-551.5 1089.5,-551.5 1089.5,-539.5 1089.5,-539.5 1089.5,-533.5 1095.5,-527.5 1101.5,-527.5 1101.5,-527.5 1144.5,-527.5 1144.5,-527.5 1150.5,-527.5 1156.5,-533.5 1156.5,-539.5 1156.5,-539.5 1156.5,-551.5 1156.5,-551.5 1156.5,-557.5 1150.5,-563.5 1144.5,-563.5"/>
<text text-anchor="middle" x="1123" y="-541.8" font-family="Arial" font-size="11.00">HMI Client</text>
</g>
<!-- operations_cli_5 -->
<g id="node7" class="node">
<title>operations_cli_5</title>
<path fill="#fff8e1" stroke="black" d="M1355.5,-563.5C1355.5,-563.5 1312.5,-563.5 1312.5,-563.5 1306.5,-563.5 1300.5,-557.5 1300.5,-551.5 1300.5,-551.5 1300.5,-539.5 1300.5,-539.5 1300.5,-533.5 1306.5,-527.5 1312.5,-527.5 1312.5,-527.5 1355.5,-527.5 1355.5,-527.5 1361.5,-527.5 1367.5,-533.5 1367.5,-539.5 1367.5,-539.5 1367.5,-551.5 1367.5,-551.5 1367.5,-557.5 1361.5,-563.5 1355.5,-563.5"/>
<text text-anchor="middle" x="1334" y="-541.8" font-family="Arial" font-size="11.00">HMI Client</text>
</g>
<!-- operations_cli_6 -->
<g id="node8" class="node">
<title>operations_cli_6</title>
<path fill="#fff8e1" stroke="black" d="M1566.5,-563.5C1566.5,-563.5 1523.5,-563.5 1523.5,-563.5 1517.5,-563.5 1511.5,-557.5 1511.5,-551.5 1511.5,-551.5 1511.5,-539.5 1511.5,-539.5 1511.5,-533.5 1517.5,-527.5 1523.5,-527.5 1523.5,-527.5 1566.5,-527.5 1566.5,-527.5 1572.5,-527.5 1578.5,-533.5 1578.5,-539.5 1578.5,-539.5 1578.5,-551.5 1578.5,-551.5 1578.5,-557.5 1572.5,-563.5 1566.5,-563.5"/>
<text text-anchor="middle" x="1545" y="-541.8" font-family="Arial" font-size="11.00">HMI Client</text>
</g>
<!-- operations_cli_7 -->
<g id="node9" class="node">
<title>operations_cli_7</title>
<path fill="#fff8e1" stroke="black" d="M1777.5,-563.5C1777.5,-563.5 1734.5,-563.5 1734.5,-563.5 1728.5,-563.5 1722.5,-557.5 1722.5,-551.5 1722.5,-551.5 1722.5,-539.5 1722.5,-539.5 1722.5,-533.5 1728.5,-527.5 1734.5,-527.5 1734.5,-527.5 1777.5,-527.5 1777.5,-527.5 1783.5,-527.5 1789.5,-533.5 1789.5,-539.5 1789.5,-539.5 1789.5,-551.5 1789.5,-551.5 1789.5,-557.5 1783.5,-563.5 1777.5,-563.5"/>
<text text-anchor="middle" x="1756" y="-541.8" font-family="Arial" font-size="11.00">HMI Client</text>
</g>
<!-- operations_cli_8 -->
<g id="node10" class="node">
<title>operations_cli_8</title>
<path fill="#fff8e1" stroke="black" d="M1988.5,-563.5C1988.5,-563.5 1945.5,-563.5 1945.5,-563.5 1939.5,-563.5 1933.5,-557.5 1933.5,-551.5 1933.5,-551.5 1933.5,-539.5 1933.5,-539.5 1933.5,-533.5 1939.5,-527.5 1945.5,-527.5 1945.5,-527.5 1988.5,-527.5 1988.5,-527.5 1994.5,-527.5 2000.5,-533.5 2000.5,-539.5 2000.5,-539.5 2000.5,-551.5 2000.5,-551.5 2000.5,-557.5 1994.5,-563.5 1988.5,-563.5"/>
<text text-anchor="middle" x="1967" y="-541.8" font-family="Arial" font-size="11.00">HMI Client</text>
</g>
<!-- operations_field_0 -->
<g id="node11" class="node">
<title>operations_field_0</title>
<ellipse fill="#f9f9f9" stroke="black" cx="2191" cy="-545.5" rx="46.91" ry="18"/>
<text text-anchor="middle" x="2191" y="-541.8" font-family="Arial" font-size="11.00">Field Device</text>
</g>
<!-- operations_field_1 -->
<g id="node12" class="node">
<title>operations_field_1</title>
<ellipse fill="#f9f9f9" stroke="black" cx="2429" cy="-545.5" rx="46.91" ry="18"/>
<text text-anchor="middle" x="2429" y="-541.8" font-family="Arial" font-size="11.00">Field Device</text>
</g>
<!-- operations_field_2 -->
<g id="node13" class="node">
<title>operations_field_2</title>
<ellipse fill="#f9f9f9" stroke="black" cx="2667" cy="-545.5" rx="46.91" ry="18"/>
<text text-anchor="middle" x="2667" y="-541.8" font-family="Arial" font-size="11.00">Field Device</text>
</g>
<!-- operations_field_3 -->
<g id="node14" class="node">
<title>operations_field_3</title>
<ellipse fill="#f9f9f9" stroke="black" cx="2905" cy="-545.5" rx="46.91" ry="18"/>
<text text-anchor="middle" x="2905" y="-541.8" font-family="Arial" font-size="11.00">Field Device</text>
</g>
<!-- operations_field_4 -->
<g id="node15" class="node">
<title>operations_field_4</title>
<ellipse fill="#f9f9f9" stroke="black" cx="3143" cy="-545.5" rx="46.91" ry="18"/>
<text text-anchor="middle" x="3143" y="-541.8" font-family="Arial" font-size="11.00">Field Device</text>
</g>
<!-- operations_field_5 -->
<g id="node16" class="node">
<title>operations_field_5</title>
<ellipse fill="#f9f9f9" stroke="black" cx="3381" cy="-545.5" rx="46.91" ry="18"/>
<text text-anchor="middle" x="3381" y="-541.8" font-family="Arial" font-size="11.00">Field Device</text>
</g>
<!-- operations_field_6 -->
<g id="node17" class="node">
<title>operations_field_6</title>
<ellipse fill="#f9f9f9" stroke="black" cx="3619" cy="-545.5" rx="46.91" ry="18"/>
<text text-anchor="middle" x="3619" y="-541.8" font-family="Arial" font-size="11.00">Field Device</text>
</g>
<!-- operations_field_7 -->
<g id="node18" class="node">
<title>operations_field_7</title>
<ellipse fill="#f9f9f9" stroke="black" cx="3857" cy="-545.5" rx="46.91" ry="18"/>
<text text-anchor="middle" x="3857" y="-541.8" font-family="Arial" font-size="11.00">Field Device</text>
</g>
<!-- operations_field_8 -->
<g id="node19" class="node">
<title>operations_field_8</title>
<ellipse fill="#f9f9f9" stroke="black" cx="4095" cy="-545.5" rx="46.91" ry="18"/>
<text text-anchor="middle" x="4095" y="-541.8" font-family="Arial" font-size="11.00">Field Device</text>
</g>
<!-- operations_field_9 -->
<g id="node20" class="node">
<title>operations_field_9</title>
<ellipse fill="#f9f9f9" stroke="black" cx="4333" cy="-545.5" rx="46.91" ry="18"/>
<text text-anchor="middle" x="4333" y="-541.8" font-family="Arial" font-size="11.00">Field Device</text>
</g>
<!-- operations_field_10 -->
<g id="node21" class="node">
<title>operations_field_10</title>
<ellipse fill="#f9f9f9" stroke="black" cx="4571" cy="-545.5" rx="46.91" ry="18"/>
<text text-anchor="middle" x="4571" y="-541.8" font-family="Arial" font-size="11.00">Field Device</text>
</g>
<!-- operations_field_11 -->
<g id="node22" class="node">
<title>operations_field_11</title>
<ellipse fill="#f9f9f9" stroke="black" cx="4809" cy="-545.5" rx="46.91" ry="18"/>
<text text-anchor="middle" x="4809" y="-541.8" font-family="Arial" font-size="11.00">Field Device</text>
</g>
<!-- operations_field_12 -->
<g id="node23" class="node">
<title>operations_field_12</title>
<ellipse fill="#f9f9f9" stroke="black" cx="5047" cy="-545.5" rx="46.91" ry="18"/>
<text text-anchor="middle" x="5047" y="-541.8" font-family="Arial" font-size="11.00">Field Device</text>
</g>
<!-- operations_field_13 -->
<g id="node24" class="node">
<title>operations_field_13</title>
<ellipse fill="#f9f9f9" stroke="black" cx="5285" cy="-545.5" rx="46.91" ry="18"/>
<text text-anchor="middle" x="5285" y="-541.8" font-family="Arial" font-size="11.00">Field Device</text>
</g>
<!-- supervisory_gw_0 -->
<g id="node25" class="node">
<title>supervisory_gw_0</title>
<polygon fill="#e3f2fd" stroke="black" points="5638.1,-551.06 5557,-563.5 5475.9,-551.06 5475.98,-530.94 5638.02,-530.94 5638.1,-551.06"/>
<text text-anchor="middle" x="5557" y="-541.8" font-family="Arial" font-size="11.00">Industrial Gateway</text>
</g>
<!-- supervisory_ctrl_0 -->
<g id="node26" class="node">
<title>supervisory_ctrl_0</title>
<path fill="#fff3e0" stroke="black" d="M5875.62,-563.5C5875.62,-563.5 5794.38,-563.5 5794.38,-563.5 5788.38,-563.5 5782.38,-557.5 5782.38,-551.5 5782.38,-551.5 5782.38,-539.5 5782.38,-539.5 5782.38,-533.5 5788.38,-527.5 5794.38,-527.5 5794.38,-527.5 5875.62,-527.5 5875.62,-527.5 5881.62,-527.5 5887.62,-533.5 5887.62,-539.5 5887.62,-539.5 5887.62,-551.5 5887.62,-551.5 5887.62,-557.5 5881.62,-563.5 5875.62,-563.5"/>
<text text-anchor="middle" x="5835" y="-541.8" font-family="Arial" font-size="11.00">Allen&#45;Bradley PLC</text>
</g>
<!-- supervisory_ctrl_1 -->
<g id="node27" class="node">
<title>supervisory_ctrl_1</title>
<path fill="#fff3e0" stroke="black" d="M6124.62,-563.5C6124.62,-563.5 6043.38,-563.5 6043.38,-563.5 6037.38,-563.5 6031.38,-557.5 6031.38,-551.5 6031.38,-551.5 6031.38,-539.5 6031.38,-539.5 6031.38,-533.5 6037.38,-527.5 6043.38,-527.5 6043.38,-527.5 6124.62,-527.5 6124.62,-527.5 6130.62,-527.5 6136.62,-533.5 6136.62,-539.5 6136.62,-539.5 6136.62,-551.5 6136.62,-551.5 6136.62,-557.5 6130.62,-563.5 6124.62,-563.5"/>
<text text-anchor="middle" x="6084" y="-541.8" font-family="Arial" font-size="11.00">Allen&#45;Bradley PLC</text>
</g>
<!-- supervisory_ctrl_2 -->
<g id="node28" class="node">
<title>supervisory_ctrl_2</title>
<path fill="#fff3e0" stroke="black" d="M6373.62,-563.5C6373.62,-563.5 6292.38,-563.5 6292.38,-563.5 6286.38,-563.5 6280.38,-557.5 6280.38,-551.5 6280.38,-551.5 6280.38,-539.5 6280.38,-539.5 6280.38,-533.5 6286.38,-527.5 6292.38,-527.5 6292.38,-527.5 6373.62,-527.5 6373.62,-527.5 6379.62,-527.5 6385.62,-533.5 6385.62,-539.5 6385.62,-539.5 6385.62,-551.5 6385.62,-551.5 6385.62,-557.5 6379.62,-563.5 6373.62,-563.5"/>
<text text-anchor="middle" x="6333" y="-541.8" font-family="Arial" font-size="11.00">Allen&#45;Bradley PLC</text>
</g>
<!-- supervisory_ctrl_3 -->
<g id="node29" class="node">
<title>supervisory_ctrl_3</title>
<path fill="#fff3e0" stroke="black" d="M6622.62,-563.5C6622.62,-563.5 6541.38,-563.5 6541.38,-563.5 6535.38,-563.5 6529.38,-557.5 6529.38,-551.5 6529.38,-551.5 6529.38,-539.5 6529.38,-539.5 6529.38,-533.5 6535.38,-527.5 6541.38,-527.5 6541.38,-527.5 6622.62,-527.5 6622.62,-527.5 6628.62,-527.5 6634.62,-533.5 6634.62,-539.5 6634.62,-539.5 6634.62,-551.5 6634.62,-551.5 6634.62,-557.5 6628.62,-563.5 6622.62,-563.5"/>
<text text-anchor="middle" x="6582" y="-541.8" font-family="Arial" font-size="11.00">Allen&#45;Bradley PLC</text>
</g>
<!-- supervisory_ctrl_4 -->
<g id="node30" class="node">
<title>supervisory_ctrl_4</title>
<path fill="#fff3e0" stroke="black" d="M6871.62,-563.5C6871.62,-563.5 6790.38,-563.5 6790.38,-563.5 6784.38,-563.5 6778.38,-557.5 6778.38,-551.5 6778.38,-551.5 6778.38,-539.5 6778.38,-539.5 6778.38,-533.5 6784.38,-527.5 6790.38,-527.5 6790.38,-527.5 6871.62,-527.5 6871.62,-527.5 6877.62,-527.5 6883.62,-533.5 6883.62,-539.5 6883.62,-539.5 6883.62,-551.5 6883.62,-551.5 6883.62,-557.5 6877.62,-563.5 6871.62,-563.5"/>
<text text-anchor="middle" x="6831" y="-541.8" font-family="Arial" font-size="11.00">Allen&#45;Bradley PLC</text>
</g>
<!-- process_ctrl_0 -->
<g id="node31" class="node">
<title>process_ctrl_0</title>
<path fill="#fff3e0" stroke="black" d="M7120.62,-563.5C7120.62,-563.5 7039.38,-563.5 7039.38,-563.5 7033.38,-563.5 7027.38,-557.5 7027.38,-551.5 7027.38,-551.5 7027.38,-539.5 7027.38,-539.5 7027.38,-533.5 7033.38,-527.5 7039.38,-527.5 7039.38,-527.5 7120.62,-527.5 7120.62,-527.5 7126.62,-527.5 7132.62,-533.5 7132.62,-539.5 7132.62,-539.5 7132.62,-551.5 7132.62,-551.5 7132.62,-557.5 7126.62,-563.5 7120.62,-563.5"/>
<text text-anchor="middle" x="7080" y="-541.8" font-family="Arial" font-size="11.00">Allen&#45;Bradley PLC</text>
</g>
<!-- process_ctrl_1 -->
<g id="node32" class="node">
<title>process_ctrl_1</title>
<path fill="#fff3e0" stroke="black" d="M7369.62,-563.5C7369.62,-563.5 7288.38,-563.5 7288.38,-563.5 7282.38,-563.5 7276.38,-557.5 7276.38,-551.5 7276.38,-551.5 7276.38,-539.5 7276.38,-539.5 7276.38,-533.5 7282.38,-527.5 7288.38,-527.5 7288.38,-527.5 7369.62,-527.5 7369.62,-527.5 7375.62,-527.5 7381.62,-533.5 7381.62,-539.5 7381.62,-539.5 7381.62,-551.5 7381.62,-551.5 7381.62,-557.5 7375.62,-563.5 7369.62,-563.5"/>
<text text-anchor="middle" x="7329" y="-541.8" font-family="Arial" font-size="11.00">Allen&#45;Bradley PLC</text>
</g>
<!-- process_ctrl_2 -->
<g id="node33" class="node">
<title>process_ctrl_2</title>
<path fill="#fff3e0" stroke="black" d="M7618.62,-563.5C7618.62,-563.5 7537.38,-563.5 7537.38,-563.5 7531.38,-563.5 7525.38,-557.5 7525.38,-551.5 7525.38,-551.5 7525.38,-539.5 7525.38,-539.5 7525.38,-533.5 7531.38,-527.5 7537.38,-527.5 7537.38,-527.5 7618.62,-527.5 7618.62,-527.5 7624.62,-527.5 7630.62,-533.5 7630.62,-539.5 7630.62,-539.5 7630.62,-551.5 7630.62,-551.5 7630.62,-557.5 7624.62,-563.5 7618.62,-563.5"/>
<text text-anchor="middle" x="7578" y="-541.8" font-family="Arial" font-size="11.00">Allen&#45;Bradley PLC</text>
</g>
<!-- process_ctrl_3 -->
<g id="node34" class="node">
<title>process_ctrl_3</title>
<path fill="#fff3e0" stroke="black" d="M7867.62,-563.5C7867.62,-563.5 7786.38,-563.5 7786.38,-563.5 7780.38,-563.5 7774.38,-557.5 7774.38,-551.5 7774.38,-551.5 7774.38,-539.5 7774.38,-539.5 7774.38,-533.5 7780.38,-527.5 7786.38,-527.5 7786.38,-527.5 7867.62,-527.5 7867.62,-527.5 7873.62,-527.5 7879.62,-533.5 7879.62,-539.5 7879.62,-539.5 7879.62,-551.5 7879.62,-551.5 7879.62,-557.5 7873.62,-563.5 7867.62,-563.5"/>
<text text-anchor="middle" x="7827" y="-541.8" font-family="Arial" font-size="11.00">Allen&#45;Bradley PLC</text>
</g>
<!-- process_field_0 -->
<g id="node35" class="node">
<title>process_field_0</title>
<ellipse fill="#f9f9f9" stroke="black" cx="8071" cy="-545.5" rx="46.91" ry="18"/>
<text text-anchor="middle" x="8071" y="-541.8" font-family="Arial" font-size="11.00">Field Device</text>
</g>
<!-- process_field_1 -->
<g id="node36" class="node">
<title>process_field_1</title>
<ellipse fill="#f9f9f9" stroke="black" cx="8309" cy="-545.5" rx="46.91" ry="18"/>
<text text-anchor="middle" x="8309" y="-541.8" font-family="Arial" font-size="11.00">Field Device</text>
</g>
<!-- process_field_2 -->
<g id="node37" class="node">
<title>process_field_2</title>
<ellipse fill="#f9f9f9" stroke="black" cx="8547" cy="-545.5" rx="46.91" ry="18"/>
<text text-anchor="middle" x="8547" y="-541.8" font-family="Arial" font-size="11.00">Field Device</text>
</g>
<!-- process_field_3 -->
<g id="node38" class="node">
<title>process_field_3</title>
<ellipse fill="#f9f9f9" stroke="black" cx="8785" cy="-545.5" rx="46.91" ry="18"/>
<text text-anchor="middle" x="8785" y="-541.8" font-family="Arial" font-size="11.00">Field Device</text>
</g>
<!-- process_field_4 -->
<g id="node39" class="node">
<title>process_field_4</title>
<ellipse fill="#f9f9f9" stroke="black" cx="9023" cy="-545.5" rx="46.91" ry="18"/>
<text text-anchor="middle" x="9023" y="-541.8" font-family="Arial" font-size="11.00">Field Device</text>
</g>
<!-- process_field_5 -->
<g id="node40" class="node">
<title>process_field_5</title>
<ellipse fill="#f9f9f9" stroke="black" cx="9261" cy="-545.5" rx="46.91" ry="18"/>
<text text-anchor="middle" x="9261" y="-541.8" font-family="Arial" font-size="11.00">Field Device</text>
</g>
<!-- process_field_6 -->
<g id="node41" class="node">
<title>process_field_6</title>
<ellipse fill="#f9f9f9" stroke="black" cx="9499" cy="-545.5" rx="46.91" ry="18"/>
<text text-anchor="middle" x="9499" y="-541.8" font-family="Arial" font-size="11.00">Field Device</text>
</g>
<!-- process_field_7 -->
<g id="node42" class="node">
<title>process_field_7</title>
<ellipse fill="#f9f9f9" stroke="black" cx="9737" cy="-545.5" rx="46.91" ry="18"/>
<text text-anchor="middle" x="9737" y="-541.8" font-family="Arial" font-size="11.00">Field Device</text>
</g>
<!-- process_field_8 -->
<g id="node43" class="node">
<title>process_field_8</title>
<ellipse fill="#f9f9f9" stroke="black" cx="9975" cy="-545.5" rx="46.91" ry="18"/>
<text text-anchor="middle" x="9975" y="-541.8" font-family="Arial" font-size="11.00">Field Device</text>
</g>
<!-- process_field_9 -->
<g id="node44" class="node">
<title>process_field_9</title>
<ellipse fill="#f9f9f9" stroke="black" cx="10213" cy="-545.5" rx="46.91" ry="18"/>
<text text-anchor="middle" x="10213" y="-541.8" font-family="Arial" font-size="11.00">Field Device</text>
</g>
<!-- process_field_10 -->
<g id="node45" class="node">
<title>process_field_10</title>
<ellipse fill="#f9f9f9" stroke="black" cx="10451" cy="-545.5" rx="46.91" ry="18"/>
<text text-anchor="middle" x="10451" y="-541.8" font-family="Arial" font-size="11.00">Field Device</text>
</g>
<!-- firewall2 -->
<g id="node46" class="node">
<title>firewall2</title>
<polygon fill="#ffcccc" stroke="black" points="10730,-563.5 10641.84,-545.5 10730,-527.5 10818.16,-545.5 10730,-563.5"/>
<text text-anchor="middle" x="10730" y="-541.8" font-family="Arial" font-size="11.00">Industrial Firewall</text>
</g>
<!-- operations_anchor -->
<!-- supervisory_anchor -->
<!-- operations_anchor&#45;&gt;supervisory_anchor -->
<!-- process_anchor -->
<!-- supervisory_anchor&#45;&gt;process_anchor -->
<!-- 141.81.0.10 -->
<g id="node50" class="node">
<title>141.81.0.10</title>
<path fill="lightgrey" stroke="black" d="M11434.5,-264C11434.5,-264 11483.5,-264 11483.5,-264 11489.5,-264 11495.5,-270 11495.5,-276 11495.5,-276 11495.5,-288 11495.5,-288 11495.5,-294 11489.5,-300 11483.5,-300 11483.5,-300 11434.5,-300 11434.5,-300 11428.5,-300 11422.5,-294 11422.5,-288 11422.5,-288 11422.5,-276 11422.5,-276 11422.5,-270 11428.5,-264 11434.5,-264"/>
<text text-anchor="middle" x="11459" y="-278.3" font-family="Arial" font-size="11.00">141.81.0.10</text>
</g>
<!-- 141.81.0.63 -->
<g id="node51" class="node">
<title>141.81.0.63</title>
<path fill="lightgrey" stroke="black" d="M11217.5,-0.5C11217.5,-0.5 11266.5,-0.5 11266.5,-0.5 11272.5,-0.5 11278.5,-6.5 11278.5,-12.5 11278.5,-12.5 11278.5,-24.5 11278.5,-24.5 11278.5,-30.5 11272.5,-36.5 11266.5,-36.5 11266.5,-36.5 11217.5,-36.5 11217.5,-36.5 11211.5,-36.5 11205.5,-30.5 11205.5,-24.5 11205.5,-24.5 11205.5,-12.5 11205.5,-12.5 11205.5,-6.5 11211.5,-0.5 11217.5,-0.5"/>
<text text-anchor="middle" x="11242" y="-14.8" font-family="Arial" font-size="11.00">141.81.0.63</text>
</g>
<!-- 141.81.0.10&#45;&gt;141.81.0.63 -->
<g id="edge3" class="edge">
<title>141.81.0.10&#45;&gt;141.81.0.63</title>
<path fill="none" stroke="#00aa44" stroke-width="2" d="M11422.19,-282C11360.28,-282 11242,-282 11242,-282 11242,-282 11242,-49.64 11242,-49.64"/>
<polygon fill="#00aa44" stroke="#00aa44" stroke-width="2" points="11245.5,-49.64 11242,-39.64 11238.5,-49.64 11245.5,-49.64"/>
<text text-anchor="middle" x="11265.25" y="-146.95" font-family="Arial" font-size="9.00">EtherNet/IP</text>
</g>
<!-- 141.81.0.23 -->
<g id="node54" class="node">
<title>141.81.0.23</title>
<path fill="lightgrey" stroke="black" d="M11434.5,-0.5C11434.5,-0.5 11483.5,-0.5 11483.5,-0.5 11489.5,-0.5 11495.5,-6.5 11495.5,-12.5 11495.5,-12.5 11495.5,-24.5 11495.5,-24.5 11495.5,-30.5 11489.5,-36.5 11483.5,-36.5 11483.5,-36.5 11434.5,-36.5 11434.5,-36.5 11428.5,-36.5 11422.5,-30.5 11422.5,-24.5 11422.5,-24.5 11422.5,-12.5 11422.5,-12.5 11422.5,-6.5 11428.5,-0.5 11434.5,-0.5"/>
<text text-anchor="middle" x="11459" y="-14.8" font-family="Arial" font-size="11.00">141.81.0.23</text>
</g>
<!-- 141.81.0.10&#45;&gt;141.81.0.23 -->
<g id="edge5" class="edge">
<title>141.81.0.10&#45;&gt;141.81.0.23</title>
<path fill="none" stroke="#00aa44" stroke-width="2" d="M11459,-263.89C11459,-263.89 11459,-49.77 11459,-49.77"/>
<polygon fill="#00aa44" stroke="#00aa44" stroke-width="2" points="11462.5,-49.77 11459,-39.77 11455.5,-49.77 11462.5,-49.77"/>
<text text-anchor="middle" x="11482.25" y="-146.95" font-family="Arial" font-size="9.00">EtherNet/IP</text>
</g>
<!-- 141.81.0.43 -->
<g id="node57" class="node">
<title>141.81.0.43</title>
<path fill="lightgrey" stroke="black" d="M11651.5,-0.5C11651.5,-0.5 11700.5,-0.5 11700.5,-0.5 11706.5,-0.5 11712.5,-6.5 11712.5,-12.5 11712.5,-12.5 11712.5,-24.5 11712.5,-24.5 11712.5,-30.5 11706.5,-36.5 11700.5,-36.5 11700.5,-36.5 11651.5,-36.5 11651.5,-36.5 11645.5,-36.5 11639.5,-30.5 11639.5,-24.5 11639.5,-24.5 11639.5,-12.5 11639.5,-12.5 11639.5,-6.5 11645.5,-0.5 11651.5,-0.5"/>
<text text-anchor="middle" x="11676" y="-14.8" font-family="Arial" font-size="11.00">141.81.0.43</text>
</g>
<!-- 141.81.0.10&#45;&gt;141.81.0.43 -->
<g id="edge7" class="edge">
<title>141.81.0.10&#45;&gt;141.81.0.43</title>
<path fill="none" stroke="#00aa44" stroke-width="2" d="M11495.81,-282C11557.72,-282 11676,-282 11676,-282 11676,-282 11676,-49.64 11676,-49.64"/>
<polygon fill="#00aa44" stroke="#00aa44" stroke-width="2" points="11679.5,-49.64 11676,-39.64 11672.5,-49.64 11679.5,-49.64"/>
<text text-anchor="middle" x="11699.25" y="-146.95" font-family="Arial" font-size="9.00">EtherNet/IP</text>
</g>
<!-- 192.168.10.121 -->
<g id="node52" class="node">
<title>192.168.10.121</title>
<path fill="lightgrey" stroke="black" d="M11868.5,-527.5C11868.5,-527.5 11935.5,-527.5 11935.5,-527.5 11941.5,-527.5 11947.5,-533.5 11947.5,-539.5 11947.5,-539.5 11947.5,-551.5 11947.5,-551.5 11947.5,-557.5 11941.5,-563.5 11935.5,-563.5 11935.5,-563.5 11868.5,-563.5 11868.5,-563.5 11862.5,-563.5 11856.5,-557.5 11856.5,-551.5 11856.5,-551.5 11856.5,-539.5 11856.5,-539.5 11856.5,-533.5 11862.5,-527.5 11868.5,-527.5"/>
<text text-anchor="middle" x="11902" y="-541.8" font-family="Arial" font-size="11.00">192.168.10.121</text>
</g>
<!-- 192.168.10.105 -->
<g id="node53" class="node">
<title>192.168.10.105</title>
<path fill="lightgrey" stroke="black" d="M11868.5,-264C11868.5,-264 11935.5,-264 11935.5,-264 11941.5,-264 11947.5,-270 11947.5,-276 11947.5,-276 11947.5,-288 11947.5,-288 11947.5,-294 11941.5,-300 11935.5,-300 11935.5,-300 11868.5,-300 11868.5,-300 11862.5,-300 11856.5,-294 11856.5,-288 11856.5,-288 11856.5,-276 11856.5,-276 11856.5,-270 11862.5,-264 11868.5,-264"/>
<text text-anchor="middle" x="11902" y="-278.3" font-family="Arial" font-size="11.00">192.168.10.105</text>
</g>
<!-- 192.168.10.121&#45;&gt;192.168.10.105 -->
<g id="edge4" class="edge">
<title>192.168.10.121&#45;&gt;192.168.10.105</title>
<path fill="none" stroke="#00aa44" stroke-width="2" d="M11902,-527.39C11902,-527.39 11902,-313.27 11902,-313.27"/>
<polygon fill="#00aa44" stroke="#00aa44" stroke-width="2" points="11905.5,-313.27 11902,-303.27 11898.5,-313.27 11905.5,-313.27"/>
<text text-anchor="middle" x="11925.25" y="-410.45" font-family="Arial" font-size="9.00">EtherNet/IP</text>
</g>
<!-- 192.168.10.120 -->
<g id="node65" class="node">
<title>192.168.10.120</title>
<path fill="lightgrey" stroke="black" d="M11868.5,-0.5C11868.5,-0.5 11935.5,-0.5 11935.5,-0.5 11941.5,-0.5 11947.5,-6.5 11947.5,-12.5 11947.5,-12.5 11947.5,-24.5 11947.5,-24.5 11947.5,-30.5 11941.5,-36.5 11935.5,-36.5 11935.5,-36.5 11868.5,-36.5 11868.5,-36.5 11862.5,-36.5 11856.5,-30.5 11856.5,-24.5 11856.5,-24.5 11856.5,-12.5 11856.5,-12.5 11856.5,-6.5 11862.5,-0.5 11868.5,-0.5"/>
<text text-anchor="middle" x="11902" y="-14.8" font-family="Arial" font-size="11.00">192.168.10.120</text>
</g>
<!-- 192.168.10.105&#45;&gt;192.168.10.120 -->
<g id="edge12" class="edge">
<title>192.168.10.105&#45;&gt;192.168.10.120</title>
<path fill="none" stroke="#00aa44" stroke-width="2" d="M11902,-263.89C11902,-263.89 11902,-49.77 11902,-49.77"/>
<polygon fill="#00aa44" stroke="#00aa44" stroke-width="2" points="11905.5,-49.77 11902,-39.77 11898.5,-49.77 11905.5,-49.77"/>
<text text-anchor="middle" x="11925.25" y="-146.95" font-family="Arial" font-size="9.00">EtherNet/IP</text>
</g>
<!-- 192.168.0.30 -->
<g id="node55" class="node">
<title>192.168.0.30</title>
<path fill="lightgrey" stroke="black" d="M12103.5,-527.5C12103.5,-527.5 12158.5,-527.5 12158.5,-527.5 12164.5,-527.5 12170.5,-533.5 12170.5,-539.5 12170.5,-539.5 12170.5,-551.5 12170.5,-551.5 12170.5,-557.5 12164.5,-563.5 12158.5,-563.5 12158.5,-563.5 12103.5,-563.5 12103.5,-563.5 12097.5,-563.5 12091.5,-557.5 12091.5,-551.5 12091.5,-551.5 12091.5,-539.5 12091.5,-539.5 12091.5,-533.5 12097.5,-527.5 12103.5,-527.5"/>
<text text-anchor="middle" x="12131" y="-541.8" font-family="Arial" font-size="11.00">192.168.0.30</text>
</g>
<!-- 192.168.0.65 -->
<g id="node56" class="node">
<title>192.168.0.65</title>
<path fill="lightgrey" stroke="black" d="M12103.5,-264C12103.5,-264 12158.5,-264 12158.5,-264 12164.5,-264 12170.5,-270 12170.5,-276 12170.5,-276 12170.5,-288 12170.5,-288 12170.5,-294 12164.5,-300 12158.5,-300 12158.5,-300 12103.5,-300 12103.5,-300 12097.5,-300 12091.5,-294 12091.5,-288 12091.5,-288 12091.5,-276 12091.5,-276 12091.5,-270 12097.5,-264 12103.5,-264"/>
<text text-anchor="middle" x="12131" y="-278.3" font-family="Arial" font-size="11.00">192.168.0.65</text>
</g>
<!-- 192.168.0.30&#45;&gt;192.168.0.65 -->
<g id="edge6" class="edge">
<title>192.168.0.30&#45;&gt;192.168.0.65</title>
<path fill="none" stroke="#00aa44" stroke-width="2" d="M12131,-527.39C12131,-527.39 12131,-313.27 12131,-313.27"/>
<polygon fill="#00aa44" stroke="#00aa44" stroke-width="2" points="12134.5,-313.27 12131,-303.27 12127.5,-313.27 12134.5,-313.27"/>
<text text-anchor="middle" x="12154.25" y="-410.45" font-family="Arial" font-size="9.00">EtherNet/IP</text>
</g>
<!-- 141.81.0.83 -->
<g id="node58" class="node">
<title>141.81.0.83</title>
<path fill="lightgrey" stroke="black" d="M11434.5,-527.5C11434.5,-527.5 11483.5,-527.5 11483.5,-527.5 11489.5,-527.5 11495.5,-533.5 11495.5,-539.5 11495.5,-539.5 11495.5,-551.5 11495.5,-551.5 11495.5,-557.5 11489.5,-563.5 11483.5,-563.5 11483.5,-563.5 11434.5,-563.5 11434.5,-563.5 11428.5,-563.5 11422.5,-557.5 11422.5,-551.5 11422.5,-551.5 11422.5,-539.5 11422.5,-539.5 11422.5,-533.5 11428.5,-527.5 11434.5,-527.5"/>
<text text-anchor="middle" x="11459" y="-541.8" font-family="Arial" font-size="11.00">141.81.0.83</text>
</g>
<!-- 141.81.0.83&#45;&gt;141.81.0.10 -->
<g id="edge8" class="edge">
<title>141.81.0.83&#45;&gt;141.81.0.10</title>
<path fill="none" stroke="#00aa44" stroke-width="2" d="M11459,-527.39C11459,-527.39 11459,-313.27 11459,-313.27"/>
<polygon fill="#00aa44" stroke="#00aa44" stroke-width="2" points="11462.5,-313.27 11459,-303.27 11455.5,-313.27 11462.5,-313.27"/>
<text text-anchor="middle" x="11482.25" y="-410.45" font-family="Arial" font-size="9.00">EtherNet/IP</text>
</g>
<!-- 192.168.1.24 -->
<g id="node59" class="node">
<title>192.168.1.24</title>
<path fill="lightgrey" stroke="black" d="M12326.5,-527.5C12326.5,-527.5 12381.5,-527.5 12381.5,-527.5 12387.5,-527.5 12393.5,-533.5 12393.5,-539.5 12393.5,-539.5 12393.5,-551.5 12393.5,-551.5 12393.5,-557.5 12387.5,-563.5 12381.5,-563.5 12381.5,-563.5 12326.5,-563.5 12326.5,-563.5 12320.5,-563.5 12314.5,-557.5 12314.5,-551.5 12314.5,-551.5 12314.5,-539.5 12314.5,-539.5 12314.5,-533.5 12320.5,-527.5 12326.5,-527.5"/>
<text text-anchor="middle" x="12354" y="-541.8" font-family="Arial" font-size="11.00">192.168.1.24</text>
</g>
<!-- 192.168.1.22 -->
<g id="node60" class="node">
<title>192.168.1.22</title>
<path fill="lightgrey" stroke="black" d="M12326.5,-264C12326.5,-264 12381.5,-264 12381.5,-264 12387.5,-264 12393.5,-270 12393.5,-276 12393.5,-276 12393.5,-288 12393.5,-288 12393.5,-294 12387.5,-300 12381.5,-300 12381.5,-300 12326.5,-300 12326.5,-300 12320.5,-300 12314.5,-294 12314.5,-288 12314.5,-288 12314.5,-276 12314.5,-276 12314.5,-270 12320.5,-264 12326.5,-264"/>
<text text-anchor="middle" x="12354" y="-278.3" font-family="Arial" font-size="11.00">192.168.1.22</text>
</g>
<!-- 192.168.1.24&#45;&gt;192.168.1.22 -->
<g id="edge9" class="edge">
<title>192.168.1.24&#45;&gt;192.168.1.22</title>
<path fill="none" stroke="#00aa44" stroke-width="2" d="M12354,-527.39C12354,-527.39 12354,-313.27 12354,-313.27"/>
<polygon fill="#00aa44" stroke="#00aa44" stroke-width="2" points="12357.5,-313.27 12354,-303.27 12350.5,-313.27 12357.5,-313.27"/>
<text text-anchor="middle" x="12377.25" y="-410.45" font-family="Arial" font-size="9.00">EtherNet/IP</text>
</g>
<!-- 192.168.1.69 -->
<g id="node61" class="node">
<title>192.168.1.69</title>
<path fill="lightgrey" stroke="black" d="M12549.5,-527.5C12549.5,-527.5 12604.5,-527.5 12604.5,-527.5 12610.5,-527.5 12616.5,-533.5 12616.5,-539.5 12616.5,-539.5 12616.5,-551.5 12616.5,-551.5 12616.5,-557.5 12610.5,-563.5 12604.5,-563.5 12604.5,-563.5 12549.5,-563.5 12549.5,-563.5 12543.5,-563.5 12537.5,-557.5 12537.5,-551.5 12537.5,-551.5 12537.5,-539.5 12537.5,-539.5 12537.5,-533.5 12543.5,-527.5 12549.5,-527.5"/>
<text text-anchor="middle" x="12577" y="-541.8" font-family="Arial" font-size="11.00">192.168.1.69</text>
</g>
<!-- 192.168.1.30 -->
<g id="node62" class="node">
<title>192.168.1.30</title>
<path fill="lightgrey" stroke="black" d="M12549.5,-264C12549.5,-264 12604.5,-264 12604.5,-264 12610.5,-264 12616.5,-270 12616.5,-276 12616.5,-276 12616.5,-288 12616.5,-288 12616.5,-294 12610.5,-300 12604.5,-300 12604.5,-300 12549.5,-300 12549.5,-300 12543.5,-300 12537.5,-294 12537.5,-288 12537.5,-288 12537.5,-276 12537.5,-276 12537.5,-270 12543.5,-264 12549.5,-264"/>
<text text-anchor="middle" x="12577" y="-278.3" font-family="Arial" font-size="11.00">192.168.1.30</text>
</g>
<!-- 192.168.1.69&#45;&gt;192.168.1.30 -->
<g id="edge10" class="edge">
<title>192.168.1.69&#45;&gt;192.168.1.30</title>
<path fill="none" stroke="#00aa44" stroke-width="2" d="M12577,-527.39C12577,-527.39 12577,-313.27 12577,-313.27"/>
<polygon fill="#00aa44" stroke="#00aa44" stroke-width="2" points="12580.5,-313.27 12577,-303.27 12573.5,-313.27 12580.5,-313.27"/>
<text text-anchor="middle" x="12600.25" y="-410.45" font-family="Arial" font-size="9.00">EtherNet/IP</text>
</g>
<!-- 10.1.1.164 -->
<g id="node63" class="node">
<title>10.1.1.164</title>
<path fill="lightgrey" stroke="black" d="M12772.5,-527.5C12772.5,-527.5 12815.5,-527.5 12815.5,-527.5 12821.5,-527.5 12827.5,-533.5 12827.5,-539.5 12827.5,-539.5 12827.5,-551.5 12827.5,-551.5 12827.5,-557.5 12821.5,-563.5 12815.5,-563.5 12815.5,-563.5 12772.5,-563.5 12772.5,-563.5 12766.5,-563.5 12760.5,-557.5 12760.5,-551.5 12760.5,-551.5 12760.5,-539.5 12760.5,-539.5 12760.5,-533.5 12766.5,-527.5 12772.5,-527.5"/>
<text text-anchor="middle" x="12794" y="-541.8" font-family="Arial" font-size="11.00">10.1.1.164</text>
</g>
<!-- 10.1.1.167 -->
<g id="node64" class="node">
<title>10.1.1.167</title>
<path fill="lightgrey" stroke="black" d="M12772.5,-264C12772.5,-264 12815.5,-264 12815.5,-264 12821.5,-264 12827.5,-270 12827.5,-276 12827.5,-276 12827.5,-288 12827.5,-288 12827.5,-294 12821.5,-300 12815.5,-300 12815.5,-300 12772.5,-300 12772.5,-300 12766.5,-300 12760.5,-294 12760.5,-288 12760.5,-288 12760.5,-276 12760.5,-276 12760.5,-270 12766.5,-264 12772.5,-264"/>
<text text-anchor="middle" x="12794" y="-278.3" font-family="Arial" font-size="11.00">10.1.1.167</text>
</g>
<!-- 10.1.1.164&#45;&gt;10.1.1.167 -->
<g id="edge11" class="edge">
<title>10.1.1.164&#45;&gt;10.1.1.167</title>
<path fill="none" stroke="#00aa44" stroke-width="2" d="M12794,-527.39C12794,-527.39 12794,-313.27 12794,-313.27"/>
<polygon fill="#00aa44" stroke="#00aa44" stroke-width="2" points="12797.5,-313.27 12794,-303.27 12790.5,-313.27 12797.5,-313.27"/>
<text text-anchor="middle" x="12817.25" y="-410.45" font-family="Arial" font-size="9.00">EtherNet/IP</text>
</g>
</g>
</svg>
