<?xml version="1.0" encoding="UTF-8" standalone="no"?>
<!DOCTYPE svg PUBLIC "-//W3C//DTD SVG 1.1//EN"
 "http://www.w3.org/Graphics/SVG/1.1/DTD/svg11.dtd">
<!-- Generated by graphviz version 12.2.1 (20241206.2353)
 -->
<!-- Title: HierarchicalNetwork Pages: 1 -->
<svg width="4143pt" height="741pt"
 viewBox="0.00 0.00 4143.23 741.42" xmlns="http://www.w3.org/2000/svg" xmlns:xlink="http://www.w3.org/1999/xlink">
<g id="graph0" class="graph" transform="scale(1 1) rotate(0) translate(4 737.42)">
<title>HierarchicalNetwork</title>
<polygon fill="white" stroke="none" points="-4,4 -4,-737.42 4139.23,-737.42 4139.23,4 -4,4"/>
<g id="clust1" class="cluster">
<title>cluster_internet</title>
<polygon fill="#e6f3ff" stroke="black" points="2526,-614.45 2526,-690.95 2596,-690.95 2596,-614.45 2526,-614.45"/>
<text text-anchor="middle" x="2561" y="-673.65" font-family="Times,serif" font-size="14.00">Internet</text>
</g>
<g id="clust2" class="cluster">
<title>cluster_gateway</title>
<polygon fill="#fff2e6" stroke="black" points="2479,-371.23 2479,-499.73 2643,-499.73 2643,-371.23 2479,-371.23"/>
<text text-anchor="middle" x="2561" y="-482.43" font-family="Times,serif" font-size="14.00">Gateway Router</text>
</g>
<g id="clust3" class="cluster">
<title>cluster_core</title>
<polygon fill="#e6ffe6" stroke="black" points="556,-190.5 556,-293.23 694,-293.23 694,-190.5 556,-190.5"/>
<text text-anchor="middle" x="625" y="-275.93" font-family="Times,serif" font-size="14.00">Core Networks</text>
</g>
<g id="clust4" class="cluster">
<title>cluster_aggregation</title>
<polygon fill="#ffe6e6" stroke="black" points="2310,-190.5 2310,-293.23 2998,-293.23 2998,-190.5 2310,-190.5"/>
<text text-anchor="middle" x="2654" y="-275.93" font-family="Times,serif" font-size="14.00">Aggregation Networks</text>
</g>
<g id="clust5" class="cluster">
<title>cluster_devices</title>
<polygon fill="#f5f5f5" stroke="black" points="8,-8 8,-112.5 3999,-112.5 3999,-8 8,-8"/>
<text text-anchor="middle" x="2003.5" y="-95.2" font-family="Times,serif" font-size="14.00">Computing Servers</text>
</g>
<g id="clust6" class="cluster">
<title>cluster_legend</title>
<polygon fill="#f9f9f9" stroke="black" points="2934,-577.73 2934,-725.42 3716,-725.42 3716,-577.73 2934,-577.73"/>
<text text-anchor="middle" x="3325" y="-710.02" font-family="Times,serif" font-size="12.00">Device Legend</text>
</g>
<!-- internet -->
<g id="node1" class="node">
<title>internet</title>
<polygon fill="white" stroke="black" points="2588,-658.45 2534,-658.45 2534,-622.45 2588,-622.45 2588,-658.45"/>
<text text-anchor="middle" x="2561" y="-636.95" font-family="Arial" font-size="10.00">Internet</text>
</g>
<!-- gateway_router -->
<g id="node2" class="node">
<title>gateway_router</title>
<polygon fill="#ffcc99" stroke="black" points="2561,-467.23 2487.25,-423.23 2561,-379.23 2634.75,-423.23 2561,-467.23"/>
<text text-anchor="middle" x="2561" y="-431.73" font-family="Arial" font-size="10.00">Cisco Router</text>
<text text-anchor="middle" x="2561" y="-419.73" font-family="Arial" font-size="10.00">10.1.1.164</text>
<text text-anchor="middle" x="2561" y="-407.73" font-family="Arial" font-size="10.00">(Layer 3)</text>
</g>
<!-- internet&#45;&gt;gateway_router -->
<g id="edge1" class="edge">
<title>internet&#45;&gt;gateway_router</title>
<path fill="none" stroke="black" d="M2561,-622.3C2561,-622.3 2561,-479.13 2561,-479.13"/>
<polygon fill="black" stroke="black" points="2564.5,-479.13 2561,-469.13 2557.5,-479.13 2564.5,-479.13"/>
<text text-anchor="middle" x="2571.5" y="-523.18" font-family="Arial" font-size="9.00">WAN</text>
</g>
<!-- core_net0 -->
<g id="node3" class="node">
<title>core_net0</title>
<ellipse fill="#99ff99" stroke="black" cx="625" cy="-229.61" rx="60.63" ry="31.11"/>
<text text-anchor="middle" x="625" y="-238.11" font-family="Arial" font-size="10.00">IT&#45;OT Network</text>
<text text-anchor="middle" x="625" y="-226.11" font-family="Arial" font-size="10.00">192.168.10.0/24</text>
<text text-anchor="middle" x="625" y="-214.11" font-family="Arial" font-size="10.00">EtherNet/IP</text>
</g>
<!-- gateway_router&#45;&gt;core_net0 -->
<g id="edge2" class="edge">
<title>gateway_router&#45;&gt;core_net0</title>
<path fill="none" stroke="black" d="M2486.88,-423C2132.17,-423 625,-423 625,-423 625,-423 625,-272.63 625,-272.63"/>
<polygon fill="black" stroke="black" points="628.5,-272.63 625,-262.63 621.5,-272.63 628.5,-272.63"/>
<text text-anchor="middle" x="1503.38" y="-316.68" font-family="Arial" font-size="9.00">Route</text>
</g>
<!-- agg_net0 -->
<g id="node4" class="node">
<title>agg_net0</title>
<ellipse fill="#ff9999" stroke="black" cx="2375" cy="-229.61" rx="56.92" ry="31.11"/>
<text text-anchor="middle" x="2375" y="-238.11" font-family="Arial" font-size="10.00">IT&#45;OT Network</text>
<text text-anchor="middle" x="2375" y="-226.11" font-family="Arial" font-size="10.00">10.1.1.0/24</text>
<text text-anchor="middle" x="2375" y="-214.11" font-family="Arial" font-size="10.00">EtherNet/IP</text>
</g>
<!-- gateway_router&#45;&gt;agg_net0 -->
<g id="edge3" class="edge">
<title>gateway_router&#45;&gt;agg_net0</title>
<path fill="none" stroke="black" d="M2495.66,-417.65C2495.66,-385.97 2495.66,-230 2495.66,-230 2495.66,-230 2443.67,-230 2443.67,-230"/>
<polygon fill="black" stroke="black" points="2443.67,-226.5 2433.67,-230 2443.67,-233.5 2443.67,-226.5"/>
<text text-anchor="middle" x="2429.38" y="-316.68" font-family="Arial" font-size="9.00">Route</text>
</g>
<!-- agg_net1 -->
<g id="node5" class="node">
<title>agg_net1</title>
<ellipse fill="#ff9999" stroke="black" cx="2561" cy="-229.61" rx="56.92" ry="31.11"/>
<text text-anchor="middle" x="2561" y="-238.11" font-family="Arial" font-size="10.00">IT&#45;OT Network</text>
<text text-anchor="middle" x="2561" y="-226.11" font-family="Arial" font-size="10.00">192.168.1.0/24</text>
<text text-anchor="middle" x="2561" y="-214.11" font-family="Arial" font-size="10.00">EtherNet/IP</text>
</g>
<!-- gateway_router&#45;&gt;agg_net1 -->
<g id="edge4" class="edge">
<title>gateway_router&#45;&gt;agg_net1</title>
<path fill="none" stroke="black" d="M2561,-378.81C2561,-378.81 2561,-272.66 2561,-272.66"/>
<polygon fill="black" stroke="black" points="2564.5,-272.66 2561,-262.66 2557.5,-272.66 2564.5,-272.66"/>
<text text-anchor="middle" x="2573.38" y="-316.68" font-family="Arial" font-size="9.00">Route</text>
</g>
<!-- agg_net2 -->
<g id="node6" class="node">
<title>agg_net2</title>
<ellipse fill="#ff9999" stroke="black" cx="2747" cy="-229.61" rx="56.92" ry="31.11"/>
<text text-anchor="middle" x="2747" y="-238.11" font-family="Arial" font-size="10.00">IT&#45;OT Network</text>
<text text-anchor="middle" x="2747" y="-226.11" font-family="Arial" font-size="10.00">192.168.0.0/24</text>
<text text-anchor="middle" x="2747" y="-214.11" font-family="Arial" font-size="10.00">EtherNet/IP</text>
</g>
<!-- gateway_router&#45;&gt;agg_net2 -->
<g id="edge5" class="edge">
<title>gateway_router&#45;&gt;agg_net2</title>
<path fill="none" stroke="black" d="M2626.34,-417.65C2626.34,-385.97 2626.34,-230 2626.34,-230 2626.34,-230 2678.33,-230 2678.33,-230"/>
<polygon fill="black" stroke="black" points="2678.33,-233.5 2688.33,-230 2678.33,-226.5 2678.33,-233.5"/>
<text text-anchor="middle" x="2717.38" y="-316.68" font-family="Arial" font-size="9.00">Route</text>
</g>
<!-- agg_net3 -->
<g id="node7" class="node">
<title>agg_net3</title>
<ellipse fill="#ff9999" stroke="black" cx="2933" cy="-229.61" rx="56.92" ry="31.11"/>
<text text-anchor="middle" x="2933" y="-238.11" font-family="Arial" font-size="10.00">IT&#45;OT Network</text>
<text text-anchor="middle" x="2933" y="-226.11" font-family="Arial" font-size="10.00">141.81.0.0/24</text>
<text text-anchor="middle" x="2933" y="-214.11" font-family="Arial" font-size="10.00">EtherNet/IP</text>
</g>
<!-- gateway_router&#45;&gt;agg_net3 -->
<g id="edge6" class="edge">
<title>gateway_router&#45;&gt;agg_net3</title>
<path fill="none" stroke="black" d="M2635.24,-423C2737.45,-423 2909.04,-423 2909.04,-423 2909.04,-423 2909.04,-269.66 2909.04,-269.66"/>
<polygon fill="black" stroke="black" points="2912.54,-269.66 2909.04,-259.66 2905.54,-269.66 2912.54,-269.66"/>
<text text-anchor="middle" x="2882.38" y="-316.68" font-family="Arial" font-size="9.00">Route</text>
</g>
<!-- device_0 -->
<g id="node8" class="node">
<title>device_0</title>
<polygon fill="#ccccff" stroke="black" points="92,-80 16,-48 92,-16 168,-48 92,-80"/>
<text text-anchor="middle" x="92" y="-50.5" font-family="Arial" font-size="10.00">10.1.1.167</text>
<text text-anchor="middle" x="92" y="-38.5" font-family="Arial" font-size="10.00">Intel Corpor...</text>
</g>
<!-- core_net0&#45;&gt;device_0 -->
<g id="edge7" class="edge">
<title>core_net0&#45;&gt;device_0</title>
<path fill="none" stroke="black" d="M570.79,-215.26C570.79,-177.26 570.79,-77 570.79,-77 570.79,-77 111.82,-77 111.82,-77"/>
<polygon fill="black" stroke="black" points="111.82,-73.5 101.82,-77 111.82,-80.5 111.82,-73.5"/>
<text text-anchor="middle" x="190.25" y="-135.95" font-family="Arial" font-size="9.00">L2</text>
</g>
<!-- device_1 -->
<g id="node9" class="node">
<title>device_1</title>
<polygon fill="#ccffcc" stroke="black" points="322.38,-66 239.62,-66 239.62,-30 322.38,-30 322.38,-66"/>
<text text-anchor="middle" x="281" y="-50.5" font-family="Arial" font-size="10.00">192.168.10.121</text>
<text text-anchor="middle" x="281" y="-38.5" font-family="Arial" font-size="10.00">Rockwell Aut...</text>
</g>
<!-- core_net0&#45;&gt;device_1 -->
<g id="edge8" class="edge">
<title>core_net0&#45;&gt;device_1</title>
<path fill="none" stroke="black" d="M563.9,-230C465.04,-230 281,-230 281,-230 281,-230 281,-77.97 281,-77.97"/>
<polygon fill="black" stroke="black" points="284.5,-77.97 281,-67.97 277.5,-77.97 284.5,-77.97"/>
<text text-anchor="middle" x="370.25" y="-135.95" font-family="Arial" font-size="9.00">L2</text>
</g>
<!-- device_2 -->
<g id="node10" class="node">
<title>device_2</title>
<ellipse fill="#ffcccc" stroke="black" cx="453" cy="-48" rx="58.51" ry="22.63"/>
<text text-anchor="middle" x="453" y="-50.5" font-family="Arial" font-size="10.00">192.168.10.120</text>
<text text-anchor="middle" x="453" y="-38.5" font-family="Arial" font-size="10.00">Rockwell Aut...</text>
</g>
<!-- core_net0&#45;&gt;device_2 -->
<g id="edge9" class="edge">
<title>core_net0&#45;&gt;device_2</title>
<path fill="none" stroke="black" d="M577.21,-210.18C577.21,-163.33 577.21,-48 577.21,-48 577.21,-48 523.34,-48 523.34,-48"/>
<polygon fill="black" stroke="black" points="523.34,-44.5 513.34,-48 523.34,-51.5 523.34,-44.5"/>
<text text-anchor="middle" x="500.25" y="-135.95" font-family="Arial" font-size="9.00">L2</text>
</g>
<!-- device_3 -->
<g id="node11" class="node">
<title>device_3</title>
<polygon fill="#ccffcc" stroke="black" points="666.38,-66 583.62,-66 583.62,-30 666.38,-30 666.38,-66"/>
<text text-anchor="middle" x="625" y="-50.5" font-family="Arial" font-size="10.00">192.168.10.140</text>
<text text-anchor="middle" x="625" y="-38.5" font-family="Arial" font-size="10.00">Field Device</text>
</g>
<!-- core_net0&#45;&gt;device_3 -->
<g id="edge10" class="edge">
<title>core_net0&#45;&gt;device_3</title>
<path fill="none" stroke="black" d="M625,-198.39C625,-198.39 625,-77.89 625,-77.89"/>
<polygon fill="black" stroke="black" points="628.5,-77.89 625,-67.89 621.5,-77.89 628.5,-77.89"/>
<text text-anchor="middle" x="630.25" y="-135.95" font-family="Arial" font-size="9.00">L2</text>
</g>
<!-- device_4 -->
<g id="node12" class="node">
<title>device_4</title>
<polygon fill="#ccccff" stroke="black" points="821,-80 738.25,-48 821,-16 903.75,-48 821,-80"/>
<text text-anchor="middle" x="821" y="-50.5" font-family="Arial" font-size="10.00">192.168.10.105</text>
<text text-anchor="middle" x="821" y="-38.5" font-family="Arial" font-size="10.00">Dell</text>
</g>
<!-- core_net0&#45;&gt;device_4 -->
<g id="edge11" class="edge">
<title>core_net0&#45;&gt;device_4</title>
<path fill="none" stroke="black" d="M676,-212.36C676,-171.85 676,-74 676,-74 676,-74 792.85,-74 792.85,-74"/>
<polygon fill="black" stroke="black" points="792.85,-77.5 802.85,-74 792.85,-70.5 792.85,-77.5"/>
<text text-anchor="middle" x="772.25" y="-135.95" font-family="Arial" font-size="9.00">L2</text>
</g>
<!-- device_5 -->
<g id="node13" class="node">
<title>device_5</title>
<polygon fill="#ccccff" stroke="black" points="1059,-80 976.25,-48 1059,-16 1141.75,-48 1059,-80"/>
<text text-anchor="middle" x="1059" y="-50.5" font-family="Arial" font-size="10.00">192.168.10.107</text>
<text text-anchor="middle" x="1059" y="-38.5" font-family="Arial" font-size="10.00">Super Micro ...</text>
</g>
<!-- core_net0&#45;&gt;device_5 -->
<g id="edge12" class="edge">
<title>core_net0&#45;&gt;device_5</title>
<path fill="none" stroke="black" d="M682.18,-219C800.03,-219 1059,-219 1059,-219 1059,-219 1059,-91.68 1059,-91.68"/>
<polygon fill="black" stroke="black" points="1062.5,-91.68 1059,-81.68 1055.5,-91.68 1062.5,-91.68"/>
<text text-anchor="middle" x="962.25" y="-135.95" font-family="Arial" font-size="9.00">L2</text>
</g>
<!-- device_6 -->
<g id="node14" class="node">
<title>device_6</title>
<polygon fill="#ccccff" stroke="black" points="1291,-80 1213.5,-48 1291,-16 1368.5,-48 1291,-80"/>
<text text-anchor="middle" x="1291" y="-50.5" font-family="Arial" font-size="10.00">192.168.10.22</text>
<text text-anchor="middle" x="1291" y="-38.5" font-family="Arial" font-size="10.00">VMware,</text>
</g>
<!-- agg_net0&#45;&gt;device_6 -->
<g id="edge13" class="edge">
<title>agg_net0&#45;&gt;device_6</title>
<path fill="none" stroke="black" d="M2320.87,-240C2101.6,-240 1291,-240 1291,-240 1291,-240 1291,-91.65 1291,-91.65"/>
<polygon fill="black" stroke="black" points="1294.5,-91.65 1291,-81.65 1287.5,-91.65 1294.5,-91.65"/>
<text text-anchor="middle" x="1491.25" y="-135.95" font-family="Arial" font-size="9.00">L2</text>
</g>
<!-- device_8 -->
<g id="node16" class="node">
<title>device_8</title>
<polygon fill="#ccccff" stroke="black" points="1730,-80 1657.75,-48 1730,-16 1802.25,-48 1730,-80"/>
<text text-anchor="middle" x="1730" y="-50.5" font-family="Arial" font-size="10.00">192.168.1.10</text>
<text text-anchor="middle" x="1730" y="-38.5" font-family="Arial" font-size="10.00">VMware,</text>
</g>
<!-- agg_net1&#45;&gt;device_8 -->
<g id="edge14" class="edge">
<title>agg_net1&#45;&gt;device_8</title>
<path fill="none" stroke="black" d="M2515.44,-210.48C2515.44,-196.15 2515.44,-179 2515.44,-179 2515.44,-179 1730,-179 1730,-179 1730,-179 1730,-91.9 1730,-91.9"/>
<polygon fill="black" stroke="black" points="1733.5,-91.9 1730,-81.9 1726.5,-91.9 1733.5,-91.9"/>
<text text-anchor="middle" x="1824.25" y="-135.95" font-family="Arial" font-size="9.00">L2</text>
</g>
<!-- device_9 -->
<g id="node17" class="node">
<title>device_9</title>
<polygon fill="#ffddff" stroke="black" points="2001.33,-37.86 2001.33,-58.14 1964.23,-72.49 1911.77,-72.49 1874.67,-58.14 1874.67,-37.86 1911.77,-23.51 1964.23,-23.51 2001.33,-37.86"/>
<text text-anchor="middle" x="1938" y="-50.5" font-family="Arial" font-size="10.00">192.168.1.24</text>
<text text-anchor="middle" x="1938" y="-38.5" font-family="Arial" font-size="10.00">Rockwell Aut...</text>
</g>
<!-- agg_net1&#45;&gt;device_9 -->
<g id="edge15" class="edge">
<title>agg_net1&#45;&gt;device_9</title>
<path fill="none" stroke="black" d="M2526.8,-204.52C2526.8,-184.22 2526.8,-159 2526.8,-159 2526.8,-159 1938,-159 1938,-159 1938,-159 1938,-84.42 1938,-84.42"/>
<polygon fill="black" stroke="black" points="1941.5,-84.42 1938,-74.42 1934.5,-84.42 1941.5,-84.42"/>
<text text-anchor="middle" x="2072.25" y="-135.95" font-family="Arial" font-size="9.00">L2</text>
</g>
<!-- device_10 -->
<g id="node18" class="node">
<title>device_10</title>
<polygon fill="#ffddff" stroke="black" points="2200.33,-37.86 2200.33,-58.14 2163.23,-72.49 2110.77,-72.49 2073.67,-58.14 2073.67,-37.86 2110.77,-23.51 2163.23,-23.51 2200.33,-37.86"/>
<text text-anchor="middle" x="2137" y="-50.5" font-family="Arial" font-size="10.00">192.168.1.22</text>
<text text-anchor="middle" x="2137" y="-38.5" font-family="Arial" font-size="10.00">Rockwell Aut...</text>
</g>
<!-- agg_net1&#45;&gt;device_10 -->
<g id="edge16" class="edge">
<title>agg_net1&#45;&gt;device_10</title>
<path fill="none" stroke="black" d="M2538.16,-200.69C2538.16,-174.17 2538.16,-139 2538.16,-139 2538.16,-139 2137,-139 2137,-139 2137,-139 2137,-84.38 2137,-84.38"/>
<polygon fill="black" stroke="black" points="2140.5,-84.38 2137,-74.38 2133.5,-84.38 2140.5,-84.38"/>
<text text-anchor="middle" x="2240.25" y="-135.95" font-family="Arial" font-size="9.00">L2</text>
</g>
<!-- device_11 -->
<g id="node19" class="node">
<title>device_11</title>
<polygon fill="#ccffcc" stroke="black" points="2355.38,-66 2272.62,-66 2272.62,-30 2355.38,-30 2355.38,-66"/>
<text text-anchor="middle" x="2314" y="-50.5" font-family="Arial" font-size="10.00">192.168.1.30</text>
<text text-anchor="middle" x="2314" y="-38.5" font-family="Arial" font-size="10.00">Rockwell Aut...</text>
</g>
<!-- agg_net1&#45;&gt;device_11 -->
<g id="edge17" class="edge">
<title>agg_net1&#45;&gt;device_11</title>
<path fill="none" stroke="black" d="M2549.53,-198.9C2549.53,-160.57 2549.53,-100 2549.53,-100 2549.53,-100 2336.73,-100 2336.73,-100 2336.73,-100 2336.73,-77.99 2336.73,-77.99"/>
<polygon fill="black" stroke="black" points="2340.23,-77.99 2336.73,-67.99 2333.23,-77.99 2340.23,-77.99"/>
<text text-anchor="middle" x="2368.25" y="-135.95" font-family="Arial" font-size="9.00">L2</text>
</g>
<!-- device_12 -->
<g id="node20" class="node">
<title>device_12</title>
<polygon fill="#ccccff" stroke="black" points="2500,-80 2427.75,-48 2500,-16 2572.25,-48 2500,-80"/>
<text text-anchor="middle" x="2500" y="-50.5" font-family="Arial" font-size="10.00">192.168.0.21</text>
<text text-anchor="middle" x="2500" y="-38.5" font-family="Arial" font-size="10.00">Dell</text>
</g>
<!-- agg_net1&#45;&gt;device_12 -->
<g id="edge18" class="edge">
<title>agg_net1&#45;&gt;device_12</title>
<path fill="none" stroke="black" d="M2560.89,-198.39C2560.89,-198.39 2560.89,-64.95 2560.89,-64.95"/>
<polygon fill="black" stroke="black" points="2564.39,-64.95 2560.89,-54.95 2557.39,-64.95 2564.39,-64.95"/>
<text text-anchor="middle" x="2535.25" y="-135.95" font-family="Arial" font-size="9.00">L2</text>
</g>
<!-- device_13 -->
<g id="node21" class="node">
<title>device_13</title>
<polygon fill="#ccccff" stroke="black" points="2747,-80 2644.75,-48 2747,-16 2849.25,-48 2747,-80"/>
<text text-anchor="middle" x="2747" y="-50.5" font-family="Arial" font-size="10.00">192.168.0.65</text>
<text text-anchor="middle" x="2747" y="-38.5" font-family="Arial" font-size="10.00">INVENTEC COR...</text>
</g>
<!-- agg_net2&#45;&gt;device_13 -->
<g id="edge19" class="edge">
<title>agg_net2&#45;&gt;device_13</title>
<path fill="none" stroke="black" d="M2728.03,-200.03C2728.03,-200.03 2728.03,-85.84 2728.03,-85.84"/>
<polygon fill="black" stroke="black" points="2731.53,-85.84 2728.03,-75.84 2724.53,-85.84 2731.53,-85.84"/>
<text text-anchor="middle" x="2752.25" y="-135.95" font-family="Arial" font-size="9.00">L2</text>
</g>
<!-- device_14 -->
<g id="node22" class="node">
<title>device_14</title>
<polygon fill="#ccffcc" stroke="black" points="2993.12,-66 2920.88,-66 2920.88,-30 2993.12,-30 2993.12,-66"/>
<text text-anchor="middle" x="2957" y="-50.5" font-family="Arial" font-size="10.00">192.168.0.30</text>
<text text-anchor="middle" x="2957" y="-38.5" font-family="Arial" font-size="10.00">Dell</text>
</g>
<!-- agg_net2&#45;&gt;device_14 -->
<g id="edge20" class="edge">
<title>agg_net2&#45;&gt;device_14</title>
<path fill="none" stroke="black" d="M2804.15,-230C2833.29,-230 2862.66,-230 2862.66,-230 2862.66,-230 2862.66,-48 2862.66,-48 2862.66,-48 2909.01,-48 2909.01,-48"/>
<polygon fill="black" stroke="black" points="2909.01,-51.5 2919.01,-48 2909.01,-44.5 2909.01,-51.5"/>
<text text-anchor="middle" x="2901.25" y="-135.95" font-family="Arial" font-size="9.00">L2</text>
</g>
<!-- device_15 -->
<g id="node23" class="node">
<title>device_15</title>
<ellipse fill="#ffcccc" stroke="black" cx="3124" cy="-48" rx="58.51" ry="22.63"/>
<text text-anchor="middle" x="3124" y="-50.5" font-family="Arial" font-size="10.00">141.81.0.23</text>
<text text-anchor="middle" x="3124" y="-38.5" font-family="Arial" font-size="10.00">Rockwell Aut...</text>
</g>
<!-- agg_net2&#45;&gt;device_15 -->
<g id="edge21" class="edge">
<title>agg_net2&#45;&gt;device_15</title>
<path fill="none" stroke="black" d="M2765.97,-199.95C2765.97,-167.49 2765.97,-120 2765.97,-120 2765.97,-120 3103,-120 3103,-120 3103,-120 3103,-81.12 3103,-81.12"/>
<polygon fill="black" stroke="black" points="3106.5,-81.12 3103,-71.12 3099.5,-81.12 3106.5,-81.12"/>
<text text-anchor="middle" x="3059.25" y="-135.95" font-family="Arial" font-size="9.00">L2</text>
</g>
<!-- device_16 -->
<g id="node24" class="node">
<title>device_16</title>
<ellipse fill="#ffcccc" stroke="black" cx="3313" cy="-48" rx="58.51" ry="22.63"/>
<text text-anchor="middle" x="3313" y="-50.5" font-family="Arial" font-size="10.00">141.81.0.63</text>
<text text-anchor="middle" x="3313" y="-38.5" font-family="Arial" font-size="10.00">Rockwell Aut...</text>
</g>
<!-- agg_net3&#45;&gt;device_16 -->
<g id="edge22" class="edge">
<title>agg_net3&#45;&gt;device_16</title>
<path fill="none" stroke="black" d="M2979.23,-211C3073.94,-211 3281.17,-211 3281.17,-211 3281.17,-211 3281.17,-78.85 3281.17,-78.85"/>
<polygon fill="black" stroke="black" points="3284.67,-78.85 3281.17,-68.85 3277.67,-78.85 3284.67,-78.85"/>
<text text-anchor="middle" x="3233.25" y="-135.95" font-family="Arial" font-size="9.00">L2</text>
</g>
<!-- device_17 -->
<g id="node25" class="node">
<title>device_17</title>
<polygon fill="#ccccff" stroke="black" points="3528,-80 3443.75,-48 3528,-16 3612.25,-48 3528,-80"/>
<text text-anchor="middle" x="3528" y="-50.5" font-family="Arial" font-size="10.00">141.81.0.10</text>
<text text-anchor="middle" x="3528" y="-38.5" font-family="Arial" font-size="10.00">Hewlett Pack...</text>
</g>
<!-- agg_net3&#45;&gt;device_17 -->
<g id="edge23" class="edge">
<title>agg_net3&#45;&gt;device_17</title>
<path fill="none" stroke="black" d="M2955.4,-200.53C2955.4,-155.74 2955.4,-75 2955.4,-75 2955.4,-75 3502.05,-75 3502.05,-75"/>
<polygon fill="black" stroke="black" points="3502.05,-78.5 3512.05,-75 3502.05,-71.5 3502.05,-78.5"/>
<text text-anchor="middle" x="3427.25" y="-135.95" font-family="Arial" font-size="9.00">L2</text>
</g>
<!-- device_18 -->
<g id="node26" class="node">
<title>device_18</title>
<ellipse fill="#ffcccc" stroke="black" cx="3743" cy="-48" rx="58.51" ry="22.63"/>
<text text-anchor="middle" x="3743" y="-50.5" font-family="Arial" font-size="10.00">141.81.0.43</text>
<text text-anchor="middle" x="3743" y="-38.5" font-family="Arial" font-size="10.00">Rockwell Aut...</text>
</g>
<!-- agg_net3&#45;&gt;device_18 -->
<g id="edge24" class="edge">
<title>agg_net3&#45;&gt;device_18</title>
<path fill="none" stroke="black" d="M2989.11,-223C3165.34,-223 3696.1,-223 3696.1,-223 3696.1,-223 3696.1,-73.54 3696.1,-73.54"/>
<polygon fill="black" stroke="black" points="3699.6,-73.54 3696.1,-63.54 3692.6,-73.54 3699.6,-73.54"/>
<text text-anchor="middle" x="3632.25" y="-135.95" font-family="Arial" font-size="9.00">L2</text>
</g>
<!-- device_19 -->
<g id="node27" class="node">
<title>device_19</title>
<ellipse fill="#ffcccc" stroke="black" cx="3932" cy="-48" rx="58.51" ry="22.63"/>
<text text-anchor="middle" x="3932" y="-50.5" font-family="Arial" font-size="10.00">141.81.0.83</text>
<text text-anchor="middle" x="3932" y="-38.5" font-family="Arial" font-size="10.00">Rockwell Aut...</text>
</g>
<!-- agg_net3&#45;&gt;device_19 -->
<g id="edge25" class="edge">
<title>agg_net3&#45;&gt;device_19</title>
<path fill="none" stroke="black" d="M2989.21,-236C3200.07,-236 3932,-236 3932,-236 3932,-236 3932,-82.57 3932,-82.57"/>
<polygon fill="black" stroke="black" points="3935.5,-82.57 3932,-72.57 3928.5,-82.57 3935.5,-82.57"/>
<text text-anchor="middle" x="3829.25" y="-135.95" font-family="Arial" font-size="9.00">L2</text>
</g>
<!-- device_20 -->
<g id="node28" class="node">
<title>device_20</title>
<ellipse fill="none" stroke="black" cx="4099" cy="-48" rx="36.23" ry="18"/>
<text text-anchor="middle" x="4099" y="-44.5" font-family="Arial" font-size="10.00">device_20</text>
</g>
<!-- agg_net3&#45;&gt;device_20 -->
<g id="edge26" class="edge">
<title>agg_net3&#45;&gt;device_20</title>
<path fill="none" stroke="black" d="M2979.43,-248C3196.29,-248 4099,-248 4099,-248 4099,-248 4099,-77.97 4099,-77.97"/>
<polygon fill="black" stroke="black" points="4102.5,-77.97 4099,-67.97 4095.5,-77.97 4102.5,-77.97"/>
<text text-anchor="middle" x="4104.25" y="-135.95" font-family="Arial" font-size="9.00">L2</text>
</g>
<!-- device_7 -->
<g id="node15" class="node">
<title>device_7</title>
<polygon fill="#ccccff" stroke="black" points="1513,-80 1440.75,-48 1513,-16 1585.25,-48 1513,-80"/>
<text text-anchor="middle" x="1513" y="-50.5" font-family="Arial" font-size="10.00">192.168.1.69</text>
<text text-anchor="middle" x="1513" y="-38.5" font-family="Arial" font-size="10.00">VMware,</text>
</g>
<!-- legend_plc -->
<g id="node29" class="node">
<title>legend_plc</title>
<polygon fill="#ffddff" stroke="black" points="2996,-632.99 2996,-647.9 2980.18,-658.45 2957.82,-658.45 2942,-647.9 2942,-632.99 2957.82,-622.45 2980.18,-622.45 2996,-632.99"/>
<text text-anchor="middle" x="2969" y="-636.95" font-family="Arial" font-size="10.00">PLC</text>
</g>
<!-- legend_field -->
<g id="node30" class="node">
<title>legend_field</title>
<polygon fill="#ccffcc" stroke="black" points="3138.38,-658.45 3067.62,-658.45 3067.62,-622.45 3138.38,-622.45 3138.38,-658.45"/>
<text text-anchor="middle" x="3103" y="-636.95" font-family="Arial" font-size="10.00">Field Device</text>
</g>
<!-- legend_control -->
<g id="node31" class="node">
<title>legend_control</title>
<ellipse fill="#ffcccc" stroke="black" cx="3259" cy="-640.45" rx="48.86" ry="18"/>
<text text-anchor="middle" x="3259" y="-636.95" font-family="Arial" font-size="10.00">Control Device</text>
</g>
<!-- legend_network -->
<g id="node32" class="node">
<title>legend_network</title>
<polygon fill="#ccccff" stroke="black" points="3453,-658.45 3379.44,-640.45 3453,-622.45 3526.56,-640.45 3453,-658.45"/>
<text text-anchor="middle" x="3453" y="-636.95" font-family="Arial" font-size="10.00">Network Device</text>
</g>
<!-- legend_unknown -->
<g id="node33" class="node">
<title>legend_unknown</title>
<ellipse fill="#f0f0f0" stroke="black" cx="3653" cy="-640.45" rx="54.72" ry="54.72"/>
<text text-anchor="middle" x="3653" y="-636.95" font-family="Arial" font-size="10.00">Unknown Device</text>
</g>
</g>
</svg>
