<?xml version="1.0" encoding="UTF-8" standalone="no"?>
<!DOCTYPE svg PUBLIC "-//W3C//DTD SVG 1.1//EN"
 "http://www.w3.org/Graphics/SVG/1.1/DTD/svg11.dtd">
<!-- Generated by graphviz version 12.2.1 (20241206.2353)
 -->
<!-- Title: HierarchicalNetwork Pages: 1 -->
<svg width="3798pt" height="741pt"
 viewBox="0.00 0.00 3798.23 741.42" xmlns="http://www.w3.org/2000/svg" xmlns:xlink="http://www.w3.org/1999/xlink">
<g id="graph0" class="graph" transform="scale(1 1) rotate(0) translate(4 737.42)">
<title>HierarchicalNetwork</title>
<polygon fill="white" stroke="none" points="-4,4 -4,-737.42 3794.23,-737.42 3794.23,4 -4,4"/>
<g id="clust1" class="cluster">
<title>cluster_internet</title>
<polygon fill="#e6f3ff" stroke="black" points="2155,-614.45 2155,-690.95 2225,-690.95 2225,-614.45 2155,-614.45"/>
<text text-anchor="middle" x="2190" y="-673.65" font-family="Times,serif" font-size="14.00">Internet</text>
</g>
<g id="clust2" class="cluster">
<title>cluster_gateway</title>
<polygon fill="#fff2e6" stroke="black" points="2108,-371.23 2108,-499.73 2272,-499.73 2272,-371.23 2108,-371.23"/>
<text text-anchor="middle" x="2190" y="-482.43" font-family="Times,serif" font-size="14.00">Gateway Router</text>
</g>
<g id="clust3" class="cluster">
<title>cluster_core</title>
<polygon fill="#e6ffe6" stroke="black" points="624,-190.5 624,-293.23 762,-293.23 762,-190.5 624,-190.5"/>
<text text-anchor="middle" x="693" y="-275.93" font-family="Times,serif" font-size="14.00">Core Networks</text>
</g>
<g id="clust4" class="cluster">
<title>cluster_aggregation</title>
<polygon fill="#ffe6e6" stroke="black" points="1939,-190.5 1939,-293.23 2627,-293.23 2627,-190.5 1939,-190.5"/>
<text text-anchor="middle" x="2283" y="-275.93" font-family="Times,serif" font-size="14.00">Aggregation Networks</text>
</g>
<g id="clust5" class="cluster">
<title>cluster_devices</title>
<polygon fill="#f5f5f5" stroke="black" points="8,-8 8,-112.5 3653,-112.5 3653,-8 8,-8"/>
<text text-anchor="middle" x="1830.5" y="-95.2" font-family="Times,serif" font-size="14.00">Computing Servers</text>
</g>
<g id="clust6" class="cluster">
<title>cluster_legend</title>
<polygon fill="#f9f9f9" stroke="black" points="2615,-577.73 2615,-725.42 3397,-725.42 3397,-577.73 2615,-577.73"/>
<text text-anchor="middle" x="3006" y="-710.02" font-family="Times,serif" font-size="12.00">Device Legend</text>
</g>
<!-- internet -->
<g id="node1" class="node">
<title>internet</title>
<polygon fill="white" stroke="black" points="2217,-658.45 2163,-658.45 2163,-622.45 2217,-622.45 2217,-658.45"/>
<text text-anchor="middle" x="2190" y="-636.95" font-family="Arial" font-size="10.00">Internet</text>
</g>
<!-- gateway_router -->
<g id="node2" class="node">
<title>gateway_router</title>
<polygon fill="#ffcc99" stroke="black" points="2190,-467.23 2116.25,-423.23 2190,-379.23 2263.75,-423.23 2190,-467.23"/>
<text text-anchor="middle" x="2190" y="-431.73" font-family="Arial" font-size="10.00">Cisco Router</text>
<text text-anchor="middle" x="2190" y="-419.73" font-family="Arial" font-size="10.00">10.1.1.164</text>
<text text-anchor="middle" x="2190" y="-407.73" font-family="Arial" font-size="10.00">(Layer 3)</text>
</g>
<!-- internet&#45;&gt;gateway_router -->
<g id="edge1" class="edge">
<title>internet&#45;&gt;gateway_router</title>
<path fill="none" stroke="black" d="M2190,-622.3C2190,-622.3 2190,-479.13 2190,-479.13"/>
<polygon fill="black" stroke="black" points="2193.5,-479.13 2190,-469.13 2186.5,-479.13 2193.5,-479.13"/>
<text text-anchor="middle" x="2200.5" y="-523.18" font-family="Arial" font-size="9.00">WAN</text>
</g>
<!-- core_net0 -->
<g id="node3" class="node">
<title>core_net0</title>
<ellipse fill="#99ff99" stroke="black" cx="693" cy="-229.61" rx="60.63" ry="31.11"/>
<text text-anchor="middle" x="693" y="-238.11" font-family="Arial" font-size="10.00">IT&#45;OT Network</text>
<text text-anchor="middle" x="693" y="-226.11" font-family="Arial" font-size="10.00">192.168.10.0/24</text>
<text text-anchor="middle" x="693" y="-214.11" font-family="Arial" font-size="10.00">EtherNet/IP</text>
</g>
<!-- gateway_router&#45;&gt;core_net0 -->
<g id="edge2" class="edge">
<title>gateway_router&#45;&gt;core_net0</title>
<path fill="none" stroke="black" d="M2115.76,-423C1813.7,-423 693,-423 693,-423 693,-423 693,-272.63 693,-272.63"/>
<polygon fill="black" stroke="black" points="696.5,-272.63 693,-262.63 689.5,-272.63 696.5,-272.63"/>
<text text-anchor="middle" x="1391.38" y="-316.68" font-family="Arial" font-size="9.00">Route</text>
</g>
<!-- agg_net0 -->
<g id="node4" class="node">
<title>agg_net0</title>
<ellipse fill="#ff9999" stroke="black" cx="2004" cy="-229.61" rx="56.92" ry="31.11"/>
<text text-anchor="middle" x="2004" y="-238.11" font-family="Arial" font-size="10.00">IT&#45;OT Network</text>
<text text-anchor="middle" x="2004" y="-226.11" font-family="Arial" font-size="10.00">141.81.0.0/24</text>
<text text-anchor="middle" x="2004" y="-214.11" font-family="Arial" font-size="10.00">EtherNet/IP</text>
</g>
<!-- gateway_router&#45;&gt;agg_net0 -->
<g id="edge3" class="edge">
<title>gateway_router&#45;&gt;agg_net0</title>
<path fill="none" stroke="black" d="M2124.66,-417.65C2124.66,-385.97 2124.66,-230 2124.66,-230 2124.66,-230 2072.67,-230 2072.67,-230"/>
<polygon fill="black" stroke="black" points="2072.67,-226.5 2062.67,-230 2072.67,-233.5 2072.67,-226.5"/>
<text text-anchor="middle" x="2058.38" y="-316.68" font-family="Arial" font-size="9.00">Route</text>
</g>
<!-- agg_net1 -->
<g id="node5" class="node">
<title>agg_net1</title>
<ellipse fill="#ff9999" stroke="black" cx="2190" cy="-229.61" rx="56.92" ry="31.11"/>
<text text-anchor="middle" x="2190" y="-238.11" font-family="Arial" font-size="10.00">IT&#45;OT Network</text>
<text text-anchor="middle" x="2190" y="-226.11" font-family="Arial" font-size="10.00">192.168.0.0/24</text>
<text text-anchor="middle" x="2190" y="-214.11" font-family="Arial" font-size="10.00">EtherNet/IP</text>
</g>
<!-- gateway_router&#45;&gt;agg_net1 -->
<g id="edge4" class="edge">
<title>gateway_router&#45;&gt;agg_net1</title>
<path fill="none" stroke="black" d="M2190,-378.81C2190,-378.81 2190,-272.66 2190,-272.66"/>
<polygon fill="black" stroke="black" points="2193.5,-272.66 2190,-262.66 2186.5,-272.66 2193.5,-272.66"/>
<text text-anchor="middle" x="2202.38" y="-316.68" font-family="Arial" font-size="9.00">Route</text>
</g>
<!-- agg_net2 -->
<g id="node6" class="node">
<title>agg_net2</title>
<ellipse fill="#ff9999" stroke="black" cx="2376" cy="-229.61" rx="56.92" ry="31.11"/>
<text text-anchor="middle" x="2376" y="-238.11" font-family="Arial" font-size="10.00">IT&#45;OT Network</text>
<text text-anchor="middle" x="2376" y="-226.11" font-family="Arial" font-size="10.00">10.1.1.0/24</text>
<text text-anchor="middle" x="2376" y="-214.11" font-family="Arial" font-size="10.00">EtherNet/IP</text>
</g>
<!-- gateway_router&#45;&gt;agg_net2 -->
<g id="edge5" class="edge">
<title>gateway_router&#45;&gt;agg_net2</title>
<path fill="none" stroke="black" d="M2255.34,-417.65C2255.34,-385.97 2255.34,-230 2255.34,-230 2255.34,-230 2307.33,-230 2307.33,-230"/>
<polygon fill="black" stroke="black" points="2307.33,-233.5 2317.33,-230 2307.33,-226.5 2307.33,-233.5"/>
<text text-anchor="middle" x="2346.38" y="-316.68" font-family="Arial" font-size="9.00">Route</text>
</g>
<!-- agg_net3 -->
<g id="node7" class="node">
<title>agg_net3</title>
<ellipse fill="#ff9999" stroke="black" cx="2562" cy="-229.61" rx="56.92" ry="31.11"/>
<text text-anchor="middle" x="2562" y="-238.11" font-family="Arial" font-size="10.00">IT&#45;OT Network</text>
<text text-anchor="middle" x="2562" y="-226.11" font-family="Arial" font-size="10.00">192.168.1.0/24</text>
<text text-anchor="middle" x="2562" y="-214.11" font-family="Arial" font-size="10.00">EtherNet/IP</text>
</g>
<!-- gateway_router&#45;&gt;agg_net3 -->
<g id="edge6" class="edge">
<title>gateway_router&#45;&gt;agg_net3</title>
<path fill="none" stroke="black" d="M2263.94,-423C2372.43,-423 2562,-423 2562,-423 2562,-423 2562,-272.63 2562,-272.63"/>
<polygon fill="black" stroke="black" points="2565.5,-272.63 2562,-262.63 2558.5,-272.63 2565.5,-272.63"/>
<text text-anchor="middle" x="2511.38" y="-316.68" font-family="Arial" font-size="9.00">Route</text>
</g>
<!-- device_0 -->
<g id="node8" class="node">
<title>device_0</title>
<polygon fill="#ccccff" stroke="black" points="100,-80 15.75,-48 100,-16 184.25,-48 100,-80"/>
<text text-anchor="middle" x="100" y="-50.5" font-family="Arial" font-size="10.00">141.81.0.10</text>
<text text-anchor="middle" x="100" y="-38.5" font-family="Arial" font-size="10.00">Hewlett Pack...</text>
</g>
<!-- core_net0&#45;&gt;device_0 -->
<g id="edge7" class="edge">
<title>core_net0&#45;&gt;device_0</title>
<path fill="none" stroke="black" d="M663.74,-201.98C663.74,-158 663.74,-77 663.74,-77 663.74,-77 120.37,-77 120.37,-77"/>
<polygon fill="black" stroke="black" points="120.37,-73.5 110.37,-77 120.37,-80.5 120.37,-73.5"/>
<text text-anchor="middle" x="219.25" y="-135.95" font-family="Arial" font-size="9.00">L2</text>
</g>
<!-- device_1 -->
<g id="node9" class="node">
<title>device_1</title>
<ellipse fill="#ffcccc" stroke="black" cx="315" cy="-48" rx="58.51" ry="22.63"/>
<text text-anchor="middle" x="315" y="-50.5" font-family="Arial" font-size="10.00">141.81.0.83</text>
<text text-anchor="middle" x="315" y="-38.5" font-family="Arial" font-size="10.00">Rockwell Aut...</text>
</g>
<!-- core_net0&#45;&gt;device_1 -->
<g id="edge8" class="edge">
<title>core_net0&#45;&gt;device_1</title>
<path fill="none" stroke="black" d="M635.59,-240C529.85,-240 315,-240 315,-240 315,-240 315,-82.29 315,-82.29"/>
<polygon fill="black" stroke="black" points="318.5,-82.29 315,-72.29 311.5,-82.29 318.5,-82.29"/>
<text text-anchor="middle" x="421.25" y="-135.95" font-family="Arial" font-size="9.00">L2</text>
</g>
<!-- device_2 -->
<g id="node10" class="node">
<title>device_2</title>
<ellipse fill="#ffcccc" stroke="black" cx="504" cy="-48" rx="58.51" ry="22.63"/>
<text text-anchor="middle" x="504" y="-50.5" font-family="Arial" font-size="10.00">141.81.0.43</text>
<text text-anchor="middle" x="504" y="-38.5" font-family="Arial" font-size="10.00">Rockwell Aut...</text>
</g>
<!-- core_net0&#45;&gt;device_2 -->
<g id="edge9" class="edge">
<title>core_net0&#45;&gt;device_2</title>
<path fill="none" stroke="black" d="M635.52,-219C579.92,-219 504,-219 504,-219 504,-219 504,-82.58 504,-82.58"/>
<polygon fill="black" stroke="black" points="507.5,-82.58 504,-72.58 500.5,-82.58 507.5,-82.58"/>
<text text-anchor="middle" x="559.25" y="-135.95" font-family="Arial" font-size="9.00">L2</text>
</g>
<!-- device_3 -->
<g id="node11" class="node">
<title>device_3</title>
<ellipse fill="#ffcccc" stroke="black" cx="693" cy="-48" rx="58.51" ry="22.63"/>
<text text-anchor="middle" x="693" y="-50.5" font-family="Arial" font-size="10.00">141.81.0.63</text>
<text text-anchor="middle" x="693" y="-38.5" font-family="Arial" font-size="10.00">Rockwell Aut...</text>
</g>
<!-- core_net0&#45;&gt;device_3 -->
<g id="edge10" class="edge">
<title>core_net0&#45;&gt;device_3</title>
<path fill="none" stroke="black" d="M693,-198.39C693,-198.39 693,-82.56 693,-82.56"/>
<polygon fill="black" stroke="black" points="696.5,-82.56 693,-72.56 689.5,-82.56 696.5,-82.56"/>
<text text-anchor="middle" x="698.25" y="-135.95" font-family="Arial" font-size="9.00">L2</text>
</g>
<!-- device_4 -->
<g id="node12" class="node">
<title>device_4</title>
<ellipse fill="#ffcccc" stroke="black" cx="882" cy="-48" rx="58.51" ry="22.63"/>
<text text-anchor="middle" x="882" y="-50.5" font-family="Arial" font-size="10.00">141.81.0.23</text>
<text text-anchor="middle" x="882" y="-38.5" font-family="Arial" font-size="10.00">Rockwell Aut...</text>
</g>
<!-- core_net0&#45;&gt;device_4 -->
<g id="edge11" class="edge">
<title>core_net0&#45;&gt;device_4</title>
<path fill="none" stroke="black" d="M739.23,-209C795.19,-209 882,-209 882,-209 882,-209 882,-82.58 882,-82.58"/>
<polygon fill="black" stroke="black" points="885.5,-82.58 882,-72.58 878.5,-82.58 885.5,-82.58"/>
<text text-anchor="middle" x="837.25" y="-135.95" font-family="Arial" font-size="9.00">L2</text>
</g>
<!-- device_5 -->
<g id="node13" class="node">
<title>device_5</title>
<polygon fill="#ccccff" stroke="black" points="1085,-80 1012.75,-48 1085,-16 1157.25,-48 1085,-80"/>
<text text-anchor="middle" x="1085" y="-50.5" font-family="Arial" font-size="10.00">192.168.0.21</text>
<text text-anchor="middle" x="1085" y="-38.5" font-family="Arial" font-size="10.00">Dell</text>
</g>
<!-- core_net0&#45;&gt;device_5 -->
<g id="edge12" class="edge">
<title>core_net0&#45;&gt;device_5</title>
<path fill="none" stroke="black" d="M722.26,-202.15C722.26,-157.48 722.26,-74 722.26,-74 722.26,-74 1058.82,-74 1058.82,-74"/>
<polygon fill="black" stroke="black" points="1058.82,-77.5 1068.82,-74 1058.82,-70.5 1058.82,-77.5"/>
<text text-anchor="middle" x="1008.25" y="-135.95" font-family="Arial" font-size="9.00">L2</text>
</g>
<!-- device_6 -->
<g id="node14" class="node">
<title>device_6</title>
<polygon fill="#ccffcc" stroke="black" points="1301.12,-66 1228.88,-66 1228.88,-30 1301.12,-30 1301.12,-66"/>
<text text-anchor="middle" x="1265" y="-50.5" font-family="Arial" font-size="10.00">192.168.0.30</text>
<text text-anchor="middle" x="1265" y="-38.5" font-family="Arial" font-size="10.00">Dell</text>
</g>
<!-- agg_net0&#45;&gt;device_6 -->
<g id="edge13" class="edge">
<title>agg_net0&#45;&gt;device_6</title>
<path fill="none" stroke="black" d="M1960.26,-250C1801.51,-250 1265,-250 1265,-250 1265,-250 1265,-77.8 1265,-77.8"/>
<polygon fill="black" stroke="black" points="1268.5,-77.8 1265,-67.8 1261.5,-77.8 1268.5,-77.8"/>
<text text-anchor="middle" x="1345.25" y="-135.95" font-family="Arial" font-size="9.00">L2</text>
</g>
<!-- device_7 -->
<g id="node15" class="node">
<title>device_7</title>
<polygon fill="#ccffcc" stroke="black" points="1456.38,-66 1373.62,-66 1373.62,-30 1456.38,-30 1456.38,-66"/>
<text text-anchor="middle" x="1415" y="-50.5" font-family="Arial" font-size="10.00">192.168.10.140</text>
<text text-anchor="middle" x="1415" y="-38.5" font-family="Arial" font-size="10.00">Field Device</text>
</g>
<!-- agg_net0&#45;&gt;device_7 -->
<g id="edge14" class="edge">
<title>agg_net0&#45;&gt;device_7</title>
<path fill="none" stroke="black" d="M1949.91,-240C1804.3,-240 1415,-240 1415,-240 1415,-240 1415,-77.92 1415,-77.92"/>
<polygon fill="black" stroke="black" points="1418.5,-77.92 1415,-67.92 1411.5,-77.92 1418.5,-77.92"/>
<text text-anchor="middle" x="1497.25" y="-135.95" font-family="Arial" font-size="9.00">L2</text>
</g>
<!-- device_8 -->
<g id="node16" class="node">
<title>device_8</title>
<polygon fill="#ccffcc" stroke="black" points="1611.38,-66 1528.62,-66 1528.62,-30 1611.38,-30 1611.38,-66"/>
<text text-anchor="middle" x="1570" y="-50.5" font-family="Arial" font-size="10.00">192.168.10.121</text>
<text text-anchor="middle" x="1570" y="-38.5" font-family="Arial" font-size="10.00">Rockwell Aut...</text>
</g>
<!-- agg_net0&#45;&gt;device_8 -->
<g id="edge15" class="edge">
<title>agg_net0&#45;&gt;device_8</title>
<path fill="none" stroke="black" d="M1946.82,-230C1828.97,-230 1570,-230 1570,-230 1570,-230 1570,-77.97 1570,-77.97"/>
<polygon fill="black" stroke="black" points="1573.5,-77.97 1570,-67.97 1566.5,-77.97 1573.5,-77.97"/>
<text text-anchor="middle" x="1617.25" y="-135.95" font-family="Arial" font-size="9.00">L2</text>
</g>
<!-- device_9 -->
<g id="node17" class="node">
<title>device_9</title>
<ellipse fill="#ffcccc" stroke="black" cx="1742" cy="-48" rx="58.51" ry="22.63"/>
<text text-anchor="middle" x="1742" y="-50.5" font-family="Arial" font-size="10.00">192.168.10.120</text>
<text text-anchor="middle" x="1742" y="-38.5" font-family="Arial" font-size="10.00">Rockwell Aut...</text>
</g>
<!-- agg_net0&#45;&gt;device_9 -->
<g id="edge16" class="edge">
<title>agg_net0&#45;&gt;device_9</title>
<path fill="none" stroke="black" d="M1950.03,-219C1873.33,-219 1742,-219 1742,-219 1742,-219 1742,-82.58 1742,-82.58"/>
<polygon fill="black" stroke="black" points="1745.5,-82.58 1742,-72.58 1738.5,-82.58 1745.5,-82.58"/>
<text text-anchor="middle" x="1789.25" y="-135.95" font-family="Arial" font-size="9.00">L2</text>
</g>
<!-- device_10 -->
<g id="node18" class="node">
<title>device_10</title>
<polygon fill="#ccffcc" stroke="black" points="1955.38,-66 1872.62,-66 1872.62,-30 1955.38,-30 1955.38,-66"/>
<text text-anchor="middle" x="1914" y="-50.5" font-family="Arial" font-size="10.00">192.168.10.255</text>
<text text-anchor="middle" x="1914" y="-38.5" font-family="Arial" font-size="10.00">Field Device</text>
</g>
<!-- agg_net0&#45;&gt;device_10 -->
<g id="edge17" class="edge">
<title>agg_net0&#45;&gt;device_10</title>
<path fill="none" stroke="black" d="M1951.23,-217.41C1951.23,-217.41 1951.23,-77.93 1951.23,-77.93"/>
<polygon fill="black" stroke="black" points="1954.73,-77.93 1951.23,-67.93 1947.73,-77.93 1954.73,-77.93"/>
<text text-anchor="middle" x="1956.25" y="-135.95" font-family="Arial" font-size="9.00">L2</text>
</g>
<!-- device_11 -->
<g id="node19" class="node">
<title>device_11</title>
<polygon fill="#ccccff" stroke="black" points="2112,-80 2027,-48 2112,-16 2197,-48 2112,-80"/>
<text text-anchor="middle" x="2112" y="-50.5" font-family="Arial" font-size="10.00">192.168.10.204</text>
<text text-anchor="middle" x="2112" y="-38.5" font-family="Arial" font-size="10.00">Network Devi...</text>
</g>
<!-- agg_net1&#45;&gt;device_11 -->
<g id="edge18" class="edge">
<title>agg_net1&#45;&gt;device_11</title>
<path fill="none" stroke="black" d="M2165.04,-201.24C2165.04,-201.24 2165.04,-71.71 2165.04,-71.71"/>
<polygon fill="black" stroke="black" points="2168.54,-71.71 2165.04,-61.71 2161.54,-71.71 2168.54,-71.71"/>
<text text-anchor="middle" x="2133.25" y="-135.95" font-family="Arial" font-size="9.00">L2</text>
</g>
<!-- device_12 -->
<g id="node20" class="node">
<title>device_12</title>
<polygon fill="#ccccff" stroke="black" points="2352,-80 2269.25,-48 2352,-16 2434.75,-48 2352,-80"/>
<text text-anchor="middle" x="2352" y="-50.5" font-family="Arial" font-size="10.00">192.168.10.248</text>
<text text-anchor="middle" x="2352" y="-38.5" font-family="Arial" font-size="10.00">VMware,</text>
</g>
<!-- agg_net1&#45;&gt;device_12 -->
<g id="edge19" class="edge">
<title>agg_net1&#45;&gt;device_12</title>
<path fill="none" stroke="black" d="M2221.96,-203.59C2221.96,-153.37 2221.96,-48 2221.96,-48 2221.96,-48 2256.66,-48 2256.66,-48"/>
<polygon fill="black" stroke="black" points="2256.66,-51.5 2266.66,-48 2256.66,-44.5 2256.66,-51.5"/>
<text text-anchor="middle" x="2341.25" y="-135.95" font-family="Arial" font-size="9.00">L2</text>
</g>
<!-- device_13 -->
<g id="node21" class="node">
<title>device_13</title>
<polygon fill="#ccccff" stroke="black" points="2583,-80 2507,-48 2583,-16 2659,-48 2583,-80"/>
<text text-anchor="middle" x="2583" y="-50.5" font-family="Arial" font-size="10.00">10.1.1.167</text>
<text text-anchor="middle" x="2583" y="-38.5" font-family="Arial" font-size="10.00">Intel Corpor...</text>
</g>
<!-- agg_net2&#45;&gt;device_13 -->
<g id="edge20" class="edge">
<title>agg_net2&#45;&gt;device_13</title>
<path fill="none" stroke="black" d="M2433.34,-230C2452.89,-230 2469.91,-230 2469.91,-230 2469.91,-230 2469.91,-48 2469.91,-48 2469.91,-48 2494.49,-48 2494.49,-48"/>
<polygon fill="black" stroke="black" points="2494.49,-51.5 2504.49,-48 2494.49,-44.5 2494.49,-51.5"/>
<text text-anchor="middle" x="2483.25" y="-135.95" font-family="Arial" font-size="9.00">L2</text>
</g>
<!-- device_15 -->
<g id="node23" class="node">
<title>device_15</title>
<polygon fill="#ccccff" stroke="black" points="3020,-80 2947.75,-48 3020,-16 3092.25,-48 3020,-80"/>
<text text-anchor="middle" x="3020" y="-50.5" font-family="Arial" font-size="10.00">192.168.1.10</text>
<text text-anchor="middle" x="3020" y="-38.5" font-family="Arial" font-size="10.00">VMware,</text>
</g>
<!-- agg_net3&#45;&gt;device_15 -->
<g id="edge21" class="edge">
<title>agg_net3&#45;&gt;device_15</title>
<path fill="none" stroke="black" d="M2605.48,-209C2710.3,-209 2968.3,-209 2968.3,-209 2968.3,-209 2968.3,-69.1 2968.3,-69.1"/>
<polygon fill="black" stroke="black" points="2971.8,-69.1 2968.3,-59.1 2964.8,-69.1 2971.8,-69.1"/>
<text text-anchor="middle" x="2598.25" y="-135.95" font-family="Arial" font-size="9.00">L2</text>
</g>
<!-- device_16 -->
<g id="node24" class="node">
<title>device_16</title>
<polygon fill="#ffddff" stroke="black" points="3291.33,-37.86 3291.33,-58.14 3254.23,-72.49 3201.77,-72.49 3164.67,-58.14 3164.67,-37.86 3201.77,-23.51 3254.23,-23.51 3291.33,-37.86"/>
<text text-anchor="middle" x="3228" y="-50.5" font-family="Arial" font-size="10.00">192.168.1.24</text>
<text text-anchor="middle" x="3228" y="-38.5" font-family="Arial" font-size="10.00">Rockwell Aut...</text>
</g>
<!-- agg_net3&#45;&gt;device_16 -->
<g id="edge22" class="edge">
<title>agg_net3&#45;&gt;device_16</title>
<path fill="none" stroke="black" d="M2616.02,-219C2767.64,-219 3186.11,-219 3186.11,-219 3186.11,-219 3186.11,-78.47 3186.11,-78.47"/>
<polygon fill="black" stroke="black" points="3189.61,-78.47 3186.11,-68.47 3182.61,-78.47 3189.61,-78.47"/>
<text text-anchor="middle" x="2905.25" y="-135.95" font-family="Arial" font-size="9.00">L2</text>
</g>
<!-- device_17 -->
<g id="node25" class="node">
<title>device_17</title>
<polygon fill="#ccffcc" stroke="black" points="3446.38,-66 3363.62,-66 3363.62,-30 3446.38,-30 3446.38,-66"/>
<text text-anchor="middle" x="3405" y="-50.5" font-family="Arial" font-size="10.00">192.168.1.30</text>
<text text-anchor="middle" x="3405" y="-38.5" font-family="Arial" font-size="10.00">Rockwell Aut...</text>
</g>
<!-- agg_net3&#45;&gt;device_17 -->
<g id="edge23" class="edge">
<title>agg_net3&#45;&gt;device_17</title>
<path fill="none" stroke="black" d="M2619.25,-230C2804.57,-230 3376.17,-230 3376.17,-230 3376.17,-230 3376.17,-77.97 3376.17,-77.97"/>
<polygon fill="black" stroke="black" points="3379.67,-77.97 3376.17,-67.97 3372.67,-77.97 3379.67,-77.97"/>
<text text-anchor="middle" x="3202.25" y="-135.95" font-family="Arial" font-size="9.00">L2</text>
</g>
<!-- device_18 -->
<g id="node26" class="node">
<title>device_18</title>
<polygon fill="#ffddff" stroke="black" points="3645.33,-37.86 3645.33,-58.14 3608.23,-72.49 3555.77,-72.49 3518.67,-58.14 3518.67,-37.86 3555.77,-23.51 3608.23,-23.51 3645.33,-37.86"/>
<text text-anchor="middle" x="3582" y="-50.5" font-family="Arial" font-size="10.00">192.168.1.22</text>
<text text-anchor="middle" x="3582" y="-38.5" font-family="Arial" font-size="10.00">Rockwell Aut...</text>
</g>
<!-- agg_net3&#45;&gt;device_18 -->
<g id="edge24" class="edge">
<title>agg_net3&#45;&gt;device_18</title>
<path fill="none" stroke="black" d="M2616.12,-240C2826.99,-240 3582,-240 3582,-240 3582,-240 3582,-84.22 3582,-84.22"/>
<polygon fill="black" stroke="black" points="3585.5,-84.22 3582,-74.22 3578.5,-84.22 3585.5,-84.22"/>
<text text-anchor="middle" x="3439.25" y="-135.95" font-family="Arial" font-size="9.00">L2</text>
</g>
<!-- device_19 -->
<g id="node27" class="node">
<title>device_19</title>
<ellipse fill="none" stroke="black" cx="3754" cy="-48" rx="36.23" ry="18"/>
<text text-anchor="middle" x="3754" y="-44.5" font-family="Arial" font-size="10.00">device_19</text>
</g>
<!-- agg_net3&#45;&gt;device_19 -->
<g id="edge25" class="edge">
<title>agg_net3&#45;&gt;device_19</title>
<path fill="none" stroke="black" d="M2605.84,-250C2820.89,-250 3754,-250 3754,-250 3754,-250 3754,-77.8 3754,-77.8"/>
<polygon fill="black" stroke="black" points="3757.5,-77.8 3754,-67.8 3750.5,-77.8 3757.5,-77.8"/>
<text text-anchor="middle" x="3759.25" y="-135.95" font-family="Arial" font-size="9.00">L2</text>
</g>
<!-- device_14 -->
<g id="node22" class="node">
<title>device_14</title>
<polygon fill="#ccccff" stroke="black" points="2803,-80 2730.75,-48 2803,-16 2875.25,-48 2803,-80"/>
<text text-anchor="middle" x="2803" y="-50.5" font-family="Arial" font-size="10.00">192.168.1.69</text>
<text text-anchor="middle" x="2803" y="-38.5" font-family="Arial" font-size="10.00">VMware,</text>
</g>
<!-- legend_plc -->
<g id="node28" class="node">
<title>legend_plc</title>
<polygon fill="#ffddff" stroke="black" points="2677,-632.99 2677,-647.9 2661.18,-658.45 2638.82,-658.45 2623,-647.9 2623,-632.99 2638.82,-622.45 2661.18,-622.45 2677,-632.99"/>
<text text-anchor="middle" x="2650" y="-636.95" font-family="Arial" font-size="10.00">PLC</text>
</g>
<!-- legend_field -->
<g id="node29" class="node">
<title>legend_field</title>
<polygon fill="#ccffcc" stroke="black" points="2819.38,-658.45 2748.62,-658.45 2748.62,-622.45 2819.38,-622.45 2819.38,-658.45"/>
<text text-anchor="middle" x="2784" y="-636.95" font-family="Arial" font-size="10.00">Field Device</text>
</g>
<!-- legend_control -->
<g id="node30" class="node">
<title>legend_control</title>
<ellipse fill="#ffcccc" stroke="black" cx="2940" cy="-640.45" rx="48.86" ry="18"/>
<text text-anchor="middle" x="2940" y="-636.95" font-family="Arial" font-size="10.00">Control Device</text>
</g>
<!-- legend_network -->
<g id="node31" class="node">
<title>legend_network</title>
<polygon fill="#ccccff" stroke="black" points="3134,-658.45 3060.44,-640.45 3134,-622.45 3207.56,-640.45 3134,-658.45"/>
<text text-anchor="middle" x="3134" y="-636.95" font-family="Arial" font-size="10.00">Network Device</text>
</g>
<!-- legend_unknown -->
<g id="node32" class="node">
<title>legend_unknown</title>
<ellipse fill="#f0f0f0" stroke="black" cx="3334" cy="-640.45" rx="54.72" ry="54.72"/>
<text text-anchor="middle" x="3334" y="-636.95" font-family="Arial" font-size="10.00">Unknown Device</text>
</g>
</g>
</svg>
