<?xml version="1.0" encoding="UTF-8" standalone="no"?>
<!DOCTYPE svg PUBLIC "-//W3C//DTD SVG 1.1//EN"
 "http://www.w3.org/Graphics/SVG/1.1/DTD/svg11.dtd">
<!-- Generated by graphviz version 12.2.1 (20241206.2353)
 -->
<!-- Title: HierarchicalNetwork Pages: 1 -->
<svg width="4306pt" height="741pt"
 viewBox="0.00 0.00 4306.23 741.42" xmlns="http://www.w3.org/2000/svg" xmlns:xlink="http://www.w3.org/1999/xlink">
<g id="graph0" class="graph" transform="scale(1 1) rotate(0) translate(4 737.42)">
<title>HierarchicalNetwork</title>
<polygon fill="white" stroke="none" points="-4,4 -4,-737.42 4302.23,-737.42 4302.23,4 -4,4"/>
<g id="clust1" class="cluster">
<title>cluster_internet</title>
<polygon fill="#e6f3ff" stroke="black" points="2604,-614.45 2604,-690.95 2674,-690.95 2674,-614.45 2604,-614.45"/>
<text text-anchor="middle" x="2639" y="-673.65" font-family="Times,serif" font-size="14.00">Internet</text>
</g>
<g id="clust2" class="cluster">
<title>cluster_gateway</title>
<polygon fill="#fff2e6" stroke="black" points="2557,-371.23 2557,-499.73 2721,-499.73 2721,-371.23 2557,-371.23"/>
<text text-anchor="middle" x="2639" y="-482.43" font-family="Times,serif" font-size="14.00">Gateway Router</text>
</g>
<g id="clust3" class="cluster">
<title>cluster_core</title>
<polygon fill="#e6ffe6" stroke="black" points="528,-190.5 528,-293.23 666,-293.23 666,-190.5 528,-190.5"/>
<text text-anchor="middle" x="597" y="-275.93" font-family="Times,serif" font-size="14.00">Core Networks</text>
</g>
<g id="clust4" class="cluster">
<title>cluster_aggregation</title>
<polygon fill="#ffe6e6" stroke="black" points="2388,-190.5 2388,-293.23 3076,-293.23 3076,-190.5 2388,-190.5"/>
<text text-anchor="middle" x="2732" y="-275.93" font-family="Times,serif" font-size="14.00">Aggregation Networks</text>
</g>
<g id="clust5" class="cluster">
<title>cluster_devices</title>
<polygon fill="#f5f5f5" stroke="black" points="8,-8 8,-112.5 4162,-112.5 4162,-8 8,-8"/>
<text text-anchor="middle" x="2085" y="-95.2" font-family="Times,serif" font-size="14.00">Computing Servers</text>
</g>
<g id="clust6" class="cluster">
<title>cluster_legend</title>
<polygon fill="#f9f9f9" stroke="black" points="3102,-577.73 3102,-725.42 3884,-725.42 3884,-577.73 3102,-577.73"/>
<text text-anchor="middle" x="3493" y="-710.02" font-family="Times,serif" font-size="12.00">Device Legend</text>
</g>
<!-- internet -->
<g id="node1" class="node">
<title>internet</title>
<polygon fill="white" stroke="black" points="2666,-658.45 2612,-658.45 2612,-622.45 2666,-622.45 2666,-658.45"/>
<text text-anchor="middle" x="2639" y="-636.95" font-family="Arial" font-size="10.00">Internet</text>
</g>
<!-- gateway_router -->
<g id="node2" class="node">
<title>gateway_router</title>
<polygon fill="#ffcc99" stroke="black" points="2639,-467.23 2565.25,-423.23 2639,-379.23 2712.75,-423.23 2639,-467.23"/>
<text text-anchor="middle" x="2639" y="-431.73" font-family="Arial" font-size="10.00">Cisco Router</text>
<text text-anchor="middle" x="2639" y="-419.73" font-family="Arial" font-size="10.00">10.1.1.164</text>
<text text-anchor="middle" x="2639" y="-407.73" font-family="Arial" font-size="10.00">(Layer 3)</text>
</g>
<!-- internet&#45;&gt;gateway_router -->
<g id="edge1" class="edge">
<title>internet&#45;&gt;gateway_router</title>
<path fill="none" stroke="black" d="M2639,-622.3C2639,-622.3 2639,-479.13 2639,-479.13"/>
<polygon fill="black" stroke="black" points="2642.5,-479.13 2639,-469.13 2635.5,-479.13 2642.5,-479.13"/>
<text text-anchor="middle" x="2649.5" y="-523.18" font-family="Arial" font-size="9.00">WAN</text>
</g>
<!-- core_net0 -->
<g id="node3" class="node">
<title>core_net0</title>
<ellipse fill="#99ff99" stroke="black" cx="597" cy="-229.61" rx="60.63" ry="31.11"/>
<text text-anchor="middle" x="597" y="-238.11" font-family="Arial" font-size="10.00">IT&#45;OT Network</text>
<text text-anchor="middle" x="597" y="-226.11" font-family="Arial" font-size="10.00">192.168.10.0/24</text>
<text text-anchor="middle" x="597" y="-214.11" font-family="Arial" font-size="10.00">EtherNet/IP</text>
</g>
<!-- gateway_router&#45;&gt;core_net0 -->
<g id="edge2" class="edge">
<title>gateway_router&#45;&gt;core_net0</title>
<path fill="none" stroke="black" d="M2564.81,-423C2198.15,-423 597,-423 597,-423 597,-423 597,-272.63 597,-272.63"/>
<polygon fill="black" stroke="black" points="600.5,-272.63 597,-262.63 593.5,-272.63 600.5,-272.63"/>
<text text-anchor="middle" x="1575.38" y="-316.68" font-family="Arial" font-size="9.00">Route</text>
</g>
<!-- agg_net0 -->
<g id="node4" class="node">
<title>agg_net0</title>
<ellipse fill="#ff9999" stroke="black" cx="2453" cy="-229.61" rx="56.92" ry="31.11"/>
<text text-anchor="middle" x="2453" y="-238.11" font-family="Arial" font-size="10.00">IT&#45;OT Network</text>
<text text-anchor="middle" x="2453" y="-226.11" font-family="Arial" font-size="10.00">192.168.0.0/24</text>
<text text-anchor="middle" x="2453" y="-214.11" font-family="Arial" font-size="10.00">EtherNet/IP</text>
</g>
<!-- gateway_router&#45;&gt;agg_net0 -->
<g id="edge3" class="edge">
<title>gateway_router&#45;&gt;agg_net0</title>
<path fill="none" stroke="black" d="M2573.66,-417.65C2573.66,-385.97 2573.66,-230 2573.66,-230 2573.66,-230 2521.67,-230 2521.67,-230"/>
<polygon fill="black" stroke="black" points="2521.67,-226.5 2511.67,-230 2521.67,-233.5 2521.67,-226.5"/>
<text text-anchor="middle" x="2507.38" y="-316.68" font-family="Arial" font-size="9.00">Route</text>
</g>
<!-- agg_net1 -->
<g id="node5" class="node">
<title>agg_net1</title>
<ellipse fill="#ff9999" stroke="black" cx="2639" cy="-229.61" rx="56.92" ry="31.11"/>
<text text-anchor="middle" x="2639" y="-238.11" font-family="Arial" font-size="10.00">IT&#45;OT Network</text>
<text text-anchor="middle" x="2639" y="-226.11" font-family="Arial" font-size="10.00">10.1.1.0/24</text>
<text text-anchor="middle" x="2639" y="-214.11" font-family="Arial" font-size="10.00">EtherNet/IP</text>
</g>
<!-- gateway_router&#45;&gt;agg_net1 -->
<g id="edge4" class="edge">
<title>gateway_router&#45;&gt;agg_net1</title>
<path fill="none" stroke="black" d="M2639,-378.81C2639,-378.81 2639,-272.66 2639,-272.66"/>
<polygon fill="black" stroke="black" points="2642.5,-272.66 2639,-262.66 2635.5,-272.66 2642.5,-272.66"/>
<text text-anchor="middle" x="2651.38" y="-316.68" font-family="Arial" font-size="9.00">Route</text>
</g>
<!-- agg_net2 -->
<g id="node6" class="node">
<title>agg_net2</title>
<ellipse fill="#ff9999" stroke="black" cx="2825" cy="-229.61" rx="56.92" ry="31.11"/>
<text text-anchor="middle" x="2825" y="-238.11" font-family="Arial" font-size="10.00">IT&#45;OT Network</text>
<text text-anchor="middle" x="2825" y="-226.11" font-family="Arial" font-size="10.00">141.81.0.0/24</text>
<text text-anchor="middle" x="2825" y="-214.11" font-family="Arial" font-size="10.00">EtherNet/IP</text>
</g>
<!-- gateway_router&#45;&gt;agg_net2 -->
<g id="edge5" class="edge">
<title>gateway_router&#45;&gt;agg_net2</title>
<path fill="none" stroke="black" d="M2704.34,-417.65C2704.34,-385.97 2704.34,-230 2704.34,-230 2704.34,-230 2756.33,-230 2756.33,-230"/>
<polygon fill="black" stroke="black" points="2756.33,-233.5 2766.33,-230 2756.33,-226.5 2756.33,-233.5"/>
<text text-anchor="middle" x="2795.38" y="-316.68" font-family="Arial" font-size="9.00">Route</text>
</g>
<!-- agg_net3 -->
<g id="node7" class="node">
<title>agg_net3</title>
<ellipse fill="#ff9999" stroke="black" cx="3011" cy="-229.61" rx="56.92" ry="31.11"/>
<text text-anchor="middle" x="3011" y="-238.11" font-family="Arial" font-size="10.00">IT&#45;OT Network</text>
<text text-anchor="middle" x="3011" y="-226.11" font-family="Arial" font-size="10.00">192.168.1.0/24</text>
<text text-anchor="middle" x="3011" y="-214.11" font-family="Arial" font-size="10.00">EtherNet/IP</text>
</g>
<!-- gateway_router&#45;&gt;agg_net3 -->
<g id="edge6" class="edge">
<title>gateway_router&#45;&gt;agg_net3</title>
<path fill="none" stroke="black" d="M2712.94,-423C2821.43,-423 3011,-423 3011,-423 3011,-423 3011,-272.63 3011,-272.63"/>
<polygon fill="black" stroke="black" points="3014.5,-272.63 3011,-262.63 3007.5,-272.63 3014.5,-272.63"/>
<text text-anchor="middle" x="2960.38" y="-316.68" font-family="Arial" font-size="9.00">Route</text>
</g>
<!-- device_0 -->
<g id="node8" class="node">
<title>device_0</title>
<polygon fill="#ccffcc" stroke="black" points="98.38,-66 15.62,-66 15.62,-30 98.38,-30 98.38,-66"/>
<text text-anchor="middle" x="57" y="-50.5" font-family="Arial" font-size="10.00">192.168.10.121</text>
<text text-anchor="middle" x="57" y="-38.5" font-family="Arial" font-size="10.00">Rockwell Aut...</text>
</g>
<!-- core_net0&#45;&gt;device_0 -->
<g id="edge7" class="edge">
<title>core_net0&#45;&gt;device_0</title>
<path fill="none" stroke="black" d="M543.74,-245C407.51,-245 57,-245 57,-245 57,-245 57,-77.69 57,-77.69"/>
<polygon fill="black" stroke="black" points="60.5,-77.69 57,-67.69 53.5,-77.69 60.5,-77.69"/>
<text text-anchor="middle" x="162.25" y="-135.95" font-family="Arial" font-size="9.00">L2</text>
</g>
<!-- device_1 -->
<g id="node9" class="node">
<title>device_1</title>
<polygon fill="#ccffcc" stroke="black" points="253.38,-66 170.62,-66 170.62,-30 253.38,-30 253.38,-66"/>
<text text-anchor="middle" x="212" y="-50.5" font-family="Arial" font-size="10.00">192.168.10.140</text>
<text text-anchor="middle" x="212" y="-38.5" font-family="Arial" font-size="10.00">Field Device</text>
</g>
<!-- core_net0&#45;&gt;device_1 -->
<g id="edge8" class="edge">
<title>core_net0&#45;&gt;device_1</title>
<path fill="none" stroke="black" d="M536,-230C427.44,-230 212,-230 212,-230 212,-230 212,-77.97 212,-77.97"/>
<polygon fill="black" stroke="black" points="215.5,-77.97 212,-67.97 208.5,-77.97 215.5,-77.97"/>
<text text-anchor="middle" x="325.25" y="-135.95" font-family="Arial" font-size="9.00">L2</text>
</g>
<!-- device_2 -->
<g id="node10" class="node">
<title>device_2</title>
<ellipse fill="#ffcccc" stroke="black" cx="384" cy="-48" rx="58.51" ry="22.63"/>
<text text-anchor="middle" x="384" y="-50.5" font-family="Arial" font-size="10.00">192.168.10.120</text>
<text text-anchor="middle" x="384" y="-38.5" font-family="Arial" font-size="10.00">Rockwell Aut...</text>
</g>
<!-- core_net0&#45;&gt;device_2 -->
<g id="edge9" class="edge">
<title>core_net0&#45;&gt;device_2</title>
<path fill="none" stroke="black" d="M544.07,-214C480.99,-214 384,-214 384,-214 384,-214 384,-82.6 384,-82.6"/>
<polygon fill="black" stroke="black" points="387.5,-82.6 384,-72.6 380.5,-82.6 387.5,-82.6"/>
<text text-anchor="middle" x="451.25" y="-135.95" font-family="Arial" font-size="9.00">L2</text>
</g>
<!-- device_3 -->
<g id="node11" class="node">
<title>device_3</title>
<polygon fill="#ccccff" stroke="black" points="597,-80 514.25,-48 597,-16 679.75,-48 597,-80"/>
<text text-anchor="middle" x="597" y="-50.5" font-family="Arial" font-size="10.00">192.168.10.107</text>
<text text-anchor="middle" x="597" y="-38.5" font-family="Arial" font-size="10.00">Super Micro ...</text>
</g>
<!-- core_net0&#45;&gt;device_3 -->
<g id="edge10" class="edge">
<title>core_net0&#45;&gt;device_3</title>
<path fill="none" stroke="black" d="M597,-198.39C597,-198.39 597,-91.85 597,-91.85"/>
<polygon fill="black" stroke="black" points="600.5,-91.85 597,-81.85 593.5,-91.85 600.5,-91.85"/>
<text text-anchor="middle" x="602.25" y="-135.95" font-family="Arial" font-size="9.00">L2</text>
</g>
<!-- device_4 -->
<g id="node12" class="node">
<title>device_4</title>
<polygon fill="#ccccff" stroke="black" points="837,-80 752,-48 837,-16 922,-48 837,-80"/>
<text text-anchor="middle" x="837" y="-50.5" font-family="Arial" font-size="10.00">192.168.10.204</text>
<text text-anchor="middle" x="837" y="-38.5" font-family="Arial" font-size="10.00">Network Devi...</text>
</g>
<!-- core_net0&#45;&gt;device_4 -->
<g id="edge11" class="edge">
<title>core_net0&#45;&gt;device_4</title>
<path fill="none" stroke="black" d="M639.63,-207C708.6,-207 837,-207 837,-207 837,-207 837,-91.69 837,-91.69"/>
<polygon fill="black" stroke="black" points="840.5,-91.69 837,-81.69 833.5,-91.69 840.5,-91.69"/>
<text text-anchor="middle" x="766.25" y="-135.95" font-family="Arial" font-size="9.00">L2</text>
</g>
<!-- device_5 -->
<g id="node13" class="node">
<title>device_5</title>
<polygon fill="#ccccff" stroke="black" points="1077,-80 994.25,-48 1077,-16 1159.75,-48 1077,-80"/>
<text text-anchor="middle" x="1077" y="-50.5" font-family="Arial" font-size="10.00">192.168.10.230</text>
<text text-anchor="middle" x="1077" y="-38.5" font-family="Arial" font-size="10.00">Dell</text>
</g>
<!-- core_net0&#45;&gt;device_5 -->
<g id="edge12" class="edge">
<title>core_net0&#45;&gt;device_5</title>
<path fill="none" stroke="black" d="M652.06,-216C778.14,-216 1077,-216 1077,-216 1077,-216 1077,-91.91 1077,-91.91"/>
<polygon fill="black" stroke="black" points="1080.5,-91.91 1077,-81.91 1073.5,-91.91 1080.5,-91.91"/>
<text text-anchor="middle" x="968.25" y="-135.95" font-family="Arial" font-size="9.00">L2</text>
</g>
<!-- device_6 -->
<g id="node14" class="node">
<title>device_6</title>
<polygon fill="#ccccff" stroke="black" points="1304,-80 1231.75,-48 1304,-16 1376.25,-48 1304,-80"/>
<text text-anchor="middle" x="1304" y="-50.5" font-family="Arial" font-size="10.00">192.168.0.21</text>
<text text-anchor="middle" x="1304" y="-38.5" font-family="Arial" font-size="10.00">Dell</text>
</g>
<!-- agg_net0&#45;&gt;device_6 -->
<g id="edge13" class="edge">
<title>agg_net0&#45;&gt;device_6</title>
<path fill="none" stroke="black" d="M2412.78,-252C2209.42,-252 1304,-252 1304,-252 1304,-252 1304,-91.84 1304,-91.84"/>
<polygon fill="black" stroke="black" points="1307.5,-91.84 1304,-81.84 1300.5,-91.84 1307.5,-91.84"/>
<text text-anchor="middle" x="1416.25" y="-135.95" font-family="Arial" font-size="9.00">L2</text>
</g>
<!-- device_7 -->
<g id="node15" class="node">
<title>device_7</title>
<polygon fill="#ccffcc" stroke="black" points="1520.12,-66 1447.88,-66 1447.88,-30 1520.12,-30 1520.12,-66"/>
<text text-anchor="middle" x="1484" y="-50.5" font-family="Arial" font-size="10.00">192.168.0.47</text>
<text text-anchor="middle" x="1484" y="-38.5" font-family="Arial" font-size="10.00">Dell</text>
</g>
<!-- agg_net0&#45;&gt;device_7 -->
<g id="edge14" class="edge">
<title>agg_net0&#45;&gt;device_7</title>
<path fill="none" stroke="black" d="M2401.24,-243C2200.44,-243 1484,-243 1484,-243 1484,-243 1484,-77.86 1484,-77.86"/>
<polygon fill="black" stroke="black" points="1487.5,-77.86 1484,-67.86 1480.5,-77.86 1487.5,-77.86"/>
<text text-anchor="middle" x="1550.25" y="-135.95" font-family="Arial" font-size="9.00">L2</text>
</g>
<!-- device_8 -->
<g id="node16" class="node">
<title>device_8</title>
<polygon fill="#ccccff" stroke="black" points="1694,-80 1591.75,-48 1694,-16 1796.25,-48 1694,-80"/>
<text text-anchor="middle" x="1694" y="-50.5" font-family="Arial" font-size="10.00">192.168.0.65</text>
<text text-anchor="middle" x="1694" y="-38.5" font-family="Arial" font-size="10.00">INVENTEC COR...</text>
</g>
<!-- agg_net0&#45;&gt;device_8 -->
<g id="edge15" class="edge">
<title>agg_net0&#45;&gt;device_8</title>
<path fill="none" stroke="black" d="M2396.26,-234C2220.05,-234 1694,-234 1694,-234 1694,-234 1694,-91.91 1694,-91.91"/>
<polygon fill="black" stroke="black" points="1697.5,-91.91 1694,-81.91 1690.5,-91.91 1697.5,-91.91"/>
<text text-anchor="middle" x="1836.25" y="-135.95" font-family="Arial" font-size="9.00">L2</text>
</g>
<!-- device_9 -->
<g id="node17" class="node">
<title>device_9</title>
<polygon fill="#ccffcc" stroke="black" points="1945.75,-66 1868.25,-66 1868.25,-30 1945.75,-30 1945.75,-66"/>
<text text-anchor="middle" x="1907" y="-50.5" font-family="Arial" font-size="10.00">192.168.0.255</text>
<text text-anchor="middle" x="1907" y="-38.5" font-family="Arial" font-size="10.00">Field Device</text>
</g>
<!-- agg_net0&#45;&gt;device_9 -->
<g id="edge16" class="edge">
<title>agg_net0&#45;&gt;device_9</title>
<path fill="none" stroke="black" d="M2396.37,-225C2256.7,-225 1907,-225 1907,-225 1907,-225 1907,-77.79 1907,-77.79"/>
<polygon fill="black" stroke="black" points="1910.5,-77.79 1907,-67.79 1903.5,-77.79 1910.5,-77.79"/>
<text text-anchor="middle" x="2061.25" y="-135.95" font-family="Arial" font-size="9.00">L2</text>
</g>
<!-- device_10 -->
<g id="node18" class="node">
<title>device_10</title>
<polygon fill="#ccccff" stroke="black" points="2094,-80 2018,-48 2094,-16 2170,-48 2094,-80"/>
<text text-anchor="middle" x="2094" y="-50.5" font-family="Arial" font-size="10.00">10.1.1.167</text>
<text text-anchor="middle" x="2094" y="-38.5" font-family="Arial" font-size="10.00">Intel Corpor...</text>
</g>
<!-- agg_net1&#45;&gt;device_10 -->
<g id="edge17" class="edge">
<title>agg_net1&#45;&gt;device_10</title>
<path fill="none" stroke="black" d="M2591.16,-212.16C2591.16,-191.25 2591.16,-159 2591.16,-159 2591.16,-159 2094,-159 2094,-159 2094,-159 2094,-91.92 2094,-91.92"/>
<polygon fill="black" stroke="black" points="2097.5,-91.92 2094,-81.92 2090.5,-91.92 2097.5,-91.92"/>
<text text-anchor="middle" x="2298.25" y="-135.95" font-family="Arial" font-size="9.00">L2</text>
</g>
<!-- device_12 -->
<g id="node20" class="node">
<title>device_12</title>
<polygon fill="#ccccff" stroke="black" points="2516,-80 2431.75,-48 2516,-16 2600.25,-48 2516,-80"/>
<text text-anchor="middle" x="2516" y="-50.5" font-family="Arial" font-size="10.00">141.81.0.10</text>
<text text-anchor="middle" x="2516" y="-38.5" font-family="Arial" font-size="10.00">Hewlett Pack...</text>
</g>
<!-- agg_net2&#45;&gt;device_12 -->
<g id="edge18" class="edge">
<title>agg_net2&#45;&gt;device_12</title>
<path fill="none" stroke="black" d="M2775.22,-214.12C2775.22,-174.76 2775.22,-74 2775.22,-74 2775.22,-74 2544.52,-74 2544.52,-74"/>
<polygon fill="black" stroke="black" points="2544.52,-70.5 2534.52,-74 2544.52,-77.5 2544.52,-70.5"/>
<text text-anchor="middle" x="2610.25" y="-135.95" font-family="Arial" font-size="9.00">L2</text>
</g>
<!-- device_13 -->
<g id="node21" class="node">
<title>device_13</title>
<ellipse fill="#ffcccc" stroke="black" cx="2731" cy="-48" rx="58.51" ry="22.63"/>
<text text-anchor="middle" x="2731" y="-50.5" font-family="Arial" font-size="10.00">141.81.0.83</text>
<text text-anchor="middle" x="2731" y="-38.5" font-family="Arial" font-size="10.00">Rockwell Aut...</text>
</g>
<!-- agg_net2&#45;&gt;device_13 -->
<g id="edge19" class="edge">
<title>agg_net2&#45;&gt;device_13</title>
<path fill="none" stroke="black" d="M2782.37,-208.78C2782.37,-208.78 2782.37,-70.69 2782.37,-70.69"/>
<polygon fill="black" stroke="black" points="2785.87,-70.69 2782.37,-60.69 2778.87,-70.69 2785.87,-70.69"/>
<text text-anchor="middle" x="2761.25" y="-135.95" font-family="Arial" font-size="9.00">L2</text>
</g>
<!-- device_14 -->
<g id="node22" class="node">
<title>device_14</title>
<ellipse fill="#ffcccc" stroke="black" cx="2920" cy="-48" rx="58.51" ry="22.63"/>
<text text-anchor="middle" x="2920" y="-50.5" font-family="Arial" font-size="10.00">141.81.0.23</text>
<text text-anchor="middle" x="2920" y="-38.5" font-family="Arial" font-size="10.00">Rockwell Aut...</text>
</g>
<!-- agg_net2&#45;&gt;device_14 -->
<g id="edge20" class="edge">
<title>agg_net2&#45;&gt;device_14</title>
<path fill="none" stroke="black" d="M2866.6,-208.07C2866.6,-208.07 2866.6,-69.34 2866.6,-69.34"/>
<polygon fill="black" stroke="black" points="2870.1,-69.34 2866.6,-59.34 2863.1,-69.34 2870.1,-69.34"/>
<text text-anchor="middle" x="2875.25" y="-135.95" font-family="Arial" font-size="9.00">L2</text>
</g>
<!-- device_15 -->
<g id="node23" class="node">
<title>device_15</title>
<ellipse fill="#ffcccc" stroke="black" cx="3109" cy="-48" rx="58.51" ry="22.63"/>
<text text-anchor="middle" x="3109" y="-50.5" font-family="Arial" font-size="10.00">141.81.0.63</text>
<text text-anchor="middle" x="3109" y="-38.5" font-family="Arial" font-size="10.00">Rockwell Aut...</text>
</g>
<!-- agg_net2&#45;&gt;device_15 -->
<g id="edge21" class="edge">
<title>agg_net2&#45;&gt;device_15</title>
<path fill="none" stroke="black" d="M2876.81,-216.17C2876.81,-186.9 2876.81,-120 2876.81,-120 2876.81,-120 3059.2,-120 3059.2,-120 3059.2,-120 3059.2,-71.73 3059.2,-71.73"/>
<polygon fill="black" stroke="black" points="3062.7,-71.73 3059.2,-61.73 3055.7,-71.73 3062.7,-71.73"/>
<text text-anchor="middle" x="3039.25" y="-135.95" font-family="Arial" font-size="9.00">L2</text>
</g>
<!-- device_16 -->
<g id="node24" class="node">
<title>device_16</title>
<polygon fill="#ccccff" stroke="black" points="3312,-80 3239.75,-48 3312,-16 3384.25,-48 3312,-80"/>
<text text-anchor="middle" x="3312" y="-50.5" font-family="Arial" font-size="10.00">192.168.1.69</text>
<text text-anchor="middle" x="3312" y="-38.5" font-family="Arial" font-size="10.00">VMware,</text>
</g>
<!-- agg_net2&#45;&gt;device_16 -->
<g id="edge22" class="edge">
<title>agg_net2&#45;&gt;device_16</title>
<path fill="none" stroke="black" d="M2871.7,-211.51C2871.7,-171.08 2871.7,-77 2871.7,-77 2871.7,-77 3292.84,-77 3292.84,-77"/>
<polygon fill="black" stroke="black" points="3292.84,-80.5 3302.84,-77 3292.84,-73.5 3292.84,-80.5"/>
<text text-anchor="middle" x="3222.25" y="-135.95" font-family="Arial" font-size="9.00">L2</text>
</g>
<!-- device_17 -->
<g id="node25" class="node">
<title>device_17</title>
<polygon fill="#ffddff" stroke="black" points="3583.33,-37.86 3583.33,-58.14 3546.23,-72.49 3493.77,-72.49 3456.67,-58.14 3456.67,-37.86 3493.77,-23.51 3546.23,-23.51 3583.33,-37.86"/>
<text text-anchor="middle" x="3520" y="-50.5" font-family="Arial" font-size="10.00">192.168.1.22</text>
<text text-anchor="middle" x="3520" y="-38.5" font-family="Arial" font-size="10.00">Rockwell Aut...</text>
</g>
<!-- agg_net3&#45;&gt;device_17 -->
<g id="edge23" class="edge">
<title>agg_net3&#45;&gt;device_17</title>
<path fill="none" stroke="black" d="M3054.24,-209C3167.88,-209 3466.26,-209 3466.26,-209 3466.26,-209 3466.26,-73.8 3466.26,-73.8"/>
<polygon fill="black" stroke="black" points="3469.76,-73.8 3466.26,-63.8 3462.76,-73.8 3469.76,-73.8"/>
<text text-anchor="middle" x="3418.25" y="-135.95" font-family="Arial" font-size="9.00">L2</text>
</g>
<!-- device_18 -->
<g id="node26" class="node">
<title>device_18</title>
<polygon fill="#ccffcc" stroke="black" points="3738.38,-66 3655.62,-66 3655.62,-30 3738.38,-30 3738.38,-66"/>
<text text-anchor="middle" x="3697" y="-50.5" font-family="Arial" font-size="10.00">192.168.1.30</text>
<text text-anchor="middle" x="3697" y="-38.5" font-family="Arial" font-size="10.00">Rockwell Aut...</text>
</g>
<!-- agg_net3&#45;&gt;device_18 -->
<g id="edge24" class="edge">
<title>agg_net3&#45;&gt;device_18</title>
<path fill="none" stroke="black" d="M3065.06,-219C3223.42,-219 3675.09,-219 3675.09,-219 3675.09,-219 3675.09,-77.81 3675.09,-77.81"/>
<polygon fill="black" stroke="black" points="3678.59,-77.81 3675.09,-67.81 3671.59,-77.81 3678.59,-77.81"/>
<text text-anchor="middle" x="3604.25" y="-135.95" font-family="Arial" font-size="9.00">L2</text>
</g>
<!-- device_19 -->
<g id="node27" class="node">
<title>device_19</title>
<polygon fill="#ffddff" stroke="black" points="3937.33,-37.86 3937.33,-58.14 3900.23,-72.49 3847.77,-72.49 3810.67,-58.14 3810.67,-37.86 3847.77,-23.51 3900.23,-23.51 3937.33,-37.86"/>
<text text-anchor="middle" x="3874" y="-50.5" font-family="Arial" font-size="10.00">192.168.1.24</text>
<text text-anchor="middle" x="3874" y="-38.5" font-family="Arial" font-size="10.00">Rockwell Aut...</text>
</g>
<!-- agg_net3&#45;&gt;device_19 -->
<g id="edge25" class="edge">
<title>agg_net3&#45;&gt;device_19</title>
<path fill="none" stroke="black" d="M3068.2,-230C3256.22,-230 3843.19,-230 3843.19,-230 3843.19,-230 3843.19,-82.56 3843.19,-82.56"/>
<polygon fill="black" stroke="black" points="3846.69,-82.56 3843.19,-72.56 3839.69,-82.56 3846.69,-82.56"/>
<text text-anchor="middle" x="3786.25" y="-135.95" font-family="Arial" font-size="9.00">L2</text>
</g>
<!-- device_20 -->
<g id="node28" class="node">
<title>device_20</title>
<polygon fill="#ccccff" stroke="black" points="4082,-80 4009.75,-48 4082,-16 4154.25,-48 4082,-80"/>
<text text-anchor="middle" x="4082" y="-50.5" font-family="Arial" font-size="10.00">192.168.1.10</text>
<text text-anchor="middle" x="4082" y="-38.5" font-family="Arial" font-size="10.00">VMware,</text>
</g>
<!-- agg_net3&#45;&gt;device_20 -->
<g id="edge26" class="edge">
<title>agg_net3&#45;&gt;device_20</title>
<path fill="none" stroke="black" d="M3065.21,-240C3282.93,-240 4082,-240 4082,-240 4082,-240 4082,-91.65 4082,-91.65"/>
<polygon fill="black" stroke="black" points="4085.5,-91.65 4082,-81.65 4078.5,-91.65 4085.5,-91.65"/>
<text text-anchor="middle" x="3981.25" y="-135.95" font-family="Arial" font-size="9.00">L2</text>
</g>
<!-- device_21 -->
<g id="node29" class="node">
<title>device_21</title>
<ellipse fill="none" stroke="black" cx="4262" cy="-48" rx="36.23" ry="18"/>
<text text-anchor="middle" x="4262" y="-44.5" font-family="Arial" font-size="10.00">device_21</text>
</g>
<!-- agg_net3&#45;&gt;device_21 -->
<g id="edge27" class="edge">
<title>agg_net3&#45;&gt;device_21</title>
<path fill="none" stroke="black" d="M3054.79,-250C3276.21,-250 4262,-250 4262,-250 4262,-250 4262,-77.8 4262,-77.8"/>
<polygon fill="black" stroke="black" points="4265.5,-77.8 4262,-67.8 4258.5,-77.8 4265.5,-77.8"/>
<text text-anchor="middle" x="4267.25" y="-135.95" font-family="Arial" font-size="9.00">L2</text>
</g>
<!-- device_11 -->
<g id="node19" class="node">
<title>device_11</title>
<ellipse fill="#ffcccc" stroke="black" cx="2301" cy="-48" rx="58.51" ry="22.63"/>
<text text-anchor="middle" x="2301" y="-50.5" font-family="Arial" font-size="10.00">141.81.0.43</text>
<text text-anchor="middle" x="2301" y="-38.5" font-family="Arial" font-size="10.00">Rockwell Aut...</text>
</g>
<!-- legend_plc -->
<g id="node30" class="node">
<title>legend_plc</title>
<polygon fill="#ffddff" stroke="black" points="3164,-632.99 3164,-647.9 3148.18,-658.45 3125.82,-658.45 3110,-647.9 3110,-632.99 3125.82,-622.45 3148.18,-622.45 3164,-632.99"/>
<text text-anchor="middle" x="3137" y="-636.95" font-family="Arial" font-size="10.00">PLC</text>
</g>
<!-- legend_field -->
<g id="node31" class="node">
<title>legend_field</title>
<polygon fill="#ccffcc" stroke="black" points="3306.38,-658.45 3235.62,-658.45 3235.62,-622.45 3306.38,-622.45 3306.38,-658.45"/>
<text text-anchor="middle" x="3271" y="-636.95" font-family="Arial" font-size="10.00">Field Device</text>
</g>
<!-- legend_control -->
<g id="node32" class="node">
<title>legend_control</title>
<ellipse fill="#ffcccc" stroke="black" cx="3427" cy="-640.45" rx="48.86" ry="18"/>
<text text-anchor="middle" x="3427" y="-636.95" font-family="Arial" font-size="10.00">Control Device</text>
</g>
<!-- legend_network -->
<g id="node33" class="node">
<title>legend_network</title>
<polygon fill="#ccccff" stroke="black" points="3621,-658.45 3547.44,-640.45 3621,-622.45 3694.56,-640.45 3621,-658.45"/>
<text text-anchor="middle" x="3621" y="-636.95" font-family="Arial" font-size="10.00">Network Device</text>
</g>
<!-- legend_unknown -->
<g id="node34" class="node">
<title>legend_unknown</title>
<ellipse fill="#f0f0f0" stroke="black" cx="3821" cy="-640.45" rx="54.72" ry="54.72"/>
<text text-anchor="middle" x="3821" y="-636.95" font-family="Arial" font-size="10.00">Unknown Device</text>
</g>
</g>
</svg>
