<svg width="1600" height="2000" xmlns="http://www.w3.org/2000/svg">
<defs>

		<linearGradient id="operationsGrad" x1="0%" y1="0%" x2="0%" y2="100%">
			<stop offset="0%" style="stop-color:#e6f3ff"/>
			<stop offset="100%" style="stop-color:#cce7ff"/>
		</linearGradient>
		<linearGradient id="supervisoryGrad" x1="0%" y1="0%" x2="0%" y2="100%">
			<stop offset="0%" style="stop-color:#fff2e6"/>
			<stop offset="100%" style="stop-color:#ffe5cc"/>
		</linearGradient>
		<linearGradient id="processGrad" x1="0%" y1="0%" x2="0%" y2="100%">
			<stop offset="0%" style="stop-color:#e8f6e8"/>
			<stop offset="100%" style="stop-color:#d4f4d4"/>
		</linearGradient>
		<filter id="shadow" x="-50%" y="-50%" width="200%" height="200%">
			<feDropShadow dx="2" dy="4" stdDeviation="4" flood-opacity="0.2"/>
		</filter>
	</defs>
<rect width="1600" height="2000" fill="white"/>
<text x="800" y="40" text-anchor="middle" font-family="Arial, sans-serif" font-size="28" font-weight="bold" fill="#333">Purdue Model - Industrial Control System Architecture</text>
<rect x="50" y="80" width="1500" height="750" rx="15" fill="url(#operationsGrad)" stroke="#0066cc" stroke-width="3" filter="url(#shadow)"/>
<text x="70" y="115" font-family="Arial, sans-serif" font-size="22" font-weight="bold" fill="#0066cc">Level 3: Operations Systems</text>
<text x="70" y="135" font-family="Arial, sans-serif" font-size="14" font-style="italic" fill="#0066cc" opacity="0.8">MES | Scheduling | OEE | Quality Management</text>
<rect x="80" y="160" width="260" height="90" rx="8" fill="white" stroke="#ddd" stroke-width="1" filter="url(#shadow)"/>
<rect x="90" y="170" width="40" height="25" rx="4" fill="#95A5A6"/>
<text x="110" y="187" text-anchor="middle" font-family="Arial, sans-serif" font-size="11" font-weight="bold" fill="white">I/O</text>
<text x="90" y="210" font-family="Arial, sans-serif" font-size="13" font-weight="600" fill="#2c3e50">Unknown Device</text>
<text x="90" y="228" font-family="Courier New, monospace" font-size="14" font-weight="bold" fill="#3498db">224.0.0.252</text>
<text x="90" y="242" font-family="Arial, sans-serif" font-size="11" fill="#7f8c8d">Unknown Vendor</text>
<rect x="360" y="160" width="260" height="90" rx="8" fill="white" stroke="#ddd" stroke-width="1" filter="url(#shadow)"/>
<rect x="370" y="170" width="40" height="25" rx="4" fill="#27AE60"/>
<text x="390" y="187" text-anchor="middle" font-family="Arial, sans-serif" font-size="11" font-weight="bold" fill="white">SRV</text>
<text x="370" y="210" font-family="Arial, sans-serif" font-size="13" font-weight="600" fill="#2c3e50">Lantronix Server</text>
<text x="370" y="228" font-family="Courier New, monospace" font-size="14" font-weight="bold" fill="#3498db">192.168.10.106</text>
<text x="370" y="242" font-family="Arial, sans-serif" font-size="11" fill="#7f8c8d">Lantronix</text>
<rect x="640" y="160" width="260" height="90" rx="8" fill="white" stroke="#ddd" stroke-width="1" filter="url(#shadow)"/>
<rect x="650" y="170" width="40" height="25" rx="4" fill="#95A5A6"/>
<text x="670" y="187" text-anchor="middle" font-family="Arial, sans-serif" font-size="11" font-weight="bold" fill="white">I/O</text>
<text x="650" y="210" font-family="Arial, sans-serif" font-size="13" font-weight="600" fill="#2c3e50">Unknown Device</text>
<text x="650" y="228" font-family="Courier New, monospace" font-size="14" font-weight="bold" fill="#3498db">ff02::fb</text>
<text x="650" y="242" font-family="Arial, sans-serif" font-size="11" fill="#7f8c8d">Unknown Vendor</text>
<rect x="920" y="160" width="260" height="90" rx="8" fill="white" stroke="#ddd" stroke-width="1" filter="url(#shadow)"/>
<rect x="930" y="170" width="40" height="25" rx="4" fill="#95A5A6"/>
<text x="950" y="187" text-anchor="middle" font-family="Arial, sans-serif" font-size="11" font-weight="bold" fill="white">I/O</text>
<text x="930" y="210" font-family="Arial, sans-serif" font-size="13" font-weight="600" fill="#2c3e50">Unknown Device</text>
<text x="930" y="228" font-family="Courier New, monospace" font-size="14" font-weight="bold" fill="#3498db">ff02::1:3</text>
<text x="930" y="242" font-family="Arial, sans-serif" font-size="11" fill="#7f8c8d">Unknown Vendor</text>
<rect x="1200" y="160" width="260" height="90" rx="8" fill="white" stroke="#ddd" stroke-width="1" filter="url(#shadow)"/>
<rect x="1210" y="170" width="40" height="25" rx="4" fill="#95A5A6"/>
<text x="1230" y="187" text-anchor="middle" font-family="Arial, sans-serif" font-size="11" font-weight="bold" fill="white">I/O</text>
<text x="1210" y="210" font-family="Arial, sans-serif" font-size="13" font-weight="600" fill="#2c3e50">Dell Device</text>
<text x="1210" y="228" font-family="Courier New, monospace" font-size="14" font-weight="bold" fill="#3498db">192.168.10.105</text>
<text x="1210" y="242" font-family="Arial, sans-serif" font-size="11" fill="#7f8c8d">Dell</text>
<rect x="80" y="270" width="260" height="90" rx="8" fill="white" stroke="#ddd" stroke-width="1" filter="url(#shadow)"/>
<rect x="90" y="280" width="40" height="25" rx="4" fill="#F39C12"/>
<text x="110" y="297" text-anchor="middle" font-family="Arial, sans-serif" font-size="11" font-weight="bold" fill="white">HMI</text>
<text x="90" y="320" font-family="Arial, sans-serif" font-size="13" font-weight="600" fill="#2c3e50">VMware, Device</text>
<text x="90" y="338" font-family="Courier New, monospace" font-size="14" font-weight="bold" fill="#3498db">192.168.10.21</text>
<text x="90" y="352" font-family="Arial, sans-serif" font-size="11" fill="#7f8c8d">VMware,</text>
<rect x="360" y="270" width="260" height="90" rx="8" fill="white" stroke="#ddd" stroke-width="1" filter="url(#shadow)"/>
<rect x="370" y="280" width="40" height="25" rx="4" fill="#95A5A6"/>
<text x="390" y="297" text-anchor="middle" font-family="Arial, sans-serif" font-size="11" font-weight="bold" fill="white">I/O</text>
<text x="370" y="320" font-family="Arial, sans-serif" font-size="13" font-weight="600" fill="#2c3e50">Dell Device</text>
<text x="370" y="338" font-family="Courier New, monospace" font-size="14" font-weight="bold" fill="#3498db">192.168.10.230</text>
<text x="370" y="352" font-family="Arial, sans-serif" font-size="11" fill="#7f8c8d">Dell</text>
<rect x="640" y="270" width="260" height="90" rx="8" fill="white" stroke="#ddd" stroke-width="1" filter="url(#shadow)"/>
<rect x="650" y="280" width="40" height="25" rx="4" fill="#95A5A6"/>
<text x="670" y="297" text-anchor="middle" font-family="Arial, sans-serif" font-size="11" font-weight="bold" fill="white">I/O</text>
<text x="650" y="320" font-family="Arial, sans-serif" font-size="13" font-weight="600" fill="#2c3e50">Intel Corporate Device</text>
<text x="650" y="338" font-family="Courier New, monospace" font-size="14" font-weight="bold" fill="#3498db">10.1.1.167</text>
<text x="650" y="352" font-family="Arial, sans-serif" font-size="11" fill="#7f8c8d">Intel Corporate</text>
<rect x="920" y="270" width="260" height="90" rx="8" fill="white" stroke="#ddd" stroke-width="1" filter="url(#shadow)"/>
<rect x="930" y="280" width="40" height="25" rx="4" fill="#95A5A6"/>
<text x="950" y="297" text-anchor="middle" font-family="Arial, sans-serif" font-size="11" font-weight="bold" fill="white">I/O</text>
<text x="930" y="320" font-family="Arial, sans-serif" font-size="13" font-weight="600" fill="#2c3e50">Unknown Device</text>
<text x="930" y="338" font-family="Courier New, monospace" font-size="14" font-weight="bold" fill="#3498db">ff02::1:2</text>
<text x="930" y="352" font-family="Arial, sans-serif" font-size="11" fill="#7f8c8d">Unknown Vendor</text>
<rect x="1200" y="270" width="260" height="90" rx="8" fill="white" stroke="#ddd" stroke-width="1" filter="url(#shadow)"/>
<rect x="1210" y="280" width="40" height="25" rx="4" fill="#F39C12"/>
<text x="1230" y="297" text-anchor="middle" font-family="Arial, sans-serif" font-size="11" font-weight="bold" fill="white">HMI</text>
<text x="1210" y="320" font-family="Arial, sans-serif" font-size="13" font-weight="600" fill="#2c3e50">VMware, Device</text>
<text x="1210" y="338" font-family="Courier New, monospace" font-size="14" font-weight="bold" fill="#3498db">192.168.10.23</text>
<text x="1210" y="352" font-family="Arial, sans-serif" font-size="11" fill="#7f8c8d">VMware,</text>
<rect x="80" y="380" width="260" height="90" rx="8" fill="white" stroke="#ddd" stroke-width="1" filter="url(#shadow)"/>
<rect x="90" y="390" width="40" height="25" rx="4" fill="#F39C12"/>
<text x="110" y="407" text-anchor="middle" font-family="Arial, sans-serif" font-size="11" font-weight="bold" fill="white">HMI</text>
<text x="90" y="430" font-family="Arial, sans-serif" font-size="13" font-weight="600" fill="#2c3e50">VMware, Device</text>
<text x="90" y="448" font-family="Courier New, monospace" font-size="14" font-weight="bold" fill="#3498db">192.168.10.248</text>
<text x="90" y="462" font-family="Arial, sans-serif" font-size="11" fill="#7f8c8d">VMware,</text>
<rect x="360" y="380" width="260" height="90" rx="8" fill="white" stroke="#ddd" stroke-width="1" filter="url(#shadow)"/>
<rect x="370" y="390" width="40" height="25" rx="4" fill="#F39C12"/>
<text x="390" y="407" text-anchor="middle" font-family="Arial, sans-serif" font-size="11" font-weight="bold" fill="white">HMI</text>
<text x="370" y="430" font-family="Arial, sans-serif" font-size="13" font-weight="600" fill="#2c3e50">VMware, Device</text>
<text x="370" y="448" font-family="Courier New, monospace" font-size="14" font-weight="bold" fill="#3498db">192.168.1.69</text>
<text x="370" y="462" font-family="Arial, sans-serif" font-size="11" fill="#7f8c8d">VMware,</text>
<rect x="640" y="380" width="260" height="90" rx="8" fill="white" stroke="#ddd" stroke-width="1" filter="url(#shadow)"/>
<rect x="650" y="390" width="40" height="25" rx="4" fill="#95A5A6"/>
<text x="670" y="407" text-anchor="middle" font-family="Arial, sans-serif" font-size="11" font-weight="bold" fill="white">I/O</text>
<text x="650" y="430" font-family="Arial, sans-serif" font-size="13" font-weight="600" fill="#2c3e50">Hewlett Packard Device</text>
<text x="650" y="448" font-family="Courier New, monospace" font-size="14" font-weight="bold" fill="#3498db">141.81.0.10</text>
<text x="650" y="462" font-family="Arial, sans-serif" font-size="11" fill="#7f8c8d">Hewlett Packard</text>
<rect x="920" y="380" width="260" height="90" rx="8" fill="white" stroke="#ddd" stroke-width="1" filter="url(#shadow)"/>
<rect x="930" y="390" width="40" height="25" rx="4" fill="#F39C12"/>
<text x="950" y="407" text-anchor="middle" font-family="Arial, sans-serif" font-size="11" font-weight="bold" fill="white">HMI</text>
<text x="930" y="430" font-family="Arial, sans-serif" font-size="13" font-weight="600" fill="#2c3e50">VMware, Device</text>
<text x="930" y="448" font-family="Courier New, monospace" font-size="14" font-weight="bold" fill="#3498db">192.168.1.10</text>
<text x="930" y="462" font-family="Arial, sans-serif" font-size="11" fill="#7f8c8d">VMware,</text>
<rect x="1200" y="380" width="260" height="90" rx="8" fill="white" stroke="#ddd" stroke-width="1" filter="url(#shadow)"/>
<rect x="1210" y="390" width="40" height="25" rx="4" fill="#F39C12"/>
<text x="1230" y="407" text-anchor="middle" font-family="Arial, sans-serif" font-size="11" font-weight="bold" fill="white">HMI</text>
<text x="1210" y="430" font-family="Arial, sans-serif" font-size="13" font-weight="600" fill="#2c3e50">VMware, Device</text>
<text x="1210" y="448" font-family="Courier New, monospace" font-size="14" font-weight="bold" fill="#3498db">1.1.1.1</text>
<text x="1210" y="462" font-family="Arial, sans-serif" font-size="11" fill="#7f8c8d">VMware,</text>
<rect x="80" y="490" width="260" height="90" rx="8" fill="white" stroke="#ddd" stroke-width="1" filter="url(#shadow)"/>
<rect x="90" y="500" width="40" height="25" rx="4" fill="#95A5A6"/>
<text x="110" y="517" text-anchor="middle" font-family="Arial, sans-serif" font-size="11" font-weight="bold" fill="white">I/O</text>
<text x="90" y="540" font-family="Arial, sans-serif" font-size="13" font-weight="600" fill="#2c3e50">INVENTEC CORPORATION D...</text>
<text x="90" y="558" font-family="Courier New, monospace" font-size="14" font-weight="bold" fill="#3498db">fe80::448b:ce1c:e923:6f79</text>
<text x="90" y="572" font-family="Arial, sans-serif" font-size="11" fill="#7f8c8d">INVENTEC CORPORATION</text>
<rect x="360" y="490" width="260" height="90" rx="8" fill="white" stroke="#ddd" stroke-width="1" filter="url(#shadow)"/>
<rect x="370" y="500" width="40" height="25" rx="4" fill="#95A5A6"/>
<text x="390" y="517" text-anchor="middle" font-family="Arial, sans-serif" font-size="11" font-weight="bold" fill="white">I/O</text>
<text x="370" y="540" font-family="Arial, sans-serif" font-size="13" font-weight="600" fill="#2c3e50">Super Micro Computer, ...</text>
<text x="370" y="558" font-family="Courier New, monospace" font-size="14" font-weight="bold" fill="#3498db">192.168.10.107</text>
<text x="370" y="572" font-family="Arial, sans-serif" font-size="11" fill="#7f8c8d">Super Micro Computer,</text>
<rect x="640" y="490" width="260" height="90" rx="8" fill="white" stroke="#ddd" stroke-width="1" filter="url(#shadow)"/>
<rect x="650" y="500" width="40" height="25" rx="4" fill="#F39C12"/>
<text x="670" y="517" text-anchor="middle" font-family="Arial, sans-serif" font-size="11" font-weight="bold" fill="white">HMI</text>
<text x="650" y="540" font-family="Arial, sans-serif" font-size="13" font-weight="600" fill="#2c3e50">VMware, Device</text>
<text x="650" y="558" font-family="Courier New, monospace" font-size="14" font-weight="bold" fill="#3498db">192.168.10.62</text>
<text x="650" y="572" font-family="Arial, sans-serif" font-size="11" fill="#7f8c8d">VMware,</text>
<rect x="920" y="490" width="260" height="90" rx="8" fill="white" stroke="#ddd" stroke-width="1" filter="url(#shadow)"/>
<rect x="930" y="500" width="40" height="25" rx="4" fill="#95A5A6"/>
<text x="950" y="517" text-anchor="middle" font-family="Arial, sans-serif" font-size="11" font-weight="bold" fill="white">I/O</text>
<text x="930" y="540" font-family="Arial, sans-serif" font-size="13" font-weight="600" fill="#2c3e50">Unknown Device</text>
<text x="930" y="558" font-family="Courier New, monospace" font-size="14" font-weight="bold" fill="#3498db">224.0.0.251</text>
<text x="930" y="572" font-family="Arial, sans-serif" font-size="11" fill="#7f8c8d">Unknown Vendor</text>
<rect x="1200" y="490" width="260" height="90" rx="8" fill="white" stroke="#ddd" stroke-width="1" filter="url(#shadow)"/>
<rect x="1210" y="500" width="40" height="25" rx="4" fill="#F39C12"/>
<text x="1230" y="517" text-anchor="middle" font-family="Arial, sans-serif" font-size="11" font-weight="bold" fill="white">HMI</text>
<text x="1210" y="540" font-family="Arial, sans-serif" font-size="13" font-weight="600" fill="#2c3e50">VMware, Device</text>
<text x="1210" y="558" font-family="Courier New, monospace" font-size="14" font-weight="bold" fill="#3498db">192.168.10.22</text>
<text x="1210" y="572" font-family="Arial, sans-serif" font-size="11" fill="#7f8c8d">VMware,</text>
<rect x="80" y="600" width="260" height="90" rx="8" fill="white" stroke="#ddd" stroke-width="1" filter="url(#shadow)"/>
<rect x="90" y="610" width="40" height="25" rx="4" fill="#95A5A6"/>
<text x="110" y="627" text-anchor="middle" font-family="Arial, sans-serif" font-size="11" font-weight="bold" fill="white">I/O</text>
<text x="90" y="650" font-family="Arial, sans-serif" font-size="13" font-weight="600" fill="#2c3e50">Unknown Device</text>
<text x="90" y="668" font-family="Courier New, monospace" font-size="14" font-weight="bold" fill="#3498db">239.255.255.250</text>
<text x="90" y="682" font-family="Arial, sans-serif" font-size="11" fill="#7f8c8d">Unknown Vendor</text>
<rect x="360" y="600" width="260" height="90" rx="8" fill="white" stroke="#ddd" stroke-width="1" filter="url(#shadow)"/>
<rect x="370" y="610" width="40" height="25" rx="4" fill="#95A5A6"/>
<text x="390" y="627" text-anchor="middle" font-family="Arial, sans-serif" font-size="11" font-weight="bold" fill="white">I/O</text>
<text x="370" y="650" font-family="Arial, sans-serif" font-size="13" font-weight="600" fill="#2c3e50">Unknown Device</text>
<text x="370" y="668" font-family="Courier New, monospace" font-size="14" font-weight="bold" fill="#3498db">192.168.10.204</text>
<text x="370" y="682" font-family="Arial, sans-serif" font-size="11" fill="#7f8c8d">Unknown Vendor</text>
<rect x="640" y="600" width="260" height="90" rx="8" fill="white" stroke="#ddd" stroke-width="1" filter="url(#shadow)"/>
<rect x="650" y="610" width="40" height="25" rx="4" fill="#95A5A6"/>
<text x="670" y="627" text-anchor="middle" font-family="Arial, sans-serif" font-size="11" font-weight="bold" fill="white">I/O</text>
<text x="650" y="650" font-family="Arial, sans-serif" font-size="13" font-weight="600" fill="#2c3e50">Dell Device</text>
<text x="650" y="668" font-family="Courier New, monospace" font-size="14" font-weight="bold" fill="#3498db">192.168.0.21</text>
<text x="650" y="682" font-family="Arial, sans-serif" font-size="11" fill="#7f8c8d">Dell</text>
<rect x="920" y="600" width="260" height="90" rx="8" fill="white" stroke="#ddd" stroke-width="1" filter="url(#shadow)"/>
<rect x="930" y="610" width="40" height="25" rx="4" fill="#F39C12"/>
<text x="950" y="627" text-anchor="middle" font-family="Arial, sans-serif" font-size="11" font-weight="bold" fill="white">HMI</text>
<text x="930" y="650" font-family="Arial, sans-serif" font-size="13" font-weight="600" fill="#2c3e50">VMware, Device</text>
<text x="930" y="668" font-family="Courier New, monospace" font-size="14" font-weight="bold" fill="#3498db">192.168.10.24</text>
<text x="930" y="682" font-family="Arial, sans-serif" font-size="11" fill="#7f8c8d">VMware,</text>

<rect x="50" y="870" width="1500" height="420" rx="15" fill="url(#supervisoryGrad)" stroke="#ff8800" stroke-width="3" filter="url(#shadow)"/>
<text x="70" y="905" font-family="Arial, sans-serif" font-size="22" font-weight="bold" fill="#ff8800">Level 2: Supervisory Control</text>
<text x="70" y="925" font-family="Arial, sans-serif" font-size="14" font-style="italic" fill="#ff8800" opacity="0.8">SCADA | HMI | Alarming | Reporting | Trending</text>
<rect x="80" y="950" width="260" height="90" rx="8" fill="white" stroke="#ddd" stroke-width="1" filter="url(#shadow)"/>
<rect x="90" y="960" width="40" height="25" rx="4" fill="#8E44AD"/>
<text x="110" y="977" text-anchor="middle" font-family="Arial, sans-serif" font-size="11" font-weight="bold" fill="white">PLC</text>
<text x="90" y="1000" font-family="Arial, sans-serif" font-size="13" font-weight="600" fill="#2c3e50">Rockwell Automation De...</text>
<text x="90" y="1018" font-family="Courier New, monospace" font-size="14" font-weight="bold" fill="#3498db">192.168.10.120</text>
<text x="90" y="1032" font-family="Arial, sans-serif" font-size="11" fill="#7f8c8d">Rockwell Automation</text>
<rect x="360" y="950" width="260" height="90" rx="8" fill="white" stroke="#ddd" stroke-width="1" filter="url(#shadow)"/>
<rect x="370" y="960" width="40" height="25" rx="4" fill="#E74C3C"/>
<text x="390" y="977" text-anchor="middle" font-family="Arial, sans-serif" font-size="11" font-weight="bold" fill="white">GW</text>
<text x="370" y="1000" font-family="Arial, sans-serif" font-size="13" font-weight="600" fill="#2c3e50">Cisco Systems, Inc Device</text>
<text x="370" y="1018" font-family="Courier New, monospace" font-size="14" font-weight="bold" fill="#3498db">10.1.1.164</text>
<text x="370" y="1032" font-family="Arial, sans-serif" font-size="11" fill="#7f8c8d">Cisco Systems, Inc</text>
<rect x="640" y="950" width="260" height="90" rx="8" fill="white" stroke="#ddd" stroke-width="1" filter="url(#shadow)"/>
<rect x="650" y="960" width="40" height="25" rx="4" fill="#8E44AD"/>
<text x="670" y="977" text-anchor="middle" font-family="Arial, sans-serif" font-size="11" font-weight="bold" fill="white">PLC</text>
<text x="650" y="1000" font-family="Arial, sans-serif" font-size="13" font-weight="600" fill="#2c3e50">Rockwell Automation De...</text>
<text x="650" y="1018" font-family="Courier New, monospace" font-size="14" font-weight="bold" fill="#3498db">141.81.0.83</text>
<text x="650" y="1032" font-family="Arial, sans-serif" font-size="11" fill="#7f8c8d">Rockwell Automation</text>
<rect x="920" y="950" width="260" height="90" rx="8" fill="white" stroke="#ddd" stroke-width="1" filter="url(#shadow)"/>
<rect x="930" y="960" width="40" height="25" rx="4" fill="#8E44AD"/>
<text x="950" y="977" text-anchor="middle" font-family="Arial, sans-serif" font-size="11" font-weight="bold" fill="white">PLC</text>
<text x="930" y="1000" font-family="Arial, sans-serif" font-size="13" font-weight="600" fill="#2c3e50">Rockwell Automation De...</text>
<text x="930" y="1018" font-family="Courier New, monospace" font-size="14" font-weight="bold" fill="#3498db">141.81.0.43</text>
<text x="930" y="1032" font-family="Arial, sans-serif" font-size="11" fill="#7f8c8d">Rockwell Automation</text>
<rect x="1200" y="950" width="260" height="90" rx="8" fill="white" stroke="#ddd" stroke-width="1" filter="url(#shadow)"/>
<rect x="1210" y="960" width="40" height="25" rx="4" fill="#8E44AD"/>
<text x="1230" y="977" text-anchor="middle" font-family="Arial, sans-serif" font-size="11" font-weight="bold" fill="white">PLC</text>
<text x="1210" y="1000" font-family="Arial, sans-serif" font-size="13" font-weight="600" fill="#2c3e50">Rockwell Automation De...</text>
<text x="1210" y="1018" font-family="Courier New, monospace" font-size="14" font-weight="bold" fill="#3498db">141.81.0.63</text>
<text x="1210" y="1032" font-family="Arial, sans-serif" font-size="11" fill="#7f8c8d">Rockwell Automation</text>
<rect x="80" y="1060" width="260" height="90" rx="8" fill="white" stroke="#ddd" stroke-width="1" filter="url(#shadow)"/>
<rect x="90" y="1070" width="40" height="25" rx="4" fill="#8E44AD"/>
<text x="110" y="1087" text-anchor="middle" font-family="Arial, sans-serif" font-size="11" font-weight="bold" fill="white">PLC</text>
<text x="90" y="1110" font-family="Arial, sans-serif" font-size="13" font-weight="600" fill="#2c3e50">Rockwell Automation De...</text>
<text x="90" y="1128" font-family="Courier New, monospace" font-size="14" font-weight="bold" fill="#3498db">141.81.0.23</text>
<text x="90" y="1142" font-family="Arial, sans-serif" font-size="11" fill="#7f8c8d">Rockwell Automation</text>

<rect x="50" y="1330" width="1500" height="530" rx="15" fill="url(#processGrad)" stroke="#00aa44" stroke-width="3" filter="url(#shadow)"/>
<text x="70" y="1365" font-family="Arial, sans-serif" font-size="22" font-weight="bold" fill="#00aa44">Level 1: Process Control</text>
<text x="70" y="1385" font-family="Arial, sans-serif" font-size="14" font-style="italic" fill="#00aa44" opacity="0.8">PLCs | RTUs | Basic Control &amp; I/O</text>
<rect x="80" y="1410" width="260" height="90" rx="8" fill="white" stroke="#ddd" stroke-width="1" filter="url(#shadow)"/>
<rect x="90" y="1420" width="40" height="25" rx="4" fill="#8E44AD"/>
<text x="110" y="1437" text-anchor="middle" font-family="Arial, sans-serif" font-size="11" font-weight="bold" fill="white">PLC</text>
<text x="90" y="1460" font-family="Arial, sans-serif" font-size="13" font-weight="600" fill="#2c3e50">Rockwell Automation PLC</text>
<text x="90" y="1478" font-family="Courier New, monospace" font-size="14" font-weight="bold" fill="#3498db">192.168.1.22</text>
<text x="90" y="1492" font-family="Arial, sans-serif" font-size="11" fill="#7f8c8d">Rockwell Automation</text>
<rect x="360" y="1410" width="260" height="90" rx="8" fill="white" stroke="#ddd" stroke-width="1" filter="url(#shadow)"/>
<rect x="370" y="1420" width="40" height="25" rx="4" fill="#95A5A6"/>
<text x="390" y="1437" text-anchor="middle" font-family="Arial, sans-serif" font-size="11" font-weight="bold" fill="white">I/O</text>
<text x="370" y="1460" font-family="Arial, sans-serif" font-size="13" font-weight="600" fill="#2c3e50">Unknown Device</text>
<text x="370" y="1478" font-family="Courier New, monospace" font-size="14" font-weight="bold" fill="#3498db">ff02::1:fff1:83ba</text>
<text x="370" y="1492" font-family="Arial, sans-serif" font-size="11" fill="#7f8c8d">Unknown Vendor</text>
<rect x="640" y="1410" width="260" height="90" rx="8" fill="white" stroke="#ddd" stroke-width="1" filter="url(#shadow)"/>
<rect x="650" y="1420" width="40" height="25" rx="4" fill="#95A5A6"/>
<text x="670" y="1437" text-anchor="middle" font-family="Arial, sans-serif" font-size="11" font-weight="bold" fill="white">I/O</text>
<text x="650" y="1460" font-family="Arial, sans-serif" font-size="13" font-weight="600" fill="#2c3e50">Dell Device</text>
<text x="650" y="1478" font-family="Courier New, monospace" font-size="14" font-weight="bold" fill="#3498db">192.168.0.30</text>
<text x="650" y="1492" font-family="Arial, sans-serif" font-size="11" fill="#7f8c8d">Dell</text>
<rect x="920" y="1410" width="260" height="90" rx="8" fill="white" stroke="#ddd" stroke-width="1" filter="url(#shadow)"/>
<rect x="930" y="1420" width="40" height="25" rx="4" fill="#95A5A6"/>
<text x="950" y="1437" text-anchor="middle" font-family="Arial, sans-serif" font-size="11" font-weight="bold" fill="white">I/O</text>
<text x="930" y="1460" font-family="Arial, sans-serif" font-size="13" font-weight="600" fill="#2c3e50">Unknown Device</text>
<text x="930" y="1478" font-family="Courier New, monospace" font-size="14" font-weight="bold" fill="#3498db">ff02::2</text>
<text x="930" y="1492" font-family="Arial, sans-serif" font-size="11" fill="#7f8c8d">Unknown Vendor</text>
<rect x="1200" y="1410" width="260" height="90" rx="8" fill="white" stroke="#ddd" stroke-width="1" filter="url(#shadow)"/>
<rect x="1210" y="1420" width="40" height="25" rx="4" fill="#95A5A6"/>
<text x="1230" y="1437" text-anchor="middle" font-family="Arial, sans-serif" font-size="11" font-weight="bold" fill="white">I/O</text>
<text x="1210" y="1460" font-family="Arial, sans-serif" font-size="13" font-weight="600" fill="#2c3e50">Device</text>
<text x="1210" y="1478" font-family="Courier New, monospace" font-size="14" font-weight="bold" fill="#3498db">192.168.10.255</text>
<text x="1210" y="1492" font-family="Arial, sans-serif" font-size="11" fill="#7f8c8d">Unknown Vendor</text>
<rect x="80" y="1520" width="260" height="90" rx="8" fill="white" stroke="#ddd" stroke-width="1" filter="url(#shadow)"/>
<rect x="90" y="1530" width="40" height="25" rx="4" fill="#8E44AD"/>
<text x="110" y="1547" text-anchor="middle" font-family="Arial, sans-serif" font-size="11" font-weight="bold" fill="white">PLC</text>
<text x="90" y="1570" font-family="Arial, sans-serif" font-size="13" font-weight="600" fill="#2c3e50">Rockwell Automation De...</text>
<text x="90" y="1588" font-family="Courier New, monospace" font-size="14" font-weight="bold" fill="#3498db">192.168.10.121</text>
<text x="90" y="1602" font-family="Arial, sans-serif" font-size="11" fill="#7f8c8d">Rockwell Automation</text>
<rect x="360" y="1520" width="260" height="90" rx="8" fill="white" stroke="#ddd" stroke-width="1" filter="url(#shadow)"/>
<rect x="370" y="1530" width="40" height="25" rx="4" fill="#95A5A6"/>
<text x="390" y="1547" text-anchor="middle" font-family="Arial, sans-serif" font-size="11" font-weight="bold" fill="white">I/O</text>
<text x="370" y="1570" font-family="Arial, sans-serif" font-size="13" font-weight="600" fill="#2c3e50">Device</text>
<text x="370" y="1588" font-family="Courier New, monospace" font-size="14" font-weight="bold" fill="#3498db">192.168.10.140</text>
<text x="370" y="1602" font-family="Arial, sans-serif" font-size="11" fill="#7f8c8d">Unknown Vendor</text>
<rect x="640" y="1520" width="260" height="90" rx="8" fill="white" stroke="#ddd" stroke-width="1" filter="url(#shadow)"/>
<rect x="650" y="1530" width="40" height="25" rx="4" fill="#95A5A6"/>
<text x="670" y="1547" text-anchor="middle" font-family="Arial, sans-serif" font-size="11" font-weight="bold" fill="white">I/O</text>
<text x="650" y="1570" font-family="Arial, sans-serif" font-size="13" font-weight="600" fill="#2c3e50">Unknown Device</text>
<text x="650" y="1588" font-family="Courier New, monospace" font-size="14" font-weight="bold" fill="#3498db">ff02::16</text>
<text x="650" y="1602" font-family="Arial, sans-serif" font-size="11" fill="#7f8c8d">Unknown Vendor</text>
<rect x="920" y="1520" width="260" height="90" rx="8" fill="white" stroke="#ddd" stroke-width="1" filter="url(#shadow)"/>
<rect x="930" y="1530" width="40" height="25" rx="4" fill="#95A5A6"/>
<text x="950" y="1547" text-anchor="middle" font-family="Arial, sans-serif" font-size="11" font-weight="bold" fill="white">I/O</text>
<text x="930" y="1570" font-family="Arial, sans-serif" font-size="13" font-weight="600" fill="#2c3e50">D-Link Device</text>
<text x="930" y="1588" font-family="Courier New, monospace" font-size="14" font-weight="bold" fill="#3498db">208.73.217.142</text>
<text x="930" y="1602" font-family="Arial, sans-serif" font-size="11" fill="#7f8c8d">D-Link</text>
<rect x="1200" y="1520" width="260" height="90" rx="8" fill="white" stroke="#ddd" stroke-width="1" filter="url(#shadow)"/>
<rect x="1210" y="1530" width="40" height="25" rx="4" fill="#95A5A6"/>
<text x="1230" y="1547" text-anchor="middle" font-family="Arial, sans-serif" font-size="11" font-weight="bold" fill="white">I/O</text>
<text x="1210" y="1570" font-family="Arial, sans-serif" font-size="13" font-weight="600" fill="#2c3e50">Unknown Device</text>
<text x="1210" y="1588" font-family="Courier New, monospace" font-size="14" font-weight="bold" fill="#3498db">239.255.255.100</text>
<text x="1210" y="1602" font-family="Arial, sans-serif" font-size="11" fill="#7f8c8d">Unknown Vendor</text>
<rect x="80" y="1630" width="260" height="90" rx="8" fill="white" stroke="#ddd" stroke-width="1" filter="url(#shadow)"/>
<rect x="90" y="1640" width="40" height="25" rx="4" fill="#95A5A6"/>
<text x="110" y="1657" text-anchor="middle" font-family="Arial, sans-serif" font-size="11" font-weight="bold" fill="white">I/O</text>
<text x="90" y="1680" font-family="Arial, sans-serif" font-size="13" font-weight="600" fill="#2c3e50">Unknown Device</text>
<text x="90" y="1698" font-family="Courier New, monospace" font-size="14" font-weight="bold" fill="#3498db">224.0.0.22</text>
<text x="90" y="1712" font-family="Arial, sans-serif" font-size="11" fill="#7f8c8d">Unknown Vendor</text>
<rect x="360" y="1630" width="260" height="90" rx="8" fill="white" stroke="#ddd" stroke-width="1" filter="url(#shadow)"/>
<rect x="370" y="1640" width="40" height="25" rx="4" fill="#95A5A6"/>
<text x="390" y="1657" text-anchor="middle" font-family="Arial, sans-serif" font-size="11" font-weight="bold" fill="white">I/O</text>
<text x="370" y="1680" font-family="Arial, sans-serif" font-size="13" font-weight="600" fill="#2c3e50">Unknown Device</text>
<text x="370" y="1698" font-family="Courier New, monospace" font-size="14" font-weight="bold" fill="#3498db">ff02::1</text>
<text x="370" y="1712" font-family="Arial, sans-serif" font-size="11" fill="#7f8c8d">Unknown Vendor</text>
<rect x="640" y="1630" width="260" height="90" rx="8" fill="white" stroke="#ddd" stroke-width="1" filter="url(#shadow)"/>
<rect x="650" y="1640" width="40" height="25" rx="4" fill="#8E44AD"/>
<text x="670" y="1657" text-anchor="middle" font-family="Arial, sans-serif" font-size="11" font-weight="bold" fill="white">PLC</text>
<text x="650" y="1680" font-family="Arial, sans-serif" font-size="13" font-weight="600" fill="#2c3e50">Rockwell Automation PLC</text>
<text x="650" y="1698" font-family="Courier New, monospace" font-size="14" font-weight="bold" fill="#3498db">192.168.1.24</text>
<text x="650" y="1712" font-family="Arial, sans-serif" font-size="11" fill="#7f8c8d">Rockwell Automation</text>
<rect x="920" y="1630" width="260" height="90" rx="8" fill="white" stroke="#ddd" stroke-width="1" filter="url(#shadow)"/>
<rect x="930" y="1640" width="40" height="25" rx="4" fill="#8E44AD"/>
<text x="950" y="1657" text-anchor="middle" font-family="Arial, sans-serif" font-size="11" font-weight="bold" fill="white">PLC</text>
<text x="930" y="1680" font-family="Arial, sans-serif" font-size="13" font-weight="600" fill="#2c3e50">Rockwell Automation De...</text>
<text x="930" y="1698" font-family="Courier New, monospace" font-size="14" font-weight="bold" fill="#3498db">192.168.1.30</text>
<text x="930" y="1712" font-family="Arial, sans-serif" font-size="11" fill="#7f8c8d">Rockwell Automation</text>
<rect x="1200" y="1630" width="260" height="90" rx="8" fill="white" stroke="#ddd" stroke-width="1" filter="url(#shadow)"/>
<rect x="1210" y="1640" width="40" height="25" rx="4" fill="#95A5A6"/>
<text x="1230" y="1657" text-anchor="middle" font-family="Arial, sans-serif" font-size="11" font-weight="bold" fill="white">I/O</text>
<text x="1210" y="1680" font-family="Arial, sans-serif" font-size="13" font-weight="600" fill="#2c3e50">Unknown Device</text>
<text x="1210" y="1698" font-family="Courier New, monospace" font-size="14" font-weight="bold" fill="#3498db">ff02::1:ff23:6f79</text>
<text x="1210" y="1712" font-family="Arial, sans-serif" font-size="11" fill="#7f8c8d">Unknown Vendor</text>

<!-- Inter-level connections -->
<path d="M210,535 Q310,535 930,535 Q1550,535 1550,995 Q1550,1455 1210,1455 Q870,1455 820,1455 L770,1455" stroke="#2980b9" stroke-width="2.5" fill="none" opacity="0.8" stroke-linecap="round"/>
<path d="M1330,205 Q1230,205 640,205 Q50,205 50,600 Q50,995 80,995 Q110,995 160,995 L210,995" stroke="#2980b9" stroke-width="2.5" fill="none" opacity="0.8" stroke-linecap="round"/>
<rect x="770" y="391" width="60" height="18" rx="4" fill="white" stroke="#2980b9" stroke-width="1" opacity="0.9"/>
<text x="800" y="403" text-anchor="middle" font-family="Arial, sans-serif" font-size="10" font-weight="600" fill="#2c3e50">ENIP-TCP-44818</text>
<path d="M210,535 Q310,535 930,535 Q1550,535 1550,995 Q1550,1455 1070,1455 Q590,1455 540,1455 L490,1455" stroke="#2980b9" stroke-width="2.5" fill="none" opacity="0.8" stroke-linecap="round"/>
<path d="M770,315 Q670,315 360,315 Q50,315 50,655 Q50,995 220,995 Q390,995 440,995 L490,995" stroke="#2980b9" stroke-width="2.5" fill="none" opacity="0.8" stroke-linecap="round"/>
<rect x="770" y="391" width="60" height="18" rx="4" fill="white" stroke="#2980b9" stroke-width="1" opacity="0.9"/>
<text x="800" y="403" text-anchor="middle" font-family="Arial, sans-serif" font-size="10" font-weight="600" fill="#2c3e50">ENIP-TCP-44818</text>
<path d="M490,645 Q590,645 1070,645 Q1550,645 1550,1105 Q1550,1565 1070,1565 Q590,1565 540,1565 L490,1565" stroke="#2980b9" stroke-width="2.5" fill="none" opacity="0.8" stroke-linecap="round"/>
<rect x="770" y="391" width="60" height="18" rx="4" fill="white" stroke="#2980b9" stroke-width="1" opacity="0.9"/>
<text x="800" y="403" text-anchor="middle" font-family="Arial, sans-serif" font-size="10" font-weight="600" fill="#2c3e50">DNP3-TCP-20000</text>
<path d="M210,535 Q110,535 80,535 Q50,535 50,995 Q50,1455 500,1455 Q950,1455 1000,1455 L1050,1455" stroke="#2980b9" stroke-width="2.5" fill="none" opacity="0.8" stroke-linecap="round"/>
<path d="M210,535 Q310,535 930,535 Q1550,535 1550,1105 Q1550,1675 1070,1675 Q590,1675 540,1675 L490,1675" stroke="#2980b9" stroke-width="2.5" fill="none" opacity="0.8" stroke-linecap="round"/>
<path d="M210,535 Q110,535 80,535 Q50,535 50,1105 Q50,1675 80,1675 Q110,1675 160,1675 L210,1675" stroke="#2980b9" stroke-width="2.5" fill="none" opacity="0.8" stroke-linecap="round"/>
<path d="M1330,535 Q1430,535 1490,535 Q1550,535 1550,995 Q1550,1455 1490,1455 Q1430,1455 1380,1455 L1330,1455" stroke="#2980b9" stroke-width="2.5" fill="none" opacity="0.8" stroke-linecap="round"/>
<path d="M210,535 Q110,535 80,535 Q50,535 50,1050 Q50,1565 360,1565 Q670,1565 720,1565 L770,1565" stroke="#2980b9" stroke-width="2.5" fill="none" opacity="0.8" stroke-linecap="round"/>
<path d="M210,535 Q310,535 930,535 Q1550,535 1550,995 Q1550,1455 1490,1455 Q1430,1455 1380,1455 L1330,1455" stroke="#2980b9" stroke-width="2.5" fill="none" opacity="0.8" stroke-linecap="round"/>
<path d="M770,645 Q670,645 360,645 Q50,645 50,1050 Q50,1455 640,1455 Q1230,1455 1280,1455 L1330,1455" stroke="#2980b9" stroke-width="2.5" fill="none" opacity="0.8" stroke-linecap="round"/>
<path d="M210,995 Q310,995 930,995 Q1550,995 1550,1225 Q1550,1455 1490,1455 Q1430,1455 1380,1455 L1330,1455" stroke="#2980b9" stroke-width="2.5" fill="none" opacity="0.8" stroke-linecap="round"/>

</svg>
