<svg width="1600" height="1140" xmlns="http://www.w3.org/2000/svg">
<defs>

		<linearGradient id="operationsGrad" x1="0%" y1="0%" x2="0%" y2="100%">
			<stop offset="0%" style="stop-color:#e6f3ff"/>
			<stop offset="100%" style="stop-color:#cce7ff"/>
		</linearGradient>
		<linearGradient id="supervisoryGrad" x1="0%" y1="0%" x2="0%" y2="100%">
			<stop offset="0%" style="stop-color:#fff2e6"/>
			<stop offset="100%" style="stop-color:#ffe5cc"/>
		</linearGradient>
		<linearGradient id="processGrad" x1="0%" y1="0%" x2="0%" y2="100%">
			<stop offset="0%" style="stop-color:#e8f6e8"/>
			<stop offset="100%" style="stop-color:#d4f4d4"/>
		</linearGradient>
		<filter id="shadow" x="-50%" y="-50%" width="200%" height="200%">
			<feDropShadow dx="2" dy="4" stdDeviation="4" flood-opacity="0.2"/>
		</filter>
	</defs>
<rect width="1600" height="1140" fill="white"/>
<text x="800" y="40" text-anchor="middle" font-family="Arial, sans-serif" font-size="28" font-weight="bold" fill="#333">Purdue Model - Industrial Control System Architecture</text>
<rect x="50" y="80" width="1500" height="280" rx="15" fill="url(#operationsGrad)" stroke="#0066cc" stroke-width="3" filter="url(#shadow)"/>
<text x="70" y="115" font-family="Arial, sans-serif" font-size="22" font-weight="bold" fill="#0066cc">Level 3: Operations Systems</text>
<text x="70" y="135" font-family="Arial, sans-serif" font-size="14" font-style="italic" fill="#0066cc" opacity="0.8">MES | Scheduling | OEE | Quality Management</text>
<rect x="80" y="160" width="260" height="90" rx="8" fill="white" stroke="#ddd" stroke-width="1" filter="url(#shadow)"/>
<rect x="90" y="170" width="40" height="25" rx="4" fill="#F39C12"/>
<text x="110" y="187" text-anchor="middle" font-family="Arial, sans-serif" font-size="11" font-weight="bold" fill="white">HMI</text>
<text x="90" y="210" font-family="Arial, sans-serif" font-size="13" font-weight="600" fill="#2c3e50">VMware, Device</text>
<text x="90" y="228" font-family="Courier New, monospace" font-size="14" font-weight="bold" fill="#3498db">192.168.10.24</text>
<text x="90" y="242" font-family="Arial, sans-serif" font-size="11" fill="#7f8c8d">VMware,</text>
<rect x="360" y="160" width="260" height="90" rx="8" fill="white" stroke="#ddd" stroke-width="1" filter="url(#shadow)"/>
<rect x="370" y="170" width="40" height="25" rx="4" fill="#95A5A6"/>
<text x="390" y="187" text-anchor="middle" font-family="Arial, sans-serif" font-size="11" font-weight="bold" fill="white">I/O</text>
<text x="370" y="210" font-family="Arial, sans-serif" font-size="13" font-weight="600" fill="#2c3e50">Dell Device</text>
<text x="370" y="228" font-family="Courier New, monospace" font-size="14" font-weight="bold" fill="#3498db">192.168.10.105</text>
<text x="370" y="242" font-family="Arial, sans-serif" font-size="11" fill="#7f8c8d">Dell</text>
<rect x="640" y="160" width="260" height="90" rx="8" fill="white" stroke="#ddd" stroke-width="1" filter="url(#shadow)"/>
<rect x="650" y="170" width="40" height="25" rx="4" fill="#F39C12"/>
<text x="670" y="187" text-anchor="middle" font-family="Arial, sans-serif" font-size="11" font-weight="bold" fill="white">HMI</text>
<text x="650" y="210" font-family="Arial, sans-serif" font-size="13" font-weight="600" fill="#2c3e50">VMware, Device</text>
<text x="650" y="228" font-family="Courier New, monospace" font-size="14" font-weight="bold" fill="#3498db">192.168.10.23</text>
<text x="650" y="242" font-family="Arial, sans-serif" font-size="11" fill="#7f8c8d">VMware,</text>
<rect x="920" y="160" width="260" height="90" rx="8" fill="white" stroke="#ddd" stroke-width="1" filter="url(#shadow)"/>
<rect x="930" y="170" width="40" height="25" rx="4" fill="#95A5A6"/>
<text x="950" y="187" text-anchor="middle" font-family="Arial, sans-serif" font-size="11" font-weight="bold" fill="white">I/O</text>
<text x="930" y="210" font-family="Arial, sans-serif" font-size="13" font-weight="600" fill="#2c3e50">Super Micro Computer, ...</text>
<text x="930" y="228" font-family="Courier New, monospace" font-size="14" font-weight="bold" fill="#3498db">192.168.10.107</text>
<text x="930" y="242" font-family="Arial, sans-serif" font-size="11" fill="#7f8c8d">Super Micro Computer,</text>
<rect x="1200" y="160" width="260" height="90" rx="8" fill="white" stroke="#ddd" stroke-width="1" filter="url(#shadow)"/>
<rect x="1210" y="170" width="40" height="25" rx="4" fill="#95A5A6"/>
<text x="1230" y="187" text-anchor="middle" font-family="Arial, sans-serif" font-size="11" font-weight="bold" fill="white">I/O</text>
<text x="1210" y="210" font-family="Arial, sans-serif" font-size="13" font-weight="600" fill="#2c3e50">Dell Device</text>
<text x="1210" y="228" font-family="Courier New, monospace" font-size="14" font-weight="bold" fill="#3498db">192.168.10.230</text>
<text x="1210" y="242" font-family="Arial, sans-serif" font-size="11" fill="#7f8c8d">Dell</text>
<rect x="80" y="270" width="260" height="90" rx="8" fill="white" stroke="#ddd" stroke-width="1" filter="url(#shadow)"/>
<rect x="90" y="280" width="40" height="25" rx="4" fill="#F39C12"/>
<text x="110" y="297" text-anchor="middle" font-family="Arial, sans-serif" font-size="11" font-weight="bold" fill="white">HMI</text>
<text x="90" y="320" font-family="Arial, sans-serif" font-size="13" font-weight="600" fill="#2c3e50">VMware, Device</text>
<text x="90" y="338" font-family="Courier New, monospace" font-size="14" font-weight="bold" fill="#3498db">192.168.1.69</text>
<text x="90" y="352" font-family="Arial, sans-serif" font-size="11" fill="#7f8c8d">VMware,</text>
<rect x="360" y="270" width="260" height="90" rx="8" fill="white" stroke="#ddd" stroke-width="1" filter="url(#shadow)"/>
<rect x="370" y="280" width="40" height="25" rx="4" fill="#95A5A6"/>
<text x="390" y="297" text-anchor="middle" font-family="Arial, sans-serif" font-size="11" font-weight="bold" fill="white">I/O</text>
<text x="370" y="320" font-family="Arial, sans-serif" font-size="13" font-weight="600" fill="#2c3e50">INVENTEC CORPORATION D...</text>
<text x="370" y="338" font-family="Courier New, monospace" font-size="14" font-weight="bold" fill="#3498db">::</text>
<text x="370" y="352" font-family="Arial, sans-serif" font-size="11" fill="#7f8c8d">INVENTEC CORPORATION</text>
<rect x="640" y="270" width="260" height="90" rx="8" fill="white" stroke="#ddd" stroke-width="1" filter="url(#shadow)"/>
<rect x="650" y="280" width="40" height="25" rx="4" fill="#95A5A6"/>
<text x="670" y="297" text-anchor="middle" font-family="Arial, sans-serif" font-size="11" font-weight="bold" fill="white">I/O</text>
<text x="650" y="320" font-family="Arial, sans-serif" font-size="13" font-weight="600" fill="#2c3e50">Dell Device</text>
<text x="650" y="338" font-family="Courier New, monospace" font-size="14" font-weight="bold" fill="#3498db">192.168.0.21</text>
<text x="650" y="352" font-family="Arial, sans-serif" font-size="11" fill="#7f8c8d">Dell</text>
<rect x="920" y="270" width="260" height="90" rx="8" fill="white" stroke="#ddd" stroke-width="1" filter="url(#shadow)"/>
<rect x="930" y="280" width="40" height="25" rx="4" fill="#F39C12"/>
<text x="950" y="297" text-anchor="middle" font-family="Arial, sans-serif" font-size="11" font-weight="bold" fill="white">HMI</text>
<text x="930" y="320" font-family="Arial, sans-serif" font-size="13" font-weight="600" fill="#2c3e50">VMware, Device</text>
<text x="930" y="338" font-family="Courier New, monospace" font-size="14" font-weight="bold" fill="#3498db">192.168.10.22</text>
<text x="930" y="352" font-family="Arial, sans-serif" font-size="11" fill="#7f8c8d">VMware,</text>
<rect x="1200" y="270" width="260" height="90" rx="8" fill="white" stroke="#ddd" stroke-width="1" filter="url(#shadow)"/>
<rect x="1210" y="280" width="40" height="25" rx="4" fill="#F39C12"/>
<text x="1230" y="297" text-anchor="middle" font-family="Arial, sans-serif" font-size="11" font-weight="bold" fill="white">HMI</text>
<text x="1210" y="320" font-family="Arial, sans-serif" font-size="13" font-weight="600" fill="#2c3e50">VMware, Device</text>
<text x="1210" y="338" font-family="Courier New, monospace" font-size="14" font-weight="bold" fill="#3498db">192.168.10.62</text>
<text x="1210" y="352" font-family="Arial, sans-serif" font-size="11" fill="#7f8c8d">VMware,</text>
<rect x="80" y="380" width="260" height="90" rx="8" fill="white" stroke="#ddd" stroke-width="1" filter="url(#shadow)"/>
<rect x="90" y="390" width="40" height="25" rx="4" fill="#95A5A6"/>
<text x="110" y="407" text-anchor="middle" font-family="Arial, sans-serif" font-size="11" font-weight="bold" fill="white">I/O</text>
<text x="90" y="430" font-family="Arial, sans-serif" font-size="13" font-weight="600" fill="#2c3e50">Unknown Device</text>
<text x="90" y="448" font-family="Courier New, monospace" font-size="14" font-weight="bold" fill="#3498db">192.168.10.204</text>
<text x="90" y="462" font-family="Arial, sans-serif" font-size="11" fill="#7f8c8d">Unknown Vendor</text>
<rect x="360" y="380" width="260" height="90" rx="8" fill="white" stroke="#ddd" stroke-width="1" filter="url(#shadow)"/>
<rect x="370" y="390" width="40" height="25" rx="4" fill="#95A5A6"/>
<text x="390" y="407" text-anchor="middle" font-family="Arial, sans-serif" font-size="11" font-weight="bold" fill="white">I/O</text>
<text x="370" y="430" font-family="Arial, sans-serif" font-size="13" font-weight="600" fill="#2c3e50">Unknown Device</text>
<text x="370" y="448" font-family="Courier New, monospace" font-size="14" font-weight="bold" fill="#3498db">224.0.0.251</text>
<text x="370" y="462" font-family="Arial, sans-serif" font-size="11" fill="#7f8c8d">Unknown Vendor</text>
<rect x="640" y="380" width="260" height="90" rx="8" fill="white" stroke="#ddd" stroke-width="1" filter="url(#shadow)"/>
<rect x="650" y="390" width="40" height="25" rx="4" fill="#95A5A6"/>
<text x="670" y="407" text-anchor="middle" font-family="Arial, sans-serif" font-size="11" font-weight="bold" fill="white">I/O</text>
<text x="650" y="430" font-family="Arial, sans-serif" font-size="13" font-weight="600" fill="#2c3e50">Hewlett Packard Device</text>
<text x="650" y="448" font-family="Courier New, monospace" font-size="14" font-weight="bold" fill="#3498db">141.81.0.10</text>
<text x="650" y="462" font-family="Arial, sans-serif" font-size="11" fill="#7f8c8d">Hewlett Packard</text>
<rect x="920" y="380" width="260" height="90" rx="8" fill="white" stroke="#ddd" stroke-width="1" filter="url(#shadow)"/>
<rect x="930" y="390" width="40" height="25" rx="4" fill="#F39C12"/>
<text x="950" y="407" text-anchor="middle" font-family="Arial, sans-serif" font-size="11" font-weight="bold" fill="white">HMI</text>
<text x="930" y="430" font-family="Arial, sans-serif" font-size="13" font-weight="600" fill="#2c3e50">VMware, Device</text>
<text x="930" y="448" font-family="Courier New, monospace" font-size="14" font-weight="bold" fill="#3498db">192.168.1.10</text>
<text x="930" y="462" font-family="Arial, sans-serif" font-size="11" fill="#7f8c8d">VMware,</text>
<rect x="1200" y="380" width="260" height="90" rx="8" fill="white" stroke="#ddd" stroke-width="1" filter="url(#shadow)"/>
<rect x="1210" y="390" width="40" height="25" rx="4" fill="#F39C12"/>
<text x="1230" y="407" text-anchor="middle" font-family="Arial, sans-serif" font-size="11" font-weight="bold" fill="white">HMI</text>
<text x="1210" y="430" font-family="Arial, sans-serif" font-size="13" font-weight="600" fill="#2c3e50">VMware, Device</text>
<text x="1210" y="448" font-family="Courier New, monospace" font-size="14" font-weight="bold" fill="#3498db">192.168.10.248</text>
<text x="1210" y="462" font-family="Arial, sans-serif" font-size="11" fill="#7f8c8d">VMware,</text>
<rect x="80" y="490" width="260" height="90" rx="8" fill="white" stroke="#ddd" stroke-width="1" filter="url(#shadow)"/>
<rect x="90" y="500" width="40" height="25" rx="4" fill="#95A5A6"/>
<text x="110" y="517" text-anchor="middle" font-family="Arial, sans-serif" font-size="11" font-weight="bold" fill="white">I/O</text>
<text x="90" y="540" font-family="Arial, sans-serif" font-size="13" font-weight="600" fill="#2c3e50">Unknown Device</text>
<text x="90" y="558" font-family="Courier New, monospace" font-size="14" font-weight="bold" fill="#3498db">ff02::1:3</text>
<text x="90" y="572" font-family="Arial, sans-serif" font-size="11" fill="#7f8c8d">Unknown Vendor</text>
<rect x="360" y="490" width="260" height="90" rx="8" fill="white" stroke="#ddd" stroke-width="1" filter="url(#shadow)"/>
<rect x="370" y="500" width="40" height="25" rx="4" fill="#27AE60"/>
<text x="390" y="517" text-anchor="middle" font-family="Arial, sans-serif" font-size="11" font-weight="bold" fill="white">SRV</text>
<text x="370" y="540" font-family="Arial, sans-serif" font-size="13" font-weight="600" fill="#2c3e50">Lantronix Server</text>
<text x="370" y="558" font-family="Courier New, monospace" font-size="14" font-weight="bold" fill="#3498db">192.168.10.106</text>
<text x="370" y="572" font-family="Arial, sans-serif" font-size="11" fill="#7f8c8d">Lantronix</text>
<rect x="640" y="490" width="260" height="90" rx="8" fill="white" stroke="#ddd" stroke-width="1" filter="url(#shadow)"/>
<rect x="650" y="500" width="40" height="25" rx="4" fill="#F39C12"/>
<text x="670" y="517" text-anchor="middle" font-family="Arial, sans-serif" font-size="11" font-weight="bold" fill="white">HMI</text>
<text x="650" y="540" font-family="Arial, sans-serif" font-size="13" font-weight="600" fill="#2c3e50">VMware, Device</text>
<text x="650" y="558" font-family="Courier New, monospace" font-size="14" font-weight="bold" fill="#3498db">1.1.1.1</text>
<text x="650" y="572" font-family="Arial, sans-serif" font-size="11" fill="#7f8c8d">VMware,</text>
<rect x="920" y="490" width="260" height="90" rx="8" fill="white" stroke="#ddd" stroke-width="1" filter="url(#shadow)"/>
<rect x="930" y="500" width="40" height="25" rx="4" fill="#95A5A6"/>
<text x="950" y="517" text-anchor="middle" font-family="Arial, sans-serif" font-size="11" font-weight="bold" fill="white">I/O</text>
<text x="930" y="540" font-family="Arial, sans-serif" font-size="13" font-weight="600" fill="#2c3e50">Unknown Device</text>
<text x="930" y="558" font-family="Courier New, monospace" font-size="14" font-weight="bold" fill="#3498db">ff02::fb</text>
<text x="930" y="572" font-family="Arial, sans-serif" font-size="11" fill="#7f8c8d">Unknown Vendor</text>
<rect x="1200" y="490" width="260" height="90" rx="8" fill="white" stroke="#ddd" stroke-width="1" filter="url(#shadow)"/>
<rect x="1210" y="500" width="40" height="25" rx="4" fill="#F39C12"/>
<text x="1230" y="517" text-anchor="middle" font-family="Arial, sans-serif" font-size="11" font-weight="bold" fill="white">HMI</text>
<text x="1210" y="540" font-family="Arial, sans-serif" font-size="13" font-weight="600" fill="#2c3e50">VMware, Device</text>
<text x="1210" y="558" font-family="Courier New, monospace" font-size="14" font-weight="bold" fill="#3498db">192.168.10.21</text>
<text x="1210" y="572" font-family="Arial, sans-serif" font-size="11" fill="#7f8c8d">VMware,</text>
<rect x="80" y="600" width="260" height="90" rx="8" fill="white" stroke="#ddd" stroke-width="1" filter="url(#shadow)"/>
<rect x="90" y="610" width="40" height="25" rx="4" fill="#95A5A6"/>
<text x="110" y="627" text-anchor="middle" font-family="Arial, sans-serif" font-size="11" font-weight="bold" fill="white">I/O</text>
<text x="90" y="650" font-family="Arial, sans-serif" font-size="13" font-weight="600" fill="#2c3e50">Unknown Device</text>
<text x="90" y="668" font-family="Courier New, monospace" font-size="14" font-weight="bold" fill="#3498db">224.0.0.252</text>
<text x="90" y="682" font-family="Arial, sans-serif" font-size="11" fill="#7f8c8d">Unknown Vendor</text>
<rect x="360" y="600" width="260" height="90" rx="8" fill="white" stroke="#ddd" stroke-width="1" filter="url(#shadow)"/>
<rect x="370" y="610" width="40" height="25" rx="4" fill="#95A5A6"/>
<text x="390" y="627" text-anchor="middle" font-family="Arial, sans-serif" font-size="11" font-weight="bold" fill="white">I/O</text>
<text x="370" y="650" font-family="Arial, sans-serif" font-size="13" font-weight="600" fill="#2c3e50">Unknown Device</text>
<text x="370" y="668" font-family="Courier New, monospace" font-size="14" font-weight="bold" fill="#3498db">239.255.255.250</text>
<text x="370" y="682" font-family="Arial, sans-serif" font-size="11" fill="#7f8c8d">Unknown Vendor</text>
<rect x="640" y="600" width="260" height="90" rx="8" fill="white" stroke="#ddd" stroke-width="1" filter="url(#shadow)"/>
<rect x="650" y="610" width="40" height="25" rx="4" fill="#95A5A6"/>
<text x="670" y="627" text-anchor="middle" font-family="Arial, sans-serif" font-size="11" font-weight="bold" fill="white">I/O</text>
<text x="650" y="650" font-family="Arial, sans-serif" font-size="13" font-weight="600" fill="#2c3e50">Intel Corporate Device</text>
<text x="650" y="668" font-family="Courier New, monospace" font-size="14" font-weight="bold" fill="#3498db">10.1.1.167</text>
<text x="650" y="682" font-family="Arial, sans-serif" font-size="11" fill="#7f8c8d">Intel Corporate</text>
<rect x="920" y="600" width="260" height="90" rx="8" fill="white" stroke="#ddd" stroke-width="1" filter="url(#shadow)"/>
<rect x="930" y="610" width="40" height="25" rx="4" fill="#95A5A6"/>
<text x="950" y="627" text-anchor="middle" font-family="Arial, sans-serif" font-size="11" font-weight="bold" fill="white">I/O</text>
<text x="930" y="650" font-family="Arial, sans-serif" font-size="13" font-weight="600" fill="#2c3e50">Unknown Device</text>
<text x="930" y="668" font-family="Courier New, monospace" font-size="14" font-weight="bold" fill="#3498db">ff02::1:2</text>
<text x="930" y="682" font-family="Arial, sans-serif" font-size="11" fill="#7f8c8d">Unknown Vendor</text>

<rect x="50" y="400" width="1500" height="280" rx="15" fill="url(#supervisoryGrad)" stroke="#ff8800" stroke-width="3" filter="url(#shadow)"/>
<text x="70" y="435" font-family="Arial, sans-serif" font-size="22" font-weight="bold" fill="#ff8800">Level 2: Supervisory Control</text>
<text x="70" y="455" font-family="Arial, sans-serif" font-size="14" font-style="italic" fill="#ff8800" opacity="0.8">SCADA | HMI | Alarming | Reporting | Trending</text>
<rect x="80" y="480" width="260" height="90" rx="8" fill="white" stroke="#ddd" stroke-width="1" filter="url(#shadow)"/>
<rect x="90" y="490" width="40" height="25" rx="4" fill="#8E44AD"/>
<text x="110" y="507" text-anchor="middle" font-family="Arial, sans-serif" font-size="11" font-weight="bold" fill="white">PLC</text>
<text x="90" y="530" font-family="Arial, sans-serif" font-size="13" font-weight="600" fill="#2c3e50">Rockwell Automation De...</text>
<text x="90" y="548" font-family="Courier New, monospace" font-size="14" font-weight="bold" fill="#3498db">141.81.0.83</text>
<text x="90" y="562" font-family="Arial, sans-serif" font-size="11" fill="#7f8c8d">Rockwell Automation</text>
<rect x="360" y="480" width="260" height="90" rx="8" fill="white" stroke="#ddd" stroke-width="1" filter="url(#shadow)"/>
<rect x="370" y="490" width="40" height="25" rx="4" fill="#8E44AD"/>
<text x="390" y="507" text-anchor="middle" font-family="Arial, sans-serif" font-size="11" font-weight="bold" fill="white">PLC</text>
<text x="370" y="530" font-family="Arial, sans-serif" font-size="13" font-weight="600" fill="#2c3e50">Rockwell Automation De...</text>
<text x="370" y="548" font-family="Courier New, monospace" font-size="14" font-weight="bold" fill="#3498db">192.168.10.120</text>
<text x="370" y="562" font-family="Arial, sans-serif" font-size="11" fill="#7f8c8d">Rockwell Automation</text>
<rect x="640" y="480" width="260" height="90" rx="8" fill="white" stroke="#ddd" stroke-width="1" filter="url(#shadow)"/>
<rect x="650" y="490" width="40" height="25" rx="4" fill="#8E44AD"/>
<text x="670" y="507" text-anchor="middle" font-family="Arial, sans-serif" font-size="11" font-weight="bold" fill="white">PLC</text>
<text x="650" y="530" font-family="Arial, sans-serif" font-size="13" font-weight="600" fill="#2c3e50">Rockwell Automation De...</text>
<text x="650" y="548" font-family="Courier New, monospace" font-size="14" font-weight="bold" fill="#3498db">141.81.0.43</text>
<text x="650" y="562" font-family="Arial, sans-serif" font-size="11" fill="#7f8c8d">Rockwell Automation</text>
<rect x="920" y="480" width="260" height="90" rx="8" fill="white" stroke="#ddd" stroke-width="1" filter="url(#shadow)"/>
<rect x="930" y="490" width="40" height="25" rx="4" fill="#E74C3C"/>
<text x="950" y="507" text-anchor="middle" font-family="Arial, sans-serif" font-size="11" font-weight="bold" fill="white">GW</text>
<text x="930" y="530" font-family="Arial, sans-serif" font-size="13" font-weight="600" fill="#2c3e50">Cisco Systems, Inc Device</text>
<text x="930" y="548" font-family="Courier New, monospace" font-size="14" font-weight="bold" fill="#3498db">10.1.1.164</text>
<text x="930" y="562" font-family="Arial, sans-serif" font-size="11" fill="#7f8c8d">Cisco Systems, Inc</text>
<rect x="1200" y="480" width="260" height="90" rx="8" fill="white" stroke="#ddd" stroke-width="1" filter="url(#shadow)"/>
<rect x="1210" y="490" width="40" height="25" rx="4" fill="#8E44AD"/>
<text x="1230" y="507" text-anchor="middle" font-family="Arial, sans-serif" font-size="11" font-weight="bold" fill="white">PLC</text>
<text x="1210" y="530" font-family="Arial, sans-serif" font-size="13" font-weight="600" fill="#2c3e50">Rockwell Automation De...</text>
<text x="1210" y="548" font-family="Courier New, monospace" font-size="14" font-weight="bold" fill="#3498db">141.81.0.63</text>
<text x="1210" y="562" font-family="Arial, sans-serif" font-size="11" fill="#7f8c8d">Rockwell Automation</text>
<rect x="80" y="590" width="260" height="90" rx="8" fill="white" stroke="#ddd" stroke-width="1" filter="url(#shadow)"/>
<rect x="90" y="600" width="40" height="25" rx="4" fill="#8E44AD"/>
<text x="110" y="617" text-anchor="middle" font-family="Arial, sans-serif" font-size="11" font-weight="bold" fill="white">PLC</text>
<text x="90" y="640" font-family="Arial, sans-serif" font-size="13" font-weight="600" fill="#2c3e50">Rockwell Automation De...</text>
<text x="90" y="658" font-family="Courier New, monospace" font-size="14" font-weight="bold" fill="#3498db">141.81.0.23</text>
<text x="90" y="672" font-family="Arial, sans-serif" font-size="11" fill="#7f8c8d">Rockwell Automation</text>

<rect x="50" y="720" width="1500" height="280" rx="15" fill="url(#processGrad)" stroke="#00aa44" stroke-width="3" filter="url(#shadow)"/>
<text x="70" y="755" font-family="Arial, sans-serif" font-size="22" font-weight="bold" fill="#00aa44">Level 1: Process Control</text>
<text x="70" y="775" font-family="Arial, sans-serif" font-size="14" font-style="italic" fill="#00aa44" opacity="0.8">PLCs | RTUs | Basic Control &amp; I/O</text>
<rect x="80" y="800" width="260" height="90" rx="8" fill="white" stroke="#ddd" stroke-width="1" filter="url(#shadow)"/>
<rect x="90" y="810" width="40" height="25" rx="4" fill="#8E44AD"/>
<text x="110" y="827" text-anchor="middle" font-family="Arial, sans-serif" font-size="11" font-weight="bold" fill="white">PLC</text>
<text x="90" y="850" font-family="Arial, sans-serif" font-size="13" font-weight="600" fill="#2c3e50">Rockwell Automation De...</text>
<text x="90" y="868" font-family="Courier New, monospace" font-size="14" font-weight="bold" fill="#3498db">192.168.1.30</text>
<text x="90" y="882" font-family="Arial, sans-serif" font-size="11" fill="#7f8c8d">Rockwell Automation</text>
<rect x="360" y="800" width="260" height="90" rx="8" fill="white" stroke="#ddd" stroke-width="1" filter="url(#shadow)"/>
<rect x="370" y="810" width="40" height="25" rx="4" fill="#95A5A6"/>
<text x="390" y="827" text-anchor="middle" font-family="Arial, sans-serif" font-size="11" font-weight="bold" fill="white">I/O</text>
<text x="370" y="850" font-family="Arial, sans-serif" font-size="13" font-weight="600" fill="#2c3e50">Unknown Device</text>
<text x="370" y="868" font-family="Courier New, monospace" font-size="14" font-weight="bold" fill="#3498db">239.255.255.100</text>
<text x="370" y="882" font-family="Arial, sans-serif" font-size="11" fill="#7f8c8d">Unknown Vendor</text>
<rect x="640" y="800" width="260" height="90" rx="8" fill="white" stroke="#ddd" stroke-width="1" filter="url(#shadow)"/>
<rect x="650" y="810" width="40" height="25" rx="4" fill="#95A5A6"/>
<text x="670" y="827" text-anchor="middle" font-family="Arial, sans-serif" font-size="11" font-weight="bold" fill="white">I/O</text>
<text x="650" y="850" font-family="Arial, sans-serif" font-size="13" font-weight="600" fill="#2c3e50">Unknown Device</text>
<text x="650" y="868" font-family="Courier New, monospace" font-size="14" font-weight="bold" fill="#3498db">ff02::1:ff23:6f79</text>
<text x="650" y="882" font-family="Arial, sans-serif" font-size="11" fill="#7f8c8d">Unknown Vendor</text>
<rect x="920" y="800" width="260" height="90" rx="8" fill="white" stroke="#ddd" stroke-width="1" filter="url(#shadow)"/>
<rect x="930" y="810" width="40" height="25" rx="4" fill="#95A5A6"/>
<text x="950" y="827" text-anchor="middle" font-family="Arial, sans-serif" font-size="11" font-weight="bold" fill="white">I/O</text>
<text x="930" y="850" font-family="Arial, sans-serif" font-size="13" font-weight="600" fill="#2c3e50">Device</text>
<text x="930" y="868" font-family="Courier New, monospace" font-size="14" font-weight="bold" fill="#3498db">192.168.10.140</text>
<text x="930" y="882" font-family="Arial, sans-serif" font-size="11" fill="#7f8c8d">Unknown Vendor</text>
<rect x="1200" y="800" width="260" height="90" rx="8" fill="white" stroke="#ddd" stroke-width="1" filter="url(#shadow)"/>
<rect x="1210" y="810" width="40" height="25" rx="4" fill="#8E44AD"/>
<text x="1230" y="827" text-anchor="middle" font-family="Arial, sans-serif" font-size="11" font-weight="bold" fill="white">PLC</text>
<text x="1210" y="850" font-family="Arial, sans-serif" font-size="13" font-weight="600" fill="#2c3e50">Rockwell Automation PLC</text>
<text x="1210" y="868" font-family="Courier New, monospace" font-size="14" font-weight="bold" fill="#3498db">192.168.1.22</text>
<text x="1210" y="882" font-family="Arial, sans-serif" font-size="11" fill="#7f8c8d">Rockwell Automation</text>
<rect x="80" y="910" width="260" height="90" rx="8" fill="white" stroke="#ddd" stroke-width="1" filter="url(#shadow)"/>
<rect x="90" y="920" width="40" height="25" rx="4" fill="#95A5A6"/>
<text x="110" y="937" text-anchor="middle" font-family="Arial, sans-serif" font-size="11" font-weight="bold" fill="white">I/O</text>
<text x="90" y="960" font-family="Arial, sans-serif" font-size="13" font-weight="600" fill="#2c3e50">Unknown Device</text>
<text x="90" y="978" font-family="Courier New, monospace" font-size="14" font-weight="bold" fill="#3498db">ff02::1:fff1:83ba</text>
<text x="90" y="992" font-family="Arial, sans-serif" font-size="11" fill="#7f8c8d">Unknown Vendor</text>
<rect x="360" y="910" width="260" height="90" rx="8" fill="white" stroke="#ddd" stroke-width="1" filter="url(#shadow)"/>
<rect x="370" y="920" width="40" height="25" rx="4" fill="#95A5A6"/>
<text x="390" y="937" text-anchor="middle" font-family="Arial, sans-serif" font-size="11" font-weight="bold" fill="white">I/O</text>
<text x="370" y="960" font-family="Arial, sans-serif" font-size="13" font-weight="600" fill="#2c3e50">D-Link Device</text>
<text x="370" y="978" font-family="Courier New, monospace" font-size="14" font-weight="bold" fill="#3498db">208.73.217.142</text>
<text x="370" y="992" font-family="Arial, sans-serif" font-size="11" fill="#7f8c8d">D-Link</text>
<rect x="640" y="910" width="260" height="90" rx="8" fill="white" stroke="#ddd" stroke-width="1" filter="url(#shadow)"/>
<rect x="650" y="920" width="40" height="25" rx="4" fill="#8E44AD"/>
<text x="670" y="937" text-anchor="middle" font-family="Arial, sans-serif" font-size="11" font-weight="bold" fill="white">PLC</text>
<text x="650" y="960" font-family="Arial, sans-serif" font-size="13" font-weight="600" fill="#2c3e50">Rockwell Automation PLC</text>
<text x="650" y="978" font-family="Courier New, monospace" font-size="14" font-weight="bold" fill="#3498db">192.168.1.24</text>
<text x="650" y="992" font-family="Arial, sans-serif" font-size="11" fill="#7f8c8d">Rockwell Automation</text>
<rect x="920" y="910" width="260" height="90" rx="8" fill="white" stroke="#ddd" stroke-width="1" filter="url(#shadow)"/>
<rect x="930" y="920" width="40" height="25" rx="4" fill="#8E44AD"/>
<text x="950" y="937" text-anchor="middle" font-family="Arial, sans-serif" font-size="11" font-weight="bold" fill="white">PLC</text>
<text x="930" y="960" font-family="Arial, sans-serif" font-size="13" font-weight="600" fill="#2c3e50">Rockwell Automation De...</text>
<text x="930" y="978" font-family="Courier New, monospace" font-size="14" font-weight="bold" fill="#3498db">192.168.10.121</text>
<text x="930" y="992" font-family="Arial, sans-serif" font-size="11" fill="#7f8c8d">Rockwell Automation</text>
<rect x="1200" y="910" width="260" height="90" rx="8" fill="white" stroke="#ddd" stroke-width="1" filter="url(#shadow)"/>
<rect x="1210" y="920" width="40" height="25" rx="4" fill="#95A5A6"/>
<text x="1230" y="937" text-anchor="middle" font-family="Arial, sans-serif" font-size="11" font-weight="bold" fill="white">I/O</text>
<text x="1210" y="960" font-family="Arial, sans-serif" font-size="13" font-weight="600" fill="#2c3e50">Unknown Device</text>
<text x="1210" y="978" font-family="Courier New, monospace" font-size="14" font-weight="bold" fill="#3498db">ff02::2</text>
<text x="1210" y="992" font-family="Arial, sans-serif" font-size="11" fill="#7f8c8d">Unknown Vendor</text>
<rect x="80" y="1020" width="260" height="90" rx="8" fill="white" stroke="#ddd" stroke-width="1" filter="url(#shadow)"/>
<rect x="90" y="1030" width="40" height="25" rx="4" fill="#95A5A6"/>
<text x="110" y="1047" text-anchor="middle" font-family="Arial, sans-serif" font-size="11" font-weight="bold" fill="white">I/O</text>
<text x="90" y="1070" font-family="Arial, sans-serif" font-size="13" font-weight="600" fill="#2c3e50">Device</text>
<text x="90" y="1088" font-family="Courier New, monospace" font-size="14" font-weight="bold" fill="#3498db">1.1.1.255</text>
<text x="90" y="1102" font-family="Arial, sans-serif" font-size="11" fill="#7f8c8d">Unknown Vendor</text>
<rect x="360" y="1020" width="260" height="90" rx="8" fill="white" stroke="#ddd" stroke-width="1" filter="url(#shadow)"/>
<rect x="370" y="1030" width="40" height="25" rx="4" fill="#95A5A6"/>
<text x="390" y="1047" text-anchor="middle" font-family="Arial, sans-serif" font-size="11" font-weight="bold" fill="white">I/O</text>
<text x="370" y="1070" font-family="Arial, sans-serif" font-size="13" font-weight="600" fill="#2c3e50">Unknown Device</text>
<text x="370" y="1088" font-family="Courier New, monospace" font-size="14" font-weight="bold" fill="#3498db">ff02::16</text>
<text x="370" y="1102" font-family="Arial, sans-serif" font-size="11" fill="#7f8c8d">Unknown Vendor</text>
<rect x="640" y="1020" width="260" height="90" rx="8" fill="white" stroke="#ddd" stroke-width="1" filter="url(#shadow)"/>
<rect x="650" y="1030" width="40" height="25" rx="4" fill="#95A5A6"/>
<text x="670" y="1047" text-anchor="middle" font-family="Arial, sans-serif" font-size="11" font-weight="bold" fill="white">I/O</text>
<text x="650" y="1070" font-family="Arial, sans-serif" font-size="13" font-weight="600" fill="#2c3e50">Unknown Device</text>
<text x="650" y="1088" font-family="Courier New, monospace" font-size="14" font-weight="bold" fill="#3498db">ff02::1</text>
<text x="650" y="1102" font-family="Arial, sans-serif" font-size="11" fill="#7f8c8d">Unknown Vendor</text>
<rect x="920" y="1020" width="260" height="90" rx="8" fill="white" stroke="#ddd" stroke-width="1" filter="url(#shadow)"/>
<rect x="930" y="1030" width="40" height="25" rx="4" fill="#95A5A6"/>
<text x="950" y="1047" text-anchor="middle" font-family="Arial, sans-serif" font-size="11" font-weight="bold" fill="white">I/O</text>
<text x="930" y="1070" font-family="Arial, sans-serif" font-size="13" font-weight="600" fill="#2c3e50">Dell Device</text>
<text x="930" y="1088" font-family="Courier New, monospace" font-size="14" font-weight="bold" fill="#3498db">192.168.0.30</text>
<text x="930" y="1102" font-family="Arial, sans-serif" font-size="11" fill="#7f8c8d">Dell</text>
<rect x="1200" y="1020" width="260" height="90" rx="8" fill="white" stroke="#ddd" stroke-width="1" filter="url(#shadow)"/>
<rect x="1210" y="1030" width="40" height="25" rx="4" fill="#95A5A6"/>
<text x="1230" y="1047" text-anchor="middle" font-family="Arial, sans-serif" font-size="11" font-weight="bold" fill="white">I/O</text>
<text x="1210" y="1070" font-family="Arial, sans-serif" font-size="13" font-weight="600" fill="#2c3e50">Unknown Device</text>
<text x="1210" y="1088" font-family="Courier New, monospace" font-size="14" font-weight="bold" fill="#3498db">224.0.0.22</text>
<text x="1210" y="1102" font-family="Arial, sans-serif" font-size="11" fill="#7f8c8d">Unknown Vendor</text>

<text x="50" y="1150" font-family="Arial, sans-serif" font-size="12" fill="#666">40 inter-level connections detected</text>
</svg>
