<?xml version="1.0" encoding="UTF-8" standalone="no"?>
<!DOCTYPE svg PUBLIC "-//W3C//DTD SVG 1.1//EN"
 "http://www.w3.org/Graphics/SVG/1.1/DTD/svg11.dtd">
<!-- Generated by graphviz version 12.2.1 (20241206.2353)
 -->
<!-- Title: IEC62443Zones Pages: 1 -->
<svg width="1199pt" height="153pt"
 viewBox="0.00 0.00 1199.00 153.25" xmlns="http://www.w3.org/2000/svg" xmlns:xlink="http://www.w3.org/1999/xlink">
<g id="graph0" class="graph" transform="scale(1 1) rotate(0) translate(4 149.25)">
<title>IEC62443Zones</title>
<polygon fill="#f8f9fa" stroke="none" points="-4,4 -4,-149.25 1195,-149.25 1195,4 -4,4"/>
<text text-anchor="middle" x="595.5" y="-126.05" font-family="Arial Bold" font-size="16.00">IEC 62443 Zone &amp; Conduit Analysis</text>
<text text-anchor="middle" x="595.5" y="-107.3" font-family="Arial Bold" font-size="16.00">Firewall Configuration Analysis</text>
<g id="clust1" class="cluster">
<title>cluster_Industrial_Zone</title>
<polygon fill="#1b5e20" stroke="#1b5e20" stroke-width="3" points="8,-8 8,-91.75 401,-91.75 401,-8 8,-8"/>
<text text-anchor="middle" x="204.5" y="-74.45" font-family="Arial Bold" font-size="14.00">Industrial Zone</text>
</g>
<g id="clust2" class="cluster">
<title>cluster_Enterprise_Zone</title>
<polygon fill="#4a148c" stroke="#4a148c" stroke-width="3" points="409,-8 409,-91.75 527,-91.75 527,-8 409,-8"/>
<text text-anchor="middle" x="468" y="-74.45" font-family="Arial Bold" font-size="14.00">Enterprise Zone</text>
</g>
<g id="clust3" class="cluster">
<title>cluster_DMZ_Zone</title>
<polygon fill="#e65100" stroke="#e65100" stroke-width="3" points="535,-8 535,-91.75 726,-91.75 726,-8 535,-8"/>
<text text-anchor="middle" x="630.5" y="-74.45" font-family="Arial Bold" font-size="14.00">DMZ Zone</text>
</g>
<g id="clust4" class="cluster">
<title>cluster_iec_legend</title>
<polygon fill="#333333" stroke="#333333" points="734,-12 734,-86.25 1183,-86.25 1183,-12 734,-12"/>
<text text-anchor="middle" x="958.5" y="-70.85" font-family="Arial Bold" font-size="12.00">IEC 62443 Zones</text>
</g>
<!-- opt1 -->
<g id="node1" class="node">
<title>opt1</title>
<path fill="white" stroke="black" d="M84.25,-60C84.25,-60 27.75,-60 27.75,-60 21.75,-60 15.75,-54 15.75,-48 15.75,-48 15.75,-28 15.75,-28 15.75,-22 21.75,-16 27.75,-16 27.75,-16 84.25,-16 84.25,-16 90.25,-16 96.25,-22 96.25,-28 96.25,-28 96.25,-48 96.25,-48 96.25,-54 90.25,-60 84.25,-60"/>
<text text-anchor="middle" x="56" y="-46.5" font-family="Arial" font-size="10.00">opt1</text>
<text text-anchor="middle" x="56" y="-34.5" font-family="Arial" font-size="10.00">172.16.20.1/24</text>
<text text-anchor="middle" x="56" y="-22.5" font-family="Arial" font-size="10.00">Risk: High</text>
</g>
<!-- opt2 -->
<g id="node2" class="node">
<title>opt2</title>
<path fill="white" stroke="black" d="M183.25,-60C183.25,-60 126.75,-60 126.75,-60 120.75,-60 114.75,-54 114.75,-48 114.75,-48 114.75,-28 114.75,-28 114.75,-22 120.75,-16 126.75,-16 126.75,-16 183.25,-16 183.25,-16 189.25,-16 195.25,-22 195.25,-28 195.25,-28 195.25,-48 195.25,-48 195.25,-54 189.25,-60 183.25,-60"/>
<text text-anchor="middle" x="155" y="-46.5" font-family="Arial" font-size="10.00">opt2</text>
<text text-anchor="middle" x="155" y="-34.5" font-family="Arial" font-size="10.00">172.16.30.1/24</text>
<text text-anchor="middle" x="155" y="-22.5" font-family="Arial" font-size="10.00">Risk: High</text>
</g>
<!-- opt3 -->
<g id="node3" class="node">
<title>opt3</title>
<path fill="white" stroke="black" d="M282.25,-60C282.25,-60 225.75,-60 225.75,-60 219.75,-60 213.75,-54 213.75,-48 213.75,-48 213.75,-28 213.75,-28 213.75,-22 219.75,-16 225.75,-16 225.75,-16 282.25,-16 282.25,-16 288.25,-16 294.25,-22 294.25,-28 294.25,-28 294.25,-48 294.25,-48 294.25,-54 288.25,-60 282.25,-60"/>
<text text-anchor="middle" x="254" y="-46.5" font-family="Arial" font-size="10.00">opt3</text>
<text text-anchor="middle" x="254" y="-34.5" font-family="Arial" font-size="10.00">172.16.40.1/24</text>
<text text-anchor="middle" x="254" y="-22.5" font-family="Arial" font-size="10.00">Risk: High</text>
</g>
<!-- lan -->
<g id="node4" class="node">
<title>lan</title>
<path fill="white" stroke="black" d="M381.25,-60C381.25,-60 324.75,-60 324.75,-60 318.75,-60 312.75,-54 312.75,-48 312.75,-48 312.75,-28 312.75,-28 312.75,-22 318.75,-16 324.75,-16 324.75,-16 381.25,-16 381.25,-16 387.25,-16 393.25,-22 393.25,-28 393.25,-28 393.25,-48 393.25,-48 393.25,-54 387.25,-60 381.25,-60"/>
<text text-anchor="middle" x="353" y="-46.5" font-family="Arial" font-size="10.00">lan</text>
<text text-anchor="middle" x="353" y="-34.5" font-family="Arial" font-size="10.00">172.16.10.1/24</text>
<text text-anchor="middle" x="353" y="-22.5" font-family="Arial" font-size="10.00">Risk: High</text>
</g>
<!-- opt4 -->
<g id="node5" class="node">
<title>opt4</title>
<path fill="white" stroke="black" d="M496.25,-60C496.25,-60 439.75,-60 439.75,-60 433.75,-60 427.75,-54 427.75,-48 427.75,-48 427.75,-28 427.75,-28 427.75,-22 433.75,-16 439.75,-16 439.75,-16 496.25,-16 496.25,-16 502.25,-16 508.25,-22 508.25,-28 508.25,-28 508.25,-48 508.25,-48 508.25,-54 502.25,-60 496.25,-60"/>
<text text-anchor="middle" x="468" y="-46.5" font-family="Arial" font-size="10.00">opt4</text>
<text text-anchor="middle" x="468" y="-34.5" font-family="Arial" font-size="10.00">172.16.50.1/24</text>
<text text-anchor="middle" x="468" y="-22.5" font-family="Arial" font-size="10.00">Risk: Low</text>
</g>
<!-- opt5 -->
<g id="node6" class="node">
<title>opt5</title>
<path fill="white" stroke="black" d="M611.25,-60C611.25,-60 554.75,-60 554.75,-60 548.75,-60 542.75,-54 542.75,-48 542.75,-48 542.75,-28 542.75,-28 542.75,-22 548.75,-16 554.75,-16 554.75,-16 611.25,-16 611.25,-16 617.25,-16 623.25,-22 623.25,-28 623.25,-28 623.25,-48 623.25,-48 623.25,-54 617.25,-60 611.25,-60"/>
<text text-anchor="middle" x="583" y="-46.5" font-family="Arial" font-size="10.00">opt5</text>
<text text-anchor="middle" x="583" y="-34.5" font-family="Arial" font-size="10.00">172.16.60.1/24</text>
<text text-anchor="middle" x="583" y="-22.5" font-family="Arial" font-size="10.00">Risk: Medium</text>
</g>
<!-- wan -->
<g id="node7" class="node">
<title>wan</title>
<path fill="white" stroke="black" d="M706.38,-60C706.38,-60 653.62,-60 653.62,-60 647.62,-60 641.62,-54 641.62,-48 641.62,-48 641.62,-28 641.62,-28 641.62,-22 647.62,-16 653.62,-16 653.62,-16 706.38,-16 706.38,-16 712.38,-16 718.38,-22 718.38,-28 718.38,-28 718.38,-48 718.38,-48 718.38,-54 712.38,-60 706.38,-60"/>
<text text-anchor="middle" x="680" y="-46.5" font-family="Arial" font-size="10.00">wan</text>
<text text-anchor="middle" x="680" y="-34.5" font-family="Arial" font-size="10.00">10.0.1.100/24</text>
<text text-anchor="middle" x="680" y="-22.5" font-family="Arial" font-size="10.00">Risk: Medium</text>
</g>
<!-- industrial_zone -->
<g id="node8" class="node">
<title>industrial_zone</title>
<path fill="#c8e6c9" stroke="black" d="M810.25,-56C810.25,-56 753.75,-56 753.75,-56 747.75,-56 741.75,-50 741.75,-44 741.75,-44 741.75,-32 741.75,-32 741.75,-26 747.75,-20 753.75,-20 753.75,-20 810.25,-20 810.25,-20 816.25,-20 822.25,-26 822.25,-32 822.25,-32 822.25,-44 822.25,-44 822.25,-50 816.25,-56 810.25,-56"/>
<text text-anchor="middle" x="782" y="-40.5" font-family="Arial" font-size="10.00">Industrial Zone</text>
<text text-anchor="middle" x="782" y="-28.5" font-family="Arial" font-size="10.00">(Level 0&#45;2)</text>
</g>
<!-- dmz_zone -->
<g id="node9" class="node">
<title>dmz_zone</title>
<path fill="#ffe0b2" stroke="black" d="M931.88,-56C931.88,-56 852.12,-56 852.12,-56 846.12,-56 840.12,-50 840.12,-44 840.12,-44 840.12,-32 840.12,-32 840.12,-26 846.12,-20 852.12,-20 852.12,-20 931.88,-20 931.88,-20 937.88,-20 943.88,-26 943.88,-32 943.88,-32 943.88,-44 943.88,-44 943.88,-50 937.88,-56 931.88,-56"/>
<text text-anchor="middle" x="892" y="-40.5" font-family="Arial" font-size="10.00">DMZ Zone</text>
<text text-anchor="middle" x="892" y="-28.5" font-family="Arial" font-size="10.00">(Network Perimeter)</text>
</g>
<!-- ent_zone -->
<g id="node10" class="node">
<title>ent_zone</title>
<path fill="#e1bee7" stroke="black" d="M1034.5,-56C1034.5,-56 973.5,-56 973.5,-56 967.5,-56 961.5,-50 961.5,-44 961.5,-44 961.5,-32 961.5,-32 961.5,-26 967.5,-20 973.5,-20 973.5,-20 1034.5,-20 1034.5,-20 1040.5,-20 1046.5,-26 1046.5,-32 1046.5,-32 1046.5,-44 1046.5,-44 1046.5,-50 1040.5,-56 1034.5,-56"/>
<text text-anchor="middle" x="1004" y="-40.5" font-family="Arial" font-size="10.00">Enterprise Zone</text>
<text text-anchor="middle" x="1004" y="-28.5" font-family="Arial" font-size="10.00">(Level 3&#45;5)</text>
</g>
<!-- remote_zone -->
<g id="node11" class="node">
<title>remote_zone</title>
<path fill="#b3e5fc" stroke="black" d="M1163.25,-56C1163.25,-56 1076.75,-56 1076.75,-56 1070.75,-56 1064.75,-50 1064.75,-44 1064.75,-44 1064.75,-32 1064.75,-32 1064.75,-26 1070.75,-20 1076.75,-20 1076.75,-20 1163.25,-20 1163.25,-20 1169.25,-20 1175.25,-26 1175.25,-32 1175.25,-32 1175.25,-44 1175.25,-44 1175.25,-50 1169.25,-56 1163.25,-56"/>
<text text-anchor="middle" x="1120" y="-40.5" font-family="Arial" font-size="10.00">Remote Access Zone</text>
<text text-anchor="middle" x="1120" y="-28.5" font-family="Arial" font-size="10.00">(VPN/Remote)</text>
</g>
</g>
</svg>
