<?xml version="1.0" encoding="UTF-8" standalone="no"?>
<!DOCTYPE svg PUBLIC "-//W3C//DTD SVG 1.1//EN"
 "http://www.w3.org/Graphics/SVG/1.1/DTD/svg11.dtd">
<!-- Generated by graphviz version 12.2.1 (20241206.2353)
 -->
<!-- Title: FirewallTopology Pages: 1 -->
<svg width="462pt" height="1142pt"
 viewBox="0.00 0.00 461.50 1141.50" xmlns="http://www.w3.org/2000/svg" xmlns:xlink="http://www.w3.org/1999/xlink">
<g id="graph0" class="graph" transform="scale(1 1) rotate(0) translate(4 1137.5)">
<title>FirewallTopology</title>
<polygon fill="white" stroke="none" points="-4,4 -4,-1137.5 457.5,-1137.5 457.5,4 -4,4"/>
<text text-anchor="middle" x="226.75" y="-1116.2" font-family="Times,serif" font-size="14.00">Firewall Network Topology</text>
<text text-anchor="middle" x="226.75" y="-1099.7" font-family="Times,serif" font-size="14.00">./fwconfigs/power_substation_mixed.xml</text>
<text text-anchor="middle" x="226.75" y="-1083.2" font-family="Times,serif" font-size="14.00">Generated: 2025&#45;10&#45;11 22:00:46</text>
<!-- firewall -->
<g id="node1" class="node">
<title>firewall</title>
<path fill="#e3f2fd" stroke="#1976d2" stroke-width="3" d="M94,-571.12C94,-571.12 33.75,-571.12 33.75,-571.12 27.75,-571.12 21.75,-565.12 21.75,-559.12 21.75,-559.12 21.75,-516.88 21.75,-516.88 21.75,-510.88 27.75,-504.88 33.75,-504.88 33.75,-504.88 94,-504.88 94,-504.88 100,-504.88 106,-510.88 106,-516.88 106,-516.88 106,-559.12 106,-559.12 106,-565.12 100,-571.12 94,-571.12"/>
<text text-anchor="middle" x="63.88" y="-555.73" font-family="Arial Bold" font-size="12.00">🔥 Firewall</text>
<text text-anchor="middle" x="63.88" y="-539.98" font-family="Arial Bold" font-size="12.00">(OPNsense)</text>
<text text-anchor="middle" x="63.88" y="-511.73" font-family="Arial Bold" font-size="12.00">Interfaces:</text>
</g>
<!-- net_opt3 -->
<g id="node2" class="node">
<title>net_opt3</title>
<path fill="#c8e6c9" stroke="#2e7d32" stroke-width="2" d="M441.5,-1076C441.5,-1076 345.25,-1076 345.25,-1076 339.25,-1076 333.25,-1070 333.25,-1064 333.25,-1064 333.25,-996 333.25,-996 333.25,-990 339.25,-984 345.25,-984 345.25,-984 441.5,-984 441.5,-984 447.5,-984 453.5,-990 453.5,-996 453.5,-996 453.5,-1064 453.5,-1064 453.5,-1070 447.5,-1076 441.5,-1076"/>
<text text-anchor="middle" x="393.38" y="-1062.5" font-family="Arial" font-size="10.00">opt3</text>
<text text-anchor="middle" x="393.38" y="-1050.5" font-family="Arial" font-size="10.00">172.16.40.1/24</text>
<text text-anchor="middle" x="393.38" y="-1038.5" font-family="Arial" font-size="10.00">(Substation Automation)</text>
<text text-anchor="middle" x="393.38" y="-1014.5" font-family="Arial" font-size="10.00">Zone: Industrial Zone</text>
<text text-anchor="middle" x="393.38" y="-1002.5" font-family="Arial" font-size="10.00">Risk: High</text>
<text text-anchor="middle" x="393.38" y="-990.5" font-family="Arial" font-size="10.00">Type: Production OT</text>
</g>
<!-- firewall&#45;&gt;net_opt3 -->
<g id="edge6" class="edge">
<title>firewall&#45;&gt;net_opt3</title>
<path fill="none" stroke="#666666" stroke-width="2" d="M107.22,-560.08C156.59,-560.08 230.5,-560.08 230.5,-560.08 230.5,-560.08 230.5,-1030 230.5,-1030 230.5,-1030 319.24,-1030 319.24,-1030"/>
<polygon fill="#666666" stroke="#666666" stroke-width="2" points="319.24,-1033.5 329.24,-1030 319.24,-1026.5 319.24,-1033.5"/>
<text text-anchor="middle" x="230.5" y="-1042.45" font-family="Arial" font-size="9.00">opt3</text>
<text text-anchor="middle" x="230.5" y="-1031.95" font-family="Arial" font-size="9.00">172.16.40.1/24</text>
</g>
<!-- net_opt4 -->
<g id="node3" class="node">
<title>net_opt4</title>
<path fill="#e1bee7" stroke="#7b1fa2" stroke-width="2" d="M437.75,-912C437.75,-912 349,-912 349,-912 343,-912 337,-906 337,-900 337,-900 337,-832 337,-832 337,-826 343,-820 349,-820 349,-820 437.75,-820 437.75,-820 443.75,-820 449.75,-826 449.75,-832 449.75,-832 449.75,-900 449.75,-900 449.75,-906 443.75,-912 437.75,-912"/>
<text text-anchor="middle" x="393.38" y="-898.5" font-family="Arial" font-size="10.00">opt4</text>
<text text-anchor="middle" x="393.38" y="-886.5" font-family="Arial" font-size="10.00">172.16.50.1/24</text>
<text text-anchor="middle" x="393.38" y="-874.5" font-family="Arial" font-size="10.00">(Engineering Access)</text>
<text text-anchor="middle" x="393.38" y="-850.5" font-family="Arial" font-size="10.00">Zone: Enterprise Zone</text>
<text text-anchor="middle" x="393.38" y="-838.5" font-family="Arial" font-size="10.00">Risk: Low</text>
<text text-anchor="middle" x="393.38" y="-826.5" font-family="Arial" font-size="10.00">Type: General</text>
</g>
<!-- firewall&#45;&gt;net_opt4 -->
<g id="edge7" class="edge">
<title>firewall&#45;&gt;net_opt4</title>
<path fill="none" stroke="#666666" stroke-width="2" d="M107.25,-549.04C185.34,-549.04 341.5,-549.04 341.5,-549.04 341.5,-549.04 341.5,-806.2 341.5,-806.2"/>
<polygon fill="#666666" stroke="#666666" stroke-width="2" points="338,-806.2 341.5,-816.2 345,-806.2 338,-806.2"/>
<text text-anchor="middle" x="230.5" y="-878.45" font-family="Arial" font-size="9.00">opt4</text>
<text text-anchor="middle" x="230.5" y="-867.95" font-family="Arial" font-size="9.00">172.16.50.1/24</text>
</g>
<!-- net_opt5 -->
<g id="node4" class="node">
<title>net_opt5</title>
<path fill="#ffe0b2" stroke="#f57c00" stroke-width="2" d="M426.5,-748C426.5,-748 360.25,-748 360.25,-748 354.25,-748 348.25,-742 348.25,-736 348.25,-736 348.25,-668 348.25,-668 348.25,-662 354.25,-656 360.25,-656 360.25,-656 426.5,-656 426.5,-656 432.5,-656 438.5,-662 438.5,-668 438.5,-668 438.5,-736 438.5,-736 438.5,-742 432.5,-748 426.5,-748"/>
<text text-anchor="middle" x="393.38" y="-734.5" font-family="Arial" font-size="10.00">opt5</text>
<text text-anchor="middle" x="393.38" y="-722.5" font-family="Arial" font-size="10.00">172.16.60.1/24</text>
<text text-anchor="middle" x="393.38" y="-710.5" font-family="Arial" font-size="10.00">(Historian DMZ)</text>
<text text-anchor="middle" x="393.38" y="-686.5" font-family="Arial" font-size="10.00">Zone: DMZ Zone</text>
<text text-anchor="middle" x="393.38" y="-674.5" font-family="Arial" font-size="10.00">Risk: Medium</text>
<text text-anchor="middle" x="393.38" y="-662.5" font-family="Arial" font-size="10.00">Type: DMZ</text>
</g>
<!-- firewall&#45;&gt;net_opt5 -->
<g id="edge1" class="edge">
<title>firewall&#45;&gt;net_opt5</title>
<path fill="none" stroke="#666666" stroke-width="2" d="M107.26,-538C186.26,-538 345.5,-538 345.5,-538 345.5,-538 345.5,-701.25 345.5,-701.25 345.5,-701.25 345.71,-701.25 345.71,-701.25"/>
<polygon fill="#666666" stroke="#666666" stroke-width="2" points="334.53,-704.75 344.53,-701.25 334.53,-697.75 334.53,-704.75"/>
<text text-anchor="middle" x="230.5" y="-714.45" font-family="Arial" font-size="9.00">opt5</text>
<text text-anchor="middle" x="230.5" y="-703.95" font-family="Arial" font-size="9.00">172.16.60.1/24</text>
</g>
<!-- net_wan -->
<g id="node5" class="node">
<title>net_wan</title>
<path fill="#ffe0b2" stroke="#f57c00" stroke-width="2" d="M426.5,-584C426.5,-584 360.25,-584 360.25,-584 354.25,-584 348.25,-578 348.25,-572 348.25,-572 348.25,-504 348.25,-504 348.25,-498 354.25,-492 360.25,-492 360.25,-492 426.5,-492 426.5,-492 432.5,-492 438.5,-498 438.5,-504 438.5,-504 438.5,-572 438.5,-572 438.5,-578 432.5,-584 426.5,-584"/>
<text text-anchor="middle" x="393.38" y="-570.5" font-family="Arial" font-size="10.00">wan</text>
<text text-anchor="middle" x="393.38" y="-558.5" font-family="Arial" font-size="10.00">10.0.1.100/24</text>
<text text-anchor="middle" x="393.38" y="-546.5" font-family="Arial" font-size="10.00">(Utility WAN)</text>
<text text-anchor="middle" x="393.38" y="-522.5" font-family="Arial" font-size="10.00">Zone: DMZ Zone</text>
<text text-anchor="middle" x="393.38" y="-510.5" font-family="Arial" font-size="10.00">Risk: Medium</text>
<text text-anchor="middle" x="393.38" y="-498.5" font-family="Arial" font-size="10.00">Type: Internet</text>
</g>
<!-- firewall&#45;&gt;net_wan -->
<g id="edge2" class="edge">
<title>firewall&#45;&gt;net_wan</title>
<path fill="none" stroke="#666666" stroke-width="2" d="M107.29,-526.96C107.29,-526.96 334.45,-526.96 334.45,-526.96"/>
<polygon fill="#666666" stroke="#666666" stroke-width="2" points="334.45,-530.46 344.45,-526.96 334.45,-523.46 334.45,-530.46"/>
<text text-anchor="middle" x="230.5" y="-550.45" font-family="Arial" font-size="9.00">wan</text>
<text text-anchor="middle" x="230.5" y="-539.95" font-family="Arial" font-size="9.00">10.0.1.100/24</text>
</g>
<!-- net_lan -->
<g id="node6" class="node">
<title>net_lan</title>
<path fill="#c8e6c9" stroke="#2e7d32" stroke-width="2" d="M435.5,-420C435.5,-420 351.25,-420 351.25,-420 345.25,-420 339.25,-414 339.25,-408 339.25,-408 339.25,-340 339.25,-340 339.25,-334 345.25,-328 351.25,-328 351.25,-328 435.5,-328 435.5,-328 441.5,-328 447.5,-334 447.5,-340 447.5,-340 447.5,-408 447.5,-408 447.5,-414 441.5,-420 435.5,-420"/>
<text text-anchor="middle" x="393.38" y="-406.5" font-family="Arial" font-size="10.00">lan</text>
<text text-anchor="middle" x="393.38" y="-394.5" font-family="Arial" font-size="10.00">172.16.10.1/24</text>
<text text-anchor="middle" x="393.38" y="-382.5" font-family="Arial" font-size="10.00">(Control Center)</text>
<text text-anchor="middle" x="393.38" y="-358.5" font-family="Arial" font-size="10.00">Zone: Industrial Zone</text>
<text text-anchor="middle" x="393.38" y="-346.5" font-family="Arial" font-size="10.00">Risk: High</text>
<text text-anchor="middle" x="393.38" y="-334.5" font-family="Arial" font-size="10.00">Type: Production OT</text>
</g>
<!-- firewall&#45;&gt;net_lan -->
<g id="edge3" class="edge">
<title>firewall&#45;&gt;net_lan</title>
<path fill="none" stroke="#666666" stroke-width="2" d="M107.26,-515.92C185.8,-515.92 343.5,-515.92 343.5,-515.92 343.5,-515.92 343.5,-433.89 343.5,-433.89"/>
<polygon fill="#666666" stroke="#666666" stroke-width="2" points="347,-433.89 343.5,-423.89 340,-433.89 347,-433.89"/>
<text text-anchor="middle" x="230.5" y="-386.45" font-family="Arial" font-size="9.00">lan</text>
<text text-anchor="middle" x="230.5" y="-375.95" font-family="Arial" font-size="9.00">172.16.10.1/24</text>
</g>
<!-- net_opt1 -->
<g id="node7" class="node">
<title>net_opt1</title>
<path fill="#c8e6c9" stroke="#2e7d32" stroke-width="2" d="M435.5,-256C435.5,-256 351.25,-256 351.25,-256 345.25,-256 339.25,-250 339.25,-244 339.25,-244 339.25,-176 339.25,-176 339.25,-170 345.25,-164 351.25,-164 351.25,-164 435.5,-164 435.5,-164 441.5,-164 447.5,-170 447.5,-176 447.5,-176 447.5,-244 447.5,-244 447.5,-250 441.5,-256 435.5,-256"/>
<text text-anchor="middle" x="393.38" y="-242.5" font-family="Arial" font-size="10.00">opt1</text>
<text text-anchor="middle" x="393.38" y="-230.5" font-family="Arial" font-size="10.00">172.16.20.1/24</text>
<text text-anchor="middle" x="393.38" y="-218.5" font-family="Arial" font-size="10.00">(SCADA Network)</text>
<text text-anchor="middle" x="393.38" y="-194.5" font-family="Arial" font-size="10.00">Zone: Industrial Zone</text>
<text text-anchor="middle" x="393.38" y="-182.5" font-family="Arial" font-size="10.00">Risk: High</text>
<text text-anchor="middle" x="393.38" y="-170.5" font-family="Arial" font-size="10.00">Type: Production OT</text>
</g>
<!-- firewall&#45;&gt;net_opt1 -->
<g id="edge4" class="edge">
<title>firewall&#45;&gt;net_opt1</title>
<path fill="none" stroke="#666666" stroke-width="2" d="M77.5,-503.52C77.5,-419.31 77.5,-210 77.5,-210 77.5,-210 325.33,-210 325.33,-210"/>
<polygon fill="#666666" stroke="#666666" stroke-width="2" points="325.33,-213.5 335.33,-210 325.33,-206.5 325.33,-213.5"/>
<text text-anchor="middle" x="230.5" y="-222.45" font-family="Arial" font-size="9.00">opt1</text>
<text text-anchor="middle" x="230.5" y="-211.95" font-family="Arial" font-size="9.00">172.16.20.1/24</text>
</g>
<!-- net_opt2 -->
<g id="node8" class="node">
<title>net_opt2</title>
<path fill="#c8e6c9" stroke="#2e7d32" stroke-width="2" d="M435.5,-92C435.5,-92 351.25,-92 351.25,-92 345.25,-92 339.25,-86 339.25,-80 339.25,-80 339.25,-12 339.25,-12 339.25,-6 345.25,0 351.25,0 351.25,0 435.5,0 435.5,0 441.5,0 447.5,-6 447.5,-12 447.5,-12 447.5,-80 447.5,-80 447.5,-86 441.5,-92 435.5,-92"/>
<text text-anchor="middle" x="393.38" y="-78.5" font-family="Arial" font-size="10.00">opt2</text>
<text text-anchor="middle" x="393.38" y="-66.5" font-family="Arial" font-size="10.00">172.16.30.1/24</text>
<text text-anchor="middle" x="393.38" y="-54.5" font-family="Arial" font-size="10.00">(Protection Relays)</text>
<text text-anchor="middle" x="393.38" y="-30.5" font-family="Arial" font-size="10.00">Zone: Industrial Zone</text>
<text text-anchor="middle" x="393.38" y="-18.5" font-family="Arial" font-size="10.00">Risk: High</text>
<text text-anchor="middle" x="393.38" y="-6.5" font-family="Arial" font-size="10.00">Type: Production OT</text>
</g>
<!-- firewall&#45;&gt;net_opt2 -->
<g id="edge5" class="edge">
<title>firewall&#45;&gt;net_opt2</title>
<path fill="none" stroke="#666666" stroke-width="2" d="M49.5,-503.4C49.5,-391.41 49.5,-46 49.5,-46 49.5,-46 325.48,-46 325.48,-46"/>
<polygon fill="#666666" stroke="#666666" stroke-width="2" points="325.48,-49.5 335.48,-46 325.48,-42.5 325.48,-49.5"/>
<text text-anchor="middle" x="230.5" y="-58.45" font-family="Arial" font-size="9.00">opt2</text>
<text text-anchor="middle" x="230.5" y="-47.95" font-family="Arial" font-size="9.00">172.16.30.1/24</text>
</g>
<!-- rules_summary -->
<g id="node9" class="node">
<title>rules_summary</title>
<polygon fill="#fff9c4" stroke="#f57f17" points="121.75,-746.5 0,-746.5 0,-643.5 127.75,-643.5 127.75,-740.5 121.75,-746.5"/>
<polyline fill="none" stroke="#f57f17" points="121.75,-746.5 121.75,-740.5"/>
<polyline fill="none" stroke="#f57f17" points="127.75,-740.5 121.75,-740.5"/>
<text text-anchor="middle" x="63.88" y="-733.95" font-family="Arial" font-size="9.00">🔒 Security Rules Summary</text>
<text text-anchor="middle" x="63.88" y="-701.95" font-family="Arial" font-size="9.00"> &#160;&#160;&#160;ALLOW: lan → any</text>
<text text-anchor="middle" x="63.88" y="-691.45" font-family="Arial" font-size="9.00"> &#160;&#160;&#160;ALLOW: lan → any</text>
<text text-anchor="middle" x="63.88" y="-680.95" font-family="Arial" font-size="9.00"> &#160;&#160;&#160;ALLOW: opt1 → any</text>
<text text-anchor="middle" x="63.88" y="-670.45" font-family="Arial" font-size="9.00"> &#160;&#160;&#160;ALLOW: opt1 → opt3</text>
<text text-anchor="middle" x="63.88" y="-659.95" font-family="Arial" font-size="9.00"> &#160;&#160;&#160;ALLOW: any → any</text>
<text text-anchor="middle" x="63.88" y="-649.45" font-family="Arial" font-size="9.00"> &#160;&#160;&#160;... and 11 more rules</text>
</g>
</g>
</svg>
