<?xml version="1.0" encoding="UTF-8" standalone="no"?>
<!DOCTYPE svg PUBLIC "-//W3C//DTD SVG 1.1//EN"
 "http://www.w3.org/Graphics/SVG/1.1/DTD/svg11.dtd">
<!-- Generated by graphviz version 12.2.1 (20241206.2353)
 -->
<!-- Title: FirewallTopology Pages: 1 -->
<svg width="778pt" height="147pt"
 viewBox="0.00 0.00 778.00 147.25" xmlns="http://www.w3.org/2000/svg" xmlns:xlink="http://www.w3.org/1999/xlink">
<g id="graph0" class="graph" transform="scale(1 1) rotate(0) translate(4 143.25)">
<title>FirewallTopology</title>
<polygon fill="white" stroke="none" points="-4,4 -4,-143.25 774,-143.25 774,4 -4,4"/>
<text text-anchor="middle" x="385" y="-121.95" font-family="Times,serif" font-size="14.00">Network Topology from tests/configs/opnsense/test_opnsense_config.xml</text>
<text text-anchor="middle" x="385" y="-105.45" font-family="Times,serif" font-size="14.00">Generated: 2025&#45;10&#45;11 16:50:36</text>
<g id="clust1" class="cluster">
<title>cluster_Remote_Access_Zone</title>
<polygon fill="#0277bd" stroke="#0277bd" stroke-width="2" points="8,-8 8,-90.25 146,-90.25 146,-8 8,-8"/>
<text text-anchor="middle" x="77" y="-74.85" font-family="Arial Bold" font-size="12.00">Remote Access Zone</text>
</g>
<g id="clust2" class="cluster">
<title>cluster_DMZ_Zone</title>
<polygon fill="#f57c00" stroke="#f57c00" stroke-width="2" points="154,-12 154,-86.25 228,-86.25 228,-12 154,-12"/>
<text text-anchor="middle" x="191" y="-70.85" font-family="Arial Bold" font-size="12.00">DMZ Zone</text>
</g>
<g id="clust3" class="cluster">
<title>cluster_Manufacturing_Zone</title>
<polygon fill="#2e7d32" stroke="#2e7d32" stroke-width="2" points="236,-8 236,-90.25 366,-90.25 366,-8 236,-8"/>
<text text-anchor="middle" x="301" y="-74.85" font-family="Arial Bold" font-size="12.00">Manufacturing Zone</text>
</g>
<g id="clust4" class="cluster">
<title>cluster_legend</title>
<polygon fill="#666666" stroke="#666666" points="374,-12 374,-83.25 762,-83.25 762,-12 374,-12"/>
<text text-anchor="middle" x="568" y="-69.75" font-family="Times,serif" font-size="10.00">Legend</text>
</g>
<!-- opt5 -->
<g id="node1" class="node">
<title>opt5</title>
<path fill="#e8f5e8" stroke="black" d="M95.12,-60C95.12,-60 58.88,-60 58.88,-60 52.88,-60 46.88,-54 46.88,-48 46.88,-48 46.88,-28 46.88,-28 46.88,-22 52.88,-16 58.88,-16 58.88,-16 95.12,-16 95.12,-16 101.12,-16 107.12,-22 107.12,-28 107.12,-28 107.12,-48 107.12,-48 107.12,-54 101.12,-60 95.12,-60"/>
<text text-anchor="middle" x="77" y="-46.5" font-family="Arial" font-size="10.00">opt5</text>
<text text-anchor="middle" x="77" y="-34.5" font-family="Arial" font-size="10.00">Wireguard</text>
<text text-anchor="middle" x="77" y="-22.5" font-family="Arial" font-size="10.00">(General)</text>
</g>
<!-- wan -->
<g id="node2" class="node">
<title>wan</title>
<path fill="#fff3e0" stroke="black" d="M206.5,-56C206.5,-56 175.5,-56 175.5,-56 169.5,-56 163.5,-50 163.5,-44 163.5,-44 163.5,-32 163.5,-32 163.5,-26 169.5,-20 175.5,-20 175.5,-20 206.5,-20 206.5,-20 212.5,-20 218.5,-26 218.5,-32 218.5,-32 218.5,-44 218.5,-44 218.5,-50 212.5,-56 206.5,-56"/>
<text text-anchor="middle" x="191" y="-40.5" font-family="Arial" font-size="10.00">wan</text>
<text text-anchor="middle" x="191" y="-28.5" font-family="Arial" font-size="10.00">(Internet)</text>
</g>
<!-- lan -->
<g id="node3" class="node">
<title>lan</title>
<path fill="#ffcdd2" stroke="black" d="M329.25,-60C329.25,-60 272.75,-60 272.75,-60 266.75,-60 260.75,-54 260.75,-48 260.75,-48 260.75,-28 260.75,-28 260.75,-22 266.75,-16 272.75,-16 272.75,-16 329.25,-16 329.25,-16 335.25,-16 341.25,-22 341.25,-28 341.25,-28 341.25,-48 341.25,-48 341.25,-54 335.25,-60 329.25,-60"/>
<text text-anchor="middle" x="301" y="-46.5" font-family="Arial" font-size="10.00">lan</text>
<text text-anchor="middle" x="301" y="-34.5" font-family="Arial" font-size="10.00">192.168.1.1/24</text>
<text text-anchor="middle" x="301" y="-22.5" font-family="Arial" font-size="10.00">(General)</text>
</g>
<!-- legend_allow -->
<g id="node4" class="node">
<title>legend_allow</title>
<text text-anchor="middle" x="409" y="-34.5" font-family="Arial" font-size="10.00">ALLOW</text>
</g>
<!-- legend_deny -->
<g id="node5" class="node">
<title>legend_deny</title>
<text text-anchor="middle" x="481" y="-34.5" font-family="Arial" font-size="10.00">DENY</text>
</g>
<!-- legend_high -->
<g id="node6" class="node">
<title>legend_high</title>
<polygon fill="#ffcdd2" stroke="black" points="585.75,-56 526.25,-56 526.25,-20 585.75,-20 585.75,-56"/>
<text text-anchor="middle" x="556" y="-34.5" font-family="Arial" font-size="10.00">High Risk</text>
</g>
<!-- legend_medium -->
<g id="node7" class="node">
<title>legend_medium</title>
<polygon fill="#fff3e0" stroke="black" points="677.88,-56 604.12,-56 604.12,-20 677.88,-20 677.88,-56"/>
<text text-anchor="middle" x="641" y="-34.5" font-family="Arial" font-size="10.00">Medium Risk</text>
</g>
<!-- legend_low -->
<g id="node8" class="node">
<title>legend_low</title>
<polygon fill="#e8f5e8" stroke="black" points="753.62,-56 696.38,-56 696.38,-20 753.62,-20 753.62,-56"/>
<text text-anchor="middle" x="725" y="-34.5" font-family="Arial" font-size="10.00">Low Risk</text>
</g>
</g>
</svg>
