<?xml version="1.0" encoding="UTF-8" standalone="no"?>
<!DOCTYPE svg PUBLIC "-//W3C//DTD SVG 1.1//EN"
 "http://www.w3.org/Graphics/SVG/1.1/DTD/svg11.dtd">
<!-- Generated by graphviz version 12.2.1 (20241206.2353)
 -->
<!-- Title: FirewallTopology Pages: 1 -->
<svg width="480pt" height="466pt"
 viewBox="0.00 0.00 479.50 466.00" xmlns="http://www.w3.org/2000/svg" xmlns:xlink="http://www.w3.org/1999/xlink">
<g id="graph0" class="graph" transform="scale(1 1) rotate(0) translate(4 462)">
<title>FirewallTopology</title>
<polygon fill="white" stroke="none" points="-4,4 -4,-462 475.5,-462 475.5,4 -4,4"/>
<text text-anchor="middle" x="235.75" y="-440.7" font-family="Times,serif" font-size="14.00">Firewall Network Topology</text>
<text text-anchor="middle" x="235.75" y="-424.2" font-family="Times,serif" font-size="14.00">tests/configs/opnsense/test_opnsense_config.xml</text>
<text text-anchor="middle" x="235.75" y="-407.7" font-family="Times,serif" font-size="14.00">Generated: 2025&#45;10&#45;11 16:50:36</text>
<!-- firewall -->
<g id="node1" class="node">
<title>firewall</title>
<path fill="#e3f2fd" stroke="#1976d2" stroke-width="3" d="M94,-225.12C94,-225.12 33.75,-225.12 33.75,-225.12 27.75,-225.12 21.75,-219.12 21.75,-213.12 21.75,-213.12 21.75,-170.88 21.75,-170.88 21.75,-164.88 27.75,-158.88 33.75,-158.88 33.75,-158.88 94,-158.88 94,-158.88 100,-158.88 106,-164.88 106,-170.88 106,-170.88 106,-213.12 106,-213.12 106,-219.12 100,-225.12 94,-225.12"/>
<text text-anchor="middle" x="63.88" y="-209.72" font-family="Arial Bold" font-size="12.00">🔥 Firewall</text>
<text text-anchor="middle" x="63.88" y="-193.97" font-family="Arial Bold" font-size="12.00">(OPNsense)</text>
<text text-anchor="middle" x="63.88" y="-165.72" font-family="Arial Bold" font-size="12.00">Interfaces:</text>
</g>
<!-- net_wan -->
<g id="node2" class="node">
<title>net_wan</title>
<path fill="#ffe0b2" stroke="#f57c00" stroke-width="2" d="M435.5,-372C435.5,-372 369.25,-372 369.25,-372 363.25,-372 357.25,-366 357.25,-360 357.25,-360 357.25,-316 357.25,-316 357.25,-310 363.25,-304 369.25,-304 369.25,-304 435.5,-304 435.5,-304 441.5,-304 447.5,-310 447.5,-316 447.5,-316 447.5,-360 447.5,-360 447.5,-366 441.5,-372 435.5,-372"/>
<text text-anchor="middle" x="402.38" y="-358.5" font-family="Arial" font-size="10.00">wan</text>
<text text-anchor="middle" x="402.38" y="-334.5" font-family="Arial" font-size="10.00">Zone: DMZ Zone</text>
<text text-anchor="middle" x="402.38" y="-322.5" font-family="Arial" font-size="10.00">Risk: Medium</text>
<text text-anchor="middle" x="402.38" y="-310.5" font-family="Arial" font-size="10.00">Type: Internet</text>
</g>
<!-- firewall&#45;&gt;net_wan -->
<g id="edge1" class="edge">
<title>firewall&#45;&gt;net_wan</title>
<path fill="none" stroke="#666666" stroke-width="2" d="M107.22,-203.04C156.59,-203.04 230.5,-203.04 230.5,-203.04 230.5,-203.04 230.5,-338 230.5,-338 230.5,-338 343.29,-338 343.29,-338"/>
<polygon fill="#666666" stroke="#666666" stroke-width="2" points="343.29,-341.5 353.29,-338 343.29,-334.5 343.29,-341.5"/>
<text text-anchor="middle" x="230.5" y="-339.95" font-family="Arial" font-size="9.00">wan</text>
</g>
<!-- net_opt5 -->
<g id="node3" class="node">
<title>net_opt5</title>
<path fill="#b3e5fc" stroke="#0277bd" stroke-width="2" d="M459.5,-232C459.5,-232 345.25,-232 345.25,-232 339.25,-232 333.25,-226 333.25,-220 333.25,-220 333.25,-164 333.25,-164 333.25,-158 339.25,-152 345.25,-152 345.25,-152 459.5,-152 459.5,-152 465.5,-152 471.5,-158 471.5,-164 471.5,-164 471.5,-220 471.5,-220 471.5,-226 465.5,-232 459.5,-232"/>
<text text-anchor="middle" x="402.38" y="-218.5" font-family="Arial" font-size="10.00">opt5</text>
<text text-anchor="middle" x="402.38" y="-206.5" font-family="Arial" font-size="10.00">(Wireguard)</text>
<text text-anchor="middle" x="402.38" y="-182.5" font-family="Arial" font-size="10.00">Zone: Remote Access Zone</text>
<text text-anchor="middle" x="402.38" y="-170.5" font-family="Arial" font-size="10.00">Risk: Low</text>
<text text-anchor="middle" x="402.38" y="-158.5" font-family="Arial" font-size="10.00">Type: General</text>
</g>
<!-- firewall&#45;&gt;net_opt5 -->
<g id="edge2" class="edge">
<title>firewall&#45;&gt;net_opt5</title>
<path fill="none" stroke="#666666" stroke-width="2" d="M107.43,-180.96C107.43,-180.96 319.5,-180.96 319.5,-180.96"/>
<polygon fill="#666666" stroke="#666666" stroke-width="2" points="319.5,-184.46 329.5,-180.96 319.5,-177.46 319.5,-184.46"/>
<text text-anchor="middle" x="230.5" y="-193.95" font-family="Arial" font-size="9.00">opt5</text>
</g>
<!-- net_lan -->
<g id="node4" class="node">
<title>net_lan</title>
<path fill="#c8e6c9" stroke="#2e7d32" stroke-width="2" d="M455.38,-80C455.38,-80 349.38,-80 349.38,-80 343.38,-80 337.38,-74 337.38,-68 337.38,-68 337.38,-12 337.38,-12 337.38,-6 343.38,0 349.38,0 349.38,0 455.38,0 455.38,0 461.38,0 467.38,-6 467.38,-12 467.38,-12 467.38,-68 467.38,-68 467.38,-74 461.38,-80 455.38,-80"/>
<text text-anchor="middle" x="402.38" y="-66.5" font-family="Arial" font-size="10.00">lan</text>
<text text-anchor="middle" x="402.38" y="-54.5" font-family="Arial" font-size="10.00">192.168.1.1/24</text>
<text text-anchor="middle" x="402.38" y="-30.5" font-family="Arial" font-size="10.00">Zone: Manufacturing Zone</text>
<text text-anchor="middle" x="402.38" y="-18.5" font-family="Arial" font-size="10.00">Risk: High</text>
<text text-anchor="middle" x="402.38" y="-6.5" font-family="Arial" font-size="10.00">Type: General</text>
</g>
<!-- firewall&#45;&gt;net_lan -->
<g id="edge3" class="edge">
<title>firewall&#45;&gt;net_lan</title>
<path fill="none" stroke="#666666" stroke-width="2" d="M63.5,-157.51C63.5,-112.66 63.5,-40 63.5,-40 63.5,-40 323.61,-40 323.61,-40"/>
<polygon fill="#666666" stroke="#666666" stroke-width="2" points="323.61,-43.5 333.61,-40 323.61,-36.5 323.61,-43.5"/>
<text text-anchor="middle" x="230.5" y="-52.45" font-family="Arial" font-size="9.00">lan</text>
<text text-anchor="middle" x="230.5" y="-41.95" font-family="Arial" font-size="9.00">192.168.1.1/24</text>
</g>
<!-- rules_summary -->
<g id="node5" class="node">
<title>rules_summary</title>
<polygon fill="#fff9c4" stroke="#f57f17" points="121.75,-400.5 0,-400.5 0,-297.5 127.75,-297.5 127.75,-394.5 121.75,-400.5"/>
<polyline fill="none" stroke="#f57f17" points="121.75,-400.5 121.75,-394.5"/>
<polyline fill="none" stroke="#f57f17" points="127.75,-394.5 121.75,-394.5"/>
<text text-anchor="middle" x="63.88" y="-387.95" font-family="Arial" font-size="9.00">🔒 Security Rules Summary</text>
<text text-anchor="middle" x="63.88" y="-355.95" font-family="Arial" font-size="9.00"> &#160;&#160;&#160;ALLOW: opt5ip → opt5</text>
<text text-anchor="middle" x="63.88" y="-345.45" font-family="Arial" font-size="9.00"> &#160;&#160;&#160;DENY: any → any</text>
<text text-anchor="middle" x="63.88" y="-334.95" font-family="Arial" font-size="9.00"> &#160;&#160;&#160;ALLOW: any → any</text>
<text text-anchor="middle" x="63.88" y="-324.45" font-family="Arial" font-size="9.00"> &#160;&#160;&#160;ALLOW: any → any</text>
<text text-anchor="middle" x="63.88" y="-313.95" font-family="Arial" font-size="9.00"> &#160;&#160;&#160;ALLOW: lan → any</text>
<text text-anchor="middle" x="63.88" y="-303.45" font-family="Arial" font-size="9.00"> &#160;&#160;&#160;... and 2 more rules</text>
</g>
</g>
</svg>
