<?xml version="1.0" encoding="UTF-8" standalone="no"?>
<!DOCTYPE svg PUBLIC "-//W3C//DTD SVG 1.1//EN"
 "http://www.w3.org/Graphics/SVG/1.1/DTD/svg11.dtd">
<!-- Generated by graphviz version 12.2.1 (20241206.2353)
 -->
<!-- Title: IEC62443Zones Pages: 1 -->
<svg width="1147pt" height="153pt"
 viewBox="0.00 0.00 1147.00 153.25" xmlns="http://www.w3.org/2000/svg" xmlns:xlink="http://www.w3.org/1999/xlink">
<g id="graph0" class="graph" transform="scale(1 1) rotate(0) translate(4 149.25)">
<title>IEC62443Zones</title>
<polygon fill="#f8f9fa" stroke="none" points="-4,4 -4,-149.25 1143,-149.25 1143,4 -4,4"/>
<text text-anchor="middle" x="569.5" y="-126.05" font-family="Arial Bold" font-size="16.00">IEC 62443 Zone &amp; Conduit Analysis</text>
<text text-anchor="middle" x="569.5" y="-107.3" font-family="Arial Bold" font-size="16.00">Firewall Configuration Analysis</text>
<g id="clust1" class="cluster">
<title>cluster_Industrial_Zone</title>
<polygon fill="#1b5e20" stroke="#1b5e20" stroke-width="3" points="8,-8 8,-91.75 479,-91.75 479,-8 8,-8"/>
<text text-anchor="middle" x="243.5" y="-74.45" font-family="Arial Bold" font-size="14.00">Industrial Zone</text>
</g>
<g id="clust2" class="cluster">
<title>cluster_DMZ_Zone</title>
<polygon fill="#e65100" stroke="#e65100" stroke-width="3" points="487,-8 487,-91.75 674,-91.75 674,-8 487,-8"/>
<text text-anchor="middle" x="580.5" y="-74.45" font-family="Arial Bold" font-size="14.00">DMZ Zone</text>
</g>
<g id="clust3" class="cluster">
<title>cluster_iec_legend</title>
<polygon fill="#333333" stroke="#333333" points="682,-12 682,-86.25 1131,-86.25 1131,-12 682,-12"/>
<text text-anchor="middle" x="906.5" y="-70.85" font-family="Arial Bold" font-size="12.00">IEC 62443 Zones</text>
</g>
<!-- opt2 -->
<g id="node1" class="node">
<title>opt2</title>
<path fill="white" stroke="black" d="M79.62,-60C79.62,-60 28.37,-60 28.37,-60 22.37,-60 16.38,-54 16.38,-48 16.38,-48 16.38,-28 16.38,-28 16.38,-22 22.38,-16 28.38,-16 28.38,-16 79.62,-16 79.62,-16 85.62,-16 91.62,-22 91.62,-28 91.62,-28 91.62,-48 91.62,-48 91.62,-54 85.62,-60 79.62,-60"/>
<text text-anchor="middle" x="54" y="-46.5" font-family="Arial" font-size="10.00">opt2</text>
<text text-anchor="middle" x="54" y="-34.5" font-family="Arial" font-size="10.00">10.100.2.1/24</text>
<text text-anchor="middle" x="54" y="-22.5" font-family="Arial" font-size="10.00">Risk: High</text>
</g>
<!-- opt3 -->
<g id="node2" class="node">
<title>opt3</title>
<path fill="white" stroke="black" d="M172.62,-60C172.62,-60 121.38,-60 121.38,-60 115.38,-60 109.38,-54 109.38,-48 109.38,-48 109.38,-28 109.38,-28 109.38,-22 115.38,-16 121.38,-16 121.38,-16 172.62,-16 172.62,-16 178.62,-16 184.62,-22 184.62,-28 184.62,-28 184.62,-48 184.62,-48 184.62,-54 178.62,-60 172.62,-60"/>
<text text-anchor="middle" x="147" y="-46.5" font-family="Arial" font-size="10.00">opt3</text>
<text text-anchor="middle" x="147" y="-34.5" font-family="Arial" font-size="10.00">10.100.3.1/24</text>
<text text-anchor="middle" x="147" y="-22.5" font-family="Arial" font-size="10.00">Risk: High</text>
</g>
<!-- opt5 -->
<g id="node3" class="node">
<title>opt5</title>
<path fill="white" stroke="black" d="M261,-60C261,-60 215,-60 215,-60 209,-60 203,-54 203,-48 203,-48 203,-28 203,-28 203,-22 209,-16 215,-16 215,-16 261,-16 261,-16 267,-16 273,-22 273,-28 273,-28 273,-48 273,-48 273,-54 267,-60 261,-60"/>
<text text-anchor="middle" x="238" y="-46.5" font-family="Arial" font-size="10.00">opt5</text>
<text text-anchor="middle" x="238" y="-34.5" font-family="Arial" font-size="10.00">10.50.1.1/24</text>
<text text-anchor="middle" x="238" y="-22.5" font-family="Arial" font-size="10.00">Risk: High</text>
</g>
<!-- lan -->
<g id="node4" class="node">
<title>lan</title>
<path fill="white" stroke="black" d="M364.88,-60C364.88,-60 303.12,-60 303.12,-60 297.12,-60 291.12,-54 291.12,-48 291.12,-48 291.12,-28 291.12,-28 291.12,-22 297.12,-16 303.12,-16 303.12,-16 364.88,-16 364.88,-16 370.88,-16 376.88,-22 376.88,-28 376.88,-28 376.88,-48 376.88,-48 376.88,-54 370.88,-60 364.88,-60"/>
<text text-anchor="middle" x="334" y="-46.5" font-family="Arial" font-size="10.00">lan</text>
<text text-anchor="middle" x="334" y="-34.5" font-family="Arial" font-size="10.00">192.168.10.1/24</text>
<text text-anchor="middle" x="334" y="-22.5" font-family="Arial" font-size="10.00">Risk: High</text>
</g>
<!-- opt1 -->
<g id="node5" class="node">
<title>opt1</title>
<path fill="white" stroke="black" d="M458.62,-60C458.62,-60 407.38,-60 407.38,-60 401.38,-60 395.38,-54 395.38,-48 395.38,-48 395.38,-28 395.38,-28 395.38,-22 401.38,-16 407.38,-16 407.38,-16 458.62,-16 458.62,-16 464.62,-16 470.62,-22 470.62,-28 470.62,-28 470.62,-48 470.62,-48 470.62,-54 464.62,-60 458.62,-60"/>
<text text-anchor="middle" x="433" y="-46.5" font-family="Arial" font-size="10.00">opt1</text>
<text text-anchor="middle" x="433" y="-34.5" font-family="Arial" font-size="10.00">10.100.1.1/24</text>
<text text-anchor="middle" x="433" y="-22.5" font-family="Arial" font-size="10.00">Risk: High</text>
</g>
<!-- opt4 -->
<g id="node6" class="node">
<title>opt4</title>
<path fill="white" stroke="black" d="M559.38,-60C559.38,-60 506.62,-60 506.62,-60 500.62,-60 494.62,-54 494.62,-48 494.62,-48 494.62,-28 494.62,-28 494.62,-22 500.62,-16 506.62,-16 506.62,-16 559.38,-16 559.38,-16 565.38,-16 571.38,-22 571.38,-28 571.38,-28 571.38,-48 571.38,-48 571.38,-54 565.38,-60 559.38,-60"/>
<text text-anchor="middle" x="533" y="-46.5" font-family="Arial" font-size="10.00">opt4</text>
<text text-anchor="middle" x="533" y="-34.5" font-family="Arial" font-size="10.00">10.200.1.1/24</text>
<text text-anchor="middle" x="533" y="-22.5" font-family="Arial" font-size="10.00">Risk: Medium</text>
</g>
<!-- wan -->
<g id="node7" class="node">
<title>wan</title>
<path fill="white" stroke="black" d="M654.38,-60C654.38,-60 601.62,-60 601.62,-60 595.62,-60 589.62,-54 589.62,-48 589.62,-48 589.62,-28 589.62,-28 589.62,-22 595.62,-16 601.62,-16 601.62,-16 654.38,-16 654.38,-16 660.38,-16 666.38,-22 666.38,-28 666.38,-28 666.38,-48 666.38,-48 666.38,-54 660.38,-60 654.38,-60"/>
<text text-anchor="middle" x="628" y="-46.5" font-family="Arial" font-size="10.00">wan</text>
<text text-anchor="middle" x="628" y="-22.5" font-family="Arial" font-size="10.00">Risk: Medium</text>
</g>
<!-- industrial_zone -->
<g id="node8" class="node">
<title>industrial_zone</title>
<path fill="#c8e6c9" stroke="black" d="M758.25,-56C758.25,-56 701.75,-56 701.75,-56 695.75,-56 689.75,-50 689.75,-44 689.75,-44 689.75,-32 689.75,-32 689.75,-26 695.75,-20 701.75,-20 701.75,-20 758.25,-20 758.25,-20 764.25,-20 770.25,-26 770.25,-32 770.25,-32 770.25,-44 770.25,-44 770.25,-50 764.25,-56 758.25,-56"/>
<text text-anchor="middle" x="730" y="-40.5" font-family="Arial" font-size="10.00">Industrial Zone</text>
<text text-anchor="middle" x="730" y="-28.5" font-family="Arial" font-size="10.00">(Level 0&#45;2)</text>
</g>
<!-- dmz_zone -->
<g id="node9" class="node">
<title>dmz_zone</title>
<path fill="#ffe0b2" stroke="black" d="M879.88,-56C879.88,-56 800.12,-56 800.12,-56 794.12,-56 788.12,-50 788.12,-44 788.12,-44 788.12,-32 788.12,-32 788.12,-26 794.12,-20 800.12,-20 800.12,-20 879.88,-20 879.88,-20 885.88,-20 891.88,-26 891.88,-32 891.88,-32 891.88,-44 891.88,-44 891.88,-50 885.88,-56 879.88,-56"/>
<text text-anchor="middle" x="840" y="-40.5" font-family="Arial" font-size="10.00">DMZ Zone</text>
<text text-anchor="middle" x="840" y="-28.5" font-family="Arial" font-size="10.00">(Network Perimeter)</text>
</g>
<!-- ent_zone -->
<g id="node10" class="node">
<title>ent_zone</title>
<path fill="#e1bee7" stroke="black" d="M982.5,-56C982.5,-56 921.5,-56 921.5,-56 915.5,-56 909.5,-50 909.5,-44 909.5,-44 909.5,-32 909.5,-32 909.5,-26 915.5,-20 921.5,-20 921.5,-20 982.5,-20 982.5,-20 988.5,-20 994.5,-26 994.5,-32 994.5,-32 994.5,-44 994.5,-44 994.5,-50 988.5,-56 982.5,-56"/>
<text text-anchor="middle" x="952" y="-40.5" font-family="Arial" font-size="10.00">Enterprise Zone</text>
<text text-anchor="middle" x="952" y="-28.5" font-family="Arial" font-size="10.00">(Level 3&#45;5)</text>
</g>
<!-- remote_zone -->
<g id="node11" class="node">
<title>remote_zone</title>
<path fill="#b3e5fc" stroke="black" d="M1111.25,-56C1111.25,-56 1024.75,-56 1024.75,-56 1018.75,-56 1012.75,-50 1012.75,-44 1012.75,-44 1012.75,-32 1012.75,-32 1012.75,-26 1018.75,-20 1024.75,-20 1024.75,-20 1111.25,-20 1111.25,-20 1117.25,-20 1123.25,-26 1123.25,-32 1123.25,-32 1123.25,-44 1123.25,-44 1123.25,-50 1117.25,-56 1111.25,-56"/>
<text text-anchor="middle" x="1068" y="-40.5" font-family="Arial" font-size="10.00">Remote Access Zone</text>
<text text-anchor="middle" x="1068" y="-28.5" font-family="Arial" font-size="10.00">(VPN/Remote)</text>
</g>
</g>
</svg>
