<?xml version="1.0" encoding="UTF-8" standalone="no"?>
<!DOCTYPE svg PUBLIC "-//W3C//DTD SVG 1.1//EN"
 "http://www.w3.org/Graphics/SVG/1.1/DTD/svg11.dtd">
<!-- Generated by graphviz version 12.2.1 (20241206.2353)
 -->
<!-- Title: IEC62443Zones Pages: 1 -->
<svg width="1146pt" height="153pt"
 viewBox="0.00 0.00 1146.00 153.25" xmlns="http://www.w3.org/2000/svg" xmlns:xlink="http://www.w3.org/1999/xlink">
<g id="graph0" class="graph" transform="scale(1 1) rotate(0) translate(4 149.25)">
<title>IEC62443Zones</title>
<polygon fill="#f8f9fa" stroke="none" points="-4,4 -4,-149.25 1142,-149.25 1142,4 -4,4"/>
<text text-anchor="middle" x="569" y="-126.05" font-family="Arial Bold" font-size="16.00">IEC 62443 Zone &amp; Conduit Analysis</text>
<text text-anchor="middle" x="569" y="-107.3" font-family="Arial Bold" font-size="16.00">Firewall Configuration Analysis</text>
<g id="clust1" class="cluster">
<title>cluster_DMZ_Zone</title>
<polygon fill="#e65100" stroke="#e65100" stroke-width="3" points="8,-8 8,-91.75 195,-91.75 195,-8 8,-8"/>
<text text-anchor="middle" x="101.5" y="-74.45" font-family="Arial Bold" font-size="14.00">DMZ Zone</text>
</g>
<g id="clust2" class="cluster">
<title>cluster_Industrial_Zone</title>
<polygon fill="#1b5e20" stroke="#1b5e20" stroke-width="3" points="203,-8 203,-91.75 673,-91.75 673,-8 203,-8"/>
<text text-anchor="middle" x="438" y="-74.45" font-family="Arial Bold" font-size="14.00">Industrial Zone</text>
</g>
<g id="clust3" class="cluster">
<title>cluster_iec_legend</title>
<polygon fill="#333333" stroke="#333333" points="681,-12 681,-86.25 1130,-86.25 1130,-12 681,-12"/>
<text text-anchor="middle" x="905.5" y="-70.85" font-family="Arial Bold" font-size="12.00">IEC 62443 Zones</text>
</g>
<!-- opt4 -->
<g id="node1" class="node">
<title>opt4</title>
<path fill="white" stroke="black" d="M80.38,-60C80.38,-60 27.62,-60 27.62,-60 21.63,-60 15.62,-54 15.62,-48 15.62,-48 15.62,-28 15.62,-28 15.62,-22 21.62,-16 27.62,-16 27.62,-16 80.38,-16 80.38,-16 86.38,-16 92.38,-22 92.38,-28 92.38,-28 92.38,-48 92.38,-48 92.38,-54 86.38,-60 80.38,-60"/>
<text text-anchor="middle" x="54" y="-46.5" font-family="Arial" font-size="10.00">opt4</text>
<text text-anchor="middle" x="54" y="-34.5" font-family="Arial" font-size="10.00">10.200.1.1/24</text>
<text text-anchor="middle" x="54" y="-22.5" font-family="Arial" font-size="10.00">Risk: Medium</text>
</g>
<!-- wan -->
<g id="node2" class="node">
<title>wan</title>
<path fill="white" stroke="black" d="M175.38,-60C175.38,-60 122.62,-60 122.62,-60 116.62,-60 110.62,-54 110.62,-48 110.62,-48 110.62,-28 110.62,-28 110.62,-22 116.62,-16 122.62,-16 122.62,-16 175.38,-16 175.38,-16 181.38,-16 187.38,-22 187.38,-28 187.38,-28 187.38,-48 187.38,-48 187.38,-54 181.38,-60 175.38,-60"/>
<text text-anchor="middle" x="149" y="-46.5" font-family="Arial" font-size="10.00">wan</text>
<text text-anchor="middle" x="149" y="-22.5" font-family="Arial" font-size="10.00">Risk: Medium</text>
</g>
<!-- opt5 -->
<g id="node3" class="node">
<title>opt5</title>
<path fill="white" stroke="black" d="M269,-60C269,-60 223,-60 223,-60 217,-60 211,-54 211,-48 211,-48 211,-28 211,-28 211,-22 217,-16 223,-16 223,-16 269,-16 269,-16 275,-16 281,-22 281,-28 281,-28 281,-48 281,-48 281,-54 275,-60 269,-60"/>
<text text-anchor="middle" x="246" y="-46.5" font-family="Arial" font-size="10.00">opt5</text>
<text text-anchor="middle" x="246" y="-34.5" font-family="Arial" font-size="10.00">10.50.1.1/24</text>
<text text-anchor="middle" x="246" y="-22.5" font-family="Arial" font-size="10.00">Risk: High</text>
</g>
<!-- lan -->
<g id="node4" class="node">
<title>lan</title>
<path fill="white" stroke="black" d="M372.88,-60C372.88,-60 311.12,-60 311.12,-60 305.12,-60 299.12,-54 299.12,-48 299.12,-48 299.12,-28 299.12,-28 299.12,-22 305.12,-16 311.12,-16 311.12,-16 372.88,-16 372.88,-16 378.88,-16 384.88,-22 384.88,-28 384.88,-28 384.88,-48 384.88,-48 384.88,-54 378.88,-60 372.88,-60"/>
<text text-anchor="middle" x="342" y="-46.5" font-family="Arial" font-size="10.00">lan</text>
<text text-anchor="middle" x="342" y="-34.5" font-family="Arial" font-size="10.00">192.168.10.1/24</text>
<text text-anchor="middle" x="342" y="-22.5" font-family="Arial" font-size="10.00">Risk: High</text>
</g>
<!-- opt1 -->
<g id="node5" class="node">
<title>opt1</title>
<path fill="white" stroke="black" d="M466.62,-60C466.62,-60 415.38,-60 415.38,-60 409.38,-60 403.38,-54 403.38,-48 403.38,-48 403.38,-28 403.38,-28 403.38,-22 409.38,-16 415.38,-16 415.38,-16 466.62,-16 466.62,-16 472.62,-16 478.62,-22 478.62,-28 478.62,-28 478.62,-48 478.62,-48 478.62,-54 472.62,-60 466.62,-60"/>
<text text-anchor="middle" x="441" y="-46.5" font-family="Arial" font-size="10.00">opt1</text>
<text text-anchor="middle" x="441" y="-34.5" font-family="Arial" font-size="10.00">10.100.1.1/24</text>
<text text-anchor="middle" x="441" y="-22.5" font-family="Arial" font-size="10.00">Risk: High</text>
</g>
<!-- opt2 -->
<g id="node6" class="node">
<title>opt2</title>
<path fill="white" stroke="black" d="M559.62,-60C559.62,-60 508.38,-60 508.38,-60 502.38,-60 496.38,-54 496.38,-48 496.38,-48 496.38,-28 496.38,-28 496.38,-22 502.38,-16 508.38,-16 508.38,-16 559.62,-16 559.62,-16 565.62,-16 571.62,-22 571.62,-28 571.62,-28 571.62,-48 571.62,-48 571.62,-54 565.62,-60 559.62,-60"/>
<text text-anchor="middle" x="534" y="-46.5" font-family="Arial" font-size="10.00">opt2</text>
<text text-anchor="middle" x="534" y="-34.5" font-family="Arial" font-size="10.00">10.100.2.1/24</text>
<text text-anchor="middle" x="534" y="-22.5" font-family="Arial" font-size="10.00">Risk: High</text>
</g>
<!-- opt3 -->
<g id="node7" class="node">
<title>opt3</title>
<path fill="white" stroke="black" d="M652.62,-60C652.62,-60 601.38,-60 601.38,-60 595.38,-60 589.38,-54 589.38,-48 589.38,-48 589.38,-28 589.38,-28 589.38,-22 595.38,-16 601.38,-16 601.38,-16 652.62,-16 652.62,-16 658.62,-16 664.62,-22 664.62,-28 664.62,-28 664.62,-48 664.62,-48 664.62,-54 658.62,-60 652.62,-60"/>
<text text-anchor="middle" x="627" y="-46.5" font-family="Arial" font-size="10.00">opt3</text>
<text text-anchor="middle" x="627" y="-34.5" font-family="Arial" font-size="10.00">10.100.3.1/24</text>
<text text-anchor="middle" x="627" y="-22.5" font-family="Arial" font-size="10.00">Risk: High</text>
</g>
<!-- industrial_zone -->
<g id="node8" class="node">
<title>industrial_zone</title>
<path fill="#c8e6c9" stroke="black" d="M757.25,-56C757.25,-56 700.75,-56 700.75,-56 694.75,-56 688.75,-50 688.75,-44 688.75,-44 688.75,-32 688.75,-32 688.75,-26 694.75,-20 700.75,-20 700.75,-20 757.25,-20 757.25,-20 763.25,-20 769.25,-26 769.25,-32 769.25,-32 769.25,-44 769.25,-44 769.25,-50 763.25,-56 757.25,-56"/>
<text text-anchor="middle" x="729" y="-40.5" font-family="Arial" font-size="10.00">Industrial Zone</text>
<text text-anchor="middle" x="729" y="-28.5" font-family="Arial" font-size="10.00">(Level 0&#45;2)</text>
</g>
<!-- dmz_zone -->
<g id="node9" class="node">
<title>dmz_zone</title>
<path fill="#ffe0b2" stroke="black" d="M878.88,-56C878.88,-56 799.12,-56 799.12,-56 793.12,-56 787.12,-50 787.12,-44 787.12,-44 787.12,-32 787.12,-32 787.12,-26 793.12,-20 799.12,-20 799.12,-20 878.88,-20 878.88,-20 884.88,-20 890.88,-26 890.88,-32 890.88,-32 890.88,-44 890.88,-44 890.88,-50 884.88,-56 878.88,-56"/>
<text text-anchor="middle" x="839" y="-40.5" font-family="Arial" font-size="10.00">DMZ Zone</text>
<text text-anchor="middle" x="839" y="-28.5" font-family="Arial" font-size="10.00">(Network Perimeter)</text>
</g>
<!-- ent_zone -->
<g id="node10" class="node">
<title>ent_zone</title>
<path fill="#e1bee7" stroke="black" d="M981.5,-56C981.5,-56 920.5,-56 920.5,-56 914.5,-56 908.5,-50 908.5,-44 908.5,-44 908.5,-32 908.5,-32 908.5,-26 914.5,-20 920.5,-20 920.5,-20 981.5,-20 981.5,-20 987.5,-20 993.5,-26 993.5,-32 993.5,-32 993.5,-44 993.5,-44 993.5,-50 987.5,-56 981.5,-56"/>
<text text-anchor="middle" x="951" y="-40.5" font-family="Arial" font-size="10.00">Enterprise Zone</text>
<text text-anchor="middle" x="951" y="-28.5" font-family="Arial" font-size="10.00">(Level 3&#45;5)</text>
</g>
<!-- remote_zone -->
<g id="node11" class="node">
<title>remote_zone</title>
<path fill="#b3e5fc" stroke="black" d="M1110.25,-56C1110.25,-56 1023.75,-56 1023.75,-56 1017.75,-56 1011.75,-50 1011.75,-44 1011.75,-44 1011.75,-32 1011.75,-32 1011.75,-26 1017.75,-20 1023.75,-20 1023.75,-20 1110.25,-20 1110.25,-20 1116.25,-20 1122.25,-26 1122.25,-32 1122.25,-32 1122.25,-44 1122.25,-44 1122.25,-50 1116.25,-56 1110.25,-56"/>
<text text-anchor="middle" x="1067" y="-40.5" font-family="Arial" font-size="10.00">Remote Access Zone</text>
<text text-anchor="middle" x="1067" y="-28.5" font-family="Arial" font-size="10.00">(VPN/Remote)</text>
</g>
</g>
</svg>
