<?xml version="1.0" encoding="UTF-8" standalone="no"?>
<!DOCTYPE svg PUBLIC "-//W3C//DTD SVG 1.1//EN"
 "http://www.w3.org/Graphics/SVG/1.1/DTD/svg11.dtd">
<!-- Generated by graphviz version 12.2.1 (20241206.2353)
 -->
<!-- Title: FirewallTopology Pages: 1 -->
<svg width="500pt" height="814pt"
 viewBox="0.00 0.00 499.75 813.50" xmlns="http://www.w3.org/2000/svg" xmlns:xlink="http://www.w3.org/1999/xlink">
<g id="graph0" class="graph" transform="scale(1 1) rotate(0) translate(4 809.5)">
<title>FirewallTopology</title>
<polygon fill="white" stroke="none" points="-4,4 -4,-809.5 495.75,-809.5 495.75,4 -4,4"/>
<text text-anchor="middle" x="245.88" y="-788.2" font-family="Times,serif" font-size="14.00">Firewall Network Topology</text>
<text text-anchor="middle" x="245.88" y="-771.7" font-family="Times,serif" font-size="14.00">/Users/tturner/Documents/opnsense_paintshop_sample.xml</text>
<text text-anchor="middle" x="245.88" y="-755.2" font-family="Times,serif" font-size="14.00">Generated: 2025&#45;10&#45;11 21:19:09</text>
<!-- firewall -->
<g id="node1" class="node">
<title>firewall</title>
<path fill="#e3f2fd" stroke="#1976d2" stroke-width="3" d="M94,-407.12C94,-407.12 33.75,-407.12 33.75,-407.12 27.75,-407.12 21.75,-401.12 21.75,-395.12 21.75,-395.12 21.75,-352.88 21.75,-352.88 21.75,-346.88 27.75,-340.88 33.75,-340.88 33.75,-340.88 94,-340.88 94,-340.88 100,-340.88 106,-346.88 106,-352.88 106,-352.88 106,-395.12 106,-395.12 106,-401.12 100,-407.12 94,-407.12"/>
<text text-anchor="middle" x="63.88" y="-391.73" font-family="Arial Bold" font-size="12.00">🔥 Firewall</text>
<text text-anchor="middle" x="63.88" y="-375.98" font-family="Arial Bold" font-size="12.00">(OPNsense)</text>
<text text-anchor="middle" x="63.88" y="-347.73" font-family="Arial Bold" font-size="12.00">Interfaces:</text>
</g>
<!-- net_opt4 -->
<g id="node2" class="node">
<title>net_opt4</title>
<path fill="#e1bee7" stroke="#7b1fa2" stroke-width="2" d="M451.62,-748C451.62,-748 362.88,-748 362.88,-748 356.88,-748 350.88,-742 350.88,-736 350.88,-736 350.88,-668 350.88,-668 350.88,-662 356.88,-656 362.88,-656 362.88,-656 451.62,-656 451.62,-656 457.62,-656 463.62,-662 463.62,-668 463.62,-668 463.62,-736 463.62,-736 463.62,-742 457.62,-748 451.62,-748"/>
<text text-anchor="middle" x="407.25" y="-734.5" font-family="Arial" font-size="10.00">opt4</text>
<text text-anchor="middle" x="407.25" y="-722.5" font-family="Arial" font-size="10.00">10.50.0.1/24</text>
<text text-anchor="middle" x="407.25" y="-710.5" font-family="Arial" font-size="10.00">(MAINTENANCE)</text>
<text text-anchor="middle" x="407.25" y="-686.5" font-family="Arial" font-size="10.00">Zone: Enterprise Zone</text>
<text text-anchor="middle" x="407.25" y="-674.5" font-family="Arial" font-size="10.00">Risk: Low</text>
<text text-anchor="middle" x="407.25" y="-662.5" font-family="Arial" font-size="10.00">Type: General</text>
</g>
<!-- firewall&#45;&gt;net_opt4 -->
<g id="edge4" class="edge">
<title>firewall&#45;&gt;net_opt4</title>
<path fill="none" stroke="#666666" stroke-width="2" d="M107.15,-393.88C144.59,-393.88 192.75,-393.88 192.75,-393.88 192.75,-393.88 192.75,-702 192.75,-702 192.75,-702 337.02,-702 337.02,-702"/>
<polygon fill="#666666" stroke="#666666" stroke-width="2" points="337.02,-705.5 347.02,-702 337.02,-698.5 337.02,-705.5"/>
<text text-anchor="middle" x="225.25" y="-714.45" font-family="Arial" font-size="9.00">opt4</text>
<text text-anchor="middle" x="225.25" y="-703.95" font-family="Arial" font-size="9.00">10.50.0.1/24</text>
</g>
<!-- net_opt5 -->
<g id="node3" class="node">
<title>net_opt5</title>
<path fill="#c8e6c9" stroke="#2e7d32" stroke-width="2" d="M460.25,-584C460.25,-584 354.25,-584 354.25,-584 348.25,-584 342.25,-578 342.25,-572 342.25,-572 342.25,-504 342.25,-504 342.25,-498 348.25,-492 354.25,-492 354.25,-492 460.25,-492 460.25,-492 466.25,-492 472.25,-498 472.25,-504 472.25,-504 472.25,-572 472.25,-572 472.25,-578 466.25,-584 460.25,-584"/>
<text text-anchor="middle" x="407.25" y="-570.5" font-family="Arial" font-size="10.00">opt5</text>
<text text-anchor="middle" x="407.25" y="-558.5" font-family="Arial" font-size="10.00">10.60.0.1/24</text>
<text text-anchor="middle" x="407.25" y="-546.5" font-family="Arial" font-size="10.00">(DMZ_ZZBOTZ)</text>
<text text-anchor="middle" x="407.25" y="-522.5" font-family="Arial" font-size="10.00">Zone: Manufacturing Zone</text>
<text text-anchor="middle" x="407.25" y="-510.5" font-family="Arial" font-size="10.00">Risk: High</text>
<text text-anchor="middle" x="407.25" y="-498.5" font-family="Arial" font-size="10.00">Type: Production OT</text>
</g>
<!-- firewall&#45;&gt;net_opt5 -->
<g id="edge5" class="edge">
<title>firewall&#45;&gt;net_opt5</title>
<path fill="none" stroke="#666666" stroke-width="2" d="M107.38,-380.62C164.55,-380.62 257.75,-380.62 257.75,-380.62 257.75,-380.62 257.75,-537.25 257.75,-537.25 257.75,-537.25 328.65,-537.25 328.65,-537.25"/>
<polygon fill="#666666" stroke="#666666" stroke-width="2" points="328.65,-540.75 338.65,-537.25 328.65,-533.75 328.65,-540.75"/>
<text text-anchor="middle" x="225.25" y="-550.45" font-family="Arial" font-size="9.00">opt5</text>
<text text-anchor="middle" x="225.25" y="-539.95" font-family="Arial" font-size="9.00">10.60.0.1/24</text>
</g>
<!-- net_opt1 -->
<g id="node4" class="node">
<title>net_opt1</title>
<path fill="#c8e6c9" stroke="#2e7d32" stroke-width="2" d="M460.25,-420C460.25,-420 354.25,-420 354.25,-420 348.25,-420 342.25,-414 342.25,-408 342.25,-408 342.25,-340 342.25,-340 342.25,-334 348.25,-328 354.25,-328 354.25,-328 460.25,-328 460.25,-328 466.25,-328 472.25,-334 472.25,-340 472.25,-340 472.25,-408 472.25,-408 472.25,-414 466.25,-420 460.25,-420"/>
<text text-anchor="middle" x="407.25" y="-406.5" font-family="Arial" font-size="10.00">opt1</text>
<text text-anchor="middle" x="407.25" y="-394.5" font-family="Arial" font-size="10.00">10.20.0.1/24</text>
<text text-anchor="middle" x="407.25" y="-382.5" font-family="Arial" font-size="10.00">(OT_SMZ)</text>
<text text-anchor="middle" x="407.25" y="-358.5" font-family="Arial" font-size="10.00">Zone: Manufacturing Zone</text>
<text text-anchor="middle" x="407.25" y="-346.5" font-family="Arial" font-size="10.00">Risk: High</text>
<text text-anchor="middle" x="407.25" y="-334.5" font-family="Arial" font-size="10.00">Type: Production OT</text>
</g>
<!-- firewall&#45;&gt;net_opt1 -->
<g id="edge1" class="edge">
<title>firewall&#45;&gt;net_opt1</title>
<path fill="none" stroke="#666666" stroke-width="2" d="M107.36,-367.38C107.36,-367.38 328.49,-367.38 328.49,-367.38"/>
<polygon fill="#666666" stroke="#666666" stroke-width="2" points="328.49,-370.88 338.49,-367.38 328.49,-363.88 328.49,-370.88"/>
<text text-anchor="middle" x="225.25" y="-386.45" font-family="Arial" font-size="9.00">opt1</text>
<text text-anchor="middle" x="225.25" y="-375.95" font-family="Arial" font-size="9.00">10.20.0.1/24</text>
</g>
<!-- net_opt2 -->
<g id="node5" class="node">
<title>net_opt2</title>
<path fill="#c8e6c9" stroke="#2e7d32" stroke-width="2" d="M479.75,-256C479.75,-256 334.75,-256 334.75,-256 328.75,-256 322.75,-250 322.75,-244 322.75,-244 322.75,-176 322.75,-176 322.75,-170 328.75,-164 334.75,-164 334.75,-164 479.75,-164 479.75,-164 485.75,-164 491.75,-170 491.75,-176 491.75,-176 491.75,-244 491.75,-244 491.75,-250 485.75,-256 479.75,-256"/>
<text text-anchor="middle" x="407.25" y="-242.5" font-family="Arial" font-size="10.00">opt2</text>
<text text-anchor="middle" x="407.25" y="-230.5" font-family="Arial" font-size="10.00">10.30.0.1/24</text>
<text text-anchor="middle" x="407.25" y="-218.5" font-family="Arial" font-size="10.00">(MANUFACTURING_ASSEMBLY)</text>
<text text-anchor="middle" x="407.25" y="-194.5" font-family="Arial" font-size="10.00">Zone: Manufacturing Zone</text>
<text text-anchor="middle" x="407.25" y="-182.5" font-family="Arial" font-size="10.00">Risk: High</text>
<text text-anchor="middle" x="407.25" y="-170.5" font-family="Arial" font-size="10.00">Type: Production OT</text>
</g>
<!-- firewall&#45;&gt;net_opt2 -->
<g id="edge2" class="edge">
<title>firewall&#45;&gt;net_opt2</title>
<path fill="none" stroke="#666666" stroke-width="2" d="M107.37,-354.12C183.47,-354.12 332.75,-354.12 332.75,-354.12 332.75,-354.12 332.75,-269.82 332.75,-269.82"/>
<polygon fill="#666666" stroke="#666666" stroke-width="2" points="336.25,-269.82 332.75,-259.82 329.25,-269.82 336.25,-269.82"/>
<text text-anchor="middle" x="225.25" y="-222.45" font-family="Arial" font-size="9.00">opt2</text>
<text text-anchor="middle" x="225.25" y="-211.95" font-family="Arial" font-size="9.00">10.30.0.1/24</text>
</g>
<!-- net_opt3 -->
<g id="node6" class="node">
<title>net_opt3</title>
<path fill="#c8e6c9" stroke="#2e7d32" stroke-width="2" d="M460.25,-92C460.25,-92 354.25,-92 354.25,-92 348.25,-92 342.25,-86 342.25,-80 342.25,-80 342.25,-12 342.25,-12 342.25,-6 348.25,0 354.25,0 354.25,0 460.25,0 460.25,0 466.25,0 472.25,-6 472.25,-12 472.25,-12 472.25,-80 472.25,-80 472.25,-86 466.25,-92 460.25,-92"/>
<text text-anchor="middle" x="407.25" y="-78.5" font-family="Arial" font-size="10.00">opt3</text>
<text text-anchor="middle" x="407.25" y="-66.5" font-family="Arial" font-size="10.00">10.40.0.1/24</text>
<text text-anchor="middle" x="407.25" y="-54.5" font-family="Arial" font-size="10.00">(PAINT_SHOP)</text>
<text text-anchor="middle" x="407.25" y="-30.5" font-family="Arial" font-size="10.00">Zone: Manufacturing Zone</text>
<text text-anchor="middle" x="407.25" y="-18.5" font-family="Arial" font-size="10.00">Risk: High</text>
<text text-anchor="middle" x="407.25" y="-6.5" font-family="Arial" font-size="10.00">Type: Production OT</text>
</g>
<!-- firewall&#45;&gt;net_opt3 -->
<g id="edge3" class="edge">
<title>firewall&#45;&gt;net_opt3</title>
<path fill="none" stroke="#666666" stroke-width="2" d="M63.75,-339.52C63.75,-255.31 63.75,-46 63.75,-46 63.75,-46 328.4,-46 328.4,-46"/>
<polygon fill="#666666" stroke="#666666" stroke-width="2" points="328.4,-49.5 338.4,-46 328.4,-42.5 328.4,-49.5"/>
<text text-anchor="middle" x="225.25" y="-58.45" font-family="Arial" font-size="9.00">opt3</text>
<text text-anchor="middle" x="225.25" y="-47.95" font-family="Arial" font-size="9.00">10.40.0.1/24</text>
</g>
<!-- rules_summary -->
<g id="node7" class="node">
<title>rules_summary</title>
<polygon fill="#fff9c4" stroke="#f57f17" points="121.75,-582.5 0,-582.5 0,-479.5 127.75,-479.5 127.75,-576.5 121.75,-582.5"/>
<polyline fill="none" stroke="#f57f17" points="121.75,-582.5 121.75,-576.5"/>
<polyline fill="none" stroke="#f57f17" points="127.75,-576.5 121.75,-576.5"/>
<text text-anchor="middle" x="63.88" y="-569.95" font-family="Arial" font-size="9.00">🔒 Security Rules Summary</text>
<text text-anchor="middle" x="63.88" y="-537.95" font-family="Arial" font-size="9.00"> &#160;&#160;&#160;ALLOW: lan → any</text>
<text text-anchor="middle" x="63.88" y="-527.45" font-family="Arial" font-size="9.00"> &#160;&#160;&#160;ALLOW: opt1 → any</text>
<text text-anchor="middle" x="63.88" y="-516.95" font-family="Arial" font-size="9.00"> &#160;&#160;&#160;ALLOW: opt1 → any</text>
<text text-anchor="middle" x="63.88" y="-506.45" font-family="Arial" font-size="9.00"> &#160;&#160;&#160;ALLOW: opt2 → any</text>
<text text-anchor="middle" x="63.88" y="-495.95" font-family="Arial" font-size="9.00"> &#160;&#160;&#160;ALLOW: opt2 → any</text>
<text text-anchor="middle" x="63.88" y="-485.45" font-family="Arial" font-size="9.00"> &#160;&#160;&#160;... and 16 more rules</text>
</g>
</g>
</svg>
