<?xml version="1.0" encoding="UTF-8" standalone="no"?>
<!DOCTYPE svg PUBLIC "-//W3C//DTD SVG 1.1//EN"
 "http://www.w3.org/Graphics/SVG/1.1/DTD/svg11.dtd">
<!-- Generated by graphviz version 12.2.1 (20241206.2353)
 -->
<!-- Title: HierarchicalNetwork Pages: 1 -->
<svg width="3495pt" height="717pt"
 viewBox="0.00 0.00 3495.00 717.42" xmlns="http://www.w3.org/2000/svg" xmlns:xlink="http://www.w3.org/1999/xlink">
<g id="graph0" class="graph" transform="scale(1 1) rotate(0) translate(4 713.42)">
<title>HierarchicalNetwork</title>
<polygon fill="white" stroke="none" points="-4,4 -4,-713.42 3491,-713.42 3491,4 -4,4"/>
<g id="clust1" class="cluster">
<title>cluster_internet</title>
<polygon fill="#e6f3ff" stroke="black" points="2203,-590.45 2203,-666.95 2273,-666.95 2273,-590.45 2203,-590.45"/>
<text text-anchor="middle" x="2238" y="-649.65" font-family="Times,serif" font-size="14.00">Internet</text>
</g>
<g id="clust2" class="cluster">
<title>cluster_gateway</title>
<polygon fill="#fff2e6" stroke="black" points="2143,-371.23 2143,-475.73 2333,-475.73 2333,-371.23 2143,-371.23"/>
<text text-anchor="middle" x="2238" y="-458.43" font-family="Times,serif" font-size="14.00">Gateway Router</text>
</g>
<g id="clust3" class="cluster">
<title>cluster_core</title>
<polygon fill="#e6ffe6" stroke="black" points="477,-190.5 477,-293.23 615,-293.23 615,-190.5 477,-190.5"/>
<text text-anchor="middle" x="546" y="-275.93" font-family="Times,serif" font-size="14.00">Core Networks</text>
</g>
<g id="clust4" class="cluster">
<title>cluster_aggregation</title>
<polygon fill="#ffe6e6" stroke="black" points="1987,-190.5 1987,-293.23 2675,-293.23 2675,-190.5 1987,-190.5"/>
<text text-anchor="middle" x="2331" y="-275.93" font-family="Times,serif" font-size="14.00">Aggregation Networks</text>
</g>
<g id="clust5" class="cluster">
<title>cluster_devices</title>
<polygon fill="#f5f5f5" stroke="black" points="8,-8 8,-112.5 3479,-112.5 3479,-8 8,-8"/>
<text text-anchor="middle" x="1743.5" y="-95.2" font-family="Times,serif" font-size="14.00">Computing Servers</text>
</g>
<g id="clust6" class="cluster">
<title>cluster_legend</title>
<polygon fill="#f9f9f9" stroke="black" points="2513,-553.73 2513,-701.42 3295,-701.42 3295,-553.73 2513,-553.73"/>
<text text-anchor="middle" x="2904" y="-686.02" font-family="Times,serif" font-size="12.00">Device Legend</text>
</g>
<!-- internet -->
<g id="node1" class="node">
<title>internet</title>
<polygon fill="white" stroke="black" points="2265,-634.45 2211,-634.45 2211,-598.45 2265,-598.45 2265,-634.45"/>
<text text-anchor="middle" x="2238" y="-612.95" font-family="Arial" font-size="10.00">Internet</text>
</g>
<!-- gateway_router -->
<g id="node2" class="node">
<title>gateway_router</title>
<polygon fill="#ffcc99" stroke="black" points="2238,-443.23 2150.75,-411.23 2238,-379.23 2325.25,-411.23 2238,-443.23"/>
<text text-anchor="middle" x="2238" y="-413.73" font-family="Arial" font-size="10.00">Gateway Router</text>
<text text-anchor="middle" x="2238" y="-401.73" font-family="Arial" font-size="10.00">(Layer 3)</text>
</g>
<!-- internet&#45;&gt;gateway_router -->
<g id="edge1" class="edge">
<title>internet&#45;&gt;gateway_router</title>
<path fill="none" stroke="black" d="M2238,-598.24C2238,-598.24 2238,-455.25 2238,-455.25"/>
<polygon fill="black" stroke="black" points="2241.5,-455.25 2238,-445.25 2234.5,-455.25 2241.5,-455.25"/>
<text text-anchor="middle" x="2248.5" y="-499.18" font-family="Arial" font-size="9.00">WAN</text>
</g>
<!-- core_net0 -->
<g id="node3" class="node">
<title>core_net0</title>
<ellipse fill="#99ff99" stroke="black" cx="546" cy="-229.61" rx="60.63" ry="31.11"/>
<text text-anchor="middle" x="546" y="-238.11" font-family="Arial" font-size="10.00">IT&#45;OT Network</text>
<text text-anchor="middle" x="546" y="-226.11" font-family="Arial" font-size="10.00">192.168.10.0/24</text>
<text text-anchor="middle" x="546" y="-214.11" font-family="Arial" font-size="10.00">EtherNet/IP</text>
</g>
<!-- gateway_router&#45;&gt;core_net0 -->
<g id="edge2" class="edge">
<title>gateway_router&#45;&gt;core_net0</title>
<path fill="none" stroke="black" d="M2150,-411C1802.69,-411 546,-411 546,-411 546,-411 546,-272.72 546,-272.72"/>
<polygon fill="black" stroke="black" points="549.5,-272.72 546,-262.72 542.5,-272.72 549.5,-272.72"/>
<text text-anchor="middle" x="1302.38" y="-316.68" font-family="Arial" font-size="9.00">Route</text>
</g>
<!-- agg_net0 -->
<g id="node4" class="node">
<title>agg_net0</title>
<ellipse fill="#ff9999" stroke="black" cx="2052" cy="-229.61" rx="56.92" ry="31.11"/>
<text text-anchor="middle" x="2052" y="-238.11" font-family="Arial" font-size="10.00">OT Network</text>
<text text-anchor="middle" x="2052" y="-226.11" font-family="Arial" font-size="10.00">192.168.0.0/24</text>
<text text-anchor="middle" x="2052" y="-214.11" font-family="Arial" font-size="10.00">EtherNet/IP</text>
</g>
<!-- gateway_router&#45;&gt;agg_net0 -->
<g id="edge3" class="edge">
<title>gateway_router&#45;&gt;agg_net0</title>
<path fill="none" stroke="black" d="M2160.86,-406.99C2160.86,-380.63 2160.86,-240 2160.86,-240 2160.86,-240 2117.62,-240 2117.62,-240"/>
<polygon fill="black" stroke="black" points="2117.62,-236.5 2107.62,-240 2117.62,-243.5 2117.62,-236.5"/>
<text text-anchor="middle" x="2106.38" y="-316.68" font-family="Arial" font-size="9.00">Route</text>
</g>
<!-- agg_net1 -->
<g id="node5" class="node">
<title>agg_net1</title>
<ellipse fill="#ff9999" stroke="black" cx="2238" cy="-229.61" rx="56.92" ry="31.11"/>
<text text-anchor="middle" x="2238" y="-238.11" font-family="Arial" font-size="10.00">IT&#45;OT Network</text>
<text text-anchor="middle" x="2238" y="-226.11" font-family="Arial" font-size="10.00">141.81.0.0/24</text>
<text text-anchor="middle" x="2238" y="-214.11" font-family="Arial" font-size="10.00">EtherNet/IP</text>
</g>
<!-- gateway_router&#45;&gt;agg_net1 -->
<g id="edge4" class="edge">
<title>gateway_router&#45;&gt;agg_net1</title>
<path fill="none" stroke="black" d="M2238,-378.76C2238,-378.76 2238,-272.71 2238,-272.71"/>
<polygon fill="black" stroke="black" points="2241.5,-272.71 2238,-262.71 2234.5,-272.71 2241.5,-272.71"/>
<text text-anchor="middle" x="2250.38" y="-316.68" font-family="Arial" font-size="9.00">Route</text>
</g>
<!-- agg_net2 -->
<g id="node6" class="node">
<title>agg_net2</title>
<ellipse fill="#ff9999" stroke="black" cx="2424" cy="-229.61" rx="56.92" ry="31.11"/>
<text text-anchor="middle" x="2424" y="-238.11" font-family="Arial" font-size="10.00">IT&#45;OT Network</text>
<text text-anchor="middle" x="2424" y="-226.11" font-family="Arial" font-size="10.00">10.1.1.0/24</text>
<text text-anchor="middle" x="2424" y="-214.11" font-family="Arial" font-size="10.00">EtherNet/IP</text>
</g>
<!-- gateway_router&#45;&gt;agg_net2 -->
<g id="edge5" class="edge">
<title>gateway_router&#45;&gt;agg_net2</title>
<path fill="none" stroke="black" d="M2310.09,-405.2C2310.09,-373.75 2310.09,-230 2310.09,-230 2310.09,-230 2355.2,-230 2355.2,-230"/>
<polygon fill="black" stroke="black" points="2355.2,-233.5 2365.2,-230 2355.2,-226.5 2355.2,-233.5"/>
<text text-anchor="middle" x="2394.38" y="-316.68" font-family="Arial" font-size="9.00">Route</text>
</g>
<!-- agg_net3 -->
<g id="node7" class="node">
<title>agg_net3</title>
<ellipse fill="#ff9999" stroke="black" cx="2610" cy="-229.61" rx="56.92" ry="31.11"/>
<text text-anchor="middle" x="2610" y="-238.11" font-family="Arial" font-size="10.00">IT&#45;OT Network</text>
<text text-anchor="middle" x="2610" y="-226.11" font-family="Arial" font-size="10.00">192.168.1.0/24</text>
<text text-anchor="middle" x="2610" y="-214.11" font-family="Arial" font-size="10.00">EtherNet/IP</text>
</g>
<!-- gateway_router&#45;&gt;agg_net3 -->
<g id="edge6" class="edge">
<title>gateway_router&#45;&gt;agg_net3</title>
<path fill="none" stroke="black" d="M2325.8,-411C2422.37,-411 2564.04,-411 2564.04,-411 2564.04,-411 2564.04,-259.85 2564.04,-259.85"/>
<polygon fill="black" stroke="black" points="2567.54,-259.85 2564.04,-249.85 2560.54,-259.85 2567.54,-259.85"/>
<text text-anchor="middle" x="2559.38" y="-316.68" font-family="Arial" font-size="9.00">Route</text>
</g>
<!-- device_0 -->
<g id="node8" class="node">
<title>device_0</title>
<polygon fill="#ccffcc" stroke="black" points="88.12,-66 15.88,-66 15.88,-30 88.12,-30 88.12,-66"/>
<text text-anchor="middle" x="52" y="-50.5" font-family="Arial" font-size="10.00">192.168.0.47</text>
<text text-anchor="middle" x="52" y="-38.5" font-family="Arial" font-size="10.00">Field Device</text>
</g>
<!-- core_net0&#45;&gt;device_0 -->
<g id="edge7" class="edge">
<title>core_net0&#45;&gt;device_0</title>
<path fill="none" stroke="black" d="M488.37,-240C358.05,-240 52,-240 52,-240 52,-240 52,-77.92 52,-77.92"/>
<polygon fill="black" stroke="black" points="55.5,-77.92 52,-67.92 48.5,-77.92 55.5,-77.92"/>
<text text-anchor="middle" x="130.25" y="-135.95" font-family="Arial" font-size="9.00">L2</text>
</g>
<!-- device_1 -->
<g id="node9" class="node">
<title>device_1</title>
<polygon fill="#ccffcc" stroke="black" points="243.38,-66 160.62,-66 160.62,-30 243.38,-30 243.38,-66"/>
<text text-anchor="middle" x="202" y="-50.5" font-family="Arial" font-size="10.00">192.168.10.121</text>
<text text-anchor="middle" x="202" y="-38.5" font-family="Arial" font-size="10.00">Field Device</text>
</g>
<!-- core_net0&#45;&gt;device_1 -->
<g id="edge8" class="edge">
<title>core_net0&#45;&gt;device_1</title>
<path fill="none" stroke="black" d="M488.42,-219C390.49,-219 202,-219 202,-219 202,-219 202,-77.81 202,-77.81"/>
<polygon fill="black" stroke="black" points="205.5,-77.81 202,-67.81 198.5,-77.81 205.5,-77.81"/>
<text text-anchor="middle" x="249.25" y="-135.95" font-family="Arial" font-size="9.00">L2</text>
</g>
<!-- device_2 -->
<g id="node10" class="node">
<title>device_2</title>
<ellipse fill="#ffcccc" stroke="black" cx="374" cy="-48" rx="58.51" ry="22.63"/>
<text text-anchor="middle" x="374" y="-50.5" font-family="Arial" font-size="10.00">192.168.10.120</text>
<text text-anchor="middle" x="374" y="-38.5" font-family="Arial" font-size="10.00">Control Devi...</text>
</g>
<!-- core_net0&#45;&gt;device_2 -->
<g id="edge9" class="edge">
<title>core_net0&#45;&gt;device_2</title>
<path fill="none" stroke="black" d="M495,-212.2C495,-166.74 495,-48 495,-48 495,-48 444.24,-48 444.24,-48"/>
<polygon fill="black" stroke="black" points="444.24,-44.5 434.24,-48 444.24,-51.5 444.24,-44.5"/>
<text text-anchor="middle" x="421.25" y="-135.95" font-family="Arial" font-size="9.00">L2</text>
</g>
<!-- device_3 -->
<g id="node11" class="node">
<title>device_3</title>
<polygon fill="#ccffcc" stroke="black" points="587.38,-66 504.62,-66 504.62,-30 587.38,-30 587.38,-66"/>
<text text-anchor="middle" x="546" y="-50.5" font-family="Arial" font-size="10.00">192.168.10.140</text>
<text text-anchor="middle" x="546" y="-38.5" font-family="Arial" font-size="10.00">Field Device</text>
</g>
<!-- core_net0&#45;&gt;device_3 -->
<g id="edge10" class="edge">
<title>core_net0&#45;&gt;device_3</title>
<path fill="none" stroke="black" d="M546,-198.39C546,-198.39 546,-77.89 546,-77.89"/>
<polygon fill="black" stroke="black" points="549.5,-77.89 546,-67.89 542.5,-77.89 549.5,-77.89"/>
<text text-anchor="middle" x="551.25" y="-135.95" font-family="Arial" font-size="9.00">L2</text>
</g>
<!-- device_4 -->
<g id="node12" class="node">
<title>device_4</title>
<polygon fill="#ccccff" stroke="black" points="744,-80 659,-48 744,-16 829,-48 744,-80"/>
<text text-anchor="middle" x="744" y="-50.5" font-family="Arial" font-size="10.00">192.168.10.62</text>
<text text-anchor="middle" x="744" y="-38.5" font-family="Arial" font-size="10.00">Network Devi...</text>
</g>
<!-- core_net0&#45;&gt;device_4 -->
<g id="edge11" class="edge">
<title>core_net0&#45;&gt;device_4</title>
<path fill="none" stroke="black" d="M597,-212.48C597,-172.22 597,-75 597,-75 597,-75 717.85,-75 717.85,-75"/>
<polygon fill="black" stroke="black" points="717.85,-78.5 727.85,-75 717.85,-71.5 717.85,-78.5"/>
<text text-anchor="middle" x="694.25" y="-135.95" font-family="Arial" font-size="9.00">L2</text>
</g>
<!-- device_5 -->
<g id="node13" class="node">
<title>device_5</title>
<polygon fill="#ccccff" stroke="black" points="986,-80 901,-48 986,-16 1071,-48 986,-80"/>
<text text-anchor="middle" x="986" y="-50.5" font-family="Arial" font-size="10.00">192.168.10.23</text>
<text text-anchor="middle" x="986" y="-38.5" font-family="Arial" font-size="10.00">Network Devi...</text>
</g>
<!-- core_net0&#45;&gt;device_5 -->
<g id="edge12" class="edge">
<title>core_net0&#45;&gt;device_5</title>
<path fill="none" stroke="black" d="M603.52,-219C722.79,-219 986,-219 986,-219 986,-219 986,-91.68 986,-91.68"/>
<polygon fill="black" stroke="black" points="989.5,-91.68 986,-81.68 982.5,-91.68 989.5,-91.68"/>
<text text-anchor="middle" x="887.25" y="-135.95" font-family="Arial" font-size="9.00">L2</text>
</g>
<!-- device_6 -->
<g id="node14" class="node">
<title>device_6</title>
<polygon fill="#ccccff" stroke="black" points="1228,-80 1143,-48 1228,-16 1313,-48 1228,-80"/>
<text text-anchor="middle" x="1228" y="-50.5" font-family="Arial" font-size="10.00">192.168.10.204</text>
<text text-anchor="middle" x="1228" y="-38.5" font-family="Arial" font-size="10.00">Network Devi...</text>
</g>
<!-- agg_net0&#45;&gt;device_6 -->
<g id="edge13" class="edge">
<title>agg_net0&#45;&gt;device_6</title>
<path fill="none" stroke="black" d="M1997.94,-240C1814.62,-240 1228,-240 1228,-240 1228,-240 1228,-91.65 1228,-91.65"/>
<polygon fill="black" stroke="black" points="1231.5,-91.65 1228,-81.65 1224.5,-91.65 1231.5,-91.65"/>
<text text-anchor="middle" x="1341.25" y="-135.95" font-family="Arial" font-size="9.00">L2</text>
</g>
<!-- device_7 -->
<g id="node15" class="node">
<title>device_7</title>
<polygon fill="#ccccff" stroke="black" points="1470,-80 1385,-48 1470,-16 1555,-48 1470,-80"/>
<text text-anchor="middle" x="1470" y="-50.5" font-family="Arial" font-size="10.00">141.81.0.10</text>
<text text-anchor="middle" x="1470" y="-38.5" font-family="Arial" font-size="10.00">Network Devi...</text>
</g>
<!-- agg_net1&#45;&gt;device_7 -->
<g id="edge14" class="edge">
<title>agg_net1&#45;&gt;device_7</title>
<path fill="none" stroke="black" d="M2249.28,-198.7C2249.28,-153.58 2249.28,-75 2249.28,-75 2249.28,-75 1496.04,-75 1496.04,-75"/>
<polygon fill="black" stroke="black" points="1496.04,-71.5 1486.04,-75 1496.04,-78.5 1496.04,-71.5"/>
<text text-anchor="middle" x="1537.25" y="-135.95" font-family="Arial" font-size="9.00">L2</text>
</g>
<!-- device_8 -->
<g id="node16" class="node">
<title>device_8</title>
<ellipse fill="#ffcccc" stroke="black" cx="1683" cy="-48" rx="56.39" ry="22.63"/>
<text text-anchor="middle" x="1683" y="-50.5" font-family="Arial" font-size="10.00">141.81.0.23</text>
<text text-anchor="middle" x="1683" y="-38.5" font-family="Arial" font-size="10.00">Control Devi...</text>
</g>
<!-- agg_net1&#45;&gt;device_8 -->
<g id="edge15" class="edge">
<title>agg_net1&#45;&gt;device_8</title>
<path fill="none" stroke="black" d="M2204.16,-204.12C2204.16,-183.89 2204.16,-159 2204.16,-159 2204.16,-159 1683,-159 1683,-159 1683,-159 1683,-82.51 1683,-82.51"/>
<polygon fill="black" stroke="black" points="1686.5,-82.51 1683,-72.51 1679.5,-82.51 1686.5,-82.51"/>
<text text-anchor="middle" x="1736.25" y="-135.95" font-family="Arial" font-size="9.00">L2</text>
</g>
<!-- device_9 -->
<g id="node17" class="node">
<title>device_9</title>
<ellipse fill="#ffcccc" stroke="black" cx="1868" cy="-48" rx="56.39" ry="22.63"/>
<text text-anchor="middle" x="1868" y="-50.5" font-family="Arial" font-size="10.00">141.81.0.63</text>
<text text-anchor="middle" x="1868" y="-38.5" font-family="Arial" font-size="10.00">Control Devi...</text>
</g>
<!-- agg_net1&#45;&gt;device_9 -->
<g id="edge16" class="edge">
<title>agg_net1&#45;&gt;device_9</title>
<path fill="none" stroke="black" d="M2226.72,-198.79C2226.72,-166.37 2226.72,-120 2226.72,-120 2226.72,-120 1868,-120 1868,-120 1868,-120 1868,-82.29 1868,-82.29"/>
<polygon fill="black" stroke="black" points="1871.5,-82.29 1868,-72.29 1864.5,-82.29 1871.5,-82.29"/>
<text text-anchor="middle" x="1921.25" y="-135.95" font-family="Arial" font-size="9.00">L2</text>
</g>
<!-- device_10 -->
<g id="node18" class="node">
<title>device_10</title>
<ellipse fill="#ffcccc" stroke="black" cx="2053" cy="-48" rx="56.39" ry="22.63"/>
<text text-anchor="middle" x="2053" y="-50.5" font-family="Arial" font-size="10.00">141.81.0.43</text>
<text text-anchor="middle" x="2053" y="-38.5" font-family="Arial" font-size="10.00">Control Devi...</text>
</g>
<!-- agg_net1&#45;&gt;device_10 -->
<g id="edge17" class="edge">
<title>agg_net1&#45;&gt;device_10</title>
<path fill="none" stroke="black" d="M2184.21,-219C2176.42,-219 2170.97,-219 2170.97,-219 2170.97,-219 2170.97,-48 2170.97,-48 2170.97,-48 2121.08,-48 2121.08,-48"/>
<polygon fill="black" stroke="black" points="2121.08,-44.5 2111.08,-48 2121.08,-51.5 2121.08,-44.5"/>
<text text-anchor="middle" x="2106.25" y="-135.95" font-family="Arial" font-size="9.00">L2</text>
</g>
<!-- device_11 -->
<g id="node19" class="node">
<title>device_11</title>
<ellipse fill="#ffcccc" stroke="black" cx="2238" cy="-48" rx="56.39" ry="22.63"/>
<text text-anchor="middle" x="2238" y="-50.5" font-family="Arial" font-size="10.00">141.81.0.83</text>
<text text-anchor="middle" x="2238" y="-38.5" font-family="Arial" font-size="10.00">Control Devi...</text>
</g>
<!-- agg_net1&#45;&gt;device_11 -->
<g id="edge18" class="edge">
<title>agg_net1&#45;&gt;device_11</title>
<path fill="none" stroke="black" d="M2271.84,-204.36C2271.84,-204.36 2271.84,-77.95 2271.84,-77.95"/>
<polygon fill="black" stroke="black" points="2275.34,-77.95 2271.84,-67.95 2268.34,-77.95 2275.34,-77.95"/>
<text text-anchor="middle" x="2243.25" y="-135.95" font-family="Arial" font-size="9.00">L2</text>
</g>
<!-- device_12 -->
<g id="node20" class="node">
<title>device_12</title>
<polygon fill="#ccccff" stroke="black" points="2451,-80 2366,-48 2451,-16 2536,-48 2451,-80"/>
<text text-anchor="middle" x="2451" y="-50.5" font-family="Arial" font-size="10.00">10.1.1.167</text>
<text text-anchor="middle" x="2451" y="-38.5" font-family="Arial" font-size="10.00">Network Devi...</text>
</g>
<!-- agg_net2&#45;&gt;device_12 -->
<g id="edge19" class="edge">
<title>agg_net2&#45;&gt;device_12</title>
<path fill="none" stroke="black" d="M2424,-198.39C2424,-198.39 2424,-81.75 2424,-81.75"/>
<polygon fill="black" stroke="black" points="2427.5,-81.75 2424,-71.75 2420.5,-81.75 2427.5,-81.75"/>
<text text-anchor="middle" x="2444.25" y="-135.95" font-family="Arial" font-size="9.00">L2</text>
</g>
<!-- device_13 -->
<g id="node21" class="node">
<title>device_13</title>
<ellipse fill="#ffcccc" stroke="black" cx="2664" cy="-48" rx="56.39" ry="22.63"/>
<text text-anchor="middle" x="2664" y="-50.5" font-family="Arial" font-size="10.00">10.1.1.164</text>
<text text-anchor="middle" x="2664" y="-38.5" font-family="Arial" font-size="10.00">Control Devi...</text>
</g>
<!-- agg_net2&#45;&gt;device_13 -->
<g id="edge20" class="edge">
<title>agg_net2&#45;&gt;device_13</title>
<path fill="none" stroke="black" d="M2481.09,-230C2512.25,-230 2544.54,-230 2544.54,-230 2544.54,-230 2544.54,-48 2544.54,-48 2544.54,-48 2595.9,-48 2595.9,-48"/>
<polygon fill="black" stroke="black" points="2595.9,-51.5 2605.9,-48 2595.9,-44.5 2595.9,-51.5"/>
<text text-anchor="middle" x="2537.25" y="-135.95" font-family="Arial" font-size="9.00">L2</text>
</g>
<!-- device_14 -->
<g id="node22" class="node">
<title>device_14</title>
<polygon fill="#ffddff" stroke="black" points="2903.3,-37.86 2903.3,-58.14 2870.91,-72.49 2825.09,-72.49 2792.7,-58.14 2792.7,-37.86 2825.09,-23.51 2870.91,-23.51 2903.3,-37.86"/>
<text text-anchor="middle" x="2848" y="-50.5" font-family="Arial" font-size="10.00">192.168.1.22</text>
<text text-anchor="middle" x="2848" y="-38.5" font-family="Arial" font-size="10.00">PLC</text>
</g>
<!-- agg_net3&#45;&gt;device_14 -->
<g id="edge21" class="edge">
<title>agg_net3&#45;&gt;device_14</title>
<path fill="none" stroke="black" d="M2659.86,-214C2727.44,-214 2839.78,-214 2839.78,-214 2839.78,-214 2839.78,-84.37 2839.78,-84.37"/>
<polygon fill="black" stroke="black" points="2843.28,-84.37 2839.78,-74.37 2836.28,-84.37 2843.28,-84.37"/>
<text text-anchor="middle" x="2627.25" y="-135.95" font-family="Arial" font-size="9.00">L2</text>
</g>
<!-- device_15 -->
<g id="node23" class="node">
<title>device_15</title>
<polygon fill="#ccffcc" stroke="black" points="3047.12,-66 2974.88,-66 2974.88,-30 3047.12,-30 3047.12,-66"/>
<text text-anchor="middle" x="3011" y="-50.5" font-family="Arial" font-size="10.00">192.168.1.30</text>
<text text-anchor="middle" x="3011" y="-38.5" font-family="Arial" font-size="10.00">Field Device</text>
</g>
<!-- agg_net3&#45;&gt;device_15 -->
<g id="edge22" class="edge">
<title>agg_net3&#45;&gt;device_15</title>
<path fill="none" stroke="black" d="M2667.03,-230C2777.74,-230 3011,-230 3011,-230 3011,-230 3011,-77.97 3011,-77.97"/>
<polygon fill="black" stroke="black" points="3014.5,-77.97 3011,-67.97 3007.5,-77.97 3014.5,-77.97"/>
<text text-anchor="middle" x="2871.25" y="-135.95" font-family="Arial" font-size="9.00">L2</text>
</g>
<!-- device_16 -->
<g id="node24" class="node">
<title>device_16</title>
<polygon fill="#ffddff" stroke="black" points="3229.3,-37.86 3229.3,-58.14 3196.91,-72.49 3151.09,-72.49 3118.7,-58.14 3118.7,-37.86 3151.09,-23.51 3196.91,-23.51 3229.3,-37.86"/>
<text text-anchor="middle" x="3174" y="-50.5" font-family="Arial" font-size="10.00">192.168.1.24</text>
<text text-anchor="middle" x="3174" y="-38.5" font-family="Arial" font-size="10.00">PLC</text>
</g>
<!-- agg_net3&#45;&gt;device_16 -->
<g id="edge23" class="edge">
<title>agg_net3&#45;&gt;device_16</title>
<path fill="none" stroke="black" d="M2660.13,-245C2793.69,-245 3147.99,-245 3147.99,-245 3147.99,-245 3147.99,-82.89 3147.99,-82.89"/>
<polygon fill="black" stroke="black" points="3151.49,-82.89 3147.99,-72.89 3144.49,-82.89 3151.49,-82.89"/>
<text text-anchor="middle" x="3075.25" y="-135.95" font-family="Arial" font-size="9.00">L2</text>
</g>
<!-- device_17 -->
<g id="node25" class="node">
<title>device_17</title>
<polygon fill="#ccccff" stroke="black" points="3386,-80 3301,-48 3386,-16 3471,-48 3386,-80"/>
<text text-anchor="middle" x="3386" y="-50.5" font-family="Arial" font-size="10.00">192.168.1.69</text>
<text text-anchor="middle" x="3386" y="-38.5" font-family="Arial" font-size="10.00">Network Devi...</text>
</g>
<!-- agg_net3&#45;&gt;device_17 -->
<g id="edge24" class="edge">
<title>agg_net3&#45;&gt;device_17</title>
<path fill="none" stroke="black" d="M2637.27,-201.79C2637.27,-157.53 2637.27,-76 2637.27,-76 2637.27,-76 3362.73,-76 3362.73,-76"/>
<polygon fill="black" stroke="black" points="3362.73,-79.5 3372.73,-76 3362.73,-72.5 3362.73,-79.5"/>
<text text-anchor="middle" x="3283.25" y="-135.95" font-family="Arial" font-size="9.00">L2</text>
</g>
<!-- legend_plc -->
<g id="node26" class="node">
<title>legend_plc</title>
<polygon fill="#ffddff" stroke="black" points="2575,-608.99 2575,-623.9 2559.18,-634.45 2536.82,-634.45 2521,-623.9 2521,-608.99 2536.82,-598.45 2559.18,-598.45 2575,-608.99"/>
<text text-anchor="middle" x="2548" y="-612.95" font-family="Arial" font-size="10.00">PLC</text>
</g>
<!-- legend_field -->
<g id="node27" class="node">
<title>legend_field</title>
<polygon fill="#ccffcc" stroke="black" points="2717.38,-634.45 2646.62,-634.45 2646.62,-598.45 2717.38,-598.45 2717.38,-634.45"/>
<text text-anchor="middle" x="2682" y="-612.95" font-family="Arial" font-size="10.00">Field Device</text>
</g>
<!-- legend_control -->
<g id="node28" class="node">
<title>legend_control</title>
<ellipse fill="#ffcccc" stroke="black" cx="2838" cy="-616.45" rx="48.86" ry="18"/>
<text text-anchor="middle" x="2838" y="-612.95" font-family="Arial" font-size="10.00">Control Device</text>
</g>
<!-- legend_network -->
<g id="node29" class="node">
<title>legend_network</title>
<polygon fill="#ccccff" stroke="black" points="3032,-634.45 2958.44,-616.45 3032,-598.45 3105.56,-616.45 3032,-634.45"/>
<text text-anchor="middle" x="3032" y="-612.95" font-family="Arial" font-size="10.00">Network Device</text>
</g>
<!-- legend_unknown -->
<g id="node30" class="node">
<title>legend_unknown</title>
<ellipse fill="#f0f0f0" stroke="black" cx="3232" cy="-616.45" rx="54.72" ry="54.72"/>
<text text-anchor="middle" x="3232" y="-612.95" font-family="Arial" font-size="10.00">Unknown Device</text>
</g>
</g>
</svg>
