<?xml version="1.0" encoding="UTF-8" standalone="no"?>
<!DOCTYPE svg PUBLIC "-//W3C//DTD SVG 1.1//EN"
 "http://www.w3.org/Graphics/SVG/1.1/DTD/svg11.dtd">
<!-- Generated by graphviz version 12.2.1 (20241206.2353)
 -->
<!-- Title: FirewallTopology Pages: 1 -->
<svg width="433pt" height="802pt"
 viewBox="0.00 0.00 432.75 801.50" xmlns="http://www.w3.org/2000/svg" xmlns:xlink="http://www.w3.org/1999/xlink">
<g id="graph0" class="graph" transform="scale(1 1) rotate(0) translate(4 797.5)">
<title>FirewallTopology</title>
<polygon fill="white" stroke="none" points="-4,4 -4,-797.5 428.75,-797.5 428.75,4 -4,4"/>
<text text-anchor="middle" x="212.38" y="-776.2" font-family="Times,serif" font-size="14.00">Firewall Network Topology</text>
<text text-anchor="middle" x="212.38" y="-759.7" font-family="Times,serif" font-size="14.00">/Users/tturner/Documents/config&#45;OPNsense.internal&#45;20251012003119.xml</text>
<text text-anchor="middle" x="212.38" y="-743.2" font-family="Times,serif" font-size="14.00">Generated: 2025&#45;10&#45;11 20:32:17</text>
<!-- firewall -->
<g id="node1" class="node">
<title>firewall</title>
<path fill="#e3f2fd" stroke="#1976d2" stroke-width="3" d="M80,-407.12C80,-407.12 19.75,-407.12 19.75,-407.12 13.75,-407.12 7.75,-401.12 7.75,-395.12 7.75,-395.12 7.75,-352.88 7.75,-352.88 7.75,-346.88 13.75,-340.88 19.75,-340.88 19.75,-340.88 80,-340.88 80,-340.88 86,-340.88 92,-346.88 92,-352.88 92,-352.88 92,-395.12 92,-395.12 92,-401.12 86,-407.12 80,-407.12"/>
<text text-anchor="middle" x="49.88" y="-391.73" font-family="Arial Bold" font-size="12.00">🔥 Firewall</text>
<text text-anchor="middle" x="49.88" y="-375.98" font-family="Arial Bold" font-size="12.00">(OPNsense)</text>
<text text-anchor="middle" x="49.88" y="-347.73" font-family="Arial Bold" font-size="12.00">Interfaces:</text>
</g>
<!-- net_wan -->
<g id="node2" class="node">
<title>net_wan</title>
<path fill="#ffe0b2" stroke="#f57c00" stroke-width="2" d="M385.12,-736C385.12,-736 318.88,-736 318.88,-736 312.88,-736 306.88,-730 306.88,-724 306.88,-724 306.88,-668 306.88,-668 306.88,-662 312.88,-656 318.88,-656 318.88,-656 385.12,-656 385.12,-656 391.12,-656 397.12,-662 397.12,-668 397.12,-668 397.12,-724 397.12,-724 397.12,-730 391.12,-736 385.12,-736"/>
<text text-anchor="middle" x="352" y="-722.5" font-family="Arial" font-size="10.00">wan</text>
<text text-anchor="middle" x="352" y="-710.5" font-family="Arial" font-size="10.00">(WAN)</text>
<text text-anchor="middle" x="352" y="-686.5" font-family="Arial" font-size="10.00">Zone: DMZ Zone</text>
<text text-anchor="middle" x="352" y="-674.5" font-family="Arial" font-size="10.00">Risk: Medium</text>
<text text-anchor="middle" x="352" y="-662.5" font-family="Arial" font-size="10.00">Type: Internet</text>
</g>
<!-- firewall&#45;&gt;net_wan -->
<g id="edge3" class="edge">
<title>firewall&#45;&gt;net_wan</title>
<path fill="none" stroke="#666666" stroke-width="2" d="M50,-408.46C50,-491.53 50,-696 50,-696 50,-696 293.11,-696 293.11,-696"/>
<polygon fill="#666666" stroke="#666666" stroke-width="2" points="293.11,-699.5 303.11,-696 293.11,-692.5 293.11,-699.5"/>
<text text-anchor="middle" x="189.5" y="-697.95" font-family="Arial" font-size="9.00">wan</text>
</g>
<!-- net_lan -->
<g id="node3" class="node">
<title>net_lan</title>
<path fill="#c8e6c9" stroke="#2e7d32" stroke-width="2" d="M405,-584C405,-584 299,-584 299,-584 293,-584 287,-578 287,-572 287,-572 287,-504 287,-504 287,-498 293,-492 299,-492 299,-492 405,-492 405,-492 411,-492 417,-498 417,-504 417,-504 417,-572 417,-572 417,-578 411,-584 405,-584"/>
<text text-anchor="middle" x="352" y="-570.5" font-family="Arial" font-size="10.00">lan</text>
<text text-anchor="middle" x="352" y="-558.5" font-family="Arial" font-size="10.00">10.30.0.2/24</text>
<text text-anchor="middle" x="352" y="-546.5" font-family="Arial" font-size="10.00">(site)</text>
<text text-anchor="middle" x="352" y="-522.5" font-family="Arial" font-size="10.00">Zone: Manufacturing Zone</text>
<text text-anchor="middle" x="352" y="-510.5" font-family="Arial" font-size="10.00">Risk: High</text>
<text text-anchor="middle" x="352" y="-498.5" font-family="Arial" font-size="10.00">Type: General</text>
</g>
<!-- firewall&#45;&gt;net_lan -->
<g id="edge4" class="edge">
<title>firewall&#45;&gt;net_lan</title>
<path fill="none" stroke="#666666" stroke-width="2" d="M93.26,-385.04C162.68,-385.04 291,-385.04 291,-385.04 291,-385.04 291,-478.25 291,-478.25"/>
<polygon fill="#666666" stroke="#666666" stroke-width="2" points="287.5,-478.25 291,-488.25 294.5,-478.25 287.5,-478.25"/>
<text text-anchor="middle" x="189.5" y="-550.45" font-family="Arial" font-size="9.00">lan</text>
<text text-anchor="middle" x="189.5" y="-539.95" font-family="Arial" font-size="9.00">10.30.0.2/24</text>
</g>
<!-- net_opt1 -->
<g id="node4" class="node">
<title>net_opt1</title>
<path fill="#e1bee7" stroke="#7b1fa2" stroke-width="2" d="M396.38,-420C396.38,-420 307.62,-420 307.62,-420 301.62,-420 295.62,-414 295.62,-408 295.62,-408 295.62,-340 295.62,-340 295.62,-334 301.62,-328 307.62,-328 307.62,-328 396.38,-328 396.38,-328 402.38,-328 408.38,-334 408.38,-340 408.38,-340 408.38,-408 408.38,-408 408.38,-414 402.38,-420 396.38,-420"/>
<text text-anchor="middle" x="352" y="-406.5" font-family="Arial" font-size="10.00">opt1</text>
<text text-anchor="middle" x="352" y="-394.5" font-family="Arial" font-size="10.00">10.10.0.2/24</text>
<text text-anchor="middle" x="352" y="-382.5" font-family="Arial" font-size="10.00">(corp)</text>
<text text-anchor="middle" x="352" y="-358.5" font-family="Arial" font-size="10.00">Zone: Enterprise Zone</text>
<text text-anchor="middle" x="352" y="-346.5" font-family="Arial" font-size="10.00">Risk: Low</text>
<text text-anchor="middle" x="352" y="-334.5" font-family="Arial" font-size="10.00">Type: General</text>
</g>
<!-- firewall&#45;&gt;net_opt1 -->
<g id="edge5" class="edge">
<title>firewall&#45;&gt;net_opt1</title>
<path fill="none" stroke="#666666" stroke-width="2" d="M93.48,-362.96C93.48,-362.96 281.69,-362.96 281.69,-362.96"/>
<polygon fill="#666666" stroke="#666666" stroke-width="2" points="281.69,-366.46 291.69,-362.96 281.69,-359.46 281.69,-366.46"/>
<text text-anchor="middle" x="189.5" y="-386.45" font-family="Arial" font-size="9.00">opt1</text>
<text text-anchor="middle" x="189.5" y="-375.95" font-family="Arial" font-size="9.00">10.10.0.2/24</text>
</g>
<!-- net_opt2 -->
<g id="node5" class="node">
<title>net_opt2</title>
<path fill="#ffe0b2" stroke="#f57c00" stroke-width="2" d="M385.12,-256C385.12,-256 318.88,-256 318.88,-256 312.88,-256 306.88,-250 306.88,-244 306.88,-244 306.88,-176 306.88,-176 306.88,-170 312.88,-164 318.88,-164 318.88,-164 385.12,-164 385.12,-164 391.12,-164 397.12,-170 397.12,-176 397.12,-176 397.12,-244 397.12,-244 397.12,-250 391.12,-256 385.12,-256"/>
<text text-anchor="middle" x="352" y="-242.5" font-family="Arial" font-size="10.00">opt2</text>
<text text-anchor="middle" x="352" y="-230.5" font-family="Arial" font-size="10.00">10.20.0.2/24</text>
<text text-anchor="middle" x="352" y="-218.5" font-family="Arial" font-size="10.00">(dmz)</text>
<text text-anchor="middle" x="352" y="-194.5" font-family="Arial" font-size="10.00">Zone: DMZ Zone</text>
<text text-anchor="middle" x="352" y="-182.5" font-family="Arial" font-size="10.00">Risk: Medium</text>
<text text-anchor="middle" x="352" y="-170.5" font-family="Arial" font-size="10.00">Type: DMZ</text>
</g>
<!-- firewall&#45;&gt;net_opt2 -->
<g id="edge1" class="edge">
<title>firewall&#45;&gt;net_opt2</title>
<path fill="none" stroke="#666666" stroke-width="2" d="M64,-339.62C64,-291.53 64,-210 64,-210 64,-210 293.02,-210 293.02,-210"/>
<polygon fill="#666666" stroke="#666666" stroke-width="2" points="293.02,-213.5 303.02,-210 293.02,-206.5 293.02,-213.5"/>
<text text-anchor="middle" x="189.5" y="-222.45" font-family="Arial" font-size="9.00">opt2</text>
<text text-anchor="middle" x="189.5" y="-211.95" font-family="Arial" font-size="9.00">10.20.0.2/24</text>
</g>
<!-- net_opt3 -->
<g id="node6" class="node">
<title>net_opt3</title>
<path fill="#e1bee7" stroke="#7b1fa2" stroke-width="2" d="M396.38,-92C396.38,-92 307.62,-92 307.62,-92 301.62,-92 295.62,-86 295.62,-80 295.62,-80 295.62,-12 295.62,-12 295.62,-6 301.62,0 307.62,0 307.62,0 396.38,0 396.38,0 402.38,0 408.38,-6 408.38,-12 408.38,-12 408.38,-80 408.38,-80 408.38,-86 402.38,-92 396.38,-92"/>
<text text-anchor="middle" x="352" y="-78.5" font-family="Arial" font-size="10.00">opt3</text>
<text text-anchor="middle" x="352" y="-66.5" font-family="Arial" font-size="10.00">10.40.0.2/24</text>
<text text-anchor="middle" x="352" y="-54.5" font-family="Arial" font-size="10.00">(cell)</text>
<text text-anchor="middle" x="352" y="-30.5" font-family="Arial" font-size="10.00">Zone: Enterprise Zone</text>
<text text-anchor="middle" x="352" y="-18.5" font-family="Arial" font-size="10.00">Risk: Low</text>
<text text-anchor="middle" x="352" y="-6.5" font-family="Arial" font-size="10.00">Type: General</text>
</g>
<!-- firewall&#45;&gt;net_opt3 -->
<g id="edge2" class="edge">
<title>firewall&#45;&gt;net_opt3</title>
<path fill="none" stroke="#666666" stroke-width="2" d="M36,-339.52C36,-255.31 36,-46 36,-46 36,-46 281.75,-46 281.75,-46"/>
<polygon fill="#666666" stroke="#666666" stroke-width="2" points="281.75,-49.5 291.75,-46 281.75,-42.5 281.75,-49.5"/>
<text text-anchor="middle" x="189.5" y="-58.45" font-family="Arial" font-size="9.00">opt3</text>
<text text-anchor="middle" x="189.5" y="-47.95" font-family="Arial" font-size="9.00">10.40.0.2/24</text>
</g>
</g>
</svg>
