<?xml version="1.0" encoding="UTF-8" standalone="no"?>
<!DOCTYPE svg PUBLIC "-//W3C//DTD SVG 1.1//EN"
 "http://www.w3.org/Graphics/SVG/1.1/DTD/svg11.dtd">
<!-- Generated by graphviz version 12.2.1 (20241206.2353)
 -->
<!-- Title: FirewallTopology Pages: 1 -->
<svg width="461pt" height="802pt"
 viewBox="0.00 0.00 460.75 801.50" xmlns="http://www.w3.org/2000/svg" xmlns:xlink="http://www.w3.org/1999/xlink">
<g id="graph0" class="graph" transform="scale(1 1) rotate(0) translate(4 797.5)">
<title>FirewallTopology</title>
<polygon fill="white" stroke="none" points="-4,4 -4,-797.5 456.75,-797.5 456.75,4 -4,4"/>
<text text-anchor="middle" x="226.38" y="-776.2" font-family="Times,serif" font-size="14.00">Firewall Network Topology</text>
<text text-anchor="middle" x="226.38" y="-759.7" font-family="Times,serif" font-size="14.00">/Users/tturner/Documents/config&#45;OPNsense.internal&#45;20251012003119.xml</text>
<text text-anchor="middle" x="226.38" y="-743.2" font-family="Times,serif" font-size="14.00">Generated: 2025&#45;10&#45;11 20:32:17</text>
<!-- firewall -->
<g id="node1" class="node">
<title>firewall</title>
<path fill="#e3f2fd" stroke="#1976d2" stroke-width="3" d="M94,-395.12C94,-395.12 33.75,-395.12 33.75,-395.12 27.75,-395.12 21.75,-389.12 21.75,-383.12 21.75,-383.12 21.75,-340.88 21.75,-340.88 21.75,-334.88 27.75,-328.88 33.75,-328.88 33.75,-328.88 94,-328.88 94,-328.88 100,-328.88 106,-334.88 106,-340.88 106,-340.88 106,-383.12 106,-383.12 106,-389.12 100,-395.12 94,-395.12"/>
<text text-anchor="middle" x="63.88" y="-379.73" font-family="Arial Bold" font-size="12.00">🔥 Firewall</text>
<text text-anchor="middle" x="63.88" y="-363.98" font-family="Arial Bold" font-size="12.00">(OPNsense)</text>
<text text-anchor="middle" x="63.88" y="-335.73" font-family="Arial Bold" font-size="12.00">Interfaces:</text>
</g>
<!-- net_opt1 -->
<g id="node2" class="node">
<title>net_opt1</title>
<path fill="#e1bee7" stroke="#7b1fa2" stroke-width="2" d="M432.12,-736C432.12,-736 343.38,-736 343.38,-736 337.38,-736 331.38,-730 331.38,-724 331.38,-724 331.38,-656 331.38,-656 331.38,-650 337.38,-644 343.38,-644 343.38,-644 432.12,-644 432.12,-644 438.12,-644 444.12,-650 444.12,-656 444.12,-656 444.12,-724 444.12,-724 444.12,-730 438.12,-736 432.12,-736"/>
<text text-anchor="middle" x="387.75" y="-722.5" font-family="Arial" font-size="10.00">opt1</text>
<text text-anchor="middle" x="387.75" y="-710.5" font-family="Arial" font-size="10.00">10.10.0.2/24</text>
<text text-anchor="middle" x="387.75" y="-698.5" font-family="Arial" font-size="10.00">(corp)</text>
<text text-anchor="middle" x="387.75" y="-674.5" font-family="Arial" font-size="10.00">Zone: Enterprise Zone</text>
<text text-anchor="middle" x="387.75" y="-662.5" font-family="Arial" font-size="10.00">Risk: Low</text>
<text text-anchor="middle" x="387.75" y="-650.5" font-family="Arial" font-size="10.00">Type: Corporate IT</text>
</g>
<!-- firewall&#45;&gt;net_opt1 -->
<g id="edge5" class="edge">
<title>firewall&#45;&gt;net_opt1</title>
<path fill="none" stroke="#666666" stroke-width="2" d="M63.75,-396.27C63.75,-416.28 63.75,-437.62 63.75,-437.62 63.75,-437.62 336.75,-437.62 336.75,-437.62 336.75,-437.62 336.75,-630.09 336.75,-630.09"/>
<polygon fill="#666666" stroke="#666666" stroke-width="2" points="333.25,-630.09 336.75,-640.09 340.25,-630.09 333.25,-630.09"/>
<text text-anchor="middle" x="225.25" y="-702.45" font-family="Arial" font-size="9.00">opt1</text>
<text text-anchor="middle" x="225.25" y="-691.95" font-family="Arial" font-size="9.00">10.10.0.2/24</text>
</g>
<!-- net_opt2 -->
<g id="node3" class="node">
<title>net_opt2</title>
<path fill="#ffe0b2" stroke="#f57c00" stroke-width="2" d="M420.88,-572C420.88,-572 354.62,-572 354.62,-572 348.62,-572 342.62,-566 342.62,-560 342.62,-560 342.62,-492 342.62,-492 342.62,-486 348.62,-480 354.62,-480 354.62,-480 420.88,-480 420.88,-480 426.88,-480 432.88,-486 432.88,-492 432.88,-492 432.88,-560 432.88,-560 432.88,-566 426.88,-572 420.88,-572"/>
<text text-anchor="middle" x="387.75" y="-558.5" font-family="Arial" font-size="10.00">opt2</text>
<text text-anchor="middle" x="387.75" y="-546.5" font-family="Arial" font-size="10.00">10.20.0.2/24</text>
<text text-anchor="middle" x="387.75" y="-534.5" font-family="Arial" font-size="10.00">(dmz)</text>
<text text-anchor="middle" x="387.75" y="-510.5" font-family="Arial" font-size="10.00">Zone: DMZ Zone</text>
<text text-anchor="middle" x="387.75" y="-498.5" font-family="Arial" font-size="10.00">Risk: Medium</text>
<text text-anchor="middle" x="387.75" y="-486.5" font-family="Arial" font-size="10.00">Type: DMZ</text>
</g>
<!-- firewall&#45;&gt;net_opt2 -->
<g id="edge1" class="edge">
<title>firewall&#45;&gt;net_opt2</title>
<path fill="none" stroke="#666666" stroke-width="2" d="M107.41,-373.04C155.05,-373.04 224.75,-373.04 224.75,-373.04 224.75,-373.04 224.75,-509.38 224.75,-509.38 224.75,-509.38 328.88,-509.38 328.88,-509.38"/>
<polygon fill="#666666" stroke="#666666" stroke-width="2" points="328.88,-512.88 338.88,-509.38 328.88,-505.88 328.88,-512.88"/>
<text text-anchor="middle" x="225.25" y="-538.45" font-family="Arial" font-size="9.00">opt2</text>
<text text-anchor="middle" x="225.25" y="-527.95" font-family="Arial" font-size="9.00">10.20.0.2/24</text>
</g>
<!-- net_opt3 -->
<g id="node4" class="node">
<title>net_opt3</title>
<path fill="#c8e6c9" stroke="#2e7d32" stroke-width="2" d="M440.75,-408C440.75,-408 334.75,-408 334.75,-408 328.75,-408 322.75,-402 322.75,-396 322.75,-396 322.75,-328 322.75,-328 322.75,-322 328.75,-316 334.75,-316 334.75,-316 440.75,-316 440.75,-316 446.75,-316 452.75,-322 452.75,-328 452.75,-328 452.75,-396 452.75,-396 452.75,-402 446.75,-408 440.75,-408"/>
<text text-anchor="middle" x="387.75" y="-394.5" font-family="Arial" font-size="10.00">opt3</text>
<text text-anchor="middle" x="387.75" y="-382.5" font-family="Arial" font-size="10.00">10.40.0.2/24</text>
<text text-anchor="middle" x="387.75" y="-370.5" font-family="Arial" font-size="10.00">(cell)</text>
<text text-anchor="middle" x="387.75" y="-346.5" font-family="Arial" font-size="10.00">Zone: Manufacturing Zone</text>
<text text-anchor="middle" x="387.75" y="-334.5" font-family="Arial" font-size="10.00">Risk: High</text>
<text text-anchor="middle" x="387.75" y="-322.5" font-family="Arial" font-size="10.00">Type: Production OT</text>
</g>
<!-- firewall&#45;&gt;net_opt3 -->
<g id="edge2" class="edge">
<title>firewall&#45;&gt;net_opt3</title>
<path fill="none" stroke="#666666" stroke-width="2" d="M107.22,-350.96C107.22,-350.96 308.93,-350.96 308.93,-350.96"/>
<polygon fill="#666666" stroke="#666666" stroke-width="2" points="308.93,-354.46 318.93,-350.96 308.93,-347.46 308.93,-354.46"/>
<text text-anchor="middle" x="225.25" y="-374.45" font-family="Arial" font-size="9.00">opt3</text>
<text text-anchor="middle" x="225.25" y="-363.95" font-family="Arial" font-size="9.00">10.40.0.2/24</text>
</g>
<!-- net_wan -->
<g id="node5" class="node">
<title>net_wan</title>
<path fill="#ffe0b2" stroke="#f57c00" stroke-width="2" d="M420.88,-244C420.88,-244 354.62,-244 354.62,-244 348.62,-244 342.62,-238 342.62,-232 342.62,-232 342.62,-176 342.62,-176 342.62,-170 348.62,-164 354.62,-164 354.62,-164 420.88,-164 420.88,-164 426.88,-164 432.88,-170 432.88,-176 432.88,-176 432.88,-232 432.88,-232 432.88,-238 426.88,-244 420.88,-244"/>
<text text-anchor="middle" x="387.75" y="-230.5" font-family="Arial" font-size="10.00">wan</text>
<text text-anchor="middle" x="387.75" y="-218.5" font-family="Arial" font-size="10.00">(WAN)</text>
<text text-anchor="middle" x="387.75" y="-194.5" font-family="Arial" font-size="10.00">Zone: DMZ Zone</text>
<text text-anchor="middle" x="387.75" y="-182.5" font-family="Arial" font-size="10.00">Risk: Medium</text>
<text text-anchor="middle" x="387.75" y="-170.5" font-family="Arial" font-size="10.00">Type: Internet</text>
</g>
<!-- firewall&#45;&gt;net_wan -->
<g id="edge3" class="edge">
<title>firewall&#45;&gt;net_wan</title>
<path fill="none" stroke="#666666" stroke-width="2" d="M77.75,-327.72C77.75,-281.25 77.75,-204 77.75,-204 77.75,-204 328.65,-204 328.65,-204"/>
<polygon fill="#666666" stroke="#666666" stroke-width="2" points="328.65,-207.5 338.65,-204 328.65,-200.5 328.65,-207.5"/>
<text text-anchor="middle" x="225.25" y="-205.95" font-family="Arial" font-size="9.00">wan</text>
</g>
<!-- net_lan -->
<g id="node6" class="node">
<title>net_lan</title>
<path fill="#c8e6c9" stroke="#2e7d32" stroke-width="2" d="M440.75,-92C440.75,-92 334.75,-92 334.75,-92 328.75,-92 322.75,-86 322.75,-80 322.75,-80 322.75,-12 322.75,-12 322.75,-6 328.75,0 334.75,0 334.75,0 440.75,0 440.75,0 446.75,0 452.75,-6 452.75,-12 452.75,-12 452.75,-80 452.75,-80 452.75,-86 446.75,-92 440.75,-92"/>
<text text-anchor="middle" x="387.75" y="-78.5" font-family="Arial" font-size="10.00">lan</text>
<text text-anchor="middle" x="387.75" y="-66.5" font-family="Arial" font-size="10.00">10.30.0.2/24</text>
<text text-anchor="middle" x="387.75" y="-54.5" font-family="Arial" font-size="10.00">(site)</text>
<text text-anchor="middle" x="387.75" y="-30.5" font-family="Arial" font-size="10.00">Zone: Manufacturing Zone</text>
<text text-anchor="middle" x="387.75" y="-18.5" font-family="Arial" font-size="10.00">Risk: High</text>
<text text-anchor="middle" x="387.75" y="-6.5" font-family="Arial" font-size="10.00">Type: Corporate IT</text>
</g>
<!-- firewall&#45;&gt;net_lan -->
<g id="edge4" class="edge">
<title>firewall&#45;&gt;net_lan</title>
<path fill="none" stroke="#666666" stroke-width="2" d="M49.75,-327.58C49.75,-245.68 49.75,-46 49.75,-46 49.75,-46 308.75,-46 308.75,-46"/>
<polygon fill="#666666" stroke="#666666" stroke-width="2" points="308.75,-49.5 318.75,-46 308.75,-42.5 308.75,-49.5"/>
<text text-anchor="middle" x="225.25" y="-58.45" font-family="Arial" font-size="9.00">lan</text>
<text text-anchor="middle" x="225.25" y="-47.95" font-family="Arial" font-size="9.00">10.30.0.2/24</text>
</g>
<!-- rules_summary -->
<g id="node7" class="node">
<title>rules_summary</title>
<polygon fill="#fff9c4" stroke="#f57f17" points="121.75,-538.75 0,-538.75 0,-467.25 127.75,-467.25 127.75,-532.75 121.75,-538.75"/>
<polyline fill="none" stroke="#f57f17" points="121.75,-538.75 121.75,-532.75"/>
<polyline fill="none" stroke="#f57f17" points="127.75,-532.75 121.75,-532.75"/>
<text text-anchor="middle" x="63.88" y="-526.2" font-family="Arial" font-size="9.00">🔒 Security Rules Summary</text>
<text text-anchor="middle" x="63.88" y="-494.2" font-family="Arial" font-size="9.00"> &#160;&#160;&#160;ALLOW: lan → any</text>
<text text-anchor="middle" x="63.88" y="-483.7" font-family="Arial" font-size="9.00"> &#160;&#160;&#160;ALLOW: lan → any</text>
<text text-anchor="middle" x="63.88" y="-473.2" font-family="Arial" font-size="9.00"> &#160;&#160;&#160;DENY: any → any</text>
</g>
</g>
</svg>
