<?xml version="1.0" encoding="UTF-8" standalone="no"?>
<!DOCTYPE svg PUBLIC "-//W3C//DTD SVG 1.1//EN"
 "http://www.w3.org/Graphics/SVG/1.1/DTD/svg11.dtd">
<!-- Generated by graphviz version 12.2.1 (20241206.2353)
 -->
<!-- Title: IEC62443Zones Pages: 1 -->
<svg width="998pt" height="153pt"
 viewBox="0.00 0.00 998.00 153.25" xmlns="http://www.w3.org/2000/svg" xmlns:xlink="http://www.w3.org/1999/xlink">
<g id="graph0" class="graph" transform="scale(1 1) rotate(0) translate(4 149.25)">
<title>IEC62443Zones</title>
<polygon fill="#f8f9fa" stroke="none" points="-4,4 -4,-149.25 994,-149.25 994,4 -4,4"/>
<text text-anchor="middle" x="495" y="-126.05" font-family="Arial Bold" font-size="16.00">IEC 62443 Zone &amp; Conduit Analysis</text>
<text text-anchor="middle" x="495" y="-107.3" font-family="Arial Bold" font-size="16.00">Firewall Configuration Analysis</text>
<g id="clust1" class="cluster">
<title>cluster_Enterprise_Zone</title>
<polygon fill="#4a148c" stroke="#4a148c" stroke-width="3" points="8,-8 8,-91.75 126,-91.75 126,-8 8,-8"/>
<text text-anchor="middle" x="67" y="-74.45" font-family="Arial Bold" font-size="14.00">Enterprise Zone</text>
</g>
<g id="clust2" class="cluster">
<title>cluster_DMZ_Zone</title>
<polygon fill="#e65100" stroke="#e65100" stroke-width="3" points="134,-8 134,-91.75 321,-91.75 321,-8 134,-8"/>
<text text-anchor="middle" x="227.5" y="-74.45" font-family="Arial Bold" font-size="14.00">DMZ Zone</text>
</g>
<g id="clust3" class="cluster">
<title>cluster_Manufacturing_Zone</title>
<polygon fill="#1b5e20" stroke="#1b5e20" stroke-width="3" points="329,-8 329,-91.75 503,-91.75 503,-8 329,-8"/>
<text text-anchor="middle" x="416" y="-74.45" font-family="Arial Bold" font-size="14.00">Manufacturing Zone</text>
</g>
<g id="clust4" class="cluster">
<title>cluster_iec_legend</title>
<polygon fill="#333333" stroke="#333333" points="511,-12 511,-86.25 982,-86.25 982,-12 511,-12"/>
<text text-anchor="middle" x="746.5" y="-70.85" font-family="Arial Bold" font-size="12.00">IEC 62443 Zones</text>
</g>
<!-- opt1 -->
<g id="node1" class="node">
<title>opt1</title>
<path fill="white" stroke="black" d="M90,-60C90,-60 44,-60 44,-60 38,-60 32,-54 32,-48 32,-48 32,-28 32,-28 32,-22 38,-16 44,-16 44,-16 90,-16 90,-16 96,-16 102,-22 102,-28 102,-28 102,-48 102,-48 102,-54 96,-60 90,-60"/>
<text text-anchor="middle" x="67" y="-46.5" font-family="Arial" font-size="10.00">opt1</text>
<text text-anchor="middle" x="67" y="-34.5" font-family="Arial" font-size="10.00">10.10.0.2/24</text>
<text text-anchor="middle" x="67" y="-22.5" font-family="Arial" font-size="10.00">Risk: Low</text>
</g>
<!-- opt2 -->
<g id="node2" class="node">
<title>opt2</title>
<path fill="white" stroke="black" d="M206.38,-60C206.38,-60 153.62,-60 153.62,-60 147.62,-60 141.62,-54 141.62,-48 141.62,-48 141.62,-28 141.62,-28 141.62,-22 147.62,-16 153.62,-16 153.62,-16 206.38,-16 206.38,-16 212.38,-16 218.38,-22 218.38,-28 218.38,-28 218.38,-48 218.38,-48 218.38,-54 212.38,-60 206.38,-60"/>
<text text-anchor="middle" x="180" y="-46.5" font-family="Arial" font-size="10.00">opt2</text>
<text text-anchor="middle" x="180" y="-34.5" font-family="Arial" font-size="10.00">10.20.0.2/24</text>
<text text-anchor="middle" x="180" y="-22.5" font-family="Arial" font-size="10.00">Risk: Medium</text>
</g>
<!-- wan -->
<g id="node3" class="node">
<title>wan</title>
<path fill="white" stroke="black" d="M301.38,-60C301.38,-60 248.62,-60 248.62,-60 242.62,-60 236.62,-54 236.62,-48 236.62,-48 236.62,-28 236.62,-28 236.62,-22 242.62,-16 248.62,-16 248.62,-16 301.38,-16 301.38,-16 307.38,-16 313.38,-22 313.38,-28 313.38,-28 313.38,-48 313.38,-48 313.38,-54 307.38,-60 301.38,-60"/>
<text text-anchor="middle" x="275" y="-46.5" font-family="Arial" font-size="10.00">wan</text>
<text text-anchor="middle" x="275" y="-22.5" font-family="Arial" font-size="10.00">Risk: Medium</text>
</g>
<!-- opt3 -->
<g id="node4" class="node">
<title>opt3</title>
<path fill="white" stroke="black" d="M395,-60C395,-60 349,-60 349,-60 343,-60 337,-54 337,-48 337,-48 337,-28 337,-28 337,-22 343,-16 349,-16 349,-16 395,-16 395,-16 401,-16 407,-22 407,-28 407,-28 407,-48 407,-48 407,-54 401,-60 395,-60"/>
<text text-anchor="middle" x="372" y="-46.5" font-family="Arial" font-size="10.00">opt3</text>
<text text-anchor="middle" x="372" y="-34.5" font-family="Arial" font-size="10.00">10.40.0.2/24</text>
<text text-anchor="middle" x="372" y="-22.5" font-family="Arial" font-size="10.00">Risk: High</text>
</g>
<!-- lan -->
<g id="node5" class="node">
<title>lan</title>
<path fill="white" stroke="black" d="M483,-60C483,-60 437,-60 437,-60 431,-60 425,-54 425,-48 425,-48 425,-28 425,-28 425,-22 431,-16 437,-16 437,-16 483,-16 483,-16 489,-16 495,-22 495,-28 495,-28 495,-48 495,-48 495,-54 489,-60 483,-60"/>
<text text-anchor="middle" x="460" y="-46.5" font-family="Arial" font-size="10.00">lan</text>
<text text-anchor="middle" x="460" y="-34.5" font-family="Arial" font-size="10.00">10.30.0.2/24</text>
<text text-anchor="middle" x="460" y="-22.5" font-family="Arial" font-size="10.00">Risk: High</text>
</g>
<!-- mfg_zone -->
<g id="node6" class="node">
<title>mfg_zone</title>
<path fill="#c8e6c9" stroke="black" d="M609.12,-56C609.12,-56 530.88,-56 530.88,-56 524.88,-56 518.88,-50 518.88,-44 518.88,-44 518.88,-32 518.88,-32 518.88,-26 524.88,-20 530.88,-20 530.88,-20 609.12,-20 609.12,-20 615.12,-20 621.12,-26 621.12,-32 621.12,-32 621.12,-44 621.12,-44 621.12,-50 615.12,-56 609.12,-56"/>
<text text-anchor="middle" x="570" y="-40.5" font-family="Arial" font-size="10.00">Manufacturing Zone</text>
<text text-anchor="middle" x="570" y="-28.5" font-family="Arial" font-size="10.00">(Level 0&#45;2)</text>
</g>
<!-- dmz_zone -->
<g id="node7" class="node">
<title>dmz_zone</title>
<path fill="#ffe0b2" stroke="black" d="M730.88,-56C730.88,-56 651.12,-56 651.12,-56 645.12,-56 639.12,-50 639.12,-44 639.12,-44 639.12,-32 639.12,-32 639.12,-26 645.12,-20 651.12,-20 651.12,-20 730.88,-20 730.88,-20 736.88,-20 742.88,-26 742.88,-32 742.88,-32 742.88,-44 742.88,-44 742.88,-50 736.88,-56 730.88,-56"/>
<text text-anchor="middle" x="691" y="-40.5" font-family="Arial" font-size="10.00">DMZ Zone</text>
<text text-anchor="middle" x="691" y="-28.5" font-family="Arial" font-size="10.00">(Network Perimeter)</text>
</g>
<!-- ent_zone -->
<g id="node8" class="node">
<title>ent_zone</title>
<path fill="#e1bee7" stroke="black" d="M833.5,-56C833.5,-56 772.5,-56 772.5,-56 766.5,-56 760.5,-50 760.5,-44 760.5,-44 760.5,-32 760.5,-32 760.5,-26 766.5,-20 772.5,-20 772.5,-20 833.5,-20 833.5,-20 839.5,-20 845.5,-26 845.5,-32 845.5,-32 845.5,-44 845.5,-44 845.5,-50 839.5,-56 833.5,-56"/>
<text text-anchor="middle" x="803" y="-40.5" font-family="Arial" font-size="10.00">Enterprise Zone</text>
<text text-anchor="middle" x="803" y="-28.5" font-family="Arial" font-size="10.00">(Level 3&#45;5)</text>
</g>
<!-- remote_zone -->
<g id="node9" class="node">
<title>remote_zone</title>
<path fill="#b3e5fc" stroke="black" d="M962.25,-56C962.25,-56 875.75,-56 875.75,-56 869.75,-56 863.75,-50 863.75,-44 863.75,-44 863.75,-32 863.75,-32 863.75,-26 869.75,-20 875.75,-20 875.75,-20 962.25,-20 962.25,-20 968.25,-20 974.25,-26 974.25,-32 974.25,-32 974.25,-44 974.25,-44 974.25,-50 968.25,-56 962.25,-56"/>
<text text-anchor="middle" x="919" y="-40.5" font-family="Arial" font-size="10.00">Remote Access Zone</text>
<text text-anchor="middle" x="919" y="-28.5" font-family="Arial" font-size="10.00">(VPN/Remote)</text>
</g>
</g>
</svg>
