<?xml version="1.0" encoding="UTF-8" standalone="no"?>
<!DOCTYPE svg PUBLIC "-//W3C//DTD SVG 1.1//EN"
 "http://www.w3.org/Graphics/SVG/1.1/DTD/svg11.dtd">
<!-- Generated by graphviz version 12.2.1 (20241206.2353)
 -->
<!-- Title: IEC62443Zones Pages: 1 -->
<svg width="1025pt" height="153pt"
 viewBox="0.00 0.00 1025.00 153.25" xmlns="http://www.w3.org/2000/svg" xmlns:xlink="http://www.w3.org/1999/xlink">
<g id="graph0" class="graph" transform="scale(1 1) rotate(0) translate(4 149.25)">
<title>IEC62443Zones</title>
<polygon fill="#f8f9fa" stroke="none" points="-4,4 -4,-149.25 1021,-149.25 1021,4 -4,4"/>
<text text-anchor="middle" x="508.5" y="-126.05" font-family="Arial Bold" font-size="16.00">IEC 62443 Zone &amp; Conduit Analysis</text>
<text text-anchor="middle" x="508.5" y="-107.3" font-family="Arial Bold" font-size="16.00">Firewall Configuration Analysis</text>
<g id="clust1" class="cluster">
<title>cluster_DMZ_Zone</title>
<polygon fill="#e65100" stroke="#e65100" stroke-width="3" points="8,-8 8,-91.75 195,-91.75 195,-8 8,-8"/>
<text text-anchor="middle" x="101.5" y="-74.45" font-family="Arial Bold" font-size="14.00">DMZ Zone</text>
</g>
<g id="clust2" class="cluster">
<title>cluster_Manufacturing_Zone</title>
<polygon fill="#1b5e20" stroke="#1b5e20" stroke-width="3" points="203,-8 203,-91.75 348,-91.75 348,-8 203,-8"/>
<text text-anchor="middle" x="275.5" y="-74.45" font-family="Arial Bold" font-size="14.00">Manufacturing Zone</text>
</g>
<g id="clust3" class="cluster">
<title>cluster_Enterprise_Zone</title>
<polygon fill="#4a148c" stroke="#4a148c" stroke-width="3" points="356,-8 356,-91.75 530,-91.75 530,-8 356,-8"/>
<text text-anchor="middle" x="443" y="-74.45" font-family="Arial Bold" font-size="14.00">Enterprise Zone</text>
</g>
<g id="clust4" class="cluster">
<title>cluster_iec_legend</title>
<polygon fill="#333333" stroke="#333333" points="538,-12 538,-86.25 1009,-86.25 1009,-12 538,-12"/>
<text text-anchor="middle" x="773.5" y="-70.85" font-family="Arial Bold" font-size="12.00">IEC 62443 Zones</text>
</g>
<!-- opt2 -->
<g id="node1" class="node">
<title>opt2</title>
<path fill="white" stroke="black" d="M80.38,-60C80.38,-60 27.62,-60 27.62,-60 21.63,-60 15.62,-54 15.62,-48 15.62,-48 15.62,-28 15.62,-28 15.62,-22 21.62,-16 27.62,-16 27.62,-16 80.38,-16 80.38,-16 86.38,-16 92.38,-22 92.38,-28 92.38,-28 92.38,-48 92.38,-48 92.38,-54 86.38,-60 80.38,-60"/>
<text text-anchor="middle" x="54" y="-46.5" font-family="Arial" font-size="10.00">opt2</text>
<text text-anchor="middle" x="54" y="-34.5" font-family="Arial" font-size="10.00">10.20.0.2/24</text>
<text text-anchor="middle" x="54" y="-22.5" font-family="Arial" font-size="10.00">Risk: Medium</text>
</g>
<!-- wan -->
<g id="node2" class="node">
<title>wan</title>
<path fill="white" stroke="black" d="M175.38,-60C175.38,-60 122.62,-60 122.62,-60 116.62,-60 110.62,-54 110.62,-48 110.62,-48 110.62,-28 110.62,-28 110.62,-22 116.62,-16 122.62,-16 122.62,-16 175.38,-16 175.38,-16 181.38,-16 187.38,-22 187.38,-28 187.38,-28 187.38,-48 187.38,-48 187.38,-54 181.38,-60 175.38,-60"/>
<text text-anchor="middle" x="149" y="-46.5" font-family="Arial" font-size="10.00">wan</text>
<text text-anchor="middle" x="149" y="-22.5" font-family="Arial" font-size="10.00">Risk: Medium</text>
</g>
<!-- lan -->
<g id="node3" class="node">
<title>lan</title>
<path fill="white" stroke="black" d="M298,-60C298,-60 252,-60 252,-60 246,-60 240,-54 240,-48 240,-48 240,-28 240,-28 240,-22 246,-16 252,-16 252,-16 298,-16 298,-16 304,-16 310,-22 310,-28 310,-28 310,-48 310,-48 310,-54 304,-60 298,-60"/>
<text text-anchor="middle" x="275" y="-46.5" font-family="Arial" font-size="10.00">lan</text>
<text text-anchor="middle" x="275" y="-34.5" font-family="Arial" font-size="10.00">10.30.0.2/24</text>
<text text-anchor="middle" x="275" y="-22.5" font-family="Arial" font-size="10.00">Risk: High</text>
</g>
<!-- opt1 -->
<g id="node4" class="node">
<title>opt1</title>
<path fill="white" stroke="black" d="M422,-60C422,-60 376,-60 376,-60 370,-60 364,-54 364,-48 364,-48 364,-28 364,-28 364,-22 370,-16 376,-16 376,-16 422,-16 422,-16 428,-16 434,-22 434,-28 434,-28 434,-48 434,-48 434,-54 428,-60 422,-60"/>
<text text-anchor="middle" x="399" y="-46.5" font-family="Arial" font-size="10.00">opt1</text>
<text text-anchor="middle" x="399" y="-34.5" font-family="Arial" font-size="10.00">10.10.0.2/24</text>
<text text-anchor="middle" x="399" y="-22.5" font-family="Arial" font-size="10.00">Risk: Low</text>
</g>
<!-- opt3 -->
<g id="node5" class="node">
<title>opt3</title>
<path fill="white" stroke="black" d="M510,-60C510,-60 464,-60 464,-60 458,-60 452,-54 452,-48 452,-48 452,-28 452,-28 452,-22 458,-16 464,-16 464,-16 510,-16 510,-16 516,-16 522,-22 522,-28 522,-28 522,-48 522,-48 522,-54 516,-60 510,-60"/>
<text text-anchor="middle" x="487" y="-46.5" font-family="Arial" font-size="10.00">opt3</text>
<text text-anchor="middle" x="487" y="-34.5" font-family="Arial" font-size="10.00">10.40.0.2/24</text>
<text text-anchor="middle" x="487" y="-22.5" font-family="Arial" font-size="10.00">Risk: Low</text>
</g>
<!-- mfg_zone -->
<g id="node6" class="node">
<title>mfg_zone</title>
<path fill="#c8e6c9" stroke="black" d="M636.12,-56C636.12,-56 557.88,-56 557.88,-56 551.88,-56 545.88,-50 545.88,-44 545.88,-44 545.88,-32 545.88,-32 545.88,-26 551.88,-20 557.88,-20 557.88,-20 636.12,-20 636.12,-20 642.12,-20 648.12,-26 648.12,-32 648.12,-32 648.12,-44 648.12,-44 648.12,-50 642.12,-56 636.12,-56"/>
<text text-anchor="middle" x="597" y="-40.5" font-family="Arial" font-size="10.00">Manufacturing Zone</text>
<text text-anchor="middle" x="597" y="-28.5" font-family="Arial" font-size="10.00">(Level 0&#45;2)</text>
</g>
<!-- dmz_zone -->
<g id="node7" class="node">
<title>dmz_zone</title>
<path fill="#ffe0b2" stroke="black" d="M757.88,-56C757.88,-56 678.12,-56 678.12,-56 672.12,-56 666.12,-50 666.12,-44 666.12,-44 666.12,-32 666.12,-32 666.12,-26 672.12,-20 678.12,-20 678.12,-20 757.88,-20 757.88,-20 763.88,-20 769.88,-26 769.88,-32 769.88,-32 769.88,-44 769.88,-44 769.88,-50 763.88,-56 757.88,-56"/>
<text text-anchor="middle" x="718" y="-40.5" font-family="Arial" font-size="10.00">DMZ Zone</text>
<text text-anchor="middle" x="718" y="-28.5" font-family="Arial" font-size="10.00">(Network Perimeter)</text>
</g>
<!-- ent_zone -->
<g id="node8" class="node">
<title>ent_zone</title>
<path fill="#e1bee7" stroke="black" d="M860.5,-56C860.5,-56 799.5,-56 799.5,-56 793.5,-56 787.5,-50 787.5,-44 787.5,-44 787.5,-32 787.5,-32 787.5,-26 793.5,-20 799.5,-20 799.5,-20 860.5,-20 860.5,-20 866.5,-20 872.5,-26 872.5,-32 872.5,-32 872.5,-44 872.5,-44 872.5,-50 866.5,-56 860.5,-56"/>
<text text-anchor="middle" x="830" y="-40.5" font-family="Arial" font-size="10.00">Enterprise Zone</text>
<text text-anchor="middle" x="830" y="-28.5" font-family="Arial" font-size="10.00">(Level 3&#45;5)</text>
</g>
<!-- remote_zone -->
<g id="node9" class="node">
<title>remote_zone</title>
<path fill="#b3e5fc" stroke="black" d="M989.25,-56C989.25,-56 902.75,-56 902.75,-56 896.75,-56 890.75,-50 890.75,-44 890.75,-44 890.75,-32 890.75,-32 890.75,-26 896.75,-20 902.75,-20 902.75,-20 989.25,-20 989.25,-20 995.25,-20 1001.25,-26 1001.25,-32 1001.25,-32 1001.25,-44 1001.25,-44 1001.25,-50 995.25,-56 989.25,-56"/>
<text text-anchor="middle" x="946" y="-40.5" font-family="Arial" font-size="10.00">Remote Access Zone</text>
<text text-anchor="middle" x="946" y="-28.5" font-family="Arial" font-size="10.00">(VPN/Remote)</text>
</g>
</g>
</svg>
