<?xml version="1.0" encoding="UTF-8" standalone="no"?>
<!DOCTYPE svg PUBLIC "-//W3C//DTD SVG 1.1//EN"
 "http://www.w3.org/Graphics/SVG/1.1/DTD/svg11.dtd">
<!-- Generated by graphviz version 12.2.1 (20241206.2353)
 -->
<!-- Title: IEC62443Zones Pages: 1 -->
<svg width="979pt" height="153pt"
 viewBox="0.00 0.00 979.00 153.25" xmlns="http://www.w3.org/2000/svg" xmlns:xlink="http://www.w3.org/1999/xlink">
<g id="graph0" class="graph" transform="scale(1 1) rotate(0) translate(4 149.25)">
<title>IEC62443Zones</title>
<polygon fill="#f8f9fa" stroke="none" points="-4,4 -4,-149.25 975,-149.25 975,4 -4,4"/>
<text text-anchor="middle" x="485.5" y="-126.05" font-family="Arial Bold" font-size="16.00">IEC 62443 Zone &amp; Conduit Analysis</text>
<text text-anchor="middle" x="485.5" y="-107.3" font-family="Arial Bold" font-size="16.00">Firewall Configuration Analysis</text>
<g id="clust1" class="cluster">
<title>cluster_Manufacturing_Zone</title>
<polygon fill="#1b5e20" stroke="#1b5e20" stroke-width="3" points="8,-8 8,-91.75 358,-91.75 358,-8 8,-8"/>
<text text-anchor="middle" x="183" y="-74.45" font-family="Arial Bold" font-size="14.00">Manufacturing Zone</text>
</g>
<g id="clust2" class="cluster">
<title>cluster_Enterprise_Zone</title>
<polygon fill="#4a148c" stroke="#4a148c" stroke-width="3" points="366,-8 366,-91.75 484,-91.75 484,-8 366,-8"/>
<text text-anchor="middle" x="425" y="-74.45" font-family="Arial Bold" font-size="14.00">Enterprise Zone</text>
</g>
<g id="clust3" class="cluster">
<title>cluster_iec_legend</title>
<polygon fill="#333333" stroke="#333333" points="492,-12 492,-86.25 963,-86.25 963,-12 492,-12"/>
<text text-anchor="middle" x="727.5" y="-70.85" font-family="Arial Bold" font-size="12.00">IEC 62443 Zones</text>
</g>
<!-- opt3 -->
<g id="node1" class="node">
<title>opt3</title>
<path fill="white" stroke="black" d="M74,-60C74,-60 28,-60 28,-60 22,-60 16,-54 16,-48 16,-48 16,-28 16,-28 16,-22 22,-16 28,-16 28,-16 74,-16 74,-16 80,-16 86,-22 86,-28 86,-28 86,-48 86,-48 86,-54 80,-60 74,-60"/>
<text text-anchor="middle" x="51" y="-46.5" font-family="Arial" font-size="10.00">opt3</text>
<text text-anchor="middle" x="51" y="-34.5" font-family="Arial" font-size="10.00">10.40.0.1/24</text>
<text text-anchor="middle" x="51" y="-22.5" font-family="Arial" font-size="10.00">Risk: High</text>
</g>
<!-- opt5 -->
<g id="node2" class="node">
<title>opt5</title>
<path fill="white" stroke="black" d="M162,-60C162,-60 116,-60 116,-60 110,-60 104,-54 104,-48 104,-48 104,-28 104,-28 104,-22 110,-16 116,-16 116,-16 162,-16 162,-16 168,-16 174,-22 174,-28 174,-28 174,-48 174,-48 174,-54 168,-60 162,-60"/>
<text text-anchor="middle" x="139" y="-46.5" font-family="Arial" font-size="10.00">opt5</text>
<text text-anchor="middle" x="139" y="-34.5" font-family="Arial" font-size="10.00">10.60.0.1/24</text>
<text text-anchor="middle" x="139" y="-22.5" font-family="Arial" font-size="10.00">Risk: High</text>
</g>
<!-- opt1 -->
<g id="node3" class="node">
<title>opt1</title>
<path fill="white" stroke="black" d="M250,-60C250,-60 204,-60 204,-60 198,-60 192,-54 192,-48 192,-48 192,-28 192,-28 192,-22 198,-16 204,-16 204,-16 250,-16 250,-16 256,-16 262,-22 262,-28 262,-28 262,-48 262,-48 262,-54 256,-60 250,-60"/>
<text text-anchor="middle" x="227" y="-46.5" font-family="Arial" font-size="10.00">opt1</text>
<text text-anchor="middle" x="227" y="-34.5" font-family="Arial" font-size="10.00">10.20.0.1/24</text>
<text text-anchor="middle" x="227" y="-22.5" font-family="Arial" font-size="10.00">Risk: High</text>
</g>
<!-- opt2 -->
<g id="node4" class="node">
<title>opt2</title>
<path fill="white" stroke="black" d="M338,-60C338,-60 292,-60 292,-60 286,-60 280,-54 280,-48 280,-48 280,-28 280,-28 280,-22 286,-16 292,-16 292,-16 338,-16 338,-16 344,-16 350,-22 350,-28 350,-28 350,-48 350,-48 350,-54 344,-60 338,-60"/>
<text text-anchor="middle" x="315" y="-46.5" font-family="Arial" font-size="10.00">opt2</text>
<text text-anchor="middle" x="315" y="-34.5" font-family="Arial" font-size="10.00">10.30.0.1/24</text>
<text text-anchor="middle" x="315" y="-22.5" font-family="Arial" font-size="10.00">Risk: High</text>
</g>
<!-- opt4 -->
<g id="node5" class="node">
<title>opt4</title>
<path fill="white" stroke="black" d="M448,-60C448,-60 402,-60 402,-60 396,-60 390,-54 390,-48 390,-48 390,-28 390,-28 390,-22 396,-16 402,-16 402,-16 448,-16 448,-16 454,-16 460,-22 460,-28 460,-28 460,-48 460,-48 460,-54 454,-60 448,-60"/>
<text text-anchor="middle" x="425" y="-46.5" font-family="Arial" font-size="10.00">opt4</text>
<text text-anchor="middle" x="425" y="-34.5" font-family="Arial" font-size="10.00">10.50.0.1/24</text>
<text text-anchor="middle" x="425" y="-22.5" font-family="Arial" font-size="10.00">Risk: Low</text>
</g>
<!-- mfg_zone -->
<g id="node6" class="node">
<title>mfg_zone</title>
<path fill="#c8e6c9" stroke="black" d="M590.12,-56C590.12,-56 511.88,-56 511.88,-56 505.88,-56 499.88,-50 499.88,-44 499.88,-44 499.88,-32 499.88,-32 499.88,-26 505.88,-20 511.88,-20 511.88,-20 590.12,-20 590.12,-20 596.12,-20 602.12,-26 602.12,-32 602.12,-32 602.12,-44 602.12,-44 602.12,-50 596.12,-56 590.12,-56"/>
<text text-anchor="middle" x="551" y="-40.5" font-family="Arial" font-size="10.00">Manufacturing Zone</text>
<text text-anchor="middle" x="551" y="-28.5" font-family="Arial" font-size="10.00">(Level 0&#45;2)</text>
</g>
<!-- dmz_zone -->
<g id="node7" class="node">
<title>dmz_zone</title>
<path fill="#ffe0b2" stroke="black" d="M711.88,-56C711.88,-56 632.12,-56 632.12,-56 626.12,-56 620.12,-50 620.12,-44 620.12,-44 620.12,-32 620.12,-32 620.12,-26 626.12,-20 632.12,-20 632.12,-20 711.88,-20 711.88,-20 717.88,-20 723.88,-26 723.88,-32 723.88,-32 723.88,-44 723.88,-44 723.88,-50 717.88,-56 711.88,-56"/>
<text text-anchor="middle" x="672" y="-40.5" font-family="Arial" font-size="10.00">DMZ Zone</text>
<text text-anchor="middle" x="672" y="-28.5" font-family="Arial" font-size="10.00">(Network Perimeter)</text>
</g>
<!-- ent_zone -->
<g id="node8" class="node">
<title>ent_zone</title>
<path fill="#e1bee7" stroke="black" d="M814.5,-56C814.5,-56 753.5,-56 753.5,-56 747.5,-56 741.5,-50 741.5,-44 741.5,-44 741.5,-32 741.5,-32 741.5,-26 747.5,-20 753.5,-20 753.5,-20 814.5,-20 814.5,-20 820.5,-20 826.5,-26 826.5,-32 826.5,-32 826.5,-44 826.5,-44 826.5,-50 820.5,-56 814.5,-56"/>
<text text-anchor="middle" x="784" y="-40.5" font-family="Arial" font-size="10.00">Enterprise Zone</text>
<text text-anchor="middle" x="784" y="-28.5" font-family="Arial" font-size="10.00">(Level 3&#45;5)</text>
</g>
<!-- remote_zone -->
<g id="node9" class="node">
<title>remote_zone</title>
<path fill="#b3e5fc" stroke="black" d="M943.25,-56C943.25,-56 856.75,-56 856.75,-56 850.75,-56 844.75,-50 844.75,-44 844.75,-44 844.75,-32 844.75,-32 844.75,-26 850.75,-20 856.75,-20 856.75,-20 943.25,-20 943.25,-20 949.25,-20 955.25,-26 955.25,-32 955.25,-32 955.25,-44 955.25,-44 955.25,-50 949.25,-56 943.25,-56"/>
<text text-anchor="middle" x="900" y="-40.5" font-family="Arial" font-size="10.00">Remote Access Zone</text>
<text text-anchor="middle" x="900" y="-28.5" font-family="Arial" font-size="10.00">(VPN/Remote)</text>
</g>
</g>
</svg>
