<?xml version="1.0" encoding="UTF-8" standalone="no"?>
<!DOCTYPE svg PUBLIC "-//W3C//DTD SVG 1.1//EN"
 "http://www.w3.org/Graphics/SVG/1.1/DTD/svg11.dtd">
<!-- Generated by graphviz version 12.2.1 (20241206.2353)
 -->
<!-- Title: IEC62443Zones Pages: 1 -->
<svg width="908pt" height="153pt"
 viewBox="0.00 0.00 908.00 153.25" xmlns="http://www.w3.org/2000/svg" xmlns:xlink="http://www.w3.org/1999/xlink">
<g id="graph0" class="graph" transform="scale(1 1) rotate(0) translate(4 149.25)">
<title>IEC62443Zones</title>
<polygon fill="#f8f9fa" stroke="none" points="-4,4 -4,-149.25 904,-149.25 904,4 -4,4"/>
<text text-anchor="middle" x="450" y="-126.05" font-family="Arial Bold" font-size="16.00">IEC 62443 Zone &amp; Conduit Analysis</text>
<text text-anchor="middle" x="450" y="-107.3" font-family="Arial Bold" font-size="16.00">Firewall Configuration Analysis</text>
<g id="clust1" class="cluster">
<title>cluster_DMZ_Zone</title>
<polygon fill="#e65100" stroke="#e65100" stroke-width="3" points="8,-8 8,-91.75 100,-91.75 100,-8 8,-8"/>
<text text-anchor="middle" x="54" y="-74.45" font-family="Arial Bold" font-size="14.00">DMZ Zone</text>
</g>
<g id="clust2" class="cluster">
<title>cluster_Remote_Access_Zone</title>
<polygon fill="#01579b" stroke="#01579b" stroke-width="3" points="108,-8 108,-91.75 260,-91.75 260,-8 108,-8"/>
<text text-anchor="middle" x="184" y="-74.45" font-family="Arial Bold" font-size="14.00">Remote Access Zone</text>
</g>
<g id="clust3" class="cluster">
<title>cluster_Manufacturing_Zone</title>
<polygon fill="#1b5e20" stroke="#1b5e20" stroke-width="3" points="268,-8 268,-91.75 413,-91.75 413,-8 268,-8"/>
<text text-anchor="middle" x="340.5" y="-74.45" font-family="Arial Bold" font-size="14.00">Manufacturing Zone</text>
</g>
<g id="clust4" class="cluster">
<title>cluster_iec_legend</title>
<polygon fill="#333333" stroke="#333333" points="421,-12 421,-86.25 892,-86.25 892,-12 421,-12"/>
<text text-anchor="middle" x="656.5" y="-70.85" font-family="Arial Bold" font-size="12.00">IEC 62443 Zones</text>
</g>
<!-- wan -->
<g id="node1" class="node">
<title>wan</title>
<path fill="white" stroke="black" d="M80.38,-60C80.38,-60 27.62,-60 27.62,-60 21.63,-60 15.62,-54 15.62,-48 15.62,-48 15.62,-28 15.62,-28 15.62,-22 21.62,-16 27.62,-16 27.62,-16 80.38,-16 80.38,-16 86.38,-16 92.38,-22 92.38,-28 92.38,-28 92.38,-48 92.38,-48 92.38,-54 86.38,-60 80.38,-60"/>
<text text-anchor="middle" x="54" y="-46.5" font-family="Arial" font-size="10.00">wan</text>
<text text-anchor="middle" x="54" y="-22.5" font-family="Arial" font-size="10.00">Risk: Medium</text>
</g>
<!-- opt5 -->
<g id="node2" class="node">
<title>opt5</title>
<path fill="white" stroke="black" d="M202.12,-60C202.12,-60 165.88,-60 165.88,-60 159.88,-60 153.88,-54 153.88,-48 153.88,-48 153.88,-28 153.88,-28 153.88,-22 159.88,-16 165.88,-16 165.88,-16 202.12,-16 202.12,-16 208.12,-16 214.12,-22 214.12,-28 214.12,-28 214.12,-48 214.12,-48 214.12,-54 208.12,-60 202.12,-60"/>
<text text-anchor="middle" x="184" y="-46.5" font-family="Arial" font-size="10.00">opt5</text>
<text text-anchor="middle" x="184" y="-22.5" font-family="Arial" font-size="10.00">Risk: Low</text>
</g>
<!-- lan -->
<g id="node3" class="node">
<title>lan</title>
<path fill="white" stroke="black" d="M368.25,-60C368.25,-60 311.75,-60 311.75,-60 305.75,-60 299.75,-54 299.75,-48 299.75,-48 299.75,-28 299.75,-28 299.75,-22 305.75,-16 311.75,-16 311.75,-16 368.25,-16 368.25,-16 374.25,-16 380.25,-22 380.25,-28 380.25,-28 380.25,-48 380.25,-48 380.25,-54 374.25,-60 368.25,-60"/>
<text text-anchor="middle" x="340" y="-46.5" font-family="Arial" font-size="10.00">lan</text>
<text text-anchor="middle" x="340" y="-34.5" font-family="Arial" font-size="10.00">192.168.1.1/24</text>
<text text-anchor="middle" x="340" y="-22.5" font-family="Arial" font-size="10.00">Risk: High</text>
</g>
<!-- mfg_zone -->
<g id="node4" class="node">
<title>mfg_zone</title>
<path fill="#c8e6c9" stroke="black" d="M519.12,-56C519.12,-56 440.88,-56 440.88,-56 434.88,-56 428.88,-50 428.88,-44 428.88,-44 428.88,-32 428.88,-32 428.88,-26 434.88,-20 440.88,-20 440.88,-20 519.12,-20 519.12,-20 525.12,-20 531.12,-26 531.12,-32 531.12,-32 531.12,-44 531.12,-44 531.12,-50 525.12,-56 519.12,-56"/>
<text text-anchor="middle" x="480" y="-40.5" font-family="Arial" font-size="10.00">Manufacturing Zone</text>
<text text-anchor="middle" x="480" y="-28.5" font-family="Arial" font-size="10.00">(Level 0&#45;2)</text>
</g>
<!-- dmz_zone -->
<g id="node5" class="node">
<title>dmz_zone</title>
<path fill="#ffe0b2" stroke="black" d="M640.88,-56C640.88,-56 561.12,-56 561.12,-56 555.12,-56 549.12,-50 549.12,-44 549.12,-44 549.12,-32 549.12,-32 549.12,-26 555.12,-20 561.12,-20 561.12,-20 640.88,-20 640.88,-20 646.88,-20 652.88,-26 652.88,-32 652.88,-32 652.88,-44 652.88,-44 652.88,-50 646.88,-56 640.88,-56"/>
<text text-anchor="middle" x="601" y="-40.5" font-family="Arial" font-size="10.00">DMZ Zone</text>
<text text-anchor="middle" x="601" y="-28.5" font-family="Arial" font-size="10.00">(Network Perimeter)</text>
</g>
<!-- ent_zone -->
<g id="node6" class="node">
<title>ent_zone</title>
<path fill="#e1bee7" stroke="black" d="M743.5,-56C743.5,-56 682.5,-56 682.5,-56 676.5,-56 670.5,-50 670.5,-44 670.5,-44 670.5,-32 670.5,-32 670.5,-26 676.5,-20 682.5,-20 682.5,-20 743.5,-20 743.5,-20 749.5,-20 755.5,-26 755.5,-32 755.5,-32 755.5,-44 755.5,-44 755.5,-50 749.5,-56 743.5,-56"/>
<text text-anchor="middle" x="713" y="-40.5" font-family="Arial" font-size="10.00">Enterprise Zone</text>
<text text-anchor="middle" x="713" y="-28.5" font-family="Arial" font-size="10.00">(Level 3&#45;5)</text>
</g>
<!-- remote_zone -->
<g id="node7" class="node">
<title>remote_zone</title>
<path fill="#b3e5fc" stroke="black" d="M872.25,-56C872.25,-56 785.75,-56 785.75,-56 779.75,-56 773.75,-50 773.75,-44 773.75,-44 773.75,-32 773.75,-32 773.75,-26 779.75,-20 785.75,-20 785.75,-20 872.25,-20 872.25,-20 878.25,-20 884.25,-26 884.25,-32 884.25,-32 884.25,-44 884.25,-44 884.25,-50 878.25,-56 872.25,-56"/>
<text text-anchor="middle" x="829" y="-40.5" font-family="Arial" font-size="10.00">Remote Access Zone</text>
<text text-anchor="middle" x="829" y="-28.5" font-family="Arial" font-size="10.00">(VPN/Remote)</text>
</g>
</g>
</svg>
